<svg width="1080" height="834" viewBox="0 0 1080 834" fill="none" xmlns="http://www.w3.org/2000/svg">
<path d="M238.03 446.56H242.03V506.56H238.03V446.56Z" fill="#303A3F"/>
<path d="M238.03 446.56H242.03V506.56H238.03V446.56Z" fill="url(#paint0_linear_559_3892)"/>
<path d="M358 446.56V506.56H362V446.56H358Z" fill="#303A3F"/>
<path d="M358 446.56V506.56H362V446.56H358Z" fill="url(#paint1_linear_559_3892)"/>
<path d="M598.03 326.56V386.56H602.03V326.56H598.03Z" fill="#303A3F"/>
<path d="M598.03 326.56V386.56H602.03V326.56H598.03Z" fill="url(#paint2_linear_559_3892)"/>
<path fill-rule="evenodd" clip-rule="evenodd" d="M58 54.5596V0H62V54.5596H178V0H182V54.5596H298V0H302V54.5596H418V0H422V54.5596H538V0H542V54.5596H658V0H662V54.5596H778V0H782V54.5596H898V0H902V54.5596H1018V0H1022V54.5596H1080V58.5596H1022V174.56H1080V178.56H1022V294.56H1080V298.56H1022V414.56H1080V418.56H1022V534.56H1080V538.56H1022V654.561H1080V658.561H1022V774.561H1080V778.561H1022V833.12H1018V778.561H902V833.12H898V778.561H782V833.12H778V778.561H662V833.12H658V778.561H542V833.12H538V778.561H422V833.12H418V778.561H302V833.12H298V778.561H182V833.12H178V778.561H62V833.12H58V778.561H0V774.561H58V658.561H0V654.561H58V538.56H0V534.56H58V418.56H0V414.56H58V298.56H0V294.56H58V178.56H0V174.56H58V58.5596H0V54.5596H58ZM782 774.561H898V658.561H782V774.561ZM778 658.561V774.561H662V658.561H778ZM782 654.561H898V538.56H782V654.561ZM778 538.56V654.561H662V538.56H778ZM782 534.56H898V458.56H858.03V454.56H898V418.56H782V494.56H822V498.56H782V534.56ZM778 418.56H662V474.56H697V478.56H662V534.56H778V478.56H738V474.56H778V418.56ZM782 414.56H898V358.56H838.03V298.56H782V414.56ZM778 298.56V414.56H662V298.56H718.03V358.56H722.03V298.56H778ZM782 294.56H898V178.56H782V294.56ZM778 178.56V294.56H662V178.56H778ZM782 174.56H898V58.5596H782V174.56ZM778 58.5596V174.56H662V58.5596H778ZM902 58.5596H1018V174.56H902V58.5596ZM902 178.56H1018V294.56H902V178.56ZM962.03 298.56H1018V354.56H962.03V298.56ZM1018 358.56V414.56H902V298.56H958.03V358.56H1018ZM962.03 418.56H1018V454.56H962.03V418.56ZM962.03 458.56H1018V534.56H962.03V458.56ZM902 538.56H1018V654.561H902V538.56ZM902 658.561H1018V774.561H902V658.561ZM902 534.56H958.03V458.56H902V534.56ZM902 454.56H958.03V418.56H902V454.56ZM898 298.56H842.03V354.56H898V298.56ZM182 58.5596H298V174.56H182V58.5596ZM182 178.56H298V294.56H182V178.56ZM302 178.56V294.56H418V178.56H302ZM242.03 298.56H298V414.56H182V298.56H238.03V358.56H242.03V298.56ZM302 298.56V414.56H418V358.56H358.03V298.56H302ZM182 418.56H298V534.56H182V418.56ZM302 534.56H418V418.56H302V534.56ZM182 538.56H298V654.561H182V538.56ZM302 538.56V654.561H418V538.56H302ZM182 658.561H298V774.561H182V658.561ZM302 658.561V774.561H418V658.561H302ZM302 58.5596V174.56H418V58.5596H302ZM658 774.561V658.561H542V774.561H658ZM658 654.561V538.56H542V654.561H658ZM658 534.56H542V418.56H598.03V478.56H658V534.56ZM658 474.56V418.56H602.03V474.56H658ZM658 414.56V396.36L639.8 414.56H658ZM658 390.701V322.41L634.15 298.56H542V414.56H634.15L658 390.701ZM658 316.76V298.56H639.8L658 316.76ZM658 294.56V178.56H542V294.56H658ZM658 174.56V58.5596H542V174.56H658ZM422 58.5596H538V174.56H422V58.5596ZM422 178.56H538V294.56H422V178.56ZM482.03 298.56H538V354.56H482.03V298.56ZM538 358.56V414.56H422V298.56H478.03V358.56H538ZM422 418.56H538L480 476.56L538 534.56H422V418.56ZM538 424.22L485.66 476.56L538 528.9V424.22ZM422 538.56H538V654.561H422V538.56ZM422 658.561H538V774.561H422V658.561ZM418 354.56V298.56H362.03V354.56H418ZM62 58.5596H178V174.56H62V58.5596ZM62 178.56H178V294.56H62V178.56ZM122.03 298.56H178V354.56H122.03V298.56ZM178 358.56V414.56H62V298.56H118.03V358.56H178ZM62 418.56H178V450.72L154.16 474.56H62V418.56ZM62 478.56V534.56H178V502.43L154.138 478.56H62ZM157.8 476.57L178 496.77V456.37L157.8 476.57ZM62 538.56H178V654.561H62V538.56ZM62 658.561H178V774.561H62V658.561Z" fill="#303A3F"/>
<path fill-rule="evenodd" clip-rule="evenodd" d="M58 54.5596V0H62V54.5596H178V0H182V54.5596H298V0H302V54.5596H418V0H422V54.5596H538V0H542V54.5596H658V0H662V54.5596H778V0H782V54.5596H898V0H902V54.5596H1018V0H1022V54.5596H1080V58.5596H1022V174.56H1080V178.56H1022V294.56H1080V298.56H1022V414.56H1080V418.56H1022V534.56H1080V538.56H1022V654.561H1080V658.561H1022V774.561H1080V778.561H1022V833.12H1018V778.561H902V833.12H898V778.561H782V833.12H778V778.561H662V833.12H658V778.561H542V833.12H538V778.561H422V833.12H418V778.561H302V833.12H298V778.561H182V833.12H178V778.561H62V833.12H58V778.561H0V774.561H58V658.561H0V654.561H58V538.56H0V534.56H58V418.56H0V414.56H58V298.56H0V294.56H58V178.56H0V174.56H58V58.5596H0V54.5596H58ZM782 774.561H898V658.561H782V774.561ZM778 658.561V774.561H662V658.561H778ZM782 654.561H898V538.56H782V654.561ZM778 538.56V654.561H662V538.56H778ZM782 534.56H898V458.56H858.03V454.56H898V418.56H782V494.56H822V498.56H782V534.56ZM778 418.56H662V474.56H697V478.56H662V534.56H778V478.56H738V474.56H778V418.56ZM782 414.56H898V358.56H838.03V298.56H782V414.56ZM778 298.56V414.56H662V298.56H718.03V358.56H722.03V298.56H778ZM782 294.56H898V178.56H782V294.56ZM778 178.56V294.56H662V178.56H778ZM782 174.56H898V58.5596H782V174.56ZM778 58.5596V174.56H662V58.5596H778ZM902 58.5596H1018V174.56H902V58.5596ZM902 178.56H1018V294.56H902V178.56ZM962.03 298.56H1018V354.56H962.03V298.56ZM1018 358.56V414.56H902V298.56H958.03V358.56H1018ZM962.03 418.56H1018V454.56H962.03V418.56ZM962.03 458.56H1018V534.56H962.03V458.56ZM902 538.56H1018V654.561H902V538.56ZM902 658.561H1018V774.561H902V658.561ZM902 534.56H958.03V458.56H902V534.56ZM902 454.56H958.03V418.56H902V454.56ZM898 298.56H842.03V354.56H898V298.56ZM182 58.5596H298V174.56H182V58.5596ZM182 178.56H298V294.56H182V178.56ZM302 178.56V294.56H418V178.56H302ZM242.03 298.56H298V414.56H182V298.56H238.03V358.56H242.03V298.56ZM302 298.56V414.56H418V358.56H358.03V298.56H302ZM182 418.56H298V534.56H182V418.56ZM302 534.56H418V418.56H302V534.56ZM182 538.56H298V654.561H182V538.56ZM302 538.56V654.561H418V538.56H302ZM182 658.561H298V774.561H182V658.561ZM302 658.561V774.561H418V658.561H302ZM302 58.5596V174.56H418V58.5596H302ZM658 774.561V658.561H542V774.561H658ZM658 654.561V538.56H542V654.561H658ZM658 534.56H542V418.56H598.03V478.56H658V534.56ZM658 474.56V418.56H602.03V474.56H658ZM658 414.56V396.36L639.8 414.56H658ZM658 390.701V322.41L634.15 298.56H542V414.56H634.15L658 390.701ZM658 316.76V298.56H639.8L658 316.76ZM658 294.56V178.56H542V294.56H658ZM658 174.56V58.5596H542V174.56H658ZM422 58.5596H538V174.56H422V58.5596ZM422 178.56H538V294.56H422V178.56ZM482.03 298.56H538V354.56H482.03V298.56ZM538 358.56V414.56H422V298.56H478.03V358.56H538ZM422 418.56H538L480 476.56L538 534.56H422V418.56ZM538 424.22L485.66 476.56L538 528.9V424.22ZM422 538.56H538V654.561H422V538.56ZM422 658.561H538V774.561H422V658.561ZM418 354.56V298.56H362.03V354.56H418ZM62 58.5596H178V174.56H62V58.5596ZM62 178.56H178V294.56H62V178.56ZM122.03 298.56H178V354.56H122.03V298.56ZM178 358.56V414.56H62V298.56H118.03V358.56H178ZM62 418.56H178V450.72L154.16 474.56H62V418.56ZM62 478.56V534.56H178V502.43L154.138 478.56H62ZM157.8 476.57L178 496.77V456.37L157.8 476.57ZM62 538.56H178V654.561H62V538.56ZM62 658.561H178V774.561H62V658.561Z" fill="url(#paint3_linear_559_3892)"/>
<defs>
<linearGradient id="paint0_linear_559_3892" x1="540" y1="0" x2="540" y2="833.12" gradientUnits="userSpaceOnUse">
<stop stop-color="#F7F6F2" stop-opacity="0.4"/>
<stop offset="0.2" stop-color="#303A3F"/>
<stop offset="0.5" stop-color="#303A3F"/>
<stop offset="0.8" stop-color="#303A3F"/>
<stop offset="1" stop-color="#F7F6F2" stop-opacity="0.4"/>
</linearGradient>
<linearGradient id="paint1_linear_559_3892" x1="540" y1="0" x2="540" y2="833.12" gradientUnits="userSpaceOnUse">
<stop stop-color="#F7F6F2" stop-opacity="0.4"/>
<stop offset="0.2" stop-color="#303A3F"/>
<stop offset="0.5" stop-color="#303A3F"/>
<stop offset="0.8" stop-color="#303A3F"/>
<stop offset="1" stop-color="#F7F6F2" stop-opacity="0.4"/>
</linearGradient>
<linearGradient id="paint2_linear_559_3892" x1="540" y1="0" x2="540" y2="833.12" gradientUnits="userSpaceOnUse">
<stop stop-color="#F7F6F2" stop-opacity="0.4"/>
<stop offset="0.2" stop-color="#303A3F"/>
<stop offset="0.5" stop-color="#303A3F"/>
<stop offset="0.8" stop-color="#303A3F"/>
<stop offset="1" stop-color="#F7F6F2" stop-opacity="0.4"/>
</linearGradient>
<linearGradient id="paint3_linear_559_3892" x1="540" y1="0" x2="540" y2="833.12" gradientUnits="userSpaceOnUse">
<stop stop-color="#F7F6F2" stop-opacity="0.4"/>
<stop offset="0.2" stop-color="#303A3F"/>
<stop offset="0.5" stop-color="#303A3F"/>
<stop offset="0.8" stop-color="#303A3F"/>
<stop offset="1" stop-color="#F7F6F2" stop-opacity="0.4"/>
</linearGradient>
</defs>
</svg>
