<svg width="1080" height="241" viewBox="0 0 1080 241" fill="none" xmlns="http://www.w3.org/2000/svg">
<path d="M598.03 90V150H602.03V90H598.03Z" fill="#303A3F"/>
<path d="M598.03 90V150H602.03V90H598.03Z" fill="url(#paint0_linear_556_13594)"/>
<path fill-rule="evenodd" clip-rule="evenodd" d="M58 58V0H62V58H178V0H182V58H298V0H302V58H418V0H422V58H538V0H542V58H658V0H662V58H778V0H782V58H898V0H902V58H1018V0H1022V58H1080V62H1022V178H1080V182H1022V240.03H1018V182H902V240.03H898V182H782V240.03H778V182H662V240.03H658V182H542V240.03H538V182H422V240.03H418V182H302V240.03H298V182H182V240.03H178V182H62V240.03H58V182H0V178H58V62H0V58H58ZM782 178H898V122H838.03V62H782V178ZM778 178H662V62H718.03V122H722.03V62H778V178ZM1018 122H958.03V62H902V178H1018V122ZM1018 118V62H962.03V118H1018ZM842.03 62H898V118H842.03V62ZM302 178H418V122H358.03V62H302V178ZM298 62V178H182V62H238.03V122H242.03V62H298ZM634.15 62H542V178H634.15L658 154.15V85.8496L634.15 62ZM639.8 62L658 80.2002V62H639.8ZM658 178H639.8L658 159.801V178ZM482.03 62H538V118H482.03V62ZM538 122V178H422V62H478.03V122H538ZM362.03 62H418V118H362.03V62ZM178 178V122H118.03V62H62V178H178ZM178 118V62H122.03V118H178Z" fill="#303A3F"/>
<path fill-rule="evenodd" clip-rule="evenodd" d="M58 58V0H62V58H178V0H182V58H298V0H302V58H418V0H422V58H538V0H542V58H658V0H662V58H778V0H782V58H898V0H902V58H1018V0H1022V58H1080V62H1022V178H1080V182H1022V240.03H1018V182H902V240.03H898V182H782V240.03H778V182H662V240.03H658V182H542V240.03H538V182H422V240.03H418V182H302V240.03H298V182H182V240.03H178V182H62V240.03H58V182H0V178H58V62H0V58H58ZM782 178H898V122H838.03V62H782V178ZM778 178H662V62H718.03V122H722.03V62H778V178ZM1018 122H958.03V62H902V178H1018V122ZM1018 118V62H962.03V118H1018ZM842.03 62H898V118H842.03V62ZM302 178H418V122H358.03V62H302V178ZM298 62V178H182V62H238.03V122H242.03V62H298ZM634.15 62H542V178H634.15L658 154.15V85.8496L634.15 62ZM639.8 62L658 80.2002V62H639.8ZM658 178H639.8L658 159.801V178ZM482.03 62H538V118H482.03V62ZM538 122V178H422V62H478.03V122H538ZM362.03 62H418V118H362.03V62ZM178 178V122H118.03V62H62V178H178ZM178 118V62H122.03V118H178Z" fill="url(#paint1_linear_556_13594)"/>
<defs>
<linearGradient id="paint0_linear_556_13594" x1="540" y1="0" x2="540" y2="240.03" gradientUnits="userSpaceOnUse">
<stop stop-color="#F7F6F2" stop-opacity="0.4"/>
<stop offset="0.2" stop-color="#303A3F"/>
<stop offset="0.5" stop-color="#303A3F"/>
<stop offset="0.8" stop-color="#303A3F"/>
<stop offset="1" stop-color="#F7F6F2" stop-opacity="0.4"/>
</linearGradient>
<linearGradient id="paint1_linear_556_13594" x1="540" y1="0" x2="540" y2="240.03" gradientUnits="userSpaceOnUse">
<stop stop-color="#F7F6F2" stop-opacity="0.4"/>
<stop offset="0.2" stop-color="#303A3F"/>
<stop offset="0.5" stop-color="#303A3F"/>
<stop offset="0.8" stop-color="#303A3F"/>
<stop offset="1" stop-color="#F7F6F2" stop-opacity="0.4"/>
</linearGradient>
</defs>
</svg>
