<svg width="2000" height="1400" viewBox="0 0 2000 1400" fill="none" xmlns="http://www.w3.org/2000/svg">
<rect width="2000" height="1400" fill="#44F4B3"/>
<path d="M497.847 745.1H497.378C488.274 760.783 471.248 768.501 453.507 768.501C414.775 768.501 384.902 739.958 384.902 700.886C384.902 661.814 414.306 632.095 453.507 632.095C470.778 632.095 487.804 639.119 497.378 653.86H497.847V635.613H522.112V765.23H497.847V745.1ZM453.518 654.309C427.846 654.309 409.178 675.369 409.178 700.64C409.178 725.912 428.549 746.266 453.283 746.266C478.017 746.266 498.316 725.676 498.316 700.64C498.316 675.604 479.883 654.309 453.518 654.309Z" fill="#222222"/>
<path d="M617.615 768.49C600.344 768.49 581.453 761.937 572.113 746.501H571.644V808.503H547.379V635.591H569.544V655.475H570.013C580.749 640.027 597.551 632.074 615.984 632.074C655.889 632.074 682.958 662.958 682.958 702.03C682.958 738.761 654.727 768.48 617.626 768.48L617.615 768.49ZM614.353 654.309C589.384 654.309 571.186 675.839 571.186 700.17C571.186 724.501 589.384 746.266 615.057 746.266C640.729 746.266 658.693 725.441 658.693 700.64C658.693 675.839 639.322 654.309 614.353 654.309Z" fill="#222222"/>
<path d="M774.57 768.49C757.299 768.49 738.407 761.937 729.068 746.501H728.599V808.503H704.334V635.591H726.498V655.475H726.967C737.703 640.027 754.506 632.074 772.939 632.074C812.844 632.074 839.912 662.958 839.912 702.03C839.912 738.761 811.682 768.48 774.581 768.48L774.57 768.49ZM771.308 654.309C746.339 654.309 728.14 675.839 728.14 700.17C728.14 724.501 746.339 746.266 772.011 746.266C797.683 746.266 815.647 725.441 815.647 700.64C815.647 675.839 796.276 654.309 771.308 654.309Z" fill="#222222"/>
<path d="M899.786 661.803C888.357 667.651 885.553 682.627 885.553 694.322V765.219H861.288V635.602H883.922V647.297H884.391C892.323 636.061 904.221 632.555 917.292 632.085V657.121C911.929 657.121 904.456 659.227 899.786 661.803Z" fill="#222222"/>
<path d="M1053.02 710.935H945.917C950.821 731.054 967.154 746.266 988.38 746.266C1003.55 746.266 1018.25 738.077 1025.25 724.501H1049.51C1039.71 750.937 1015.67 768.49 987.442 768.49C950.576 768.49 921.641 736.431 921.641 700.17C921.641 663.909 950.107 632.085 987.911 632.085C1025.72 632.085 1053.71 662.263 1053.71 698.769C1053.71 702.746 1053.48 706.958 1053.01 710.935H1053.02ZM987.688 654.309C966.685 654.309 947.324 670.922 945.917 692.216H1029.46C1028.06 670.922 1008.69 654.309 987.688 654.309Z" fill="#222222"/>
<path d="M1133.69 768.49C1095.2 768.49 1067.42 738.077 1067.42 700.17C1067.42 662.263 1095.65 632.085 1133.93 632.085C1161.7 632.085 1190.17 650.803 1197.39 678.651H1170.56C1163.32 663.439 1151.42 654.32 1134.16 654.32C1107.56 654.32 1091.7 674.674 1091.7 700.181C1091.7 725.687 1107.8 746.276 1133.7 746.276C1150.27 746.276 1163.58 737.382 1170.34 722.405H1197.4C1187.84 750.253 1163.33 768.501 1133.7 768.501L1133.69 768.49Z" fill="#222222"/>
<path d="M1217.04 620.614V592.072H1241.31V620.614H1217.04ZM1217.04 765.208V635.591H1241.31V765.208H1217.04Z" fill="#222222"/>
<path d="M1375.55 745.1H1375.08C1365.98 760.783 1348.95 768.501 1331.21 768.501C1292.48 768.501 1262.61 739.958 1262.61 700.886C1262.61 661.814 1292.01 632.095 1331.21 632.095C1348.48 632.095 1365.51 639.119 1375.08 653.86H1375.55V635.613H1399.82V765.23H1375.55V745.1ZM1331.22 654.309C1305.55 654.309 1286.88 675.369 1286.88 700.64C1286.88 725.912 1306.26 746.266 1330.99 746.266C1355.72 746.266 1376.02 725.676 1376.02 700.64C1376.02 675.604 1357.59 654.309 1331.22 654.309Z" fill="#222222"/>
<path d="M1457.35 657.826V765.219H1433.08V657.826H1415.58V635.602H1433.08V592.082H1457.35V635.602H1478.58V657.826H1457.35Z" fill="#222222"/>
<path d="M1613.62 710.935H1506.52C1511.42 731.054 1527.75 746.266 1548.98 746.266C1564.15 746.266 1578.85 738.077 1585.85 724.501H1610.11C1600.31 750.937 1576.27 768.49 1548.04 768.49C1511.17 768.49 1482.24 736.431 1482.24 700.17C1482.24 663.909 1510.71 632.085 1548.51 632.085C1586.31 632.085 1614.31 662.263 1614.31 698.769C1614.31 702.746 1614.08 706.958 1613.61 710.935H1613.62ZM1548.29 654.309C1527.28 654.309 1507.92 670.922 1506.52 692.216H1590.06C1588.66 670.922 1569.29 654.309 1548.29 654.309Z" fill="#222222"/>
</svg>
