<svg width="2000" height="1400" viewBox="0 0 2000 1400" fill="none" xmlns="http://www.w3.org/2000/svg">
<rect width="2000" height="1400" fill="white"/>
<path d="M337.63 795.62H337.623V864.02H346.249V795.62H337.63Z" fill="#3EB9FF"/>
<path d="M312.053 804.246C326.158 804.246 337.63 815.718 337.63 829.823C337.63 843.928 326.158 855.401 312.053 855.401C297.948 855.401 286.475 843.928 286.475 829.823C286.475 815.718 297.948 804.246 312.053 804.246ZM312.053 795.62C293.164 795.62 277.85 810.934 277.85 829.823C277.85 848.712 293.164 864.026 312.053 864.026C330.942 864.026 346.256 848.712 346.256 829.823C346.256 810.934 330.942 795.62 312.053 795.62Z" fill="#8F00FF"/>
<path d="M369.461 795.62H369.467V885.34H360.842V795.62H369.461Z" fill="#3EB9FF"/>
<path d="M395.045 804.246C409.15 804.246 420.622 815.718 420.622 829.823C420.622 843.928 409.15 855.401 395.045 855.401C380.94 855.401 369.467 843.928 369.467 829.823C369.467 815.718 380.94 804.246 395.045 804.246ZM395.045 795.62C376.156 795.62 360.842 810.934 360.842 829.823C360.842 848.712 376.156 864.026 395.045 864.026C413.934 864.026 429.248 848.712 429.248 829.823C429.248 810.934 413.934 795.62 395.045 795.62Z" fill="#8F00FF"/>
<path d="M449.209 795.62V885.34H440.59V795.62H449.209Z" fill="#3EB9FF"/>
<path d="M474.787 804.246C488.892 804.246 500.364 815.718 500.364 829.823C500.364 843.928 488.892 855.401 474.787 855.401C460.682 855.401 449.209 843.928 449.209 829.823C449.209 815.718 460.682 804.246 474.787 804.246ZM474.787 795.62C455.898 795.62 440.584 810.934 440.584 829.823C440.584 848.712 455.898 864.026 474.787 864.026C493.676 864.026 508.99 848.712 508.99 829.823C508.99 810.934 493.676 795.62 474.787 795.62Z" fill="#8F00FF"/>
<path d="M781.501 795.62H781.494V864.02H790.12V795.62H781.501Z" fill="#3EB9FF"/>
<path d="M755.924 804.246C770.029 804.246 781.501 815.718 781.501 829.823C781.501 843.928 770.029 855.401 755.924 855.401C741.819 855.401 730.346 843.928 730.346 829.823C730.346 815.718 741.819 804.246 755.924 804.246ZM755.924 795.62C737.035 795.62 721.721 810.934 721.721 829.823C721.721 848.712 737.035 864.026 755.924 864.026C774.813 864.026 790.127 848.712 790.127 829.823C790.127 810.934 774.813 795.62 755.924 795.62Z" fill="#8F00FF"/>
<path d="M614.607 824.318H551.154V832.937H614.607V824.318Z" fill="#3EB9FF"/>
<path d="M605.612 841.562C603.746 845.17 601.049 848.283 597.688 850.675C593.353 853.763 588.231 855.394 582.881 855.394C576.05 855.394 569.628 852.736 564.798 847.906C559.969 843.077 557.31 836.655 557.31 829.823C557.31 822.992 559.969 816.57 564.798 811.74C569.628 806.911 576.05 804.252 582.881 804.252C589.713 804.252 596.135 806.911 600.964 811.74C605.794 816.57 608.452 822.992 608.452 829.823C608.452 830.603 608.42 831.396 608.348 832.163C608.322 832.423 608.296 832.683 608.264 832.937H616.935C617.026 831.91 617.078 830.87 617.078 829.817C617.078 810.928 601.764 795.614 582.875 795.614C563.986 795.614 548.672 810.928 548.672 829.817C548.672 848.706 563.986 864.02 582.875 864.02C597.636 864.02 610.214 854.666 615.004 841.562H605.605H605.612Z" fill="#8F00FF"/>
<path d="M902.038 824.318H838.592V832.937H902.038V824.318Z" fill="#3EB9FF"/>
<path d="M893.049 841.562C891.184 845.17 888.486 848.283 885.126 850.675C880.79 853.763 875.668 855.394 870.319 855.394C863.487 855.394 857.065 852.736 852.236 847.906C847.406 843.077 844.748 836.655 844.748 829.823C844.748 822.992 847.406 816.57 852.236 811.74C857.065 806.911 863.487 804.252 870.319 804.252C877.15 804.252 883.572 806.911 888.402 811.74C893.231 816.57 895.89 822.992 895.89 829.823C895.89 830.603 895.857 831.396 895.786 832.163C895.76 832.423 895.734 832.683 895.701 832.937H904.372C904.463 831.91 904.515 830.87 904.515 829.817C904.515 810.928 889.201 795.614 870.312 795.614C851.423 795.614 836.109 810.928 836.109 829.817C836.109 848.706 851.423 864.02 870.312 864.02C885.074 864.02 897.651 854.666 902.442 841.562H893.043H893.049Z" fill="#8F00FF"/>
<path d="M673.862 850.675C669.526 853.763 664.404 855.394 659.055 855.394C652.223 855.394 645.801 852.736 640.972 847.906C636.142 843.077 633.484 836.655 633.484 829.823C633.484 822.992 636.142 816.57 640.972 811.74C645.801 806.911 652.223 804.252 659.055 804.252C665.886 804.252 672.308 806.911 677.138 811.74C679.029 813.632 680.589 815.77 681.785 818.084H691.184C686.394 804.98 673.816 795.627 659.055 795.627C640.166 795.627 624.852 810.941 624.852 829.83C624.852 848.719 640.166 864.033 659.055 864.033C673.816 864.033 686.394 854.679 691.184 841.575H681.785C679.92 845.183 677.222 848.296 673.862 850.688V850.675Z" fill="#8F00FF"/>
<path d="M710.567 786.994V778.369H710.56H701.941V786.994H710.567Z" fill="#3EB9FF"/>
<path d="M710.567 795.62H701.941V864.019H710.567V795.62Z" fill="#3EB9FF"/>
<path d="M835.374 795.62H797.518V804.246H835.374V795.62Z" fill="#3EB9FF"/>
<path d="M820.754 774.3H812.129V864.02H820.754V774.3Z" fill="#3EB9FF"/>
<path d="M546.339 795.62C538.955 795.62 532.247 798.513 527.288 803.225V795.62H518.662V823.297V864.02H527.288V823.297C527.288 818.208 529.27 813.424 532.871 809.823C536.472 806.222 541.256 804.239 546.346 804.239V795.614L546.339 795.62Z" fill="#3EB9FF"/>
<path d="M1533.92 787.248V778.623H1525.3V787.248H1533.92Z" fill="black"/>
<path d="M1160.98 795.874V807.372C1154.71 800.32 1145.58 795.874 1135.4 795.874C1116.51 795.874 1101.2 811.188 1101.2 830.077C1101.2 848.966 1116.51 864.28 1135.4 864.28C1145.57 864.28 1154.71 859.834 1160.98 852.781V864.28H1169.61V795.88H1160.99L1160.98 795.874ZM1153.49 848.16C1148.66 852.989 1142.23 855.648 1135.4 855.648C1128.57 855.648 1122.15 852.989 1117.32 848.16C1112.49 843.33 1109.83 836.908 1109.83 830.077C1109.83 823.245 1112.49 816.823 1117.32 811.994C1122.15 807.164 1128.57 804.506 1135.4 804.506C1142.23 804.506 1148.66 807.164 1153.49 811.994C1158.31 816.823 1160.97 823.245 1160.97 830.077C1160.97 836.908 1158.31 843.33 1153.49 848.16Z" fill="black"/>
<path d="M1218.39 795.874C1208.22 795.874 1199.08 800.32 1192.82 807.372V795.874H1184.19V885.593H1192.82V852.775C1199.08 859.827 1208.22 864.273 1218.39 864.273C1237.28 864.273 1252.6 848.959 1252.6 830.07C1252.6 811.181 1237.28 795.867 1218.39 795.867V795.874ZM1236.48 848.16C1231.65 852.989 1225.23 855.648 1218.39 855.648C1211.56 855.648 1205.14 852.989 1200.31 848.16C1195.48 843.33 1192.82 836.908 1192.82 830.077C1192.82 823.245 1195.48 816.823 1200.31 811.994C1205.14 807.164 1211.56 804.506 1218.39 804.506C1225.23 804.506 1231.65 807.164 1236.48 811.994C1241.31 816.823 1243.97 823.245 1243.97 830.077C1243.97 836.908 1241.31 843.33 1236.48 848.16Z" fill="black"/>
<path d="M1298.14 795.874C1287.97 795.874 1278.83 800.32 1272.57 807.372V795.874H1263.94V885.593H1272.57V852.775C1278.83 859.827 1287.96 864.273 1298.14 864.273C1317.03 864.273 1332.35 848.959 1332.35 830.07C1332.35 811.181 1317.03 795.867 1298.14 795.867V795.874ZM1316.23 848.16C1311.4 852.989 1304.97 855.648 1298.14 855.648C1291.31 855.648 1284.89 852.989 1280.06 848.16C1275.23 843.33 1272.57 836.908 1272.57 830.077C1272.57 823.245 1275.23 816.823 1280.06 811.994C1284.89 807.164 1291.31 804.506 1298.14 804.506C1304.97 804.506 1311.4 807.164 1316.23 811.994C1321.06 816.823 1323.71 823.245 1323.71 830.077C1323.71 836.908 1321.06 843.33 1316.23 848.16Z" fill="black"/>
<path d="M1604.86 795.874V807.372C1598.59 800.32 1589.46 795.874 1579.28 795.874C1560.39 795.874 1545.08 811.188 1545.08 830.077C1545.08 848.966 1560.39 864.28 1579.28 864.28C1589.45 864.28 1598.59 859.834 1604.86 852.781V864.28H1613.48V795.874H1604.86ZM1597.36 848.16C1592.53 852.989 1586.11 855.648 1579.28 855.648C1572.45 855.648 1566.03 852.989 1561.2 848.16C1556.37 843.33 1553.71 836.908 1553.71 830.077C1553.71 823.245 1556.37 816.823 1561.2 811.994C1566.03 807.164 1572.45 804.506 1579.28 804.506C1586.11 804.506 1592.53 807.164 1597.36 811.994C1602.19 816.823 1604.85 823.245 1604.85 830.077C1604.85 836.908 1602.19 843.33 1597.36 848.16Z" fill="black"/>
<path d="M1406.23 795.874C1387.34 795.874 1372.03 811.188 1372.03 830.077C1372.03 848.966 1387.34 864.28 1406.23 864.28C1420.99 864.28 1433.57 854.926 1438.36 841.822H1428.96C1427.1 845.43 1424.4 848.543 1421.04 850.935C1416.7 854.023 1411.58 855.654 1406.23 855.654C1399.4 855.654 1392.98 852.996 1388.15 848.166C1384.06 844.078 1381.52 838.852 1380.84 833.203H1440.29C1440.38 832.176 1440.43 831.136 1440.43 830.083C1440.43 811.194 1425.12 795.88 1406.23 795.88V795.874ZM1388.15 811.987C1392.98 807.158 1399.4 804.499 1406.23 804.499C1413.06 804.499 1419.48 807.158 1424.31 811.987C1427.82 815.491 1430.18 819.839 1431.21 824.571H1381.24C1382.27 819.839 1384.63 815.497 1388.14 811.987H1388.15Z" fill="black"/>
<path d="M1693.67 795.874C1674.78 795.874 1659.46 811.188 1659.46 830.077C1659.46 848.966 1674.78 864.28 1693.67 864.28C1708.43 864.28 1721.01 854.926 1725.8 841.822H1716.4C1714.53 845.43 1711.84 848.543 1708.47 850.935C1704.14 854.023 1699.02 855.654 1693.67 855.654C1686.84 855.654 1680.41 852.996 1675.58 848.166C1671.5 844.078 1668.96 838.852 1668.28 833.203H1727.73C1727.82 832.176 1727.87 831.136 1727.87 830.083C1727.87 811.194 1712.56 795.88 1693.67 795.88V795.874ZM1675.58 811.987C1680.41 807.158 1686.84 804.499 1693.67 804.499C1700.5 804.499 1706.92 807.158 1711.75 811.987C1715.25 815.491 1717.62 819.839 1718.65 824.571H1668.68C1669.71 819.839 1672.07 815.497 1675.57 811.987H1675.58Z" fill="black"/>
<path d="M1497.21 850.929C1492.88 854.016 1487.75 855.648 1482.4 855.648C1475.57 855.648 1469.15 852.989 1464.32 848.16C1459.49 843.33 1456.83 836.908 1456.83 830.077C1456.83 823.245 1459.49 816.823 1464.32 811.994C1469.15 807.164 1475.57 804.506 1482.4 804.506C1489.24 804.506 1495.66 807.164 1500.49 811.994C1502.38 813.885 1503.94 816.024 1505.14 818.338H1514.53C1509.74 805.234 1497.17 795.88 1482.4 795.88C1463.52 795.88 1448.2 811.194 1448.2 830.083C1448.2 848.972 1463.52 864.286 1482.4 864.286C1497.17 864.286 1509.74 854.933 1514.53 841.829H1505.14C1503.27 845.436 1500.57 848.55 1497.21 850.942V850.929Z" fill="black"/>
<path d="M1533.92 795.874H1525.3V864.273H1533.92V795.874Z" fill="black"/>
<path d="M1658.72 795.874H1644.11V774.554H1635.49V795.874H1620.87V804.499H1635.49V864.273H1644.11V804.499H1658.72V795.874Z" fill="black"/>
<path d="M1369.69 795.874C1362.31 795.874 1355.6 798.766 1350.64 803.479V795.874H1342.02V864.273H1350.64V823.551C1350.64 818.461 1352.63 813.677 1356.23 810.076C1359.83 806.475 1364.61 804.493 1369.7 804.493V795.867L1369.69 795.874Z" fill="black"/>
<path d="M546.637 536.719C537.706 536.719 529.77 540.95 524.713 547.509V536.719H518.967V564.396V605.118H524.713V564.396C524.713 558.54 526.994 553.034 531.135 548.894C535.275 544.753 540.781 542.471 546.637 542.471V536.726V536.719Z" fill="#3EB9FF"/>
<path d="M340.504 536.719V605.119H346.25V536.719H340.504Z" fill="#3EB9FF"/>
<path d="M312.053 542.472C327.744 542.472 340.503 555.238 340.503 570.922C340.503 586.607 327.737 599.373 312.053 599.373C296.368 599.373 283.602 586.607 283.602 570.922C283.602 555.238 296.368 542.472 312.053 542.472ZM312.053 536.726C293.164 536.726 277.85 552.04 277.85 570.929C277.85 589.818 293.164 605.132 312.053 605.132C330.942 605.132 346.256 589.818 346.256 570.929C346.256 552.04 330.942 536.726 312.053 536.726Z" fill="#8F00FF"/>
<path d="M776.244 536.719V605.119H781.997V536.719H776.244Z" fill="#3EB9FF"/>
<path d="M747.793 542.472C763.484 542.472 776.243 555.238 776.243 570.922C776.243 586.607 763.477 599.373 747.793 599.373C732.108 599.373 719.342 586.607 719.342 570.922C719.342 555.238 732.108 542.472 747.793 542.472ZM747.793 536.726C728.904 536.726 713.59 552.04 713.59 570.929C713.59 589.818 728.904 605.132 747.793 605.132C766.682 605.132 781.996 589.818 781.996 570.929C781.996 552.04 766.682 536.726 747.793 536.726Z" fill="#8F00FF"/>
<path d="M365.99 536.719H365.997V626.439H360.244V536.719H365.99Z" fill="#3EB9FF"/>
<path d="M394.447 542.472C410.138 542.472 422.898 555.238 422.898 570.922C422.898 586.607 410.132 599.373 394.447 599.373C378.763 599.373 365.997 586.607 365.997 570.922C365.997 555.238 378.763 542.472 394.447 542.472ZM394.447 536.726C375.558 536.726 360.244 552.04 360.244 570.929C360.244 589.818 375.558 605.132 394.447 605.132C413.336 605.132 428.65 589.818 428.65 570.929C428.65 552.04 413.336 536.726 394.447 536.726Z" fill="#8F00FF"/>
<path d="M445.439 536.719H445.446V626.439H439.693V536.719H445.439Z" fill="#3EB9FF"/>
<path d="M473.896 542.472C489.587 542.472 502.347 555.238 502.347 570.922C502.347 586.607 489.581 599.373 473.896 599.373C458.212 599.373 445.446 586.607 445.446 570.922C445.446 555.238 458.212 542.472 473.896 542.472ZM473.896 536.726C455.007 536.726 439.693 552.04 439.693 570.929C439.693 589.818 455.007 605.132 473.896 605.132C492.785 605.132 508.099 589.818 508.099 570.929C508.099 552.04 492.785 536.726 473.896 536.726Z" fill="#8F00FF"/>
<path d="M702.299 528.1V519.475H702.293H696.547V528.1H702.299Z" fill="#3EB9FF"/>
<path d="M702.293 536.719H696.547V605.118H702.293V536.719Z" fill="#3EB9FF"/>
<path d="M823.908 536.719H788.262V542.465H823.908V536.719Z" fill="#3EB9FF"/>
<path d="M808.957 515.405H803.211V605.125H808.957V515.405Z" fill="#3EB9FF"/>
<path d="M610.363 566.86V566.853H546.916V572.606H610.363V566.86Z" fill="#3EB9FF"/>
<path d="M603.343 584.527C598.39 593.62 588.835 599.373 578.344 599.373C570.746 599.373 563.602 596.415 558.227 591.04C552.851 585.664 549.894 578.521 549.894 570.922C549.894 563.324 552.851 556.18 558.227 550.805C563.602 545.429 570.746 542.472 578.344 542.472C585.943 542.472 593.086 545.429 598.462 550.805C603.837 556.18 606.795 563.324 606.795 570.922C606.795 571.39 606.782 571.858 606.762 572.326C606.762 572.417 606.749 572.515 606.743 572.606H612.502C612.528 572.047 612.541 571.488 612.541 570.922C612.541 552.033 597.227 536.719 578.338 536.719C559.449 536.719 544.135 552.033 544.135 570.922C544.135 589.811 559.449 605.125 578.338 605.125C592.391 605.125 604.468 596.649 609.726 584.527H603.337H603.343Z" fill="#8F00FF"/>
<path d="M891.32 566.86V566.853H827.867V572.606H891.32V566.86Z" fill="#3EB9FF"/>
<path d="M884.3 584.527C879.347 593.62 869.792 599.373 859.301 599.373C851.703 599.373 844.559 596.415 839.184 591.04C833.808 585.664 830.851 578.521 830.851 570.922C830.851 563.324 833.808 556.18 839.184 550.805C844.559 545.429 851.703 542.472 859.301 542.472C866.9 542.472 874.043 545.429 879.419 550.805C884.794 556.18 887.752 563.324 887.752 570.922C887.752 571.39 887.739 571.858 887.719 572.326C887.719 572.417 887.706 572.515 887.7 572.606H893.459C893.485 572.047 893.498 571.488 893.498 570.922C893.498 552.033 878.184 536.719 859.295 536.719C840.406 536.719 825.092 552.033 825.092 570.922C825.092 589.811 840.406 605.125 859.295 605.125C873.348 605.125 885.425 596.649 890.683 584.527H884.294H884.3Z" fill="#8F00FF"/>
<path d="M680.089 582.07C678.678 585.378 676.637 588.42 674.018 591.039C668.642 596.415 661.499 599.373 653.9 599.373C646.302 599.373 639.158 596.415 633.783 591.039C628.407 585.664 625.45 578.52 625.45 570.922C625.45 563.323 628.407 556.18 633.783 550.805C639.158 545.429 646.302 542.471 653.9 542.471C661.499 542.471 668.642 545.429 674.018 550.805C676.325 553.112 678.191 555.751 679.562 558.611H685.815C680.875 545.806 668.447 536.719 653.9 536.719C635.011 536.719 619.697 552.033 619.697 570.922C619.697 589.811 635.011 605.125 653.9 605.125C668.883 605.125 681.616 595.485 686.238 582.076H680.089V582.07Z" fill="#8F00FF"/>
<path d="M1525.65 528.1V519.474H1519.9V528.1H1525.65Z" fill="black"/>
<path d="M1369.99 536.719C1361.06 536.719 1353.13 540.95 1348.07 547.509V536.719H1342.32V605.118H1348.07V564.396C1348.07 558.539 1350.35 553.034 1354.49 548.893C1358.63 544.753 1364.14 542.471 1369.99 542.471V536.719Z" fill="black"/>
<path d="M1163.86 536.719V551.935C1157.72 542.757 1147.27 536.719 1135.41 536.719C1116.52 536.719 1101.21 552.033 1101.21 570.922C1101.21 589.811 1116.52 605.125 1135.41 605.125C1147.27 605.125 1157.72 599.08 1163.86 589.908V605.125H1169.6V536.725H1163.86V536.719ZM1155.53 591.039C1150.15 596.415 1143.01 599.372 1135.41 599.372C1127.81 599.372 1120.67 596.415 1115.29 591.039C1109.92 585.664 1106.96 578.52 1106.96 570.922C1106.96 563.323 1109.92 556.18 1115.29 550.804C1120.67 545.429 1127.81 542.471 1135.41 542.471C1143.01 542.471 1150.15 545.429 1155.53 550.804C1160.9 556.18 1163.86 563.323 1163.86 570.922C1163.86 578.52 1160.9 585.664 1155.53 591.039Z" fill="black"/>
<path d="M1599.6 536.719V551.935C1593.46 542.757 1583.01 536.719 1571.15 536.719C1552.26 536.719 1536.95 552.033 1536.95 570.922C1536.95 589.811 1552.26 605.125 1571.15 605.125C1583.01 605.125 1593.46 599.08 1599.6 589.908V605.125H1605.35V536.725H1599.6V536.719ZM1591.27 591.039C1585.89 596.415 1578.75 599.372 1571.15 599.372C1563.55 599.372 1556.41 596.415 1551.03 591.039C1545.66 585.664 1542.7 578.52 1542.7 570.922C1542.7 563.323 1545.66 556.18 1551.03 550.804C1556.41 545.429 1563.55 542.471 1571.15 542.471C1578.75 542.471 1585.89 545.429 1591.27 550.804C1596.64 556.18 1599.6 563.323 1599.6 570.922C1599.6 578.52 1596.64 585.664 1591.27 591.039Z" fill="black"/>
<path d="M1217.8 536.719C1205.93 536.719 1195.48 542.764 1189.35 551.935V536.719H1183.6V626.438H1189.35V589.902C1195.48 599.08 1205.93 605.118 1217.8 605.118C1236.68 605.118 1252 589.804 1252 570.915C1252 552.026 1236.68 536.712 1217.8 536.712V536.719ZM1237.91 591.039C1232.54 596.415 1225.39 599.372 1217.8 599.372C1210.2 599.372 1203.05 596.415 1197.68 591.039C1192.3 585.664 1189.35 578.52 1189.35 570.922C1189.35 563.323 1192.3 556.18 1197.68 550.804C1203.05 545.429 1210.2 542.471 1217.8 542.471C1225.39 542.471 1232.54 545.429 1237.91 550.804C1243.29 556.18 1246.25 563.323 1246.25 570.922C1246.25 578.52 1243.29 585.664 1237.91 591.039Z" fill="black"/>
<path d="M1297.25 536.719C1285.38 536.719 1274.93 542.764 1268.79 551.935V536.719H1263.05V626.438H1268.79V589.902C1274.93 599.08 1285.38 605.118 1297.25 605.118C1316.13 605.118 1331.45 589.804 1331.45 570.915C1331.45 552.026 1316.13 536.712 1297.25 536.712V536.719ZM1317.36 591.039C1311.99 596.415 1304.84 599.372 1297.25 599.372C1289.65 599.372 1282.5 596.415 1277.13 591.039C1271.75 585.664 1268.79 578.52 1268.79 570.922C1268.79 563.323 1271.75 556.18 1277.13 550.804C1282.5 545.429 1289.65 542.471 1297.25 542.471C1304.84 542.471 1311.99 545.429 1317.36 550.804C1322.74 556.18 1325.7 563.323 1325.7 570.922C1325.7 578.52 1322.74 585.664 1317.36 591.039Z" fill="black"/>
<path d="M1525.65 536.719H1519.9V605.118H1525.65V536.719Z" fill="black"/>
<path d="M1647.26 536.719H1632.31V515.405H1626.56V536.719H1611.61V542.471H1626.56V605.118H1632.31V542.471H1647.26V536.719Z" fill="black"/>
<path d="M1401.7 536.719C1382.81 536.719 1367.5 552.033 1367.5 570.922C1367.5 589.811 1382.81 605.125 1401.7 605.125C1415.75 605.125 1427.83 596.649 1433.09 584.526H1426.7C1421.75 593.62 1412.19 599.372 1401.7 599.372C1394.1 599.372 1386.96 596.415 1381.58 591.039C1376.61 586.067 1373.7 579.573 1373.3 572.605H1435.86C1435.89 572.046 1435.9 571.487 1435.9 570.922C1435.9 552.033 1420.59 536.719 1401.7 536.719ZM1381.58 550.798C1386.96 545.422 1394.1 542.465 1401.7 542.465C1409.3 542.465 1416.44 545.422 1421.82 550.798C1426.22 555.198 1429 560.795 1429.86 566.846H1373.54C1374.41 560.788 1377.18 555.198 1381.59 550.798H1381.58Z" fill="black"/>
<path d="M1682.66 536.719C1663.77 536.719 1648.45 552.033 1648.45 570.922C1648.45 589.811 1663.77 605.125 1682.66 605.125C1696.71 605.125 1708.79 596.649 1714.04 584.526H1707.66C1702.7 593.62 1693.15 599.372 1682.66 599.372C1675.06 599.372 1667.91 596.415 1662.54 591.039C1657.57 586.067 1654.66 579.573 1654.26 572.605H1716.82C1716.85 572.046 1716.86 571.487 1716.86 570.922C1716.86 552.033 1701.55 536.719 1682.66 536.719ZM1662.54 550.798C1667.91 545.422 1675.06 542.465 1682.66 542.465C1690.25 542.465 1697.4 545.422 1702.77 550.798C1707.17 555.198 1709.96 560.795 1710.82 566.846H1654.5C1655.36 560.788 1658.14 555.198 1662.55 550.798H1662.54Z" fill="black"/>
<path d="M1503.44 582.069C1502.03 585.378 1499.99 588.42 1497.37 591.039C1492 596.415 1484.85 599.372 1477.26 599.372C1469.66 599.372 1462.51 596.415 1457.14 591.039C1451.76 585.664 1448.81 578.52 1448.81 570.922C1448.81 563.323 1451.76 556.18 1457.14 550.804C1462.51 545.429 1469.66 542.471 1477.26 542.471C1484.85 542.471 1492 545.429 1497.37 550.804C1499.68 553.112 1501.55 555.751 1502.92 558.611H1509.17C1504.23 545.806 1491.8 536.719 1477.26 536.719C1458.37 536.719 1443.05 552.033 1443.05 570.922C1443.05 589.811 1458.37 605.125 1477.26 605.125C1492.24 605.125 1504.97 595.485 1509.59 582.076H1503.44V582.069Z" fill="black"/>
<path d="M1530.42 256.25H1527.55V268.945H1530.42V256.25Z" fill="black"/>
<path d="M1166.73 277.57V298.032C1161.44 285.988 1149.41 277.57 1135.41 277.57C1116.52 277.57 1101.21 292.884 1101.21 311.773C1101.21 330.662 1116.52 345.976 1135.41 345.976C1149.41 345.976 1161.44 337.565 1166.73 325.514V345.976H1169.6V277.57H1166.73ZM1164.27 323.961C1162.69 327.692 1160.43 331.039 1157.55 333.919C1154.67 336.798 1151.33 339.054 1147.6 340.633C1143.73 342.265 1139.63 343.097 1135.4 343.097C1131.17 343.097 1127.07 342.271 1123.21 340.633C1119.48 339.054 1116.13 336.798 1113.25 333.919C1110.37 331.039 1108.11 327.692 1106.54 323.961C1104.9 320.1 1104.07 315.998 1104.07 311.767C1104.07 307.535 1104.9 303.434 1106.54 299.573C1108.11 295.842 1110.37 292.494 1113.25 289.615C1116.13 286.735 1119.48 284.48 1123.21 282.9C1127.07 281.269 1131.17 280.437 1135.4 280.437C1139.63 280.437 1143.73 281.262 1147.6 282.9C1151.33 284.48 1154.67 286.735 1157.55 289.615C1160.43 292.494 1162.69 295.842 1164.27 299.573C1165.9 303.434 1166.73 307.535 1166.73 311.767C1166.73 315.998 1165.91 320.1 1164.27 323.961Z" fill="black"/>
<path d="M1608.67 277.57V298.032C1603.38 285.988 1591.34 277.57 1577.34 277.57C1558.45 277.57 1543.14 292.884 1543.14 311.773C1543.14 330.662 1558.45 345.976 1577.34 345.976C1591.34 345.976 1603.38 337.565 1608.67 325.514V345.976H1611.54V277.57H1608.67ZM1606.2 323.961C1604.62 327.692 1602.37 331.039 1599.49 333.919C1596.61 336.798 1593.26 339.054 1589.53 340.633C1585.67 342.265 1581.57 343.097 1577.34 343.097C1573.11 343.097 1569 342.271 1565.14 340.633C1561.41 339.054 1558.06 336.798 1555.18 333.919C1552.31 331.039 1550.05 327.692 1548.47 323.961C1546.84 320.1 1546.01 315.998 1546.01 311.767C1546.01 307.535 1546.83 303.434 1548.47 299.573C1550.05 295.842 1552.31 292.494 1555.18 289.615C1558.06 286.735 1561.41 284.48 1565.14 282.9C1569 281.269 1573.11 280.437 1577.34 280.437C1581.57 280.437 1585.67 281.262 1589.53 282.9C1593.26 284.48 1596.61 286.735 1599.49 289.615C1602.37 292.494 1604.62 295.842 1606.2 299.573C1607.83 303.434 1608.67 307.535 1608.67 311.767C1608.67 315.998 1607.84 320.1 1606.2 323.961Z" fill="black"/>
<path d="M1220.18 277.57C1206.18 277.57 1194.15 285.981 1188.86 298.032V277.57H1185.98V367.29H1188.86V325.508C1194.15 337.552 1206.18 345.97 1220.18 345.97C1239.07 345.97 1254.38 330.656 1254.38 311.767C1254.38 292.878 1239.07 277.564 1220.18 277.564V277.57ZM1249.05 323.961C1247.47 327.692 1245.21 331.039 1242.33 333.919C1239.45 336.798 1236.11 339.054 1232.38 340.633C1228.51 342.265 1224.41 343.097 1220.18 343.097C1215.95 343.097 1211.85 342.271 1207.99 340.633C1204.26 339.054 1200.91 336.798 1198.03 333.919C1195.15 331.039 1192.89 327.692 1191.31 323.961C1189.68 320.1 1188.85 315.998 1188.85 311.767C1188.85 307.535 1189.68 303.434 1191.31 299.573C1192.89 295.842 1195.15 292.494 1198.03 289.615C1200.91 286.735 1204.26 284.48 1207.99 282.9C1211.85 281.269 1215.95 280.437 1220.18 280.437C1224.41 280.437 1228.51 281.262 1232.38 282.9C1236.11 284.48 1239.45 286.735 1242.33 289.615C1245.21 292.494 1247.47 295.842 1249.05 299.573C1250.68 303.434 1251.51 307.535 1251.51 311.767C1251.51 315.998 1250.69 320.1 1249.05 323.961Z" fill="black"/>
<path d="M1301.42 277.57C1287.42 277.57 1275.39 285.981 1270.09 298.032V277.57H1267.22V367.29H1270.09V325.508C1275.39 337.552 1287.42 345.97 1301.42 345.97C1320.31 345.97 1335.62 330.656 1335.62 311.767C1335.62 292.878 1320.31 277.564 1301.42 277.564V277.57ZM1330.28 323.961C1328.71 327.692 1326.45 331.039 1323.57 333.919C1320.69 336.798 1317.34 339.054 1313.61 340.633C1309.75 342.265 1305.65 343.097 1301.42 343.097C1297.19 343.097 1293.09 342.271 1289.22 340.633C1285.49 339.054 1282.15 336.798 1279.27 333.919C1276.39 331.039 1274.13 327.692 1272.55 323.961C1270.92 320.1 1270.09 315.998 1270.09 311.767C1270.09 307.535 1270.91 303.434 1272.55 299.573C1274.13 295.842 1276.39 292.494 1279.27 289.615C1282.15 286.735 1285.49 284.48 1289.22 282.9C1293.09 281.269 1297.19 280.437 1301.42 280.437C1305.65 280.437 1309.75 281.262 1313.61 282.9C1317.34 284.48 1320.69 286.735 1323.57 289.615C1326.45 292.494 1328.71 295.842 1330.28 299.573C1331.92 303.434 1332.75 307.535 1332.75 311.767C1332.75 315.998 1331.92 320.1 1330.28 323.961Z" fill="black"/>
<path d="M1350.55 292.956V277.57H1347.68V345.97H1350.55V305.247C1350.55 298.624 1353.13 292.397 1357.82 287.71C1362.51 283.024 1368.73 280.443 1375.36 280.443V277.57C1364.49 277.57 1355.08 283.836 1350.55 292.956Z" fill="black"/>
<path d="M1530.42 277.57H1527.55V345.97H1530.42V277.57Z" fill="black"/>
<path d="M1653.16 277.57H1637.76V256.25H1634.89V277.57H1619.5V280.443H1634.89V345.97H1637.76V280.443H1653.16V277.57Z" fill="black"/>
<path d="M1407.43 277.57C1388.54 277.57 1373.22 292.884 1373.22 311.773C1373.22 330.662 1388.54 345.976 1407.43 345.976C1421.6 345.976 1433.75 337.364 1438.94 325.085H1435.79C1434.84 327.107 1433.67 329.024 1432.31 330.805C1430.4 333.301 1428.13 335.492 1425.56 337.318C1420.24 341.101 1413.97 343.103 1407.43 343.103C1403.2 343.103 1399.09 342.278 1395.23 340.64C1391.5 339.06 1388.15 336.805 1385.27 333.925C1382.4 331.046 1380.14 327.698 1378.56 323.967C1376.96 320.184 1376.14 316.161 1376.1 312.02H1438.75L1441.62 312.04C1441.62 311.955 1441.62 311.858 1441.62 311.773C1441.62 292.884 1426.31 277.57 1407.42 277.57H1407.43ZM1385.27 289.621C1388.15 286.742 1391.5 284.486 1395.23 282.907C1399.09 281.275 1403.2 280.443 1407.43 280.443C1411.66 280.443 1415.76 281.269 1419.62 282.907C1423.35 284.486 1426.7 286.742 1429.58 289.621C1432.46 292.501 1434.71 295.848 1436.29 299.579C1437.59 302.634 1438.37 305.839 1438.65 309.141H1376.21C1376.49 305.839 1377.27 302.634 1378.57 299.579C1380.15 295.848 1382.4 292.501 1385.28 289.621H1385.27Z" fill="black"/>
<path d="M1687.41 277.57C1668.52 277.57 1653.2 292.884 1653.2 311.773C1653.2 330.662 1668.52 345.976 1687.41 345.976C1701.58 345.976 1713.73 337.364 1718.92 325.085H1715.77C1714.82 327.107 1713.65 329.024 1712.29 330.805C1710.38 333.301 1708.11 335.492 1705.54 337.318C1700.23 341.101 1693.95 343.103 1687.41 343.103C1683.18 343.103 1679.07 342.278 1675.21 340.64C1671.48 339.06 1668.14 336.805 1665.26 333.925C1662.38 331.046 1660.12 327.698 1658.54 323.967C1656.94 320.184 1656.12 316.161 1656.08 312.02H1718.73L1721.6 312.04C1721.6 311.955 1721.6 311.858 1721.6 311.773C1721.6 292.884 1706.29 277.57 1687.4 277.57H1687.41ZM1665.26 289.621C1668.14 286.742 1671.48 284.486 1675.21 282.907C1679.07 281.275 1683.18 280.443 1687.41 280.443C1691.64 280.443 1695.74 281.269 1699.6 282.907C1703.33 284.486 1706.68 286.742 1709.56 289.621C1712.44 292.501 1714.69 295.848 1716.27 299.579C1717.57 302.634 1718.35 305.839 1718.63 309.141H1656.19C1656.47 305.839 1657.25 302.634 1658.55 299.579C1660.13 295.848 1662.38 292.501 1665.26 289.621H1665.26Z" fill="black"/>
<path d="M1512.36 323.486C1512.3 323.642 1512.24 323.805 1512.17 323.961C1510.59 327.692 1508.33 331.039 1505.45 333.919C1502.57 336.798 1499.23 339.054 1495.5 340.633C1491.63 342.265 1487.53 343.097 1483.3 343.097C1479.07 343.097 1474.97 342.271 1471.11 340.633C1467.38 339.054 1464.03 336.798 1461.15 333.919C1458.27 331.039 1456.01 327.692 1454.43 323.961C1452.8 320.1 1451.97 315.998 1451.97 311.767C1451.97 307.535 1452.8 303.434 1454.43 299.573C1456.01 295.842 1458.27 292.494 1461.15 289.615C1464.03 286.735 1467.38 284.48 1471.11 282.9C1474.97 281.269 1479.07 280.437 1483.3 280.437C1487.53 280.437 1491.63 281.262 1495.5 282.9C1499.23 284.48 1502.57 286.735 1505.45 289.615C1508.33 292.494 1510.59 295.842 1512.17 299.573C1512.23 299.729 1512.3 299.885 1512.36 300.047H1515.44C1510.66 286.93 1498.08 277.57 1483.31 277.57C1464.42 277.57 1449.1 292.884 1449.1 311.773C1449.1 330.662 1464.42 345.976 1483.31 345.976C1498.08 345.976 1510.66 336.61 1515.44 323.499H1512.36V323.486Z" fill="black"/>
<path d="M1528.85 1033.71V1046.4H1540.35V1033.71H1528.85Z" fill="black"/>
<path d="M1158.11 1055.02V1063.65C1152.07 1058.29 1144.12 1055.02 1135.4 1055.02C1116.51 1055.02 1101.2 1070.34 1101.2 1089.23C1101.2 1108.11 1116.51 1123.43 1135.4 1123.43C1144.11 1123.43 1152.07 1120.17 1158.11 1114.8V1123.43H1169.61V1055.03H1158.11V1055.02ZM1158.11 1089.23C1158.11 1095.29 1155.75 1100.99 1151.46 1105.28C1147.17 1109.57 1141.47 1111.93 1135.4 1111.93C1129.34 1111.93 1123.64 1109.57 1119.35 1105.28C1115.06 1100.99 1112.7 1095.29 1112.7 1089.23C1112.7 1083.16 1115.06 1077.46 1119.35 1073.17C1123.64 1068.88 1129.34 1066.52 1135.4 1066.52C1141.47 1066.52 1147.17 1068.88 1151.46 1073.17C1155.75 1077.46 1158.11 1083.16 1158.11 1089.23Z" fill="black"/>
<path d="M1219.73 1055.02C1211.02 1055.02 1203.07 1059.03 1197.03 1064.39V1055.02H1185.53V1144.74H1197.03V1113.91C1203.07 1119.27 1211.02 1123.42 1219.73 1123.42C1238.62 1123.42 1253.94 1108.11 1253.94 1089.22C1253.94 1070.33 1238.62 1055.02 1219.73 1055.02V1055.02ZM1235.79 1105.27C1231.5 1109.56 1225.8 1111.92 1219.73 1111.92C1213.67 1111.92 1207.97 1109.56 1203.68 1105.27C1199.39 1100.98 1197.03 1095.28 1197.03 1089.22C1197.03 1083.15 1199.39 1077.45 1203.68 1073.16C1207.97 1068.87 1213.67 1066.51 1219.73 1066.51C1225.8 1066.51 1231.5 1068.87 1235.79 1073.16C1240.08 1077.45 1242.44 1083.15 1242.44 1089.22C1242.44 1095.28 1240.08 1100.98 1235.79 1105.27Z" fill="black"/>
<path d="M1300.08 1055.02C1291.37 1055.02 1283.41 1059.03 1277.38 1064.39V1055.02H1265.88V1144.74H1277.38V1114.2C1283.41 1119.57 1291.36 1123.42 1300.08 1123.42C1318.97 1123.42 1334.28 1108.11 1334.28 1089.22C1334.28 1070.33 1318.97 1055.02 1300.08 1055.02V1055.02ZM1316.13 1105.27C1311.84 1109.56 1306.14 1111.92 1300.08 1111.92C1294.02 1111.92 1288.31 1109.56 1284.02 1105.27C1279.73 1100.98 1277.38 1095.28 1277.38 1089.22C1277.38 1083.15 1279.73 1077.45 1284.02 1073.16C1288.31 1068.87 1294.02 1066.51 1300.08 1066.51C1306.14 1066.51 1311.84 1068.87 1316.13 1073.16C1320.42 1077.45 1322.78 1083.15 1322.78 1089.22C1322.78 1095.28 1320.42 1100.98 1316.13 1105.27Z" fill="black"/>
<path d="M1609.15 1055.02V1063.65C1603.12 1058.29 1595.17 1055.02 1586.45 1055.02C1567.56 1055.02 1552.25 1070.34 1552.25 1089.23C1552.25 1108.11 1567.56 1123.43 1586.45 1123.43C1595.16 1123.43 1603.12 1120.17 1609.15 1114.8V1123.43H1620.65V1055.03H1609.15V1055.02ZM1609.15 1089.23C1609.15 1095.29 1606.8 1100.99 1602.51 1105.27C1598.22 1109.56 1592.51 1111.92 1586.45 1111.92C1580.39 1111.92 1574.69 1109.56 1570.4 1105.27C1566.11 1100.98 1563.75 1095.28 1563.75 1089.22C1563.75 1083.15 1566.11 1077.45 1570.4 1073.16C1574.69 1068.87 1580.39 1066.51 1586.45 1066.51C1592.51 1066.51 1598.22 1068.87 1602.51 1073.16C1606.8 1077.45 1609.15 1083.15 1609.15 1089.21V1089.23Z" fill="black"/>
<path d="M1540.35 1055.02H1528.85V1123.42H1540.35V1055.02Z" fill="black"/>
<path d="M1651.6 1033.71H1640.1V1053.59H1629.9V1065.08H1640.1V1123.42H1651.6V1065.08H1661.8V1053.59H1651.6V1033.71Z" fill="black"/>
<path d="M1355.9 1061.27V1055.03H1344.4V1123.43H1355.9V1083.78C1355.9 1079.17 1357.25 1074.24 1360.51 1070.99C1363.77 1067.73 1369.59 1066.53 1374.2 1066.53V1055.03C1367.44 1055.03 1361.03 1057.36 1355.91 1061.27H1355.9Z" fill="black"/>
<path d="M1486.43 1066.52C1492.49 1066.52 1498.19 1068.88 1502.48 1073.17C1503.87 1074.55 1505.04 1076.08 1506.01 1077.73H1518.65C1513.92 1064.49 1501.29 1055.02 1486.43 1055.02C1467.55 1055.02 1452.23 1070.34 1452.23 1089.23C1452.23 1108.11 1467.55 1123.43 1486.43 1123.43C1501.29 1123.43 1513.93 1113.96 1518.65 1100.72H1506.02C1505.05 1102.37 1503.87 1103.9 1502.49 1105.28C1498.2 1109.57 1492.5 1111.93 1486.43 1111.93C1480.37 1111.93 1474.67 1109.57 1470.38 1105.28C1466.09 1100.99 1463.73 1095.29 1463.73 1089.23C1463.73 1083.16 1466.09 1077.46 1470.38 1073.17C1474.67 1068.88 1480.37 1066.52 1486.43 1066.52H1486.43Z" fill="black"/>
<path d="M1410.4 1055.02C1391.52 1055.02 1376.2 1070.34 1376.2 1089.23C1376.2 1108.11 1391.52 1123.43 1410.4 1123.43C1423.43 1123.43 1434.75 1116.15 1440.53 1105.44H1426.3C1422.03 1109.62 1416.39 1111.93 1410.4 1111.93C1404.42 1111.93 1398.64 1109.57 1394.35 1105.28C1391.45 1102.38 1389.44 1098.84 1388.43 1094.98H1444.12C1444.44 1093.11 1444.61 1091.19 1444.61 1089.23C1444.61 1070.34 1429.29 1055.03 1410.4 1055.03V1055.02ZM1388.43 1083.47C1389.44 1079.61 1391.46 1076.07 1394.35 1073.17C1398.64 1068.88 1404.34 1066.52 1410.4 1066.52C1416.47 1066.52 1422.17 1068.88 1426.46 1073.17C1429.36 1076.07 1431.37 1079.61 1432.37 1083.47H1388.43Z" fill="black"/>
<path d="M1698.86 1055.02C1679.97 1055.02 1664.66 1070.34 1664.66 1089.23C1664.66 1108.11 1679.97 1123.43 1698.86 1123.43C1711.89 1123.43 1723.2 1116.15 1728.98 1105.44H1714.75C1710.48 1109.62 1704.85 1111.93 1698.86 1111.93C1692.87 1111.93 1687.1 1109.57 1682.81 1105.28C1679.91 1102.38 1677.89 1098.84 1676.89 1094.98H1732.58C1732.9 1093.11 1733.06 1091.19 1733.06 1089.23C1733.06 1070.34 1717.75 1055.03 1698.86 1055.03V1055.02ZM1676.89 1083.47C1677.89 1079.61 1679.91 1076.07 1682.81 1073.17C1687.1 1068.88 1692.8 1066.52 1698.86 1066.52C1704.93 1066.52 1710.63 1068.88 1714.92 1073.17C1717.82 1076.07 1719.83 1079.61 1720.83 1083.47H1676.89Z" fill="black"/>
<path d="M614.607 1083.48V1083.47H551.154V1094.97H614.607V1083.48Z" fill="#3EB9FF"/>
<path d="M334.757 1055.02H334.75V1123.42H346.249V1055.02H334.757Z" fill="#3EB9FF"/>
<path d="M312.053 1066.52C324.572 1066.52 334.757 1076.71 334.757 1089.23C334.757 1101.74 324.572 1111.93 312.053 1111.93C299.534 1111.93 289.348 1101.74 289.348 1089.23C289.348 1076.71 299.534 1066.52 312.053 1066.52ZM312.053 1055.02C293.164 1055.02 277.85 1070.34 277.85 1089.23C277.85 1108.11 293.164 1123.43 312.053 1123.43C330.942 1123.43 346.256 1108.11 346.256 1089.23C346.256 1070.34 330.942 1055.02 312.053 1055.02Z" fill="#8F00FF"/>
<path d="M372.334 1055.02H372.34V1144.74H360.842V1055.02H372.334Z" fill="#3EB9FF"/>
<path d="M395.045 1066.52C407.564 1066.52 417.749 1076.71 417.749 1089.23C417.749 1101.74 407.564 1111.93 395.045 1111.93C382.526 1111.93 372.34 1101.74 372.34 1089.23C372.34 1076.71 382.526 1066.52 395.045 1066.52ZM395.045 1055.02C376.156 1055.02 360.842 1070.34 360.842 1089.23C360.842 1108.11 376.156 1123.43 395.045 1123.43C413.934 1123.43 429.248 1108.11 429.248 1089.23C429.248 1070.34 413.934 1055.02 395.045 1055.02Z" fill="#8F00FF"/>
<path d="M452.082 1055.02H452.088V1144.74H440.59V1055.02H452.082Z" fill="#3EB9FF"/>
<path d="M474.787 1066.52C487.306 1066.52 497.491 1076.71 497.491 1089.23C497.491 1101.74 487.306 1111.93 474.787 1111.93C462.268 1111.93 452.082 1101.74 452.082 1089.23C452.082 1076.71 462.268 1066.52 474.787 1066.52ZM474.787 1055.02C455.898 1055.02 440.584 1070.34 440.584 1089.23C440.584 1108.11 455.898 1123.43 474.787 1123.43C493.676 1123.43 508.99 1108.11 508.99 1089.23C508.99 1070.34 493.676 1055.02 474.787 1055.02Z" fill="#8F00FF"/>
<path d="M784.766 1055.02H784.76V1123.42H796.258V1055.02H784.766Z" fill="#3EB9FF"/>
<path d="M762.055 1066.52C774.574 1066.52 784.759 1076.71 784.759 1089.23C784.759 1101.74 774.574 1111.93 762.055 1111.93C749.536 1111.93 739.35 1101.74 739.35 1089.23C739.35 1076.71 749.536 1066.52 762.055 1066.52ZM762.055 1055.02C743.166 1055.02 727.852 1070.34 727.852 1089.23C727.852 1108.11 743.166 1123.43 762.055 1123.43C780.944 1123.43 796.258 1108.11 796.258 1089.23C796.258 1070.34 780.944 1055.02 762.055 1055.02Z" fill="#8F00FF"/>
<path d="M917.515 1083.48V1083.47H854.062V1094.97H917.515V1083.48Z" fill="#3EB9FF"/>
<path d="M716.704 1046.4V1033.71H716.697H705.205V1046.4H716.704Z" fill="#3EB9FF"/>
<path d="M716.704 1055.02H705.205V1123.42H716.704V1055.02Z" fill="#3EB9FF"/>
<path d="M845.151 1053.59H807.295V1065.08H845.151V1053.59Z" fill="#3EB9FF"/>
<path d="M831.969 1033.71H820.471V1123.43H831.969V1033.71Z" fill="#3EB9FF"/>
<path d="M548.457 1055.02C541.697 1055.02 535.288 1057.36 530.166 1061.26V1055.02H518.668V1123.42H530.166V1083.77C530.166 1079.16 531.512 1074.24 534.775 1070.98C538.031 1067.72 543.855 1066.52 548.464 1066.52V1055.02H548.457Z" fill="#3EB9FF"/>
<path d="M678.64 1100.72C677.672 1102.37 676.489 1103.9 675.111 1105.28C670.821 1109.57 665.12 1111.93 659.056 1111.93C652.991 1111.93 647.291 1109.57 643.001 1105.28C638.711 1100.99 636.351 1095.29 636.351 1089.23C636.351 1083.16 638.711 1077.46 643.001 1073.17C647.291 1068.88 652.991 1066.52 659.056 1066.52C665.12 1066.52 670.821 1068.88 675.111 1073.17C676.495 1074.55 677.672 1076.08 678.64 1077.73H691.276C686.551 1064.49 673.915 1055.02 659.062 1055.02C640.173 1055.02 624.859 1070.34 624.859 1089.23C624.859 1108.11 640.173 1123.43 659.062 1123.43C673.915 1123.43 686.557 1113.96 691.276 1100.72H678.64Z" fill="#8F00FF"/>
<path d="M582.881 1111.92C576.816 1111.92 571.116 1109.56 566.826 1105.27C562.536 1100.98 560.176 1095.28 560.176 1089.22C560.176 1083.15 562.536 1077.45 566.826 1073.16C571.116 1068.87 576.816 1066.51 582.881 1066.51C588.945 1066.51 594.646 1068.87 598.936 1073.16C603.226 1077.45 605.585 1083.15 605.585 1089.22C605.585 1091.19 605.338 1093.11 604.851 1094.97H616.596C616.915 1093.09 617.084 1091.18 617.084 1089.22C617.084 1070.33 601.77 1055.02 582.881 1055.02C563.992 1055.02 548.678 1070.33 548.678 1089.22C548.678 1108.11 563.992 1123.42 582.881 1123.42C595.907 1123.42 607.223 1116.14 613.002 1105.43H598.773C594.503 1109.62 588.867 1111.92 582.881 1111.92Z" fill="#8F00FF"/>
<path d="M885.789 1111.92C879.724 1111.92 874.024 1109.56 869.734 1105.27C865.444 1100.98 863.084 1095.28 863.084 1089.22C863.084 1083.15 865.444 1077.45 869.734 1073.16C874.024 1068.87 879.724 1066.51 885.789 1066.51C891.853 1066.51 897.554 1068.87 901.844 1073.16C906.134 1077.45 908.493 1083.15 908.493 1089.22C908.493 1091.19 908.246 1093.11 907.759 1094.97H919.504C919.823 1093.09 919.992 1091.18 919.992 1089.22C919.992 1070.33 904.678 1055.02 885.789 1055.02C866.9 1055.02 851.586 1070.33 851.586 1089.22C851.586 1108.11 866.9 1123.42 885.789 1123.42C898.815 1123.42 910.131 1116.14 915.91 1105.43H901.681C897.411 1109.62 891.775 1111.92 885.789 1111.92Z" fill="#8F00FF"/>
<path d="M342.803 277.571H342.797V345.97H346.248V277.571H342.803Z" fill="#3EB9FF"/>
<path d="M522.608 277.571H522.602V345.97H526.053V277.571H522.608Z" fill="#3EB9FF"/>
<path d="M312.053 281.022C329.011 281.022 342.804 294.815 342.804 311.774C342.804 328.732 329.011 342.525 312.053 342.525C295.094 342.525 281.301 328.726 281.301 311.767C281.301 294.809 295.094 281.022 312.053 281.022ZM312.053 277.571C293.164 277.571 277.85 292.878 277.85 311.767C277.85 330.656 293.164 345.97 312.053 345.97C330.942 345.97 346.256 330.656 346.256 311.767C346.256 292.878 330.942 277.564 312.053 277.564V277.571Z" fill="#8F00FF"/>
<path d="M784.739 277.571H784.732V345.97H788.184V277.571H784.739Z" fill="#3EB9FF"/>
<path d="M753.988 281.022C770.947 281.022 784.74 294.815 784.74 311.774C784.74 328.732 770.947 342.525 753.988 342.525C737.03 342.525 723.237 328.732 723.237 311.774C723.237 294.815 737.03 281.022 753.988 281.022ZM753.988 277.571C735.099 277.571 719.785 292.885 719.785 311.774C719.785 330.663 735.099 345.977 753.988 345.977C772.877 345.977 788.191 330.663 788.191 311.774C788.191 292.885 772.877 277.571 753.988 277.571Z" fill="#8F00FF"/>
<path d="M366.08 277.571V367.29H362.629V277.571H366.08Z" fill="#3EB9FF"/>
<path d="M396.832 281.022C413.79 281.022 427.583 294.815 427.583 311.774C427.583 328.732 413.79 342.525 396.832 342.525C379.873 342.525 366.08 328.732 366.08 311.774C366.08 294.815 379.873 281.022 396.832 281.022ZM396.832 277.571C377.943 277.571 362.629 292.885 362.629 311.774C362.629 330.663 377.943 345.977 396.832 345.977C415.721 345.977 431.035 330.663 431.035 311.774C431.035 292.885 415.721 277.571 396.832 277.571Z" fill="#8F00FF"/>
<path d="M447.317 277.571V367.29H443.865V277.571H447.317Z" fill="#3EB9FF"/>
<path d="M478.068 281.022C495.027 281.022 508.82 294.815 508.82 311.774C508.82 328.732 495.027 342.525 478.068 342.525C461.11 342.525 447.317 328.732 447.317 311.774C447.317 294.815 461.11 281.022 478.068 281.022ZM478.068 277.571C459.179 277.571 443.865 292.885 443.865 311.774C443.865 330.663 459.179 345.977 478.068 345.977C496.957 345.977 512.271 330.663 512.271 311.774C512.271 292.885 496.957 277.571 478.068 277.571Z" fill="#8F00FF"/>
<path d="M527.203 292.956V277.571H524.33V345.97H527.203V305.248C527.203 298.624 529.784 292.397 534.47 287.711C539.157 283.024 545.384 280.444 552.007 280.444V277.571C541.139 277.571 531.734 283.837 527.203 292.956Z" fill="#3EB9FF"/>
<path d="M707.356 268.945V257.447H707.349H703.904V268.945H707.356Z" fill="#3EB9FF"/>
<path d="M707.356 277.571H703.904V345.97H707.356V277.571Z" fill="#3EB9FF"/>
<path d="M829.804 277.571H796.141V281.022H829.804V277.571Z" fill="#3EB9FF"/>
<path d="M814.412 256.251H810.961V345.97H814.412V256.251Z" fill="#3EB9FF"/>
<path d="M615.375 309.141H550.297V312.593H615.706L615.375 309.141Z" fill="#3EB9FF"/>
<path d="M611.799 325.079C610.298 328.206 608.289 331.04 605.813 333.516C602.985 336.344 599.696 338.56 596.037 340.107C592.247 341.713 588.224 342.525 584.07 342.525C579.917 342.525 575.893 341.713 572.104 340.107C568.444 338.56 565.155 336.344 562.328 333.516C559.5 330.689 557.284 327.4 555.737 323.74C554.131 319.951 553.319 315.927 553.319 311.774C553.319 307.62 554.131 303.597 555.737 299.807C557.284 296.148 559.5 292.859 562.328 290.031C565.155 287.204 568.444 284.987 572.104 283.44C575.893 281.835 579.917 281.022 584.07 281.022C588.224 281.022 592.247 281.835 596.037 283.44C599.696 284.987 602.985 287.204 605.813 290.031C608.64 292.859 610.857 296.148 612.404 299.807C614.009 303.597 614.822 307.62 614.822 311.774C614.822 312.047 614.822 312.32 614.809 312.593H618.26C618.26 312.32 618.273 312.047 618.273 311.774C618.273 292.885 602.959 277.571 584.07 277.571C565.181 277.571 549.867 292.885 549.867 311.774C549.867 330.663 565.181 345.977 584.07 345.977C598.24 345.977 610.395 337.364 615.582 325.086H611.799V325.079Z" fill="#8F00FF"/>
<path d="M895.355 309.141H830.277V312.593H895.693L895.355 309.141Z" fill="#3EB9FF"/>
<path d="M891.787 325.079C890.286 328.206 888.277 331.04 885.801 333.516C882.973 336.344 879.684 338.56 876.025 340.107C872.235 341.713 868.212 342.525 864.058 342.525C859.905 342.525 855.881 341.713 852.092 340.107C848.432 338.56 845.143 336.344 842.316 333.516C839.488 330.689 837.272 327.4 835.725 323.74C834.119 319.951 833.307 315.927 833.307 311.774C833.307 307.62 834.119 303.597 835.725 299.807C837.272 296.148 839.488 292.859 842.316 290.031C845.143 287.204 848.432 284.987 852.092 283.44C855.881 281.835 859.905 281.022 864.058 281.022C868.212 281.022 872.235 281.835 876.025 283.44C879.684 284.987 882.973 287.204 885.801 290.031C888.628 292.859 890.845 296.148 892.392 299.807C893.997 303.597 894.81 307.62 894.81 311.774C894.81 312.047 894.81 312.32 894.797 312.593H898.248C898.248 312.32 898.261 312.047 898.261 311.774C898.261 292.885 882.947 277.571 864.058 277.571C845.169 277.571 829.855 292.885 829.855 311.774C829.855 330.663 845.169 345.977 864.058 345.977C878.228 345.977 890.383 337.364 895.57 325.086H891.787V325.079Z" fill="#8F00FF"/>
<path d="M688.246 323.487C688.213 323.571 688.181 323.656 688.142 323.734C686.595 327.393 684.378 330.682 681.551 333.51C678.723 336.337 675.434 338.554 671.775 340.101C667.985 341.706 663.962 342.519 659.808 342.519C655.655 342.519 651.631 341.706 647.842 340.101C644.182 338.554 640.893 336.337 638.066 333.51C635.238 330.682 633.022 327.393 631.475 323.734C629.869 319.944 629.057 315.921 629.057 311.767C629.057 307.614 629.869 303.59 631.475 299.801C633.022 296.141 635.238 292.852 638.066 290.025C640.893 287.197 644.182 284.981 647.842 283.434C651.631 281.828 655.655 281.016 659.808 281.016C663.962 281.016 667.985 281.828 671.775 283.434C675.434 284.981 678.723 287.197 681.551 290.025C684.378 292.852 686.595 296.141 688.142 299.801C688.174 299.885 688.207 299.97 688.246 300.048H691.944C687.16 286.931 674.576 277.571 659.808 277.571C640.919 277.571 625.605 292.885 625.605 311.774C625.605 330.663 640.919 345.977 659.808 345.977C674.576 345.977 687.16 336.61 691.944 323.5H688.246V323.487Z" fill="#8F00FF"/>
</svg>
