<svg width="2000" height="1400" viewBox="0 0 2000 1400" fill="none" xmlns="http://www.w3.org/2000/svg">
<g clip-path="url(#clip0_248_59204)">
<rect width="2000" height="1400" fill="white"/>
<g clip-path="url(#clip1_248_59204)">
<path d="M448.682 442.357L448.682 251.881L440.674 251.881L440.674 442.357H448.682Z" fill="#222222"/>
<path d="M448.682 695.532L448.682 505.849L432.674 505.849L432.674 695.532H448.682Z" fill="#222222"/>
<path d="M424.666 759.024L424.666 949.5H448.682L448.682 759.024L424.666 759.024Z" fill="#222222"/>
<path d="M448.682 1203.44L448.682 1012.99L416.666 1012.99L416.666 1203.44H448.682Z" fill="#222222"/>
<path d="M702.65 179.563H512.174V187.571H702.65V179.563Z" fill="#222222"/>
<path d="M956.619 171.563H766.143V187.571H956.619V171.563Z" fill="#222222"/>
<path d="M1020.11 187.572H1020.15H1210.59V163.556H1020.11V187.572Z" fill="#222222"/>
<path d="M1464.53 155.556H1274.08V187.572H1464.53V155.556Z" fill="#222222"/>
<path d="M694.602 251.063V308.056C679.872 274.516 646.372 251.063 607.388 251.063C554.793 251.063 512.174 293.69 512.174 346.278C512.174 398.873 554.801 441.54 607.388 441.54C646.372 441.54 679.872 418.127 694.602 384.548V441.54H702.61V251.063H694.602ZM687.721 380.262C683.317 390.667 677.039 399.992 669.031 408C661.023 416.008 651.698 422.286 641.293 426.69C630.523 431.254 619.118 433.532 607.348 433.532C595.579 433.532 584.134 431.214 573.404 426.69C562.999 422.286 553.674 416 545.666 408C537.658 399.992 531.38 390.667 526.975 380.262C522.412 369.492 520.134 358.087 520.134 346.317C520.134 334.548 522.46 323.103 526.975 312.373C531.38 301.968 537.658 292.643 545.666 284.635C553.674 276.627 562.999 270.349 573.404 265.944C584.174 261.381 595.579 259.103 607.348 259.103C619.118 259.103 630.563 261.421 641.293 265.944C651.698 270.349 661.023 276.635 669.031 284.635C677.039 292.643 683.317 301.968 687.721 312.373C692.285 323.143 694.563 334.548 694.563 346.317C694.563 358.087 692.285 369.532 687.721 380.262Z" fill="#222222"/>
<path d="M940.563 251.063V293.452C923.476 267.921 894.373 251.063 861.357 251.063C808.762 251.063 766.143 293.69 766.143 346.278C766.143 398.873 808.77 441.54 861.357 441.54C894.42 441.54 923.516 424.73 940.563 399.151V441.54H956.571V251.063H940.563ZM917.349 402.317C902.381 417.286 882.484 425.532 861.317 425.532C840.151 425.532 820.254 417.286 805.285 402.317C790.317 387.349 782.071 367.452 782.071 346.286C782.071 325.119 790.317 305.222 805.285 290.254C820.254 275.286 840.151 267.04 861.317 267.04C882.484 267.04 902.381 275.286 917.349 290.254C932.317 305.222 940.563 325.119 940.563 346.286C940.563 367.452 932.317 387.349 917.349 402.317Z" fill="#222222"/>
<path d="M1186.53 251.103V283.119C1169.08 263.468 1143.63 251.103 1115.32 251.103C1062.73 251.103 1020.11 293.73 1020.11 346.317C1020.11 398.913 1062.74 441.532 1115.32 441.532C1143.66 441.532 1169.12 429.167 1186.53 409.516V441.532H1210.55V251.063H1186.53V251.103ZM1165.68 396.675C1152.24 410.119 1134.34 417.524 1115.33 417.524C1096.32 417.524 1078.43 410.119 1064.98 396.675C1051.54 383.23 1044.13 365.333 1044.13 346.325C1044.13 327.317 1051.54 309.421 1064.98 295.976C1078.43 282.532 1096.32 275.127 1115.33 275.127C1134.34 275.127 1152.24 282.532 1165.68 295.976C1179.13 309.421 1186.53 327.317 1186.53 346.325C1186.53 365.333 1179.13 383.23 1165.68 396.675Z" fill="#222222"/>
<path d="M1432.53 251.063V275.079C1415.71 260.151 1393.58 251.063 1369.32 251.063C1316.71 251.063 1274.08 293.698 1274.08 346.302C1274.08 398.905 1316.71 441.54 1369.32 441.54C1393.58 441.54 1415.71 432.452 1432.53 417.524V441.54H1464.55V346.302V251.063H1432.53ZM1432.53 346.302C1432.53 363.198 1425.97 379.087 1414 391.016C1402.07 402.944 1386.17 409.548 1369.28 409.548C1352.4 409.548 1336.5 402.984 1324.57 391.016C1312.64 379.048 1306.04 363.19 1306.04 346.302C1306.04 329.413 1312.6 313.516 1324.57 301.587C1336.54 289.659 1352.4 283.056 1369.28 283.056C1386.17 283.056 1402.07 289.619 1414 301.587C1425.93 313.556 1432.53 329.413 1432.53 346.302Z" fill="#222222"/>
<path d="M686.594 505.032V547.421C669.507 521.889 640.404 505.032 607.388 505.032C554.793 505.032 512.174 547.659 512.174 600.246C512.174 652.841 554.801 695.508 607.388 695.508C640.452 695.508 669.547 678.698 686.594 653.119V695.508H702.602V505.032H686.594ZM663.38 656.286C648.412 671.254 628.515 679.5 607.348 679.5C586.182 679.5 566.285 671.254 551.317 656.286C536.348 641.317 528.102 621.421 528.102 600.254C528.102 579.087 536.348 559.19 551.317 544.222C566.285 529.254 586.182 521.008 607.348 521.008C628.515 521.008 648.412 529.254 663.38 544.222C678.348 559.19 686.594 579.087 686.594 600.254C686.594 621.421 678.348 641.317 663.38 656.286Z" fill="#222222"/>
<path d="M940.563 505.032V547.421C923.476 521.889 894.373 505.032 861.357 505.032C808.762 505.032 766.143 547.659 766.143 600.246C766.143 652.841 808.77 695.508 861.357 695.508C894.42 695.508 923.516 678.699 940.563 653.119V695.508H956.571V505.032H940.563ZM917.349 656.286C902.381 671.254 882.484 679.5 861.317 679.5C840.151 679.5 820.254 671.254 805.285 656.286C790.317 641.318 782.071 621.421 782.071 600.254C782.071 579.088 790.317 559.191 805.285 544.222C820.254 529.254 840.151 521.008 861.317 521.008C882.484 521.008 902.381 529.254 917.349 544.222C932.317 559.191 940.563 579.088 940.563 600.254C940.563 621.421 932.317 641.318 917.349 656.286Z" fill="#222222"/>
<path d="M1186.53 505.072V537.088C1169.08 517.437 1143.63 505.072 1115.32 505.072C1062.73 505.072 1020.11 547.699 1020.11 600.286C1020.11 652.881 1062.74 695.5 1115.32 695.5C1143.66 695.5 1169.12 683.135 1186.53 663.484V695.5H1210.55V505.032H1186.53V505.072ZM1165.68 650.643C1152.24 664.088 1134.34 671.492 1115.33 671.492C1096.32 671.492 1078.43 664.088 1064.98 650.643C1051.54 637.199 1044.13 619.302 1044.13 600.294C1044.13 581.286 1051.54 563.389 1064.98 549.945C1078.43 536.5 1096.32 529.095 1115.33 529.095C1134.34 529.095 1152.24 536.5 1165.68 549.945C1179.13 563.389 1186.53 581.286 1186.53 600.294C1186.53 619.302 1179.13 637.199 1165.68 650.643Z" fill="#222222"/>
<path d="M1432.53 505.032V529.048C1415.71 514.119 1393.58 505.032 1369.32 505.032C1316.71 505.032 1274.08 547.667 1274.08 600.27C1274.08 652.873 1316.71 695.508 1369.32 695.508C1393.58 695.508 1415.71 686.421 1432.53 671.492V695.508H1464.55V600.27V505.032H1432.53ZM1432.53 600.27C1432.53 617.167 1425.97 633.056 1414 644.984C1402.07 656.913 1386.17 663.516 1369.28 663.516C1352.4 663.516 1336.5 656.953 1324.57 644.984C1312.64 633.016 1306.04 617.159 1306.04 600.27C1306.04 583.381 1312.6 567.484 1324.57 555.556C1336.54 543.627 1352.4 537.024 1369.28 537.024C1386.17 537.024 1402.07 543.588 1414 555.556C1425.93 567.524 1432.53 583.381 1432.53 600.27Z" fill="#222222"/>
<path d="M678.594 759.04V791.056C661.142 771.405 635.69 759.04 607.388 759.04C554.793 759.04 512.174 801.667 512.174 854.254C512.174 906.849 554.801 949.468 607.388 949.468C635.729 949.468 661.182 937.103 678.594 917.452V949.468H702.61V759H678.594V759.04ZM657.745 904.611C644.301 918.056 626.404 925.46 607.396 925.46C588.388 925.46 570.491 918.056 557.047 904.611C543.602 891.167 536.198 873.27 536.198 854.262C536.198 835.254 543.602 817.357 557.047 803.913C570.491 790.468 588.388 783.063 607.396 783.063C626.404 783.063 644.301 790.468 657.745 803.913C671.19 817.357 678.594 835.254 678.594 854.262C678.594 873.27 671.19 891.167 657.745 904.611Z" fill="#222222"/>
<path d="M932.563 759.04V791.056C915.111 771.405 889.658 759.04 861.357 759.04C808.762 759.04 766.143 801.667 766.143 854.254C766.143 906.849 808.77 949.468 861.357 949.468C889.698 949.468 915.151 937.103 932.563 917.452V949.468H956.579V759H932.563V759.04ZM911.714 904.611C898.27 918.056 880.373 925.46 861.365 925.46C842.357 925.46 824.46 918.056 811.016 904.611C797.571 891.167 790.166 873.27 790.166 854.262C790.166 835.254 797.571 817.357 811.016 803.913C824.46 790.468 842.357 783.063 861.365 783.063C880.373 783.063 898.27 790.468 911.714 803.913C925.158 817.357 932.563 835.254 932.563 854.262C932.563 873.27 925.158 891.167 911.714 904.611Z" fill="#222222"/>
<path d="M1186.53 759.04V791.056C1169.08 771.405 1143.63 759.04 1115.32 759.04C1062.73 759.04 1020.11 801.667 1020.11 854.254C1020.11 906.849 1062.74 949.468 1115.32 949.468C1143.66 949.468 1169.12 937.103 1186.53 917.452V949.468H1210.55V759H1186.53V759.04ZM1165.68 904.611C1152.24 918.056 1134.34 925.46 1115.33 925.46C1096.32 925.46 1078.43 918.056 1064.98 904.611C1051.54 891.167 1044.13 873.27 1044.13 854.262C1044.13 835.254 1051.54 817.357 1064.98 803.913C1078.43 790.468 1096.32 783.063 1115.33 783.063C1134.34 783.063 1152.24 790.468 1165.68 803.913C1179.13 817.357 1186.53 835.254 1186.53 854.262C1186.53 873.27 1179.13 891.167 1165.68 904.611Z" fill="#222222"/>
<path d="M1432.53 759V783.016C1415.71 768.087 1393.58 759 1369.32 759C1316.71 759 1274.08 801.635 1274.08 854.238C1274.08 906.841 1316.71 949.476 1369.32 949.476C1393.58 949.476 1415.71 940.389 1432.53 925.46V949.476H1464.55V854.238V759H1432.53ZM1432.53 854.238C1432.53 871.135 1425.97 887.024 1414 898.952C1402.07 910.881 1386.17 917.484 1369.28 917.484C1352.4 917.484 1336.5 910.921 1324.57 898.952C1312.64 886.984 1306.04 871.127 1306.04 854.238C1306.04 837.349 1312.6 821.452 1324.57 809.524C1336.54 797.595 1352.4 790.992 1369.28 790.992C1386.17 790.992 1402.07 797.556 1414 809.524C1425.93 821.492 1432.53 837.349 1432.53 854.238Z" fill="#222222"/>
<path d="M670.626 1012.97V1036.98C653.809 1022.06 631.674 1012.97 607.412 1012.97C554.809 1012.97 512.174 1055.6 512.174 1108.21C512.174 1160.81 554.809 1203.44 607.412 1203.44C631.674 1203.44 653.809 1194.36 670.626 1179.43V1203.44H702.65V1108.21V1012.97H670.626ZM670.626 1108.21C670.626 1125.1 664.063 1140.99 652.094 1152.92C640.166 1164.85 624.269 1171.45 607.38 1171.45C590.491 1171.45 574.594 1164.89 562.666 1152.92C550.737 1140.95 544.134 1125.1 544.134 1108.21C544.134 1091.32 550.698 1075.42 562.666 1063.49C574.634 1051.56 590.491 1044.96 607.38 1044.96C624.269 1044.96 640.166 1051.52 652.094 1063.49C664.023 1075.46 670.626 1091.32 670.626 1108.21Z" fill="#222222"/>
<path d="M924.595 1012.97V1036.98C907.778 1022.06 885.643 1012.97 861.381 1012.97C808.778 1012.97 766.143 1055.6 766.143 1108.21C766.143 1160.81 808.778 1203.44 861.381 1203.44C885.643 1203.44 907.778 1194.36 924.595 1179.43V1203.44H956.619V1108.21V1012.97H924.595ZM924.595 1108.21C924.595 1125.1 918.031 1140.99 906.063 1152.92C894.135 1164.85 878.238 1171.45 861.349 1171.45C844.46 1171.45 828.563 1164.89 816.635 1152.92C804.706 1140.95 798.103 1125.1 798.103 1108.21C798.103 1091.32 804.666 1075.42 816.635 1063.49C828.603 1051.56 844.46 1044.96 861.349 1044.96C878.238 1044.96 894.135 1051.52 906.063 1063.49C917.992 1075.46 924.595 1091.32 924.595 1108.21Z" fill="#222222"/>
<path d="M1178.56 1012.97V1036.98C1161.74 1022.06 1139.61 1012.97 1115.35 1012.97C1062.74 1012.97 1020.11 1055.6 1020.11 1108.21C1020.11 1160.81 1062.74 1203.44 1115.35 1203.44C1139.61 1203.44 1161.74 1194.36 1178.56 1179.43V1203.44H1210.59V1108.21V1012.97H1178.56ZM1178.56 1108.21C1178.56 1125.1 1172 1140.99 1160.03 1152.92C1148.1 1164.85 1132.2 1171.45 1115.32 1171.45C1098.43 1171.45 1082.53 1164.89 1070.6 1152.92C1058.67 1140.95 1052.07 1125.1 1052.07 1108.21C1052.07 1091.32 1058.63 1075.42 1070.6 1063.49C1082.57 1051.56 1098.43 1044.96 1115.32 1044.96C1132.2 1044.96 1148.1 1051.52 1160.03 1063.49C1171.96 1075.46 1178.56 1091.32 1178.56 1108.21Z" fill="#222222"/>
<path d="M1432.53 1012.97V1036.98C1415.71 1022.06 1393.58 1012.97 1369.32 1012.97C1316.71 1012.97 1274.08 1055.6 1274.08 1108.21C1274.08 1160.81 1316.71 1203.44 1369.32 1203.44C1393.58 1203.44 1415.71 1194.36 1432.53 1179.43V1203.44H1464.55V1108.21V1012.97H1432.53ZM1432.53 1108.21C1432.53 1125.1 1425.97 1140.99 1414 1152.92C1402.07 1164.85 1386.17 1171.45 1369.28 1171.45C1352.4 1171.45 1336.5 1164.89 1324.57 1152.92C1312.64 1140.95 1306.04 1125.1 1306.04 1108.21C1306.04 1091.32 1312.6 1075.42 1324.57 1063.49C1336.54 1051.56 1352.4 1044.96 1369.28 1044.96C1386.17 1044.96 1402.07 1051.52 1414 1063.49C1425.93 1075.46 1432.53 1091.32 1432.53 1108.21Z" fill="#222222"/>
<rect y="249.206" width="2000" height="1.5873" fill="#8F00FF"/>
<rect y="757.143" width="2000" height="1.5873" fill="#8F00FF"/>
<rect y="503.175" width="2000" height="1.5873" fill="#8F00FF"/>
<rect y="1011.11" width="2000" height="1.5873" fill="#8F00FF"/>
<rect y="441.27" width="2000" height="1.5873" fill="#8F00FF"/>
<rect y="949.206" width="2000" height="1.5873" fill="#8F00FF"/>
<rect y="695.238" width="2000" height="1.5873" fill="#8F00FF"/>
<rect y="1203.17" width="2000" height="1.5873" fill="#8F00FF"/>
<path d="M1465.87 7.67344e-08L1465.87 1400H1464.28L1464.28 0L1465.87 7.67344e-08Z" fill="#8F00FF"/>
<path d="M957.935 7.67344e-08L957.935 1400H956.348L956.348 0L957.935 7.67344e-08Z" fill="#8F00FF"/>
<path d="M1211.9 7.67344e-08L1211.9 1400H1210.32L1210.32 0L1211.9 7.67344e-08Z" fill="#8F00FF"/>
<path d="M703.967 7.67344e-08L703.967 1400H702.38L702.38 0L703.967 7.67344e-08Z" fill="#8F00FF"/>
<path d="M1273.81 7.67344e-08L1273.81 1400H1272.22L1272.22 0L1273.81 7.67344e-08Z" fill="#8F00FF"/>
<path d="M765.872 7.67344e-08L765.872 1400H764.285L764.285 0L765.872 7.67344e-08Z" fill="#8F00FF"/>
<path d="M1019.84 7.67344e-08L1019.84 1400H1018.25L1018.25 0L1019.84 7.67344e-08Z" fill="#8F00FF"/>
<path d="M511.904 7.67344e-08L511.904 1400H510.316L510.316 0L511.904 7.67344e-08Z" fill="#8F00FF"/>
</g>
</g>
<defs>
<clipPath id="clip0_248_59204">
<rect width="2000" height="1400" fill="white"/>
</clipPath>
<clipPath id="clip1_248_59204">
<rect width="2000" height="1400" fill="white"/>
</clipPath>
</defs>
</svg>
