<svg width="2000" height="1400" viewBox="0 0 2000 1400" fill="none" xmlns="http://www.w3.org/2000/svg">
<g clip-path="url(#clip0_248_59282)">
<rect width="2000" height="1400" fill="#8F00FF"/>
<path d="M571.054 482.572V531.713C536.642 501.166 491.348 482.572 441.703 482.572C334.065 482.572 246.824 569.812 246.824 677.45C246.824 785.088 334.065 872.329 441.703 872.329C491.348 872.329 536.642 853.735 571.054 823.187V872.329H636.582V677.45V482.572H571.054V482.572ZM571.054 677.45C571.054 712.025 557.624 744.537 533.134 768.946C508.725 793.355 476.197 806.866 441.638 806.866C407.08 806.866 374.551 793.436 350.142 768.946C325.734 744.456 312.222 712.009 312.222 677.45C312.222 642.892 325.653 610.363 350.142 585.955C374.632 561.546 407.08 548.035 441.638 548.035C476.197 548.035 508.725 561.465 533.134 585.955C557.542 610.445 571.054 642.892 571.054 677.45Z" stroke="white" stroke-width="4" stroke-miterlimit="10"/>
<path d="M587.44 482.621V548.149C551.728 507.923 499.631 482.621 441.703 482.621C334.065 482.621 246.824 569.861 246.824 677.5C246.824 785.138 334.065 872.378 441.703 872.378C499.696 872.378 551.793 847.06 587.44 806.85V872.378H636.582V482.54H587.44V482.621ZM544.762 780.558C517.235 808.085 480.614 823.237 441.703 823.237C402.792 823.237 366.171 808.085 338.645 780.558C311.118 753.031 295.966 716.41 295.966 677.5C295.966 638.589 311.118 601.968 338.645 574.441C366.171 546.915 402.792 531.763 441.703 531.763C480.614 531.763 517.235 546.915 544.762 574.441C572.288 601.968 587.44 638.589 587.44 677.5C587.44 716.41 572.288 753.031 544.762 780.558Z" stroke="white" stroke-width="4" stroke-miterlimit="10"/>
<path d="M603.826 482.54V569.293C568.845 517.033 509.294 482.54 441.719 482.54C334.065 482.54 246.824 569.78 246.824 677.418C246.824 785.056 334.065 872.378 441.703 872.378C509.359 872.378 568.927 837.966 603.81 785.625V872.378H636.582V482.54H603.81H603.826ZM556.308 792.105C525.663 822.749 484.966 839.623 441.622 839.623C398.278 839.623 357.58 822.749 326.936 792.105C296.291 761.46 279.418 720.763 279.418 677.418C279.418 634.074 296.291 593.377 326.936 562.732C357.58 532.088 398.278 515.214 441.622 515.214C484.966 515.214 525.663 532.088 556.308 562.732C586.953 593.377 603.826 634.074 603.826 677.418C603.826 720.763 586.953 761.46 556.308 792.105Z" stroke="white" stroke-width="4" stroke-miterlimit="10"/>
<path d="M620.212 482.54V599.191C590.071 530.545 521.506 482.54 441.719 482.54C334.065 482.54 246.824 569.78 246.824 677.418C246.824 785.056 334.065 872.378 441.703 872.378C521.49 872.378 590.055 824.454 620.196 755.727V872.378H636.582V482.54H620.196H620.212ZM606.116 746.958C597.103 768.248 584.241 787.346 567.855 803.732C551.469 820.118 532.387 832.98 511.08 841.994C489.042 851.332 465.706 856.009 441.622 856.009C417.538 856.009 394.104 851.25 372.164 841.994C350.873 832.98 331.775 820.118 315.389 803.732C299.003 787.346 286.141 768.264 277.128 746.958C267.79 724.92 263.113 701.583 263.113 677.5C263.113 653.416 267.871 629.982 277.128 608.042C286.141 586.751 299.003 567.653 315.389 551.267C331.775 534.881 350.857 522.019 372.164 513.006C394.201 503.668 417.538 498.991 441.622 498.991C465.706 498.991 489.14 503.749 511.08 513.006C532.37 522.019 551.469 534.881 567.855 551.267C584.241 567.653 597.103 586.735 606.116 608.042C615.454 630.079 620.131 653.416 620.131 677.5C620.131 701.583 615.454 725.018 606.116 746.958Z" stroke="white" stroke-width="4" stroke-miterlimit="10"/>
<path d="M1129.8 482.54V531.662C1095.39 501.127 1050.11 482.54 1000.47 482.54C892.853 482.54 805.629 569.746 805.629 677.34C805.629 784.935 892.853 872.141 1000.47 872.141C1050.11 872.141 1095.39 853.554 1129.8 823.019V872.141H1195.31V677.34V482.54H1129.8ZM1129.8 677.34C1129.8 711.901 1116.37 744.401 1091.88 768.799C1067.48 793.198 1034.96 806.704 1000.41 806.704C965.853 806.704 933.331 793.279 908.927 768.799C884.523 744.319 871.014 711.885 871.014 677.34C871.014 642.796 884.442 610.28 908.927 585.882C933.412 561.483 965.853 547.977 1000.41 547.977C1034.96 547.977 1067.48 561.402 1091.88 585.882C1116.29 610.361 1129.8 642.796 1129.8 677.34Z" fill="white"/>
<path d="M1146.18 482.621V548.123C1110.47 507.913 1058.39 482.621 1000.47 482.621C892.853 482.621 805.629 569.827 805.629 677.422C805.629 785.017 892.853 872.222 1000.47 872.222C1058.45 872.222 1110.54 846.914 1146.18 806.721V872.222H1195.31V482.54H1146.18V482.621ZM1103.51 780.439C1075.99 807.954 1039.37 823.1 1000.47 823.1C961.567 823.1 924.953 807.954 897.432 780.439C869.91 752.923 854.761 716.317 854.761 677.422C854.761 638.526 869.91 601.92 897.432 574.405C924.953 546.889 961.567 531.743 1000.47 531.743C1039.37 531.743 1075.99 546.889 1103.51 574.405C1131.03 601.92 1146.18 638.526 1146.18 677.422C1146.18 716.317 1131.03 752.923 1103.51 780.439Z" fill="white"/>
<path d="M1162.55 482.54V569.259C1127.57 517.02 1068.03 482.54 1000.47 482.54C892.853 482.54 805.629 569.746 805.629 677.34C805.629 784.935 892.853 872.222 1000.47 872.222C1068.11 872.222 1127.67 837.824 1162.55 785.504V872.222H1195.31V482.54H1162.55ZM1115.04 791.981C1084.4 822.613 1043.71 839.48 1000.37 839.48C957.037 839.48 916.347 822.613 885.709 791.981C855.07 761.348 838.2 720.667 838.2 677.34C838.2 634.014 855.07 593.333 885.709 562.7C916.347 532.068 957.037 515.201 1000.37 515.201C1043.71 515.201 1084.4 532.068 1115.04 562.7C1145.68 593.333 1162.55 634.014 1162.55 677.34C1162.55 720.667 1145.68 761.348 1115.04 791.981Z" fill="white"/>
<path d="M1178.93 482.54V599.144C1148.79 530.526 1080.24 482.54 1000.47 482.54C892.853 482.54 805.629 569.746 805.629 677.34C805.629 784.935 892.853 872.222 1000.47 872.222C1080.24 872.222 1148.79 824.318 1178.93 755.618V872.222H1195.31V482.54H1178.93ZM1164.83 746.852C1155.82 768.134 1142.96 787.224 1126.58 803.604C1110.2 819.983 1091.12 832.84 1069.82 841.85C1047.78 851.184 1024.45 855.859 1000.37 855.859C976.294 855.859 952.864 851.103 930.928 841.85C909.642 832.84 890.547 819.983 874.164 803.604C857.781 787.224 844.922 768.15 835.91 746.852C826.574 724.823 821.898 701.496 821.898 677.422C821.898 653.348 826.656 629.923 835.91 607.991C844.922 586.709 857.781 567.619 874.164 551.239C890.547 534.86 909.625 522.003 930.928 512.994C952.961 503.659 976.294 498.984 1000.37 498.984C1024.45 498.984 1047.88 503.741 1069.82 512.994C1091.1 522.003 1110.2 534.86 1126.58 551.239C1142.96 567.619 1155.82 586.693 1164.83 607.991C1174.17 630.02 1178.85 653.348 1178.85 677.422C1178.85 701.496 1174.17 724.921 1164.83 746.852Z" fill="white"/>
<path d="M1736.9 482.54V599.144C1706.82 530.526 1638.41 482.54 1558.8 482.54C1451.41 482.54 1364.36 569.746 1364.36 677.34C1364.36 784.935 1451.41 872.222 1558.8 872.222C1638.41 872.222 1706.82 824.318 1736.9 755.618V872.222H1753.25V482.54H1736.9ZM1722.83 746.852C1713.84 768.134 1701.01 787.224 1684.66 803.604C1668.31 819.983 1649.27 832.84 1628.01 841.85C1606.02 851.184 1582.74 855.859 1558.71 855.859C1534.68 855.859 1511.29 851.103 1489.4 841.85C1468.16 832.84 1449.1 819.983 1432.76 803.604C1416.41 787.224 1403.57 768.15 1394.58 746.852C1385.26 724.823 1380.6 701.496 1380.6 677.422C1380.6 653.348 1385.34 629.923 1394.58 607.991C1403.57 586.709 1416.41 567.619 1432.76 551.239C1449.1 534.86 1468.14 522.003 1489.4 512.994C1511.39 503.659 1534.68 498.984 1558.71 498.984C1582.74 498.984 1606.12 503.741 1628.01 512.994C1649.25 522.003 1668.31 534.86 1684.66 551.239C1701.01 567.619 1713.84 586.693 1722.83 607.991C1732.15 630.02 1736.82 653.348 1736.82 677.422C1736.82 701.496 1732.15 724.921 1722.83 746.852Z" fill="white" fill-opacity="0.4"/>
<path d="M1720.55 482.54V569.259C1685.65 517.02 1626.23 482.54 1558.8 482.54C1451.41 482.54 1364.36 569.746 1364.36 677.34C1364.36 784.935 1451.41 872.222 1558.8 872.222C1626.31 872.222 1685.74 837.824 1720.55 785.504V872.222H1753.25V482.54H1720.55ZM1673.14 791.981C1642.56 822.613 1601.95 839.48 1558.71 839.48C1515.46 839.48 1474.85 822.613 1444.28 791.981C1413.7 761.348 1396.86 720.667 1396.86 677.34C1396.86 634.014 1413.7 593.333 1444.28 562.7C1474.85 532.068 1515.46 515.201 1558.71 515.201C1601.95 515.201 1642.56 532.068 1673.14 562.7C1703.71 593.333 1720.55 634.014 1720.55 677.34C1720.55 720.667 1703.71 761.348 1673.14 791.981Z" fill="white" fill-opacity="0.4"/>
<path d="M1704.22 482.621V548.123C1668.58 507.913 1616.6 482.621 1558.8 482.621C1451.41 482.621 1364.36 569.827 1364.36 677.422C1364.36 785.017 1451.41 872.222 1558.8 872.222C1616.67 872.222 1668.65 846.914 1704.22 806.721V872.222H1753.25V482.54H1704.22V482.621ZM1661.63 780.439C1634.17 807.954 1597.63 823.1 1558.8 823.1C1519.98 823.1 1483.44 807.954 1455.98 780.439C1428.51 752.923 1413.39 716.317 1413.39 677.422C1413.39 638.526 1428.51 601.92 1455.98 574.405C1483.44 546.889 1519.98 531.743 1558.8 531.743C1597.63 531.743 1634.17 546.889 1661.63 574.405C1689.1 601.92 1704.22 638.526 1704.22 677.422C1704.22 716.317 1689.1 752.923 1661.63 780.439Z" fill="white" fill-opacity="0.4"/>
<path d="M1687.87 482.54V531.662C1653.53 501.127 1608.34 482.54 1558.8 482.54C1451.41 482.54 1364.36 569.746 1364.36 677.34C1364.36 784.935 1451.41 872.141 1558.8 872.141C1608.34 872.141 1653.53 853.554 1687.87 823.019V872.141H1753.25V677.34V482.54H1687.87ZM1687.87 677.34C1687.87 711.901 1674.47 744.401 1650.03 768.799C1625.68 793.198 1593.22 806.704 1558.74 806.704C1524.26 806.704 1491.8 793.279 1467.45 768.799C1443.09 744.319 1429.61 711.885 1429.61 677.34C1429.61 642.796 1443.01 610.28 1467.45 585.882C1491.88 561.483 1524.26 547.977 1558.74 547.977C1593.22 547.977 1625.68 561.402 1650.03 585.882C1674.38 610.361 1687.87 642.796 1687.87 677.34Z" fill="white" fill-opacity="0.4"/>
</g>
<defs>
<clipPath id="clip0_248_59282">
<rect width="2000" height="1400" fill="white"/>
</clipPath>
</defs>
</svg>
