<svg width="2000" height="1400" viewBox="0 0 2000 1400" fill="none" xmlns="http://www.w3.org/2000/svg">
<g clip-path="url(#clip0_248_59301)">
<rect width="2000" height="1400" fill="white"/>
<path d="M600.382 341.029V362.218C597.619 355.916 593.079 350.556 587.318 346.793C581.558 343.03 574.825 341.027 567.944 341.029V341.029C563.294 341.028 558.688 341.943 554.391 343.722C550.095 345.502 546.191 348.11 542.903 351.399C539.615 354.689 537.007 358.593 535.229 362.891C533.451 367.188 532.538 371.794 532.541 376.445V376.445C532.539 381.094 533.454 385.699 535.233 389.995C537.011 394.291 539.619 398.194 542.907 401.482C546.195 404.77 550.098 407.378 554.394 409.156C558.69 410.935 563.295 411.85 567.944 411.848C574.825 411.85 581.558 409.847 587.318 406.084C593.079 402.321 597.619 396.961 600.382 390.66V411.848H603.36V341.029H600.382ZM597.786 389.064C596.175 392.927 593.806 396.428 590.818 399.36C587.856 402.315 584.36 404.681 580.516 406.334C576.521 408.025 572.223 408.886 567.885 408.864C563.547 408.866 559.251 408.006 555.248 406.334C551.386 404.718 547.885 402.347 544.952 399.36C542.009 396.391 539.646 392.899 537.984 389.064C536.3 385.071 535.445 380.778 535.471 376.445C535.471 372.108 536.333 367.814 538.008 363.814C539.621 359.951 541.99 356.45 544.975 353.517C547.937 350.565 551.431 348.199 555.272 346.544C559.269 344.852 563.568 343.991 567.909 344.013C572.236 344.011 576.521 344.868 580.516 346.532C584.379 348.146 587.88 350.517 590.812 353.505C593.768 356.464 596.135 359.959 597.786 363.802C599.487 367.799 600.357 372.101 600.34 376.445C600.37 380.782 599.5 385.079 597.786 389.064Z" fill="#222222"/>
<path d="M728.966 341.029C722.086 341.027 715.354 343.03 709.594 346.793C703.834 350.556 699.296 355.916 696.534 362.218V341.029H693.557V411.836H696.534V390.648C699.296 396.949 703.834 402.309 709.594 406.072C715.354 409.835 722.086 411.838 728.966 411.836C733.615 411.838 738.218 410.923 742.513 409.145C746.809 407.368 750.712 404.761 753.999 401.474C757.287 398.188 759.895 394.286 761.674 389.991C763.454 385.696 764.369 381.093 764.369 376.445V376.445C764.376 371.793 763.466 367.185 761.689 362.886C759.912 358.587 757.305 354.681 754.016 351.391C750.728 348.101 746.822 345.492 742.524 343.714C738.225 341.936 733.618 341.024 728.966 341.029V341.029ZM758.867 389.064C757.254 392.926 754.885 396.427 751.899 399.36C748.931 402.306 745.439 404.671 741.603 406.334C737.606 408.025 733.306 408.886 728.966 408.864C724.63 408.866 720.336 408.006 716.335 406.334C712.472 404.72 708.971 402.348 706.039 399.36C703.094 396.392 700.729 392.9 699.065 389.064C697.375 385.072 696.514 380.779 696.534 376.445C696.532 372.108 697.393 367.815 699.065 363.814C700.678 359.95 703.049 356.449 706.039 353.517C709.001 350.565 712.494 348.199 716.335 346.544C720.33 344.852 724.628 343.991 728.966 344.013C733.304 344.011 737.6 344.872 741.603 346.544C745.465 348.159 748.966 350.53 751.899 353.517C754.851 356.478 757.216 359.972 758.867 363.814C760.541 367.814 761.404 372.108 761.404 376.445C761.404 380.781 760.541 385.075 758.867 389.075V389.064Z" fill="#222222"/>
<path d="M648.059 260.915C643.411 260.916 638.809 261.832 634.515 263.612C630.221 265.392 626.319 268 623.033 271.287C619.748 274.575 617.141 278.478 615.364 282.772C613.586 287.067 612.672 291.67 612.674 296.318V296.318C612.671 303.199 614.673 309.931 618.437 315.691C622.2 321.451 627.56 325.989 633.862 328.75H612.674V331.728H683.481V328.75H662.28C668.581 325.988 673.939 321.449 677.701 315.689C681.463 309.929 683.465 303.198 683.463 296.318V296.318C683.46 286.93 679.729 277.927 673.09 271.288C666.451 264.649 657.448 260.918 648.059 260.915V260.915ZM680.497 296.318C680.497 300.655 679.635 304.949 677.96 308.949C676.351 312.822 673.982 316.334 670.993 319.276C668.032 322.23 664.538 324.596 660.696 326.249C656.699 327.941 652.4 328.802 648.059 328.78C643.723 328.781 639.43 327.92 635.428 326.249C631.565 324.635 628.064 322.264 625.132 319.276C622.178 316.315 619.812 312.821 618.159 308.979C616.473 304.972 615.62 300.665 615.651 296.318C615.65 291.982 616.51 287.689 618.182 283.688C619.793 279.837 622.155 276.347 625.132 273.421C628.091 270.458 631.585 268.081 635.428 266.418C639.424 264.728 643.721 263.869 648.059 263.893C652.398 263.891 656.693 264.751 660.696 266.424C664.561 268.046 668.061 270.425 670.993 273.421C673.943 276.383 676.307 279.877 677.96 283.717C679.631 287.709 680.493 291.992 680.497 296.318Z" fill="#222222"/>
<path d="M612.614 424.116H633.802C627.5 426.877 622.14 431.415 618.376 437.175C614.613 442.935 612.611 449.667 612.614 456.548V456.548C612.609 461.2 613.521 465.807 615.299 470.106C617.077 474.406 619.684 478.312 622.973 481.603C626.262 484.893 630.167 487.503 634.465 489.283C638.764 491.062 643.371 491.977 648.023 491.975V491.975C652.673 491.976 657.277 491.062 661.573 489.283C665.869 487.504 669.773 484.897 673.06 481.609C676.348 478.321 678.956 474.418 680.735 470.122C682.513 465.826 683.428 461.221 683.426 456.571V456.571C683.429 449.691 681.427 442.959 677.663 437.199C673.9 431.439 668.54 426.901 662.238 424.14H683.462V421.162H612.596L612.614 424.116ZM648.059 424.116C652.397 424.114 656.692 424.975 660.695 426.647C664.557 428.261 668.058 430.629 670.992 433.614C673.935 436.583 676.298 440.075 677.959 443.911C679.653 447.905 680.517 452.203 680.496 456.542C680.496 460.878 679.634 465.172 677.959 469.173C676.347 473.035 673.978 476.536 670.992 479.469C668.03 482.422 664.536 484.788 660.695 486.442C656.7 488.142 652.401 489.011 648.059 488.997C643.722 488.998 639.429 488.138 635.428 486.466C631.563 484.845 628.061 482.466 625.131 479.469C622.177 476.508 619.811 473.014 618.158 469.173C616.477 465.177 615.625 460.882 615.651 456.548C615.649 452.211 616.509 447.918 618.182 443.917C619.786 440.053 622.15 436.55 625.131 433.614C628.093 430.662 631.587 428.296 635.428 426.641C639.423 424.951 643.721 424.092 648.059 424.116Z" fill="#222222"/>
<path d="M600.972 1025.3V1046.51C598.209 1040.21 593.67 1034.85 587.911 1031.09C582.151 1027.33 575.42 1025.33 568.54 1025.33C563.89 1025.33 559.286 1026.24 554.99 1028.02C550.694 1029.8 546.79 1032.41 543.503 1035.7C540.215 1038.98 537.607 1042.89 535.828 1047.18C534.05 1051.48 533.135 1056.08 533.137 1060.73V1060.73C533.135 1065.38 534.05 1069.99 535.828 1074.28C537.607 1078.58 540.215 1082.48 543.503 1085.77C546.79 1089.06 550.694 1091.67 554.99 1093.45C559.286 1095.22 563.89 1096.14 568.54 1096.14C575.42 1096.14 582.152 1094.14 587.912 1090.37C593.672 1086.61 598.211 1081.25 600.972 1074.95V1096.14H603.949V1025.33L600.972 1025.3ZM598.441 1073.31C596.827 1077.17 594.456 1080.68 591.467 1083.61C588.508 1086.56 585.014 1088.93 581.171 1090.58C577.176 1092.27 572.879 1093.13 568.54 1093.11C564.204 1093.11 559.91 1092.25 555.909 1090.58C552.046 1088.97 548.545 1086.6 545.613 1083.61C542.66 1080.65 540.294 1077.15 538.639 1073.31C536.947 1069.32 536.086 1065.02 536.108 1060.68C536.107 1056.34 536.967 1052.05 538.639 1048.04C540.255 1044.18 542.626 1040.68 545.613 1037.75C548.575 1034.8 552.069 1032.43 555.909 1030.78C559.904 1029.09 564.201 1028.22 568.54 1028.24C572.877 1028.24 577.17 1029.11 581.171 1030.78C585.033 1032.39 588.534 1034.76 591.467 1037.75C594.422 1040.71 596.788 1044.2 598.441 1048.04C600.111 1052.05 600.972 1056.34 600.972 1060.68C600.972 1065.01 600.111 1069.31 598.441 1073.31Z" fill="#222222"/>
<path d="M728.769 1025.3C721.886 1025.3 715.152 1027.31 709.392 1031.07C703.632 1034.84 699.095 1040.21 696.337 1046.51V1025.33H693.359V1096.14H696.337V1074.92C699.098 1081.22 703.636 1086.58 709.396 1090.34C715.156 1094.11 721.888 1096.11 728.769 1096.11C733.418 1096.11 738.023 1095.19 742.319 1093.42C746.615 1091.64 750.518 1089.03 753.806 1085.74C757.094 1082.45 759.702 1078.55 761.48 1074.25C763.259 1069.96 764.174 1065.35 764.172 1060.7C764.169 1051.32 760.438 1042.31 753.799 1035.67C747.16 1029.03 738.157 1025.3 728.769 1025.3V1025.3ZM758.67 1073.31C757.056 1077.17 754.684 1080.68 751.696 1083.61C748.735 1086.56 745.241 1088.93 741.4 1090.58C737.405 1092.27 733.107 1093.13 728.769 1093.11C724.432 1093.11 720.139 1092.25 716.138 1090.58C712.274 1088.97 708.773 1086.6 705.841 1083.61C702.889 1080.65 700.523 1077.15 698.868 1073.31C697.176 1069.32 696.315 1065.02 696.337 1060.68C696.335 1056.34 697.196 1052.05 698.868 1048.04C700.483 1044.18 702.854 1040.68 705.841 1037.75C708.803 1034.79 712.296 1032.43 716.138 1030.78C720.132 1029.09 724.43 1028.22 728.769 1028.24C733.106 1028.24 737.399 1029.11 741.4 1030.78C745.262 1032.39 748.763 1034.76 751.696 1037.75C754.649 1040.71 757.015 1044.2 758.67 1048.04C760.361 1052.04 761.222 1056.34 761.2 1060.68C761.206 1065.02 760.345 1069.31 758.67 1073.31V1073.31Z" fill="#222222"/>
<path d="M648.655 945.222C644.005 945.221 639.4 946.135 635.104 947.914C630.807 949.693 626.904 952.302 623.616 955.59C620.328 958.879 617.72 962.783 615.942 967.08C614.164 971.376 613.25 975.981 613.252 980.632V980.632C613.251 987.511 615.255 994.242 619.018 1000C622.781 1005.76 628.14 1010.3 634.44 1013.06H613.252V1016.04H684.059V1013.06H662.87C669.171 1010.3 674.53 1005.76 678.293 1000C682.056 994.242 684.059 987.511 684.059 980.632V980.632C684.061 975.981 683.147 971.376 681.369 967.08C679.59 962.783 676.983 958.879 673.695 955.59C670.407 952.302 666.503 949.693 662.207 947.914C657.91 946.135 653.306 945.221 648.655 945.222V945.222ZM681.087 980.632C681.088 984.968 680.228 989.261 678.556 993.262C676.942 997.126 674.571 1000.63 671.583 1003.56C668.623 1006.51 665.129 1008.88 661.286 1010.53C657.292 1012.22 652.994 1013.08 648.655 1013.06C644.318 1013.07 640.024 1012.2 636.024 1010.53C632.161 1008.92 628.66 1006.55 625.728 1003.56C622.775 1000.6 620.409 997.103 618.755 993.262C617.063 989.267 616.202 984.97 616.224 980.632C616.222 976.293 617.082 971.998 618.755 967.995C620.369 964.132 622.74 960.631 625.728 957.698C628.688 954.744 632.182 952.38 636.024 950.731C640.019 949.037 644.317 948.174 648.655 948.194C652.992 948.191 657.287 949.054 661.286 950.731C665.15 952.341 668.651 954.71 671.583 957.698C674.537 960.659 676.903 964.153 678.556 967.995C680.248 971.992 681.109 976.291 681.087 980.632V980.632Z" fill="#222222"/>
<path d="M613.252 1108.45H634.44C628.14 1111.21 622.781 1115.75 619.018 1121.51C615.255 1127.27 613.251 1134 613.252 1140.88C613.25 1145.53 614.164 1150.13 615.942 1154.43C617.72 1158.73 620.328 1162.63 623.616 1165.92C626.904 1169.21 630.807 1171.82 635.104 1173.6C639.4 1175.37 644.005 1176.29 648.655 1176.29V1176.29C653.306 1176.29 657.91 1175.37 662.207 1173.6C666.503 1171.82 670.407 1169.21 673.695 1165.92C676.983 1162.63 679.59 1158.73 681.369 1154.43C683.147 1150.13 684.061 1145.53 684.059 1140.88C684.059 1134 682.056 1127.27 678.293 1121.51C674.53 1115.75 669.171 1111.21 662.87 1108.45H684.059V1105.47H613.252V1108.45ZM648.655 1108.45C652.992 1108.44 657.287 1109.31 661.286 1110.98C665.15 1112.59 668.651 1114.96 671.583 1117.95C674.537 1120.91 676.903 1124.41 678.556 1128.25C680.248 1132.24 681.109 1136.54 681.087 1140.88C681.089 1145.22 680.228 1149.51 678.556 1153.52C676.941 1157.38 674.57 1160.88 671.583 1163.81C668.623 1166.77 665.129 1169.13 661.286 1170.78C657.292 1172.47 652.994 1173.34 648.655 1173.32C644.319 1173.32 640.025 1172.45 636.024 1170.78C632.161 1169.17 628.66 1166.8 625.728 1163.81C622.775 1160.85 620.409 1157.36 618.755 1153.52C617.063 1149.52 616.201 1145.22 616.224 1140.88C616.223 1136.54 617.083 1132.25 618.755 1128.25C620.369 1124.38 622.74 1120.88 625.728 1117.95C628.688 1115 632.182 1112.63 636.024 1110.98C640.02 1109.29 644.317 1108.43 648.655 1108.45Z" fill="#222222"/>
<path d="M639.983 1001.97L625.012 1016.95C627.517 1010.54 628.098 1003.54 626.684 996.809C625.269 990.077 621.921 983.904 617.05 979.047V979.047C610.404 972.41 601.395 968.682 592.003 968.682C582.61 968.682 573.601 972.41 566.955 979.047V979.047C560.318 985.693 556.59 994.702 556.59 1004.09C556.59 1013.49 560.318 1022.5 566.955 1029.14C571.815 1034.01 577.988 1037.35 584.719 1038.77C591.45 1040.18 598.447 1039.6 604.854 1037.1L589.883 1052.07L591.985 1054.17L642.08 1004.07L639.983 1001.97V1001.97ZM604.253 1034.13C596.777 1037.2 588.43 1037.37 580.831 1034.63C573.233 1031.88 566.926 1026.41 563.135 1019.28C559.343 1012.14 558.338 1003.85 560.315 996.021C562.292 988.188 567.108 981.368 573.831 976.887C580.553 972.406 588.7 970.582 596.691 971.77C604.682 972.959 611.947 977.074 617.074 983.318C622.201 989.561 624.825 997.487 624.437 1005.56C624.048 1013.63 620.675 1021.26 614.972 1026.99C611.918 1030.08 608.257 1032.52 604.217 1034.13H604.253Z" fill="#222222"/>
<path d="M730.353 1092.37C725.493 1087.5 719.32 1084.16 712.589 1082.74C705.858 1081.33 698.861 1081.91 692.454 1084.41L707.425 1069.44L705.323 1067.34L655.229 1117.38L657.325 1119.48L672.296 1104.51C669.796 1110.92 669.217 1117.91 670.631 1124.64C672.046 1131.37 675.391 1137.54 680.258 1142.39C686.904 1149.03 695.913 1152.76 705.305 1152.76C714.698 1152.76 723.707 1149.03 730.353 1142.39C736.98 1135.75 740.702 1126.76 740.702 1117.38C740.702 1108 736.98 1099.01 730.353 1092.37ZM717.519 1147.45C710.048 1150.51 701.706 1150.69 694.112 1147.95C686.518 1145.2 680.215 1139.73 676.427 1132.6C672.638 1125.47 671.634 1117.19 673.61 1109.36C675.585 1101.53 680.399 1094.72 687.118 1090.24C693.836 1085.76 701.978 1083.94 709.965 1085.12C717.951 1086.31 725.212 1090.42 730.336 1096.66C735.461 1102.9 738.084 1110.82 737.696 1118.89C737.309 1126.95 733.938 1134.59 728.239 1140.31C725.182 1143.38 721.536 1145.8 717.519 1147.43V1147.45Z" fill="#222222"/>
<path d="M730.353 979.047C723.707 972.41 714.698 968.682 705.305 968.682C695.913 968.682 686.904 972.41 680.258 979.047V979.047C675.391 983.907 672.045 990.079 670.631 996.81C669.217 1003.54 669.796 1010.54 672.296 1016.95L657.325 1001.97L655.229 1004.07L705.323 1054.17L707.425 1052.07L692.412 1037.06C698.819 1039.57 705.817 1040.15 712.549 1038.73C719.28 1037.32 725.453 1033.97 730.311 1029.1V1029.1C733.605 1025.82 736.219 1021.92 738.004 1017.63C739.789 1013.33 740.71 1008.73 740.714 1004.08C740.718 999.433 739.804 994.829 738.027 990.533C736.249 986.237 733.641 982.334 730.353 979.047ZM728.257 1027C722.572 1032.65 714.991 1035.99 706.986 1036.37C698.981 1036.74 691.121 1034.13 684.931 1029.04C678.742 1023.95 674.664 1016.74 673.488 1008.81C672.312 1000.89 674.122 992.805 678.568 986.136C683.013 979.468 689.777 974.689 697.547 972.725C705.317 970.762 713.539 971.754 720.619 975.509C727.698 979.265 733.131 985.516 735.863 993.05C738.594 1000.58 738.431 1008.86 735.403 1016.28C733.754 1020.3 731.325 1023.94 728.257 1027Z" fill="#222222"/>
<path d="M589.926 1069.42L604.897 1084.39C598.489 1081.89 591.489 1081.31 584.757 1082.73C578.025 1084.14 571.853 1087.49 566.998 1092.37V1092.37C560.361 1099.01 556.633 1108.02 556.633 1117.42C556.633 1126.81 560.361 1135.82 566.998 1142.46C573.644 1149.1 582.653 1152.83 592.046 1152.83C601.438 1152.83 610.447 1149.1 617.093 1142.46C621.965 1137.6 625.313 1131.42 626.728 1124.69C628.144 1117.95 627.564 1110.95 625.061 1104.54L640.026 1119.51L642.129 1117.42L592.034 1067.28L589.926 1069.42ZM614.937 1094.43C620.586 1100.11 623.922 1107.69 624.298 1115.7C624.675 1123.7 622.064 1131.56 616.973 1137.75C611.883 1143.94 604.674 1148.02 596.747 1149.2C588.82 1150.37 580.738 1148.56 574.07 1144.12C567.402 1139.67 562.622 1132.91 560.658 1125.14C558.695 1117.37 559.687 1109.15 563.442 1102.07C567.198 1094.99 573.449 1089.55 580.983 1086.82C588.518 1084.09 596.798 1084.25 604.218 1087.28C608.241 1088.92 611.889 1091.35 614.937 1094.45V1094.43Z" fill="#222222"/>
<path d="M639.755 656.956L624.784 671.927C627.289 665.521 627.869 658.522 626.455 651.79C625.041 645.059 621.693 638.886 616.822 634.029V634.029C610.176 627.391 601.167 623.663 591.774 623.663C582.381 623.663 573.373 627.391 566.727 634.029V634.029C560.089 640.675 556.361 649.683 556.361 659.076C556.361 668.469 560.089 677.477 566.727 684.123V684.123C571.587 688.989 577.76 692.334 584.491 693.748C591.221 695.162 598.218 694.584 604.625 692.085L589.654 707.051L591.756 709.153L641.851 659.052L639.755 656.956ZM604.024 689.114C596.548 692.177 588.201 692.354 580.603 689.609C573.005 686.864 566.697 681.393 562.906 674.259C559.115 667.125 558.11 658.836 560.086 651.003C562.063 643.169 566.88 636.35 573.602 631.868C580.324 627.387 588.472 625.563 596.463 626.752C604.454 627.94 611.718 632.056 616.845 638.299C621.973 644.543 624.597 652.469 624.208 660.538C623.82 668.608 620.446 676.245 614.743 681.968C611.69 685.066 608.028 687.499 603.988 689.114H604.024Z" fill="#222222"/>
<path d="M730.124 747.325C725.265 742.458 719.091 739.114 712.36 737.701C705.629 736.288 698.632 736.868 692.226 739.369L707.197 724.398L705.095 722.296L655 772.355L657.096 774.457L672.067 759.486C669.563 765.893 668.983 772.891 670.397 779.622C671.811 786.354 675.159 792.527 680.03 797.384C686.675 804.022 695.684 807.75 705.077 807.75C714.47 807.75 723.478 804.022 730.124 797.384C736.762 790.746 740.492 781.743 740.492 772.355C740.492 762.967 736.762 753.964 730.124 747.325ZM717.291 802.411C709.819 805.472 701.477 805.647 693.883 802.903C686.29 800.159 679.987 794.691 676.198 787.561C672.409 780.431 671.405 772.147 673.381 764.318C675.357 756.489 680.171 749.674 686.889 745.195C693.607 740.716 701.75 738.894 709.736 740.081C717.723 741.269 724.983 745.381 730.108 751.621C735.232 757.861 737.855 765.782 737.468 773.847C737.08 781.912 733.709 789.545 728.01 795.264C724.956 798.345 721.309 800.776 717.291 802.411V802.411Z" fill="#222222"/>
<path d="M730.124 634.029C723.478 627.391 714.47 623.663 705.077 623.663C695.684 623.663 686.675 627.391 680.03 634.029V634.029C675.162 638.888 671.817 645.061 670.403 651.792C668.989 658.523 669.567 665.52 672.067 671.927L657.096 656.956L655 659.052L705.095 709.153L707.197 707.051L692.184 692.044C698.591 694.549 705.589 695.13 712.321 693.715C719.053 692.301 725.226 688.953 730.083 684.082C733.376 680.8 735.99 676.902 737.775 672.609C739.56 668.316 740.481 663.713 740.485 659.064C740.489 654.415 739.576 649.81 737.798 645.514C736.02 641.218 733.412 637.315 730.124 634.029ZM728.028 681.985C722.343 687.634 714.763 690.97 706.758 691.347C698.752 691.723 690.892 689.112 684.703 684.022C678.513 678.931 674.435 671.723 673.259 663.795C672.083 655.868 673.894 647.786 678.339 641.118C682.785 634.45 689.548 629.67 697.318 627.707C705.088 625.743 713.31 626.735 720.39 630.491C727.47 634.246 732.903 640.497 735.634 648.031C738.366 655.566 738.202 663.846 735.174 671.266C733.525 675.277 731.096 678.921 728.028 681.985V681.985Z" fill="#222222"/>
<path d="M589.696 724.398L604.667 739.369C598.261 736.863 591.263 736.281 584.531 737.695C577.799 739.108 571.626 742.455 566.768 747.325C560.131 753.972 556.402 762.982 556.402 772.375C556.402 781.769 560.131 790.779 566.768 797.426V797.426C573.415 804.062 582.424 807.789 591.816 807.789C601.208 807.789 610.216 804.062 616.863 797.426V797.426C621.73 792.565 625.075 786.391 626.49 779.66C627.905 772.928 627.329 765.93 624.831 759.521L639.796 774.492L641.899 772.396L591.804 722.26L589.696 724.398ZM614.707 749.409C620.356 755.094 623.692 762.674 624.068 770.68C624.445 778.685 621.834 786.545 616.743 792.734C611.653 798.924 604.444 803.002 596.517 804.178C588.59 805.354 580.508 803.544 573.84 799.098C567.172 794.653 562.392 787.889 560.429 780.119C558.465 772.349 559.457 764.127 563.213 757.047C566.968 749.967 573.219 744.535 580.753 741.803C588.288 739.071 596.568 739.235 603.988 742.263C608.01 743.899 611.658 746.336 614.707 749.427V749.409Z" fill="#222222"/>
<path d="M959.507 337.034V358.222C956.746 351.92 952.208 346.56 946.448 342.796C940.688 339.033 933.956 337.031 927.075 337.034V337.034C922.426 337.032 917.821 337.947 913.525 339.725C909.229 341.504 905.326 344.112 902.038 347.4C898.75 350.687 896.142 354.591 894.364 358.887C892.585 363.183 891.67 367.787 891.672 372.437C891.67 377.087 892.585 381.691 894.364 385.987C896.142 390.283 898.75 394.187 902.038 397.475C905.326 400.762 909.229 403.37 913.525 405.149C917.821 406.927 922.426 407.842 927.075 407.84V407.84C933.955 407.843 940.686 405.841 946.446 402.079C952.206 398.317 956.744 392.958 959.507 386.658V407.84H962.485V337.034H959.507ZM956.976 385.068C955.361 388.93 952.99 392.431 950.003 395.364C947.042 398.318 943.548 400.682 939.706 402.332C935.712 404.026 931.414 404.889 927.075 404.869C922.738 404.869 918.445 404.006 914.444 402.332C910.583 400.718 907.082 398.349 904.148 395.364C901.195 392.402 898.829 388.909 897.174 385.068C895.483 381.071 894.622 376.771 894.643 372.431C894.643 368.095 895.503 363.801 897.174 359.8C898.788 355.937 901.159 352.436 904.148 349.504C907.109 346.551 910.603 344.187 914.444 342.536C918.439 340.842 922.736 339.979 927.075 339.999C931.412 339.997 935.706 340.859 939.706 342.536C943.57 344.147 947.071 346.516 950.003 349.504C952.957 352.464 955.323 355.958 956.976 359.8C958.647 363.803 959.507 368.097 959.507 372.434C959.507 376.771 958.647 381.065 956.976 385.068V385.068Z" fill="#222222"/>
<path d="M1073.36 337.034C1066.48 337.032 1059.75 339.035 1053.99 342.798C1048.23 346.561 1043.69 351.921 1040.93 358.223V337.034H1037.96V407.841H1040.93V386.658C1043.7 392.958 1048.23 398.317 1053.99 402.079C1059.75 405.841 1066.49 407.843 1073.36 407.841V407.841C1078.01 407.843 1082.62 406.928 1086.91 405.149C1091.21 403.371 1095.11 400.763 1098.4 397.475C1101.69 394.187 1104.3 390.284 1106.08 385.988C1107.85 381.692 1108.77 377.087 1108.77 372.438V372.438C1108.77 367.788 1107.85 363.183 1106.08 358.887C1104.3 354.591 1101.69 350.688 1098.4 347.4C1095.11 344.112 1091.21 341.505 1086.91 339.726C1082.62 337.947 1078.01 337.033 1073.36 337.034ZM1103.22 385.068C1101.61 388.931 1099.24 392.431 1096.26 395.365C1093.29 398.318 1089.8 400.684 1085.96 402.338C1081.96 404.032 1077.67 404.895 1073.33 404.875C1068.99 404.875 1064.69 404.013 1060.69 402.338C1056.83 400.724 1053.33 398.356 1050.4 395.371C1047.44 392.41 1045.08 388.916 1043.43 385.074C1041.73 381.078 1040.87 376.778 1040.89 372.438C1040.89 368.101 1041.75 363.807 1043.43 359.807C1045.04 355.944 1047.41 352.443 1050.4 349.51C1053.36 346.567 1056.86 344.203 1060.69 342.543C1064.69 340.849 1068.99 339.986 1073.33 340.006C1077.67 340.004 1081.96 340.866 1085.96 342.543C1089.82 344.155 1093.32 346.524 1096.26 349.51C1099.21 352.471 1101.57 355.965 1103.22 359.807C1104.9 363.809 1105.76 368.103 1105.76 372.441C1105.76 376.778 1104.9 381.072 1103.22 385.074V385.068Z" fill="#222222"/>
<path d="M1000.22 263.893C995.571 263.891 990.965 264.806 986.668 266.586C982.37 268.366 978.466 270.975 975.178 274.265C971.89 277.555 969.283 281.46 967.505 285.758C965.727 290.056 964.814 294.663 964.818 299.314V299.314C964.816 306.193 966.819 312.924 970.581 318.684C974.343 324.443 979.701 328.982 986.001 331.746H964.818V334.723H1035.64V331.746H1014.44C1020.74 328.986 1026.1 324.448 1029.87 318.688C1033.63 312.928 1035.64 306.195 1035.64 299.314V299.314C1035.64 294.662 1034.73 290.054 1032.95 285.755C1031.17 281.457 1028.56 277.55 1025.27 274.261C1021.98 270.971 1018.08 268.362 1013.78 266.583C1009.48 264.804 1004.87 263.889 1000.22 263.893V263.893ZM1032.66 299.314C1032.66 303.651 1031.8 307.945 1030.12 311.945C1028.51 315.808 1026.14 319.308 1023.16 322.241C1020.19 325.194 1016.7 327.56 1012.86 329.215C1008.86 330.903 1004.57 331.764 1000.23 331.746C995.889 331.747 991.594 330.887 987.591 329.215C983.721 327.596 980.214 325.219 977.277 322.223C974.326 319.261 971.962 315.768 970.309 311.927C968.622 307.937 967.763 303.646 967.784 299.314C967.784 294.975 968.647 290.68 970.321 286.677C971.931 282.811 974.295 279.304 977.277 276.363C980.239 273.412 983.732 271.048 987.573 269.395C991.57 267.702 995.869 266.839 1000.21 266.858C1004.55 266.859 1008.84 267.722 1012.84 269.395C1016.7 271.01 1020.2 273.379 1023.13 276.363C1026.08 279.323 1028.45 282.817 1030.1 286.659C1031.78 290.666 1032.65 294.968 1032.66 299.314V299.314Z" fill="#222222"/>
<path d="M964.818 413.152H986.001C979.7 415.915 974.342 420.454 970.58 426.214C966.818 431.973 964.816 438.705 964.818 445.584C964.817 450.234 965.731 454.838 967.51 459.134C969.289 463.43 971.897 467.334 975.184 470.622C978.472 473.909 982.376 476.517 986.672 478.296C990.968 480.074 995.572 480.989 1000.22 480.988V480.988C1004.87 480.991 1009.48 480.077 1013.78 478.299C1018.07 476.521 1021.98 473.914 1025.27 470.626C1028.56 467.338 1031.16 463.434 1032.94 459.137C1034.72 454.84 1035.64 450.235 1035.64 445.584V445.584C1035.64 438.704 1033.64 431.972 1029.87 426.212C1026.11 420.452 1020.75 415.914 1014.45 413.152H1035.64V410.175H964.83L964.818 413.152ZM1000.22 413.152C1004.56 413.152 1008.85 414.012 1012.85 415.683C1016.71 417.299 1020.2 419.67 1023.13 422.657C1026.08 425.623 1028.44 429.115 1030.1 432.953C1031.79 436.948 1032.66 441.245 1032.64 445.584C1032.64 449.921 1031.78 454.215 1030.1 458.215C1028.49 462.079 1026.12 465.58 1023.13 468.511C1020.17 471.464 1016.68 473.83 1012.83 475.485C1008.84 477.176 1004.54 478.038 1000.2 478.016C995.866 478.017 991.57 477.157 987.567 475.485C983.707 473.869 980.208 471.498 977.277 468.511C974.324 465.55 971.96 462.057 970.309 458.215C968.615 454.22 967.752 449.923 967.772 445.584C967.772 441.247 968.635 436.954 970.309 432.953C971.922 429.091 974.291 425.59 977.277 422.657C980.237 419.702 983.731 417.336 987.573 415.683C991.574 413.99 995.877 413.129 1000.22 413.152V413.152Z" fill="#222222"/>
<path d="M959.507 1031.13V1052.34C956.744 1046.04 952.206 1040.68 946.446 1036.92C940.686 1033.16 933.955 1031.15 927.075 1031.16V1031.16C922.426 1031.15 917.821 1032.07 913.525 1033.85C909.229 1035.63 905.326 1038.23 902.038 1041.52C898.75 1044.81 896.142 1048.71 894.364 1053.01C892.585 1057.31 891.67 1061.91 891.672 1066.56V1066.56C891.67 1071.21 892.585 1075.81 894.364 1080.11C896.142 1084.41 898.75 1088.31 902.038 1091.6C905.326 1094.88 909.229 1097.49 913.525 1099.27C917.821 1101.05 922.426 1101.96 927.075 1101.96V1101.96C933.956 1101.97 940.688 1099.96 946.448 1096.2C952.208 1092.44 956.746 1087.08 959.507 1080.77V1101.96H962.485V1031.16L959.507 1031.13ZM956.976 1079.16C955.362 1083.02 952.991 1086.52 950.003 1089.46C947.043 1092.41 943.549 1094.78 939.706 1096.43C935.711 1098.12 931.414 1098.98 927.075 1098.96C922.739 1098.96 918.445 1098.1 914.444 1096.43C910.581 1094.82 907.08 1092.45 904.148 1089.46C901.195 1086.5 898.829 1083 897.174 1079.16C895.482 1075.17 894.621 1070.87 894.643 1066.53C894.642 1062.19 895.502 1057.9 897.174 1053.89C898.79 1050.03 901.161 1046.53 904.148 1043.6C907.11 1040.65 910.604 1038.28 914.444 1036.63C918.439 1034.94 922.736 1034.07 927.075 1034.09C931.412 1034.09 935.706 1034.95 939.706 1036.63C943.569 1038.24 947.069 1040.61 950.003 1043.6C952.957 1046.56 955.323 1050.05 956.976 1053.89C958.647 1057.9 959.507 1062.19 959.507 1066.53C959.507 1070.86 958.647 1075.16 956.976 1079.16V1079.16Z" fill="#222222"/>
<path d="M1037.92 1031.13V1101.93H1040.9V1080.74C1043.66 1087.05 1048.2 1092.41 1053.96 1096.17C1059.72 1099.93 1066.45 1101.94 1073.33 1101.93V1101.93C1077.98 1101.93 1082.59 1101.02 1086.88 1099.24C1091.18 1097.46 1095.08 1094.86 1098.37 1091.57C1101.66 1088.28 1104.27 1084.38 1106.04 1080.08C1107.82 1075.78 1108.74 1071.18 1108.74 1066.53C1108.74 1061.88 1107.82 1057.28 1106.04 1052.98C1104.27 1048.68 1101.66 1044.78 1098.37 1041.49C1095.08 1038.2 1091.18 1035.6 1086.88 1033.82C1082.59 1032.04 1077.98 1031.12 1073.33 1031.13V1031.13C1066.45 1031.12 1059.72 1033.13 1053.96 1036.89C1048.2 1040.65 1043.66 1046.01 1040.9 1052.31V1031.13H1037.92V1031.13ZM1040.93 1066.57C1040.93 1062.23 1041.79 1057.94 1043.46 1053.93C1045.08 1050.07 1047.45 1046.57 1050.44 1043.64C1053.4 1040.69 1056.89 1038.32 1060.73 1036.67C1064.73 1034.98 1069.02 1034.11 1073.36 1034.13C1077.7 1034.13 1082 1034.99 1086 1036.67C1089.86 1038.28 1093.36 1040.65 1096.3 1043.64C1099.25 1046.6 1101.61 1050.09 1103.26 1053.93C1104.96 1057.93 1105.82 1062.23 1105.8 1066.57C1105.8 1070.9 1104.94 1075.2 1103.26 1079.2C1101.65 1083.06 1099.28 1086.56 1096.3 1089.5C1093.34 1092.45 1089.84 1094.82 1086 1096.47C1082 1098.16 1077.7 1099.02 1073.36 1099C1069.03 1099.01 1064.73 1098.14 1060.73 1096.47C1056.87 1094.85 1053.37 1092.49 1050.44 1089.5C1047.48 1086.54 1045.12 1083.04 1043.46 1079.2C1041.78 1075.2 1040.92 1070.91 1040.93 1066.57V1066.57Z" fill="#222222"/>
<path d="M1035.64 1025.86H1014.44C1020.74 1023.1 1026.11 1018.56 1029.87 1012.8C1033.64 1007.04 1035.64 1000.31 1035.64 993.425V993.425C1035.64 988.775 1034.73 984.171 1032.95 979.875C1031.17 975.579 1028.56 971.675 1025.27 968.387C1021.99 965.1 1018.08 962.492 1013.79 960.713C1009.49 958.935 1004.89 958.02 1000.24 958.021V958.021C995.586 958.02 990.981 958.935 986.685 960.713C982.389 962.492 978.486 965.1 975.198 968.387C971.91 971.675 969.302 975.579 967.524 979.875C965.745 984.171 964.83 988.775 964.832 993.425V993.425C964.829 1000.3 966.831 1007.04 970.593 1012.8C974.355 1018.56 979.714 1023.09 986.015 1025.86H964.832V1028.83H1035.64V1025.86ZM987.599 1023.33C983.736 1021.71 980.236 1019.34 977.302 1016.35C974.359 1013.38 971.996 1009.89 970.335 1006.06C968.641 1002.06 967.778 997.764 967.798 993.425C967.798 989.088 968.66 984.795 970.335 980.794C971.947 976.932 974.316 973.431 977.302 970.498C980.263 967.543 983.756 965.177 987.599 963.524C991.596 961.833 995.895 960.971 1000.24 960.993C1004.57 960.992 1008.87 961.853 1012.87 963.524C1016.72 965.142 1020.21 967.512 1023.13 970.498C1026.09 973.457 1028.45 976.951 1030.1 980.794C1031.79 984.789 1032.66 989.086 1032.64 993.425C1032.64 997.762 1031.78 1002.06 1030.1 1006.06C1028.49 1009.92 1026.12 1013.42 1023.13 1016.35C1020.17 1019.3 1016.68 1021.67 1012.84 1023.33C1008.84 1025.02 1004.54 1025.88 1000.21 1025.86C995.873 1025.86 991.584 1025 987.587 1023.33H987.599Z" fill="#222222"/>
<path d="M1035.64 1104.27H964.832V1107.25H986.015C979.715 1110.01 974.356 1114.55 970.594 1120.31C966.832 1126.07 964.83 1132.8 964.832 1139.68V1139.68C964.83 1144.33 965.745 1148.93 967.524 1153.23C969.302 1157.52 971.91 1161.43 975.198 1164.71C978.486 1168 982.389 1170.61 986.685 1172.39C990.981 1174.17 995.586 1175.08 1000.24 1175.08V1175.08C1004.89 1175.08 1009.49 1174.17 1013.79 1172.39C1018.08 1170.61 1021.99 1168 1025.27 1164.71C1028.56 1161.43 1031.17 1157.52 1032.95 1153.23C1034.73 1148.93 1035.64 1144.33 1035.64 1139.68V1139.68C1035.64 1132.8 1033.64 1126.07 1029.88 1120.31C1026.11 1114.55 1020.75 1110.01 1014.45 1107.25H1035.64V1104.27ZM1000.24 1107.25C1004.57 1107.24 1008.87 1108.11 1012.87 1109.78C1016.73 1111.39 1020.23 1113.76 1023.16 1116.75C1026.12 1119.71 1028.48 1123.2 1030.13 1127.05C1031.82 1131.04 1032.69 1135.34 1032.67 1139.68C1032.67 1144.02 1031.81 1148.31 1030.13 1152.31C1028.52 1156.18 1026.15 1159.68 1023.16 1162.61C1020.2 1165.56 1016.71 1167.93 1012.87 1169.58C1008.87 1171.27 1004.57 1172.13 1000.24 1172.11C995.897 1172.11 991.601 1171.25 987.599 1169.58C983.738 1167.96 980.237 1165.59 977.302 1162.61C974.36 1159.64 971.998 1156.15 970.335 1152.31C968.641 1148.32 967.777 1144.02 967.798 1139.68C967.799 1135.34 968.661 1131.05 970.335 1127.05C971.949 1123.18 974.318 1119.68 977.302 1116.75C980.27 1113.81 983.762 1111.44 987.599 1109.78C991.596 1108.11 995.888 1107.24 1000.22 1107.24L1000.24 1107.25Z" fill="#222222"/>
<path d="M996.501 1012.75L981.53 1027.72C984.037 1021.31 984.619 1014.31 983.205 1007.58C981.791 1000.84 978.441 994.668 973.568 989.81V989.81C966.922 983.172 957.913 979.444 948.52 979.444C939.128 979.444 930.119 983.172 923.473 989.81C916.836 996.456 913.107 1005.46 913.107 1014.86C913.107 1024.25 916.836 1033.26 923.473 1039.9V1039.9C928.333 1044.77 934.506 1048.12 941.237 1049.53C947.967 1050.94 954.964 1050.37 961.372 1047.87L946.4 1062.8L948.502 1064.89L998.597 1014.82L996.501 1012.75ZM960.699 1044.91C953.223 1047.97 944.876 1048.15 937.277 1045.4C929.679 1042.66 923.372 1037.19 919.581 1030.05C915.79 1022.92 914.785 1014.63 916.761 1006.8C918.738 998.962 923.555 992.143 930.277 987.661C936.999 983.18 945.146 981.357 953.137 982.545C961.129 983.733 968.393 987.849 973.52 994.092C978.647 1000.34 981.271 1008.26 980.883 1016.33C980.494 1024.4 977.121 1032.04 971.418 1037.76C968.363 1040.84 964.717 1043.27 960.699 1044.91Z" fill="#222222"/>
<path d="M1051.94 1068.19L1001.84 1118.25L1003.94 1120.35L1018.91 1105.38C1016.41 1111.78 1015.83 1118.78 1017.24 1125.52C1018.65 1132.25 1022 1138.42 1026.87 1143.28V1143.28C1033.52 1149.92 1042.53 1153.64 1051.92 1153.64C1061.31 1153.64 1070.32 1149.92 1076.97 1143.28V1143.28C1083.6 1136.63 1087.33 1127.62 1087.33 1118.23C1087.33 1108.84 1083.6 1099.83 1076.97 1093.18V1093.18C1072.11 1088.31 1065.93 1084.97 1059.2 1083.56C1052.47 1082.14 1045.47 1082.72 1039.07 1085.22L1054.04 1070.25L1051.94 1068.19ZM1029.01 1095.32C1034.7 1089.66 1042.29 1086.32 1050.3 1085.94C1058.31 1085.57 1066.18 1088.18 1072.38 1093.27C1078.57 1098.37 1082.66 1105.58 1083.83 1113.52C1085.01 1121.45 1083.2 1129.54 1078.75 1136.22C1074.3 1142.89 1067.53 1147.68 1059.75 1149.64C1051.97 1151.61 1043.74 1150.61 1036.66 1146.85C1029.57 1143.09 1024.13 1136.84 1021.4 1129.29C1018.67 1121.75 1018.83 1113.46 1021.86 1106.04C1023.5 1102.02 1025.93 1098.37 1029.01 1095.32V1095.32Z" fill="#222222"/>
<path d="M1054.04 1062.81L1039.07 1047.84C1045.47 1050.34 1052.47 1050.92 1059.2 1049.51C1065.94 1048.09 1072.11 1044.75 1076.97 1039.87V1039.87C1083.6 1033.23 1087.33 1024.22 1087.33 1014.83C1087.33 1005.43 1083.6 996.426 1076.97 989.78V989.78C1070.32 983.143 1061.31 979.415 1051.92 979.415C1042.53 979.415 1033.52 983.143 1026.87 989.78V989.78C1022.01 994.64 1018.66 1000.81 1017.25 1007.54C1015.83 1014.27 1016.41 1021.27 1018.91 1027.68L1003.94 1012.71L1001.84 1014.81L1051.94 1064.9L1054.04 1062.81ZM1021.88 1027.08C1018.82 1019.6 1018.64 1011.25 1021.39 1003.66C1024.13 996.058 1029.6 989.751 1036.74 985.959C1043.87 982.168 1052.16 981.163 1059.99 983.14C1067.83 985.116 1074.64 989.933 1079.13 996.655C1083.61 1003.38 1085.43 1011.53 1084.24 1019.52C1083.05 1027.51 1078.94 1034.77 1072.7 1039.9C1066.45 1045.03 1058.53 1047.65 1050.46 1047.26C1042.39 1046.87 1034.75 1043.5 1029.03 1037.8C1025.93 1034.74 1023.5 1031.09 1021.88 1027.05V1027.08Z" fill="#222222"/>
<path d="M998.597 1118.25L948.502 1068.19L946.4 1070.29L961.372 1085.26C954.965 1082.76 947.967 1082.18 941.235 1083.59C934.504 1085.01 928.331 1088.35 923.473 1093.22V1093.22C916.836 1099.87 913.107 1108.88 913.107 1118.27C913.107 1127.66 916.836 1136.67 923.473 1143.32C930.119 1149.95 939.128 1153.68 948.52 1153.68C957.913 1153.68 966.922 1149.95 973.568 1143.32V1143.32C978.435 1138.46 981.78 1132.28 983.194 1125.55C984.608 1118.82 984.03 1111.83 981.53 1105.42L996.501 1120.39L998.597 1118.25ZM971.43 1095.32C977.079 1101 980.415 1108.58 980.791 1116.59C981.167 1124.59 978.557 1132.45 973.466 1138.64C968.375 1144.83 961.167 1148.91 953.239 1150.09C945.312 1151.26 937.23 1149.45 930.562 1145.01C923.894 1140.56 919.115 1133.8 917.151 1126.03C915.187 1118.26 916.179 1110.04 919.935 1102.96C923.69 1095.88 929.942 1090.44 937.476 1087.71C945.01 1084.98 953.29 1085.14 960.711 1088.17C964.721 1089.82 968.365 1092.25 971.43 1095.32Z" fill="#222222"/>
<path d="M996.503 663.149L981.532 678.115C984.036 671.708 984.616 664.71 983.202 657.978C981.788 651.246 978.44 645.074 973.57 640.216V640.216C966.924 633.579 957.915 629.851 948.522 629.851C939.13 629.851 930.121 633.579 923.475 640.216C916.838 646.862 913.109 655.871 913.109 665.264C913.109 674.656 916.838 683.665 923.475 690.311V690.311C928.334 695.178 934.507 698.524 941.238 699.938C947.969 701.352 954.966 700.773 961.374 698.273L946.402 713.203L948.504 715.305L998.599 665.18L996.503 663.149ZM960.701 695.307C953.225 698.371 944.878 698.547 937.279 695.802C929.681 693.057 923.374 687.586 919.583 680.452C915.791 673.318 914.786 665.03 916.763 657.196C918.74 649.363 923.557 642.543 930.279 638.062C937.001 633.58 945.148 631.757 953.139 632.945C961.13 634.134 968.395 638.249 973.522 644.493C978.649 650.736 981.273 658.662 980.885 666.732C980.496 674.802 977.123 682.439 971.42 688.161C968.365 691.24 964.719 693.668 960.701 695.301V695.307Z" fill="#222222"/>
<path d="M1051.95 718.592L1001.85 768.615L1003.95 770.717L1018.91 755.746C1016.41 762.153 1015.83 769.151 1017.25 775.882C1018.66 782.613 1022.01 788.786 1026.88 793.645C1033.52 800.282 1042.53 804.01 1051.92 804.01C1061.32 804.01 1070.32 800.282 1076.97 793.645C1083.61 786.999 1087.34 777.99 1087.34 768.597C1087.34 759.204 1083.61 750.196 1076.97 743.55V743.55C1072.11 738.683 1065.94 735.337 1059.21 733.923C1052.48 732.509 1045.48 733.088 1039.07 735.588L1054.04 720.617L1051.95 718.592ZM1029.01 745.718C1034.7 740.069 1042.28 736.733 1050.28 736.356C1058.29 735.98 1066.15 738.591 1072.34 743.681C1078.53 748.772 1082.61 755.98 1083.78 763.908C1084.96 771.835 1083.15 779.917 1078.7 786.585C1074.26 793.253 1067.49 798.033 1059.72 799.996C1051.95 801.96 1043.73 800.968 1036.65 797.212C1029.57 793.457 1024.14 787.206 1021.41 779.672C1018.68 772.137 1018.84 763.857 1021.87 756.437C1023.5 752.416 1025.93 748.768 1029.01 745.718V745.718Z" fill="#222222"/>
<path d="M1054.04 713.203L1039.07 698.231C1045.48 700.737 1052.48 701.319 1059.21 699.906C1065.94 698.492 1072.11 695.145 1076.97 690.275V690.275C1083.61 683.629 1087.34 674.621 1087.34 665.228C1087.34 655.835 1083.61 646.826 1076.97 640.181V640.181C1070.32 633.543 1061.32 629.815 1051.92 629.815C1042.53 629.815 1033.52 633.543 1026.88 640.181V640.181C1022.01 645.041 1018.66 651.214 1017.25 657.944C1015.84 664.675 1016.41 671.672 1018.91 678.079L1003.95 663.108L1001.85 665.204L1051.95 715.305L1054.04 713.203ZM1021.88 677.472C1018.82 669.996 1018.64 661.649 1021.39 654.051C1024.13 646.452 1029.61 640.145 1036.74 636.354C1043.87 632.563 1052.16 631.558 1060 633.534C1067.83 635.511 1074.65 640.328 1079.13 647.05C1083.61 653.772 1085.44 661.919 1084.25 669.911C1083.06 677.902 1078.94 685.166 1072.7 690.293C1066.46 695.42 1058.53 698.044 1050.46 697.656C1042.39 697.267 1034.75 693.894 1029.03 688.191C1025.93 685.14 1023.5 681.48 1021.88 677.442V677.472Z" fill="#222222"/>
<path d="M998.6 768.645L948.505 718.622L946.403 720.718L961.374 735.69C954.968 733.184 947.97 732.602 941.238 734.015C934.506 735.429 928.333 738.775 923.475 743.646V743.646C916.838 750.293 913.109 759.302 913.109 768.696C913.109 778.09 916.838 787.099 923.475 793.746V793.746C930.122 800.382 939.131 804.109 948.523 804.109C957.915 804.109 966.923 800.382 973.57 793.746V793.746C978.437 788.887 981.783 782.714 983.197 775.983C984.611 769.252 984.032 762.255 981.532 755.848L996.503 770.813L998.6 768.645ZM971.432 745.718C977.081 751.403 980.417 758.983 980.793 766.989C981.17 774.994 978.559 782.854 973.468 789.043C968.378 795.233 961.169 799.311 953.242 800.487C945.314 801.663 937.233 799.852 930.565 795.407C923.896 790.961 919.117 784.198 917.153 776.428C915.19 768.658 916.182 760.436 919.937 753.356C923.693 746.276 929.944 740.844 937.478 738.112C945.012 735.38 953.293 735.544 960.713 738.572C964.726 740.217 968.37 742.646 971.432 745.718V745.718Z" fill="#222222"/>
<path d="M248.39 336.897V358.085C245.629 351.783 241.09 346.423 235.33 342.66C229.57 338.897 222.838 336.894 215.958 336.897V336.897C211.308 336.895 206.704 337.81 202.408 339.589C198.112 341.367 194.208 343.975 190.921 347.263C187.633 350.551 185.025 354.454 183.246 358.75C181.468 363.046 180.553 367.651 180.555 372.3V372.3C180.554 376.95 181.469 381.553 183.248 385.849C185.027 390.144 187.635 394.047 190.923 397.334C194.21 400.621 198.114 403.228 202.409 405.007C206.705 406.785 211.309 407.699 215.958 407.698V407.698C222.838 407.701 229.57 405.698 235.33 401.935C241.09 398.172 245.629 392.811 248.39 386.509V407.698H251.367V336.897H248.39ZM245.859 384.931C244.255 388.793 241.894 392.294 238.915 395.228C235.955 398.183 232.461 400.549 228.619 402.201C224.614 403.893 220.306 404.75 215.958 404.72C211.622 404.722 207.328 403.862 203.327 402.189C199.476 400.575 195.985 398.209 193.061 395.228C190.096 392.269 187.719 388.775 186.057 384.931C184.367 380.936 183.508 376.638 183.532 372.3C183.531 367.964 184.391 363.67 186.063 359.669C187.683 355.804 190.062 352.302 193.061 349.373C196.021 346.419 199.515 344.052 203.357 342.4C207.352 340.708 211.649 339.846 215.988 339.869C220.324 339.867 224.618 340.727 228.619 342.4C232.483 344.012 235.984 346.383 238.915 349.373C241.871 352.332 244.238 355.827 245.889 359.669C247.581 363.664 248.442 367.962 248.42 372.3C248.412 376.639 247.541 380.932 245.859 384.931V384.931Z" fill="#222222"/>
<path d="M378.642 336.897C371.762 336.895 365.03 338.898 359.27 342.661C353.51 346.424 348.972 351.784 346.21 358.085V336.897H343.232V407.698H346.21V386.515C348.973 392.816 353.511 398.175 359.271 401.937C365.031 405.698 371.762 407.701 378.642 407.698C383.291 407.699 387.896 406.785 392.192 405.006C396.488 403.227 400.391 400.62 403.679 397.332C406.967 394.044 409.575 390.141 411.353 385.845C413.132 381.548 414.047 376.944 414.045 372.294V372.294C414.046 367.645 413.131 363.041 411.352 358.746C409.573 354.451 406.965 350.548 403.677 347.261C400.389 343.974 396.486 341.366 392.191 339.588C387.895 337.81 383.291 336.895 378.642 336.897V336.897ZM408.543 384.931C406.93 388.794 404.561 392.295 401.575 395.228C398.613 398.18 395.12 400.546 391.279 402.201C387.281 403.889 382.981 404.746 378.642 404.72C374.305 404.721 370.012 403.861 366.011 402.189C362.148 400.575 358.647 398.204 355.714 395.216C352.769 392.249 350.406 388.756 348.747 384.919C347.053 380.925 346.19 376.627 346.21 372.288C346.207 367.951 347.07 363.657 348.747 359.658C350.357 355.794 352.727 352.293 355.714 349.361C358.675 346.407 362.169 344.04 366.011 342.388C370.006 340.696 374.303 339.835 378.642 339.857C382.98 339.855 387.275 340.715 391.279 342.388C395.141 344.003 398.642 346.374 401.575 349.361C404.527 352.322 406.891 355.816 408.543 359.658C410.217 363.658 411.08 367.952 411.08 372.288C411.08 376.625 410.217 380.919 408.543 384.919V384.931Z" fill="#222222"/>
<path d="M297.276 255.556C292.627 255.557 288.024 256.475 283.729 258.256C279.435 260.037 275.533 262.647 272.248 265.936C268.962 269.226 266.357 273.13 264.581 277.427C262.805 281.723 261.893 286.328 261.896 290.977C261.894 297.857 263.897 304.589 267.66 310.349C271.423 316.109 276.783 320.647 283.085 323.409H261.896V326.386H332.703V323.409H311.521C317.821 320.645 323.179 316.106 326.941 310.347C330.703 304.587 332.705 297.856 332.703 290.977C332.707 286.324 331.793 281.715 330.014 277.416C328.235 273.116 325.626 269.21 322.335 265.919C319.045 262.629 315.138 260.021 310.838 258.242C306.538 256.464 301.929 255.551 297.276 255.556V255.556ZM329.738 290.977C329.737 295.314 328.875 299.607 327.201 303.608C325.587 307.469 323.218 310.97 320.233 313.904C317.271 316.857 313.778 319.223 309.937 320.878C305.93 322.563 301.623 323.418 297.276 323.391C292.94 323.392 288.646 322.531 284.645 320.86C280.782 319.246 277.281 316.875 274.349 313.886C271.396 310.924 269.03 307.431 267.375 303.59C265.696 299.598 264.844 295.307 264.868 290.977C264.867 286.639 265.727 282.343 267.399 278.34C269.015 274.478 271.386 270.977 274.373 268.044C277.335 265.093 280.828 262.729 284.669 261.076C288.655 259.38 292.944 258.511 297.276 258.521C301.615 258.522 305.91 259.384 309.913 261.058C313.774 262.674 317.274 265.042 320.209 268.026C323.16 270.988 325.524 274.482 327.177 278.322C328.877 282.324 329.748 286.629 329.738 290.977V290.977Z" fill="#222222"/>
<path d="M261.896 421.21H283.085C276.783 423.971 271.422 428.509 267.659 434.269C263.896 440.029 261.894 446.761 261.896 453.642V453.642C261.895 458.289 262.809 462.892 264.586 467.186C266.363 471.481 268.969 475.383 272.254 478.671C275.539 481.958 279.44 484.567 283.733 486.347C288.027 488.127 292.628 489.044 297.276 489.045V489.045C301.926 489.047 306.53 488.132 310.826 486.353C315.122 484.575 319.026 481.967 322.314 478.679C325.601 475.391 328.209 471.488 329.988 467.192C331.766 462.896 332.681 458.291 332.679 453.642V453.642C332.682 446.762 330.68 440.031 326.918 434.271C323.156 428.511 317.797 423.973 311.497 421.21H332.679V418.232H261.896V421.21ZM297.3 421.21C301.638 421.208 305.934 422.069 309.937 423.741C313.799 425.356 317.3 427.727 320.233 430.714C323.185 433.676 325.55 437.169 327.201 441.011C328.895 445.005 329.758 449.303 329.738 453.642C329.737 457.979 328.875 462.272 327.201 466.273C325.588 470.135 323.219 473.636 320.233 476.569C317.271 479.522 313.778 481.888 309.937 483.543C305.932 485.237 301.624 486.098 297.276 486.074C292.94 486.074 288.646 485.214 284.645 483.543C280.782 481.929 277.281 479.557 274.349 476.569C271.395 473.608 269.029 470.114 267.375 466.273C265.686 462.277 264.825 457.98 264.844 453.642C264.843 449.305 265.703 445.012 267.375 441.011C268.988 437.147 271.359 433.646 274.349 430.714C277.345 427.681 280.915 425.276 284.852 423.64C288.789 422.004 293.013 421.17 297.276 421.186L297.3 421.21Z" fill="#222222"/>
<path d="M248.39 1023.39V1044.57C245.629 1038.27 241.09 1032.91 235.33 1029.15C229.57 1025.39 222.838 1023.38 215.958 1023.39V1023.39C211.308 1023.38 206.704 1024.3 202.408 1026.08C198.112 1027.86 194.208 1030.46 190.921 1033.75C187.633 1037.04 185.025 1040.94 183.246 1045.24C181.468 1049.54 180.553 1054.14 180.555 1058.79V1058.79C180.553 1063.44 181.468 1068.04 183.246 1072.34C185.025 1076.64 187.633 1080.54 190.921 1083.83C194.208 1087.11 198.112 1089.72 202.408 1091.5C206.704 1093.28 211.308 1094.19 215.958 1094.19V1094.19C222.838 1094.2 229.57 1092.19 235.33 1088.43C241.09 1084.67 245.629 1079.31 248.39 1073V1094.19H251.367V1023.39H248.39ZM245.859 1071.42C244.255 1075.28 241.894 1078.78 238.915 1081.72C235.955 1084.67 232.461 1087.04 228.619 1088.69C224.624 1090.38 220.326 1091.24 215.988 1091.22C211.651 1091.22 207.358 1090.36 203.357 1088.69C199.494 1087.08 195.993 1084.7 193.061 1081.72C190.107 1078.76 187.74 1075.26 186.087 1071.42C184.387 1067.43 183.518 1063.13 183.532 1058.79C183.531 1054.45 184.391 1050.16 186.063 1046.16C187.683 1042.29 190.062 1038.79 193.061 1035.86C196.023 1032.91 199.516 1030.54 203.357 1028.89C207.352 1027.2 211.649 1026.34 215.988 1026.36C220.324 1026.36 224.618 1027.22 228.619 1028.89C232.483 1030.5 235.984 1032.87 238.915 1035.86C241.871 1038.82 244.238 1042.32 245.889 1046.16C247.581 1050.15 248.442 1054.45 248.42 1058.79C248.412 1063.13 247.541 1067.42 245.859 1071.42V1071.42Z" fill="#222222"/>
<path d="M343.238 1023.39V1094.19H346.216V1073C348.978 1079.31 353.516 1084.67 359.276 1088.43C365.036 1092.19 371.767 1094.19 378.648 1094.19V1094.19C383.297 1094.19 387.902 1093.28 392.198 1091.5C396.494 1089.72 400.397 1087.11 403.685 1083.83C406.973 1080.54 409.581 1076.64 411.359 1072.34C413.138 1068.04 414.053 1063.44 414.051 1058.79C414.053 1054.14 413.138 1049.54 411.359 1045.24C409.581 1040.94 406.973 1037.04 403.685 1033.75C400.397 1030.46 396.494 1027.86 392.198 1026.08C387.902 1024.3 383.297 1023.38 378.648 1023.39V1023.39C371.767 1023.38 365.036 1025.39 359.276 1029.15C353.516 1032.91 348.978 1038.27 346.216 1044.57V1023.39H343.238ZM346.216 1058.79C346.213 1054.45 347.076 1050.16 348.753 1046.16C350.363 1042.29 352.732 1038.79 355.72 1035.86C358.682 1032.91 362.176 1030.54 366.017 1028.89C370.012 1027.2 374.309 1026.34 378.648 1026.36C382.986 1026.36 387.281 1027.22 391.284 1028.89C395.147 1030.5 398.647 1032.87 401.581 1035.86C404.533 1038.82 406.897 1042.32 408.548 1046.16C410.242 1050.15 411.105 1054.45 411.085 1058.79C411.085 1063.13 410.223 1067.42 408.548 1071.42C406.936 1075.28 404.567 1078.78 401.581 1081.72C398.619 1084.67 395.125 1087.04 391.284 1088.69C387.287 1090.38 382.988 1091.24 378.648 1091.22C374.311 1091.22 370.018 1090.36 366.017 1088.69C362.154 1087.08 358.653 1084.7 355.72 1081.72C352.766 1078.76 350.402 1075.26 348.753 1071.42C347.074 1067.42 346.209 1063.13 346.21 1058.79H346.216Z" fill="#222222"/>
<path d="M332.704 1009.88H311.521C317.822 1007.12 323.18 1002.58 326.942 996.819C330.704 991.059 332.706 984.328 332.704 977.448V977.448C332.705 972.797 331.79 968.19 330.01 963.893C328.23 959.595 325.62 955.691 322.329 952.402C319.039 949.114 315.133 946.507 310.834 944.73C306.535 942.953 301.928 942.04 297.276 942.045V942.045C292.627 942.043 288.022 942.958 283.726 944.737C279.43 946.515 275.527 949.123 272.239 952.411C268.951 955.699 266.343 959.602 264.565 963.898C262.786 968.194 261.871 972.799 261.873 977.448C261.87 984.329 263.873 991.061 267.636 996.821C271.399 1002.58 276.759 1007.12 283.061 1009.88H261.897V1012.86H332.704V1009.88ZM284.669 1007.35C280.806 1005.74 277.305 1003.36 274.373 1000.38C271.419 997.415 269.053 993.921 267.399 990.079C265.71 986.083 264.849 981.786 264.868 977.448C264.867 973.112 265.727 968.818 267.399 964.817C269.012 960.953 271.383 957.452 274.373 954.521C277.333 951.566 280.827 949.2 284.669 947.547C288.657 945.859 292.946 944.998 297.276 945.017C301.615 945.015 305.91 945.875 309.913 947.547C313.776 949.163 317.276 951.534 320.21 954.521C323.162 957.482 325.526 960.976 327.177 964.817C328.871 968.812 329.734 973.11 329.714 977.448C329.714 981.785 328.852 986.079 327.177 990.079C325.565 993.942 323.196 997.442 320.21 1000.38C317.248 1003.33 313.754 1005.69 309.913 1007.35C305.916 1009.04 301.617 1009.9 297.276 1009.88C292.948 1009.87 288.664 1009.01 284.669 1007.35V1007.35Z" fill="#222222"/>
<path d="M332.703 1104.73H261.896V1107.71H283.085C276.783 1110.47 271.422 1115 267.659 1120.76C263.896 1126.52 261.894 1133.26 261.896 1140.14V1140.14C261.895 1149.52 265.621 1158.52 272.256 1165.16C278.891 1171.8 287.891 1175.53 297.276 1175.53V1175.53C301.926 1175.54 306.53 1174.62 310.826 1172.84C315.122 1171.06 319.026 1168.46 322.314 1165.17C325.601 1161.88 328.209 1157.98 329.988 1153.68C331.766 1149.39 332.681 1144.78 332.679 1140.13V1140.13C332.682 1133.25 330.68 1126.52 326.918 1120.76C323.156 1115 317.797 1110.46 311.497 1107.7H332.679V1104.72L332.703 1104.73ZM297.3 1107.71C301.638 1107.7 305.934 1108.56 309.937 1110.24C313.799 1111.85 317.3 1114.22 320.233 1117.21C323.184 1120.17 325.548 1123.67 327.201 1127.51C328.895 1131.5 329.758 1135.8 329.738 1140.14C329.737 1144.47 328.875 1148.77 327.201 1152.77C325.588 1156.63 323.219 1160.13 320.233 1163.06C317.273 1166.02 313.779 1168.39 309.937 1170.04C305.94 1171.73 301.64 1172.59 297.3 1172.57C292.964 1172.57 288.67 1171.71 284.669 1170.04C280.806 1168.42 277.305 1166.05 274.373 1163.06C271.417 1160.1 269.051 1156.61 267.399 1152.77C265.71 1148.77 264.849 1144.48 264.868 1140.14C264.866 1135.8 265.727 1131.51 267.399 1127.51C269.013 1123.64 271.384 1120.14 274.373 1117.21C277.368 1114.18 280.939 1111.77 284.876 1110.14C288.813 1108.5 293.037 1107.66 297.3 1107.68V1107.71Z" fill="#222222"/>
<path d="M287.747 999.148L272.776 1014.12C275.283 1007.71 275.867 1000.71 274.455 993.982C273.042 987.249 269.696 981.074 264.826 976.215V976.215C258.18 969.578 249.171 965.85 239.778 965.85C230.385 965.85 221.377 969.578 214.731 976.215V976.215C208.093 982.861 204.365 991.87 204.365 1001.26C204.365 1010.66 208.093 1019.66 214.731 1026.31V1026.31C219.589 1031.17 225.758 1034.52 232.485 1035.93C239.212 1037.35 246.206 1036.77 252.612 1034.28L237.64 1049.24L239.742 1051.35L289.855 1001.23L287.747 999.148ZM252.016 1031.35C244.544 1034.41 236.202 1034.58 228.609 1031.84C221.015 1029.1 214.712 1023.63 210.923 1016.5C207.135 1009.37 206.131 1001.08 208.106 993.256C210.082 985.427 214.896 978.611 221.614 974.133C228.332 969.654 236.475 967.831 244.461 969.019C252.448 970.206 259.708 974.319 264.833 980.558C269.957 986.798 272.58 994.719 272.193 1002.78C271.805 1010.85 268.434 1018.48 262.735 1024.2C259.674 1027.27 256.029 1029.7 252.016 1031.35V1031.35Z" fill="#222222"/>
<path d="M354.845 1066.23L304.744 1116.33L306.846 1118.43L321.818 1103.46C319.312 1109.87 318.73 1116.86 320.143 1123.6C321.557 1130.33 324.903 1136.5 329.774 1141.36V1141.36C336.42 1148 345.428 1151.72 354.821 1151.72C364.214 1151.72 373.222 1148 379.868 1141.36V1141.36C386.506 1134.71 390.234 1125.7 390.234 1116.31C390.234 1106.92 386.506 1097.91 379.868 1091.26C375.008 1086.4 368.835 1083.05 362.105 1081.64C355.374 1080.22 348.377 1080.8 341.97 1083.3L356.941 1068.34L354.845 1066.23ZM331.876 1093.36C337.565 1087.7 345.153 1084.36 353.166 1083.99C361.179 1083.61 369.047 1086.22 375.243 1091.32C381.439 1096.41 385.522 1103.63 386.699 1111.56C387.877 1119.5 386.065 1127.59 381.615 1134.26C377.165 1140.94 370.394 1145.72 362.617 1147.68C354.839 1149.65 346.609 1148.66 339.522 1144.9C332.436 1141.14 326.999 1134.88 324.265 1127.34C321.532 1119.79 321.697 1111.51 324.73 1104.08C326.384 1100.07 328.812 1096.43 331.876 1093.36V1093.36Z" fill="#222222"/>
<path d="M356.941 1049.24L341.97 1034.28C348.377 1036.78 355.375 1037.36 362.106 1035.95C368.838 1034.53 375.011 1031.19 379.868 1026.32V1026.32C386.506 1019.67 390.234 1010.66 390.234 1001.27C390.234 991.876 386.506 982.867 379.868 976.221V976.221C373.222 969.584 364.214 965.856 354.821 965.856C345.428 965.856 336.42 969.584 329.774 976.221V976.221C324.907 981.081 321.562 987.254 320.149 993.985C318.736 1000.72 319.316 1007.71 321.818 1014.12L306.846 999.149L304.744 1001.25L354.845 1051.35L356.941 1049.24ZM324.748 1013.48C321.686 1006.01 321.511 997.669 324.255 990.075C326.999 982.482 332.467 976.179 339.597 972.39C346.728 968.601 355.011 967.597 362.84 969.573C370.669 971.549 377.484 976.363 381.963 983.081C386.442 989.799 388.264 997.942 387.077 1005.93C385.889 1013.91 381.777 1021.18 375.537 1026.3C369.297 1031.42 361.376 1034.05 353.311 1033.66C345.246 1033.27 337.613 1029.9 331.894 1024.2C328.83 1021.13 326.402 1017.49 324.748 1013.48V1013.48Z" fill="#222222"/>
<path d="M289.856 1116.29L239.761 1066.2L237.659 1068.29L252.612 1083.27C246.206 1080.76 239.208 1080.18 232.476 1081.59C225.745 1083 219.571 1086.35 214.714 1091.22V1091.22C208.076 1097.87 204.348 1106.88 204.348 1116.27C204.348 1125.67 208.076 1134.68 214.714 1141.32V1141.32C221.36 1147.96 230.369 1151.69 239.761 1151.69C249.153 1151.69 258.162 1147.96 264.808 1141.32V1141.32C269.676 1136.46 273.021 1130.29 274.435 1123.56C275.849 1116.83 275.271 1109.83 272.771 1103.42L287.748 1118.39L289.856 1116.29ZM262.736 1093.36C265.797 1096.36 268.233 1099.94 269.903 1103.88C271.573 1107.83 272.444 1112.07 272.466 1116.35C272.487 1120.64 271.659 1124.89 270.029 1128.85C268.399 1132.81 265.999 1136.42 262.969 1139.45C259.938 1142.48 256.337 1144.88 252.373 1146.51C248.41 1148.14 244.162 1148.97 239.877 1148.94C235.591 1148.92 231.352 1148.05 227.405 1146.38C223.458 1144.71 219.881 1142.27 216.881 1139.21C211.584 1133.92 208.281 1126.96 207.531 1119.51C206.782 1112.06 208.633 1104.58 212.77 1098.34C216.907 1092.1 223.075 1087.48 230.229 1085.27C237.382 1083.06 245.08 1083.39 252.017 1086.21C256.022 1087.87 259.664 1090.3 262.736 1093.36V1093.36Z" fill="#222222"/>
<path d="M287.774 652.985L272.803 667.957C275.308 661.55 275.889 654.552 274.475 647.82C273.06 641.088 269.712 634.915 264.841 630.058C258.195 623.421 249.187 619.692 239.794 619.692C230.401 619.692 221.392 623.421 214.746 630.058V630.058C208.109 636.704 204.381 645.713 204.381 655.105C204.381 664.498 208.109 673.507 214.746 680.153V680.153C219.606 685.018 225.778 688.361 232.507 689.775C239.237 691.189 246.232 690.612 252.639 688.115L237.686 703.08L239.788 705.182L289.883 655.087L287.774 652.985ZM252.044 685.185C244.572 688.246 236.23 688.421 228.636 685.677C221.042 682.933 214.739 677.465 210.951 670.335C207.162 663.205 206.158 654.921 208.134 647.092C210.109 639.264 214.923 632.448 221.642 627.969C228.36 623.491 236.503 621.668 244.489 622.855C252.475 624.043 259.736 628.156 264.86 634.395C269.985 640.635 272.608 648.556 272.22 656.621C271.833 664.686 268.462 672.319 262.763 678.039C259.701 681.111 256.057 683.541 252.044 685.185Z" fill="#222222"/>
<path d="M354.872 720.07L304.771 770.165L306.874 772.267L321.845 757.296C319.339 763.702 318.757 770.7 320.171 777.432C321.584 784.164 324.931 790.337 329.801 795.195V795.195C336.447 801.832 345.456 805.56 354.848 805.56C364.241 805.56 373.25 801.832 379.896 795.195V795.195C386.533 788.549 390.261 779.54 390.261 770.147C390.261 760.754 386.533 751.746 379.896 745.1V745.1C375.033 740.238 368.859 736.898 362.128 735.488C355.398 734.078 348.402 734.66 341.997 737.162L356.968 722.196L354.872 720.07ZM331.903 747.196C337.593 741.541 345.18 738.2 353.193 737.822C361.206 737.445 369.074 740.057 375.27 745.152C381.466 750.247 385.549 757.462 386.727 765.397C387.904 773.333 386.092 781.422 381.642 788.097C377.192 794.772 370.422 799.556 362.644 801.521C354.866 803.486 346.636 802.492 339.55 798.733C332.463 794.973 327.026 788.715 324.293 781.173C321.559 773.631 321.725 765.342 324.757 757.915C326.411 753.907 328.84 750.265 331.903 747.196V747.196Z" fill="#222222"/>
<path d="M356.968 703.08L341.997 688.115C348.404 690.618 355.402 691.198 362.133 689.784C368.865 688.37 375.038 685.023 379.896 680.153V680.153C386.533 673.507 390.261 664.498 390.261 655.105C390.261 645.713 386.533 636.704 379.896 630.058C373.25 623.421 364.241 619.692 354.848 619.692C345.456 619.692 336.447 623.421 329.801 630.058V630.058C324.934 634.918 321.589 641.091 320.176 647.822C318.763 654.553 319.343 661.55 321.845 667.957L306.874 652.985L304.771 655.087L354.872 705.182L356.968 703.08ZM324.775 667.349C321.714 659.878 321.538 651.535 324.282 643.942C327.027 636.348 332.495 630.045 339.625 626.256C346.755 622.468 355.038 621.464 362.867 623.439C370.696 625.415 377.511 630.229 381.99 636.947C386.469 643.665 388.292 651.808 387.104 659.795C385.917 667.781 381.804 675.041 375.564 680.166C369.325 685.29 361.403 687.913 353.339 687.526C345.274 687.138 337.64 683.768 331.921 678.068C328.854 674.991 326.426 671.338 324.775 667.319V667.349Z" fill="#222222"/>
<path d="M289.883 770.129L239.788 720.034L237.686 722.13L252.64 737.102C246.234 734.596 239.236 734.014 232.504 735.427C225.772 736.841 219.599 740.188 214.741 745.058V745.058C208.103 751.705 204.375 760.714 204.375 770.108C204.375 779.502 208.103 788.512 214.741 795.158C221.388 801.794 230.396 805.522 239.788 805.522C249.181 805.522 258.189 801.794 264.836 795.158V795.158C269.703 790.299 273.048 784.126 274.463 777.395C275.877 770.664 275.298 763.667 272.798 757.26L287.775 772.225L289.883 770.129ZM262.763 747.196C265.824 750.195 268.26 753.772 269.93 757.719C271.6 761.666 272.471 765.905 272.493 770.191C272.515 774.477 271.687 778.724 270.056 782.688C268.426 786.651 266.027 790.253 262.996 793.283C259.966 796.314 256.364 798.713 252.401 800.343C248.437 801.973 244.19 802.802 239.904 802.78C235.618 802.758 231.379 801.887 227.432 800.217C223.485 798.547 219.908 796.111 216.909 793.05C211.612 787.759 208.308 780.798 207.559 773.348C206.809 765.898 208.66 758.419 212.797 752.178C216.934 745.937 223.102 741.32 230.256 739.11C237.41 736.899 245.108 737.231 252.044 740.049C256.049 741.709 259.691 744.137 262.763 747.196V747.196Z" fill="#222222"/>
<path d="M1419.5 337.07C1412.62 337.066 1405.89 339.068 1400.13 342.83C1394.37 346.592 1389.83 351.951 1387.07 358.252V337.07H1365.88C1372.18 334.309 1377.54 329.774 1381.3 324.017C1385.06 318.261 1387.07 311.533 1387.07 304.656C1387.07 300.006 1386.15 295.402 1384.38 291.106C1382.6 286.81 1379.99 282.906 1376.7 279.618C1373.41 276.331 1369.51 273.723 1365.21 271.944C1360.92 270.166 1356.31 269.251 1351.66 269.252V269.252C1347.01 269.25 1342.41 270.164 1338.11 271.942C1333.82 273.721 1329.91 276.328 1326.62 279.616C1323.33 282.904 1320.73 286.808 1318.95 291.104C1317.17 295.401 1316.25 300.006 1316.26 304.656V304.656C1316.25 311.536 1318.26 318.268 1322.02 324.028C1325.78 329.787 1331.14 334.326 1337.44 337.088H1316.26V358.252C1313.49 351.95 1308.96 346.59 1303.2 342.827C1297.44 339.063 1290.7 337.061 1283.82 337.064C1279.17 337.062 1274.57 337.977 1270.27 339.756C1265.98 341.534 1262.07 344.142 1258.79 347.43C1255.5 350.718 1252.89 354.621 1251.11 358.917C1249.33 363.213 1248.42 367.817 1248.42 372.467V372.467C1248.42 377.117 1249.33 381.721 1251.11 386.017C1252.89 390.313 1255.5 394.217 1258.79 397.505C1262.07 400.792 1265.98 403.4 1270.27 405.179C1274.57 406.957 1279.17 407.872 1283.82 407.871V407.871C1290.7 407.873 1297.43 405.871 1303.19 402.109C1308.95 398.347 1313.49 392.988 1316.26 386.688V407.871H1337.44C1331.14 410.634 1325.78 415.174 1322.02 420.934C1318.26 426.695 1316.25 433.427 1316.26 440.308V440.308C1316.25 444.958 1317.17 449.563 1318.95 453.86C1320.73 458.156 1323.33 462.06 1326.62 465.348C1329.91 468.636 1333.82 471.243 1338.11 473.022C1342.41 474.8 1347.01 475.714 1351.66 475.712V475.712C1356.31 475.713 1360.92 474.799 1365.21 473.02C1369.51 471.241 1373.41 468.634 1376.7 465.346C1379.99 462.058 1382.6 458.154 1384.38 453.858C1386.15 449.562 1387.07 444.958 1387.07 440.308V440.308C1387.07 433.427 1385.07 426.695 1381.3 420.934C1377.54 415.174 1372.18 410.634 1365.88 407.871H1387.07V386.694C1389.83 392.994 1394.37 398.353 1400.13 402.115C1405.89 405.877 1412.62 407.879 1419.5 407.877V407.877C1424.15 407.88 1428.76 406.967 1433.06 405.19C1437.35 403.412 1441.26 400.805 1444.55 397.517C1447.84 394.229 1450.45 390.325 1452.23 386.027C1454.01 381.73 1454.92 377.124 1454.92 372.473V372.473C1454.92 363.081 1451.18 354.076 1444.54 347.436C1437.9 340.797 1428.89 337.068 1419.5 337.07V337.07ZM1328.7 327.541C1325.74 324.581 1323.37 321.087 1321.72 317.245C1320.04 313.263 1319.17 308.98 1319.19 304.656C1319.19 300.318 1320.05 296.022 1321.72 292.019C1323.33 288.152 1325.69 284.646 1328.67 281.705C1331.64 278.762 1335.13 276.399 1338.97 274.737C1342.96 273.043 1347.26 272.18 1351.6 272.2C1355.94 272.2 1360.23 273.063 1364.23 274.737C1368.09 276.35 1371.59 278.719 1374.53 281.705C1377.48 284.667 1379.84 288.16 1381.5 292.001C1383.2 296.002 1384.07 300.308 1384.05 304.656C1384.06 308.992 1383.2 313.286 1381.52 317.287C1379.9 321.146 1377.52 324.64 1374.53 327.565C1371.57 330.519 1368.07 332.885 1364.23 334.539C1360.23 336.228 1355.94 337.089 1351.6 337.07C1347.26 337.071 1342.97 336.211 1338.97 334.539C1335.12 332.906 1331.62 330.537 1328.67 327.565L1328.7 327.541ZM1313.68 385.086C1312.07 388.948 1309.7 392.449 1306.71 395.383C1303.75 398.324 1300.25 400.687 1296.42 402.35C1292.42 404.044 1288.13 404.907 1283.79 404.887C1279.45 404.887 1275.15 404.024 1271.15 402.35C1267.29 400.736 1263.79 398.367 1260.85 395.383C1257.9 392.422 1255.54 388.928 1253.89 385.086C1252.19 381.089 1251.33 376.79 1251.35 372.449C1251.35 368.112 1252.21 363.818 1253.89 359.818C1255.5 355.956 1257.87 352.455 1260.85 349.522C1263.82 346.569 1267.31 344.203 1271.15 342.548C1275.15 340.859 1279.45 339.998 1283.79 340.018C1288.12 340.017 1292.42 340.877 1296.42 342.548C1300.28 344.165 1303.78 346.536 1306.71 349.522C1309.67 352.483 1312.03 355.977 1313.68 359.818C1315.36 363.82 1316.22 368.115 1316.22 372.452C1316.22 376.79 1315.36 381.084 1313.68 385.086V385.086ZM1374.59 417.399C1377.54 420.359 1379.91 423.853 1381.56 427.695C1383.25 431.69 1384.12 435.987 1384.1 440.326C1384.1 444.665 1383.24 448.961 1381.56 452.963C1379.95 456.825 1377.58 460.326 1374.59 463.259C1371.63 466.21 1368.14 468.574 1364.3 470.227C1360.3 471.92 1356 472.784 1351.66 472.764C1347.33 472.764 1343.03 471.901 1339.03 470.227C1335.17 468.611 1331.67 466.243 1328.73 463.259C1325.78 460.299 1323.41 456.805 1321.76 452.963C1320.07 448.966 1319.21 444.667 1319.23 440.326C1319.23 435.989 1320.09 431.696 1321.76 427.695C1323.38 423.832 1325.74 420.331 1328.73 417.399C1331.7 414.455 1335.19 412.092 1339.03 410.431C1343.02 408.737 1347.32 407.874 1351.66 407.894C1356 407.892 1360.3 408.755 1364.3 410.431C1368.15 412.069 1371.65 414.444 1374.59 417.423V417.399ZM1319.21 404.893V340.083H1384.05V404.947L1319.21 404.893ZM1449.38 385.056C1447.76 388.918 1445.39 392.419 1442.41 395.353C1439.45 398.304 1435.95 400.668 1432.11 402.32C1428.12 404.014 1423.82 404.878 1419.48 404.857C1415.14 404.856 1410.85 403.994 1406.84 402.32C1402.98 400.706 1399.48 398.337 1396.55 395.353C1393.6 392.385 1391.24 388.893 1389.58 385.056C1387.89 381.06 1387.02 376.76 1387.04 372.42C1387.04 368.082 1387.9 363.789 1389.58 359.789C1391.19 355.926 1393.56 352.425 1396.55 349.492C1399.51 346.54 1403 344.174 1406.84 342.519C1410.84 340.83 1415.14 339.969 1419.48 339.988C1423.81 339.986 1428.11 340.846 1432.11 342.519C1435.98 344.152 1439.48 346.541 1442.41 349.546C1445.37 352.506 1447.73 356 1449.38 359.842C1451.06 363.844 1451.92 368.139 1451.92 372.476C1451.92 376.814 1451.06 381.108 1449.38 385.11L1449.38 385.056Z" fill="#222222"/>
<path d="M1387.12 1036.77H1365.93C1372.23 1034.01 1377.59 1029.47 1381.35 1023.71C1385.12 1017.95 1387.12 1011.22 1387.12 1004.34V1004.34C1387.12 999.69 1386.2 995.086 1384.42 990.79C1382.65 986.494 1380.04 982.59 1376.75 979.302C1373.46 976.015 1369.56 973.407 1365.26 971.628C1360.97 969.85 1356.36 968.935 1351.71 968.937V968.937C1347.06 968.934 1342.46 969.848 1338.16 971.627C1333.86 973.405 1329.96 976.012 1326.67 979.3C1323.38 982.588 1320.77 986.492 1319 990.788C1317.22 995.085 1316.3 999.69 1316.3 1004.34V1004.34C1316.3 1011.22 1318.3 1017.95 1322.07 1023.71C1325.83 1029.47 1331.19 1034.01 1337.49 1036.77H1316.3V1039.75H1387.12V1036.77ZM1339.08 1034.24C1335.21 1032.63 1331.71 1030.25 1328.78 1027.27C1325.83 1024.31 1323.46 1020.81 1321.81 1016.97C1320.12 1012.98 1319.25 1008.68 1319.27 1004.34C1319.27 1000 1320.14 995.71 1321.81 991.709C1323.42 987.847 1325.79 984.346 1328.78 981.413C1331.74 978.458 1335.23 976.092 1339.08 974.439C1343.07 972.747 1347.37 971.886 1351.71 971.908C1356.05 971.907 1360.34 972.768 1364.34 974.439C1368.21 976.053 1371.71 978.424 1374.64 981.413C1377.59 984.372 1379.96 987.866 1381.61 991.709C1383.3 995.704 1384.16 1000 1384.14 1004.34C1384.15 1008.68 1383.28 1012.97 1381.61 1016.97C1380 1020.83 1377.63 1024.34 1374.64 1027.27C1371.67 1030.21 1368.18 1032.58 1364.34 1034.24C1360.35 1035.93 1356.05 1036.79 1351.71 1036.77C1347.37 1036.77 1343.08 1035.91 1339.08 1034.24V1034.24Z" fill="#222222"/>
<path d="M1387.12 1104.61H1316.3V1107.59H1337.49C1331.19 1110.35 1325.83 1114.89 1322.07 1120.65C1318.3 1126.41 1316.3 1133.15 1316.3 1140.03C1316.3 1144.68 1317.22 1149.28 1319 1153.58C1320.77 1157.88 1323.38 1161.78 1326.67 1165.07C1329.96 1168.36 1333.86 1170.96 1338.16 1172.74C1342.46 1174.52 1347.06 1175.43 1351.71 1175.43V1175.43C1356.36 1175.43 1360.97 1174.52 1365.26 1172.74C1369.56 1170.96 1373.46 1168.35 1376.75 1165.07C1380.04 1161.78 1382.65 1157.87 1384.42 1153.58C1386.2 1149.28 1387.12 1144.68 1387.12 1140.03V1140.03C1387.12 1133.15 1385.11 1126.41 1381.35 1120.65C1377.59 1114.89 1372.23 1110.35 1365.93 1107.59H1387.12V1104.61ZM1351.67 1107.59C1356.01 1107.59 1360.3 1108.45 1364.3 1110.13C1368.16 1111.74 1371.66 1114.11 1374.6 1117.09C1377.54 1120.06 1379.91 1123.56 1381.57 1127.39C1383.26 1131.39 1384.12 1135.69 1384.1 1140.03C1384.1 1144.36 1383.24 1148.66 1381.57 1152.66C1379.95 1156.52 1377.57 1160.02 1374.57 1162.94C1371.61 1165.9 1368.12 1168.26 1364.28 1169.92C1360.28 1171.61 1355.98 1172.47 1351.65 1172.45C1347.31 1172.45 1343.02 1171.59 1339.02 1169.92C1335.15 1168.3 1331.65 1165.93 1328.72 1162.94C1325.76 1159.98 1323.4 1156.49 1321.75 1152.65C1320.05 1148.65 1319.19 1144.35 1319.21 1140.02C1319.21 1135.68 1320.07 1131.38 1321.75 1127.38C1323.36 1123.52 1325.73 1120.02 1328.72 1117.08C1331.72 1114.05 1335.29 1111.65 1339.22 1110.01C1343.16 1108.38 1347.38 1107.54 1351.65 1107.55L1351.67 1107.59Z" fill="#222222"/>
<path d="M1387.12 1107.58V1086.4C1389.88 1092.7 1394.42 1098.05 1400.18 1101.82C1405.94 1105.58 1412.67 1107.58 1419.55 1107.58V1107.58C1424.2 1107.58 1428.8 1106.67 1433.1 1104.89C1437.4 1103.12 1441.3 1100.51 1444.59 1097.22C1447.88 1093.94 1450.49 1090.03 1452.27 1085.74C1454.05 1081.44 1454.97 1076.84 1454.97 1072.19V1072.19C1454.97 1067.54 1454.06 1062.93 1452.28 1058.64C1450.5 1054.34 1447.89 1050.44 1444.6 1047.15C1441.32 1043.86 1437.41 1041.25 1433.12 1039.47C1428.82 1037.7 1424.22 1036.78 1419.57 1036.78V1036.78C1412.69 1036.78 1405.95 1038.78 1400.19 1042.55C1394.43 1046.31 1389.89 1051.67 1387.13 1057.97V1036.78H1384.16V1107.59L1387.12 1107.58ZM1389.65 1059.54C1391.26 1055.68 1393.63 1052.18 1396.62 1049.25C1399.58 1046.29 1403.07 1043.93 1406.92 1042.28C1410.91 1040.59 1415.21 1039.72 1419.55 1039.74C1423.88 1039.74 1428.18 1040.6 1432.18 1042.28C1436.04 1043.89 1439.54 1046.26 1442.48 1049.25C1445.43 1052.21 1447.8 1055.7 1449.45 1059.54C1451.15 1063.54 1452.01 1067.84 1451.99 1072.19C1451.99 1076.52 1451.13 1080.82 1449.46 1084.82C1447.84 1088.69 1445.47 1092.19 1442.49 1095.12C1439.53 1098.07 1436.03 1100.44 1432.19 1102.09C1428.2 1103.78 1423.9 1104.64 1419.56 1104.62C1415.22 1104.62 1410.93 1103.76 1406.93 1102.09C1403.07 1100.47 1399.57 1098.11 1396.63 1095.12C1393.68 1092.16 1391.31 1088.66 1389.66 1084.82C1387.99 1080.82 1387.13 1076.53 1387.13 1072.19C1387.13 1067.85 1387.99 1063.56 1389.66 1059.56L1389.65 1059.54Z" fill="#222222"/>
<path d="M1319.24 1107.58V1036.77H1316.26V1057.96C1313.5 1051.66 1308.96 1046.3 1303.2 1042.54C1297.44 1038.77 1290.7 1036.77 1283.82 1036.77V1036.77C1279.17 1036.77 1274.57 1037.68 1270.27 1039.46C1265.98 1041.24 1262.07 1043.85 1258.79 1047.14C1255.5 1050.43 1252.89 1054.33 1251.11 1058.62C1249.33 1062.92 1248.42 1067.53 1248.42 1072.17V1072.17C1248.42 1076.82 1249.33 1081.43 1251.11 1085.72C1252.89 1090.02 1255.5 1093.92 1258.79 1097.21C1262.07 1100.5 1265.98 1103.11 1270.27 1104.89C1274.57 1106.67 1279.17 1107.58 1283.82 1107.58C1290.7 1107.58 1297.43 1105.58 1303.2 1101.82C1308.96 1098.05 1313.5 1092.7 1316.26 1086.4V1107.58H1319.24ZM1316.26 1072.17C1316.26 1076.51 1315.4 1080.81 1313.72 1084.81C1312.11 1088.67 1309.74 1092.17 1306.76 1095.11C1303.79 1098.06 1300.3 1100.42 1296.46 1102.08C1292.46 1103.77 1288.16 1104.63 1283.82 1104.61C1279.49 1104.61 1275.19 1103.75 1271.19 1102.08C1267.33 1100.46 1263.83 1098.09 1260.9 1095.11C1257.94 1092.15 1255.58 1088.65 1253.93 1084.81C1252.23 1080.82 1251.37 1076.52 1251.39 1072.17C1251.39 1067.84 1252.25 1063.54 1253.93 1059.54C1255.54 1055.68 1257.91 1052.18 1260.9 1049.25C1263.86 1046.29 1267.35 1043.93 1271.19 1042.28C1275.19 1040.59 1279.48 1039.72 1283.82 1039.74C1288.16 1039.74 1292.46 1040.6 1296.46 1042.28C1300.32 1043.89 1303.82 1046.26 1306.76 1049.25C1309.71 1052.21 1312.07 1055.7 1313.72 1059.54C1315.42 1063.54 1316.28 1067.84 1316.27 1072.19L1316.26 1072.17Z" fill="#222222"/>
<path d="M1401.77 1072.19L1386.79 1057.22C1393.2 1059.72 1400.2 1060.3 1406.93 1058.89C1413.67 1057.48 1419.84 1054.13 1424.7 1049.26C1431.33 1042.61 1435.06 1033.6 1435.06 1024.21C1435.06 1014.82 1431.33 1005.81 1424.7 999.165C1418.05 992.527 1409.04 988.799 1399.65 988.799C1390.25 988.799 1381.24 992.527 1374.6 999.165V999.165C1369.73 1004.02 1366.39 1010.2 1364.97 1016.93C1363.56 1023.66 1364.14 1030.66 1366.64 1037.06L1351.67 1022.09L1349.57 1024.19L1399.67 1074.29L1401.77 1072.19ZM1369.61 1036.46C1366.55 1028.99 1366.37 1020.65 1369.12 1013.06C1371.86 1005.47 1377.33 999.167 1384.45 995.38C1391.58 991.593 1399.86 990.59 1407.69 992.565C1415.51 994.54 1422.33 999.352 1426.8 1006.07C1431.28 1012.78 1433.1 1020.92 1431.91 1028.91C1430.73 1036.89 1426.62 1044.15 1420.38 1049.27C1414.14 1054.39 1406.23 1057.01 1398.16 1056.63C1390.1 1056.24 1382.47 1052.87 1376.75 1047.18C1373.67 1044.11 1371.24 1040.45 1369.61 1036.41V1036.46Z" fill="#222222"/>
<path d="M1353.81 1120.17L1303.71 1070.08L1301.61 1072.18L1316.58 1087.15C1310.17 1084.64 1303.17 1084.06 1296.44 1085.48C1289.71 1086.89 1283.54 1090.24 1278.68 1095.11V1095.11C1272.04 1101.75 1268.31 1110.76 1268.31 1120.16C1268.31 1129.55 1272.04 1138.56 1278.68 1145.2V1145.2C1285.32 1151.84 1294.33 1155.57 1303.73 1155.57C1313.12 1155.57 1322.13 1151.84 1328.77 1145.2C1333.64 1140.34 1336.99 1134.17 1338.4 1127.44C1339.81 1120.71 1339.24 1113.71 1336.73 1107.3L1351.71 1122.28L1353.81 1120.17ZM1326.64 1097.25C1332.29 1102.93 1335.63 1110.51 1336 1118.52C1336.38 1126.52 1333.77 1134.38 1328.68 1140.57C1323.59 1146.76 1316.38 1150.84 1308.45 1152.02C1300.52 1153.19 1292.44 1151.38 1285.77 1146.94C1279.11 1142.49 1274.33 1135.73 1272.36 1127.96C1270.4 1120.19 1271.39 1111.96 1275.15 1104.88C1278.9 1097.8 1285.15 1092.37 1292.69 1089.64C1300.22 1086.91 1308.5 1087.07 1315.92 1090.1C1319.95 1091.71 1323.6 1094.15 1326.64 1097.25Z" fill="#222222"/>
<path d="M1351.67 1122.28L1366.64 1107.3C1364.14 1113.71 1363.55 1120.71 1364.97 1127.44C1366.38 1134.17 1369.73 1140.35 1374.6 1145.2C1381.24 1151.84 1390.25 1155.57 1399.65 1155.57C1409.04 1155.57 1418.05 1151.84 1424.7 1145.2V1145.2C1431.33 1138.56 1435.06 1129.55 1435.06 1120.16C1435.06 1110.76 1431.33 1101.76 1424.7 1095.11C1419.84 1090.24 1413.67 1086.9 1406.94 1085.48C1400.2 1084.07 1393.21 1084.65 1386.8 1087.15L1401.77 1072.18L1399.67 1070.08L1349.56 1120.17L1351.67 1122.28ZM1387.47 1090.12C1394.94 1087.06 1403.29 1086.88 1410.88 1089.63C1418.47 1092.37 1424.78 1097.84 1428.57 1104.97C1432.35 1112.1 1433.36 1120.38 1431.38 1128.21C1429.41 1136.04 1424.59 1142.85 1417.87 1147.33C1411.16 1151.81 1403.01 1153.64 1395.03 1152.45C1387.04 1151.26 1379.78 1147.15 1374.66 1140.91C1369.53 1134.67 1366.91 1126.75 1367.3 1118.68C1367.68 1110.62 1371.05 1102.98 1376.75 1097.26C1379.79 1094.17 1383.44 1091.73 1387.47 1090.12V1090.12Z" fill="#222222"/>
<path d="M1303.71 1074.28L1353.8 1024.18L1351.71 1022.08L1336.74 1037.05C1339.25 1030.65 1339.83 1023.65 1338.41 1016.91C1337 1010.18 1333.65 1004.01 1328.78 999.153V999.153C1322.13 992.516 1313.12 988.788 1303.73 988.788C1294.34 988.788 1285.33 992.516 1278.68 999.153V999.153C1272.05 1005.8 1268.32 1014.81 1268.32 1024.2C1268.32 1033.59 1272.05 1042.6 1278.68 1049.25V1049.25C1283.54 1054.11 1289.72 1057.46 1296.45 1058.87C1303.18 1060.29 1310.17 1059.71 1316.58 1057.21L1301.61 1072.19L1303.71 1074.28ZM1326.63 1047.15C1320.95 1052.81 1313.36 1056.15 1305.34 1056.53C1297.33 1056.9 1289.46 1054.29 1283.27 1049.2C1277.07 1044.1 1272.99 1036.89 1271.81 1028.95C1270.63 1021.02 1272.45 1012.93 1276.9 1006.25C1281.35 999.576 1288.12 994.792 1295.89 992.827C1303.67 990.862 1311.9 991.855 1318.99 995.615C1326.07 999.375 1331.51 1005.63 1334.25 1013.17C1336.98 1020.72 1336.81 1029.01 1333.78 1036.43C1332.15 1040.46 1329.72 1044.11 1326.64 1047.18L1326.63 1047.15Z" fill="#222222"/>
<path d="M1401.53 718.865L1386.55 703.894C1392.96 706.398 1399.96 706.979 1406.69 705.565C1413.43 704.15 1419.6 700.803 1424.46 695.931V695.931C1431.09 689.285 1434.82 680.276 1434.82 670.884C1434.82 661.492 1431.09 652.483 1424.46 645.837V645.837C1417.81 639.199 1408.8 635.471 1399.41 635.471C1390.01 635.471 1381 639.199 1374.36 645.837V645.837C1369.49 650.696 1366.15 656.87 1364.73 663.601C1363.32 670.332 1363.9 677.329 1366.4 683.735L1351.43 668.764L1349.33 670.866L1399.43 720.961L1401.53 718.865ZM1369.37 683.134C1366.31 675.662 1366.13 667.32 1368.87 659.726C1371.62 652.133 1377.09 645.83 1384.22 642.041C1391.35 638.252 1399.63 637.248 1407.46 639.224C1415.29 641.2 1422.1 646.014 1426.58 652.732C1431.06 659.45 1432.88 667.593 1431.7 675.579C1430.51 683.566 1426.4 690.826 1420.16 695.951C1413.92 701.075 1406 703.698 1397.93 703.311C1389.87 702.923 1382.23 699.552 1376.51 693.853C1373.43 690.789 1371 687.133 1369.37 683.104V683.134Z" fill="#222222"/>
<path d="M1353.57 766.858L1303.47 716.763L1301.36 718.865L1316.34 733.831C1309.93 731.332 1302.94 730.754 1296.21 732.168C1289.48 733.582 1283.31 736.927 1278.46 741.793V741.793C1271.82 748.439 1268.09 757.447 1268.09 766.84C1268.09 776.233 1271.82 785.241 1278.46 791.887V791.887C1285.1 798.525 1294.11 802.253 1303.5 802.253C1312.9 802.253 1321.9 798.525 1328.55 791.887C1333.42 787.028 1336.76 780.855 1338.18 774.124C1339.59 767.393 1339.01 760.396 1336.51 753.989L1351.48 768.96L1353.57 766.858ZM1326.4 743.919C1332.05 749.604 1335.39 757.184 1335.76 765.189C1336.14 773.195 1333.53 781.054 1328.44 787.244C1323.35 793.433 1316.14 797.512 1308.21 798.688C1300.28 799.863 1292.2 798.053 1285.53 793.607C1278.86 789.162 1274.09 782.398 1272.12 774.629C1270.16 766.859 1271.15 758.636 1274.91 751.557C1278.66 744.477 1284.91 739.044 1292.45 736.312C1299.98 733.581 1308.26 733.745 1315.68 736.772C1319.71 738.391 1323.36 740.824 1326.4 743.919Z" fill="#222222"/>
<path d="M1351.43 768.96L1366.4 753.988C1363.89 760.392 1363.31 767.389 1364.72 774.121C1366.13 780.852 1369.47 787.027 1374.33 791.887V791.887C1380.98 798.525 1389.99 802.253 1399.38 802.253C1408.78 802.253 1417.79 798.525 1424.43 791.887V791.887C1431.07 785.24 1434.8 776.232 1434.8 766.84C1434.8 757.447 1431.07 748.439 1424.43 741.792C1419.57 736.926 1413.4 733.582 1406.67 732.168C1399.94 730.754 1392.94 731.331 1386.54 733.83L1401.5 718.865L1399.41 716.763L1349.32 766.857L1351.43 768.96ZM1387.23 736.802C1394.7 733.741 1403.05 733.565 1410.64 736.309C1418.23 739.054 1424.54 744.521 1428.33 751.652C1432.11 758.782 1433.12 767.065 1431.14 774.894C1429.17 782.723 1424.35 789.538 1417.63 794.017C1410.92 798.496 1402.77 800.319 1394.79 799.131C1386.8 797.944 1379.54 793.831 1374.42 787.591C1369.29 781.352 1366.67 773.43 1367.06 765.365C1367.44 757.301 1370.81 749.667 1376.51 743.948C1379.56 740.853 1383.21 738.42 1387.23 736.802V736.802Z" fill="#222222"/>
<path d="M1303.47 720.961L1353.56 670.866L1351.47 668.764L1336.49 683.735C1339 677.329 1339.58 670.33 1338.16 663.599C1336.75 656.867 1333.4 650.694 1328.53 645.837C1321.89 639.199 1312.88 635.471 1303.49 635.471C1294.09 635.471 1285.08 639.199 1278.44 645.837C1271.8 652.483 1268.07 661.491 1268.07 670.884C1268.07 680.277 1271.8 689.286 1278.44 695.931V695.931C1283.3 700.799 1289.47 704.144 1296.2 705.558C1302.93 706.972 1309.93 706.394 1316.34 703.894L1301.37 718.865L1303.47 720.961ZM1326.39 693.835C1320.71 699.484 1313.13 702.82 1305.12 703.196C1297.12 703.573 1289.26 700.962 1283.07 695.871C1276.88 690.781 1272.8 683.572 1271.63 675.645C1270.45 667.717 1272.26 659.636 1276.71 652.968C1281.15 646.299 1287.91 641.52 1295.68 639.556C1303.45 637.593 1311.68 638.585 1318.76 642.34C1325.84 646.096 1331.27 652.347 1334 659.881C1336.73 667.416 1336.57 675.696 1333.54 683.116C1331.91 687.134 1329.48 690.78 1326.4 693.835H1326.39Z" fill="#222222"/>
<path d="M1767.68 336.957C1760.8 336.955 1754.07 338.958 1748.31 342.721C1742.55 346.484 1738.01 351.844 1735.25 358.145V343.019H1738.34V340.042H1735.25V336.951H1732.27V340.042H1717.14C1723.44 337.283 1728.8 332.749 1732.56 326.994C1736.33 321.239 1738.33 314.511 1738.34 307.634V307.634C1738.34 302.984 1737.42 298.38 1735.64 294.084C1733.87 289.788 1731.26 285.884 1727.97 282.596C1724.68 279.309 1720.78 276.701 1716.48 274.922C1712.19 273.144 1707.58 272.229 1702.93 272.23V272.23C1698.28 272.23 1693.68 273.145 1689.38 274.924C1685.09 276.703 1681.19 279.311 1677.9 282.598C1674.61 285.886 1672 289.789 1670.23 294.085C1668.45 298.381 1667.53 302.985 1667.54 307.634V307.634C1667.53 314.514 1669.54 321.246 1673.3 327.006C1677.06 332.765 1682.42 337.304 1688.72 340.066H1673.59V336.975H1670.61V340.066H1667.54V343.043H1670.63V358.169C1667.86 351.868 1663.32 346.508 1657.56 342.745C1651.8 338.982 1645.07 336.979 1638.19 336.981V336.981C1633.54 336.979 1628.93 337.894 1624.64 339.673C1620.34 341.452 1616.44 344.06 1613.15 347.349C1609.86 350.637 1607.25 354.541 1605.48 358.838C1603.7 363.135 1602.78 367.74 1602.79 372.39V372.39C1602.78 377.04 1603.7 381.644 1605.48 385.94C1607.26 390.236 1609.86 394.14 1613.15 397.428C1616.44 400.715 1620.34 403.323 1624.64 405.102C1628.93 406.88 1633.54 407.795 1638.19 407.794C1645.07 407.795 1651.8 405.792 1657.56 402.029C1663.32 398.267 1667.86 392.907 1670.63 386.605V401.725H1667.54V404.703H1670.63V407.794H1673.6V404.703H1688.74C1682.44 407.461 1677.08 411.995 1673.31 417.75C1669.55 423.506 1667.54 430.233 1667.54 437.111V437.111C1667.53 441.76 1668.45 446.365 1670.23 450.661C1672.01 454.957 1674.61 458.86 1677.9 462.148C1681.19 465.436 1685.09 468.044 1689.39 469.822C1693.68 471.601 1698.29 472.516 1702.94 472.514V472.514C1707.59 472.516 1712.19 471.601 1716.49 469.822C1720.79 468.044 1724.69 465.436 1727.98 462.148C1731.26 458.86 1733.87 454.957 1735.65 450.661C1737.43 446.365 1738.34 441.76 1738.34 437.111V437.111C1738.34 430.234 1736.33 423.507 1732.57 417.752C1728.81 411.996 1723.45 407.462 1717.15 404.703H1732.28V407.794H1735.26V404.703H1738.35V401.725H1735.26V386.599C1738.02 392.901 1742.56 398.261 1748.32 402.024C1754.08 405.786 1760.81 407.789 1767.7 407.788V407.788C1772.34 407.789 1776.95 406.875 1781.25 405.096C1785.54 403.317 1789.44 400.71 1792.73 397.422C1796.02 394.134 1798.63 390.23 1800.41 385.934C1802.19 381.638 1803.1 377.034 1803.1 372.384V372.384C1803.1 367.733 1802.18 363.126 1800.4 358.829C1798.63 354.531 1796.02 350.626 1792.73 347.336C1789.44 344.046 1785.54 341.436 1781.24 339.656C1776.94 337.875 1772.33 336.958 1767.68 336.957ZM1679.96 330.543C1677.01 327.583 1674.65 324.089 1673 320.247C1671.3 316.258 1670.44 311.967 1670.46 307.634C1670.46 303.295 1671.32 298.999 1673 294.997C1674.61 291.135 1676.98 287.634 1679.96 284.701C1682.93 281.75 1686.42 279.386 1690.26 277.733C1694.26 276.04 1698.55 275.176 1702.89 275.196C1707.23 275.196 1711.53 276.059 1715.53 277.733C1719.39 279.349 1722.89 281.717 1725.82 284.701C1728.78 287.663 1731.14 291.156 1732.79 294.997C1734.49 298.994 1735.35 303.293 1735.33 307.634C1735.33 311.971 1734.47 316.264 1732.79 320.265C1731.18 324.126 1728.81 327.627 1725.82 330.561C1722.86 333.514 1719.37 335.88 1715.53 337.535C1711.53 339.223 1707.23 340.084 1702.89 340.066C1698.56 340.066 1694.26 339.206 1690.26 337.535C1686.4 335.905 1682.9 333.529 1679.96 330.543V330.543ZM1668.05 384.997C1666.44 388.86 1664.07 392.361 1661.09 395.294C1658.13 398.246 1654.63 400.611 1650.79 402.261C1646.79 403.955 1642.5 404.818 1638.16 404.798C1633.82 404.801 1629.52 403.938 1625.52 402.261C1621.66 400.648 1618.16 398.279 1615.23 395.294C1612.27 392.331 1609.91 388.838 1608.26 384.997C1606.56 381.003 1605.7 376.705 1605.72 372.366C1605.72 368.028 1606.58 363.732 1608.26 359.73C1609.87 355.868 1612.24 352.367 1615.23 349.433C1618.19 346.489 1621.69 344.126 1625.52 342.466C1629.52 340.771 1633.82 339.908 1638.16 339.929C1642.5 339.927 1646.79 340.789 1650.79 342.466C1654.65 344.077 1658.15 346.447 1661.09 349.433C1664.03 352.401 1666.39 355.893 1668.05 359.73C1669.75 363.726 1670.61 368.026 1670.59 372.366C1670.59 376.705 1669.73 380.999 1668.04 384.997H1668.05ZM1725.86 414.231C1728.81 417.192 1731.18 420.686 1732.83 424.528C1734.53 428.522 1735.39 432.82 1735.36 437.158C1735.37 441.495 1734.51 445.788 1732.83 449.789C1731.22 453.653 1728.85 457.154 1725.86 460.086C1722.9 463.04 1719.41 465.406 1715.56 467.059C1711.57 468.751 1707.27 469.612 1702.93 469.59C1698.6 469.592 1694.3 468.732 1690.3 467.059C1686.44 465.447 1682.94 463.075 1680.01 460.086C1677.05 457.125 1674.69 453.631 1673.03 449.789C1671.34 445.794 1670.48 441.497 1670.5 437.158C1670.5 432.822 1671.36 428.529 1673.03 424.528C1674.64 420.664 1677.02 417.162 1680.01 414.231C1682.97 411.277 1686.46 408.911 1690.3 407.258C1694.3 405.566 1698.59 404.704 1702.93 404.727C1707.27 404.725 1711.56 405.585 1715.56 407.258C1719.4 408.921 1722.89 411.286 1725.86 414.231V414.231ZM1673.55 401.725V343.061H1732.24V401.725H1673.55ZM1797.54 384.973C1795.93 388.837 1793.56 392.338 1790.57 395.27C1787.61 398.224 1784.12 400.588 1780.27 402.237C1776.28 403.931 1771.98 404.794 1767.64 404.774C1763.3 404.777 1759.01 403.915 1755.01 402.237C1751.15 400.625 1747.65 398.256 1744.71 395.27C1741.76 392.308 1739.4 388.814 1737.74 384.973C1736.05 380.978 1735.19 376.681 1735.21 372.343C1735.21 368.004 1736.07 363.709 1737.74 359.706C1739.35 355.843 1741.73 352.342 1744.71 349.409C1747.68 346.464 1751.17 344.101 1755.01 342.442C1759.01 340.748 1763.3 339.885 1767.64 339.905C1771.98 339.902 1776.27 340.765 1780.27 342.442C1784.14 344.052 1787.64 346.421 1790.57 349.409C1793.51 352.377 1795.88 355.869 1797.54 359.706C1799.23 363.703 1800.1 368.002 1800.07 372.343C1800.12 376.691 1799.26 381.002 1797.54 384.997V384.973Z" fill="#222222"/>
<path d="M1738.34 1043.22H1717.15C1723.45 1040.46 1728.81 1035.92 1732.57 1030.16C1736.34 1024.4 1738.34 1017.67 1738.34 1010.79V1010.79C1738.34 1006.14 1737.42 1001.54 1735.64 997.239C1733.87 992.943 1731.26 989.04 1727.97 985.752C1724.68 982.464 1720.78 979.857 1716.48 978.078C1712.19 976.299 1707.58 975.385 1702.93 975.386V975.386C1698.28 975.385 1693.68 976.299 1689.38 978.078C1685.09 979.857 1681.18 982.464 1677.9 985.752C1674.61 989.04 1672 992.943 1670.22 997.239C1668.44 1001.54 1667.53 1006.14 1667.53 1010.79V1010.79C1667.53 1017.67 1669.53 1024.4 1673.29 1030.16C1677.05 1035.92 1682.41 1040.46 1688.71 1043.22H1667.53V1046.2H1738.34V1043.22ZM1690.3 1040.69C1686.43 1039.07 1682.93 1036.7 1680 1033.72C1677.05 1030.76 1674.68 1027.26 1673.03 1023.42C1671.34 1019.43 1670.47 1015.13 1670.49 1010.79C1670.5 1006.45 1671.36 1002.16 1673.03 998.159C1674.64 994.296 1677.01 990.795 1680 987.862C1682.96 984.908 1686.45 982.541 1690.3 980.889C1694.29 979.197 1698.59 978.336 1702.93 978.358C1707.27 978.356 1711.56 979.216 1715.56 980.889C1719.43 982.503 1722.93 984.874 1725.86 987.862C1728.81 990.823 1731.18 994.317 1732.83 998.159C1734.53 1002.15 1735.39 1006.45 1735.36 1010.79C1735.37 1015.13 1734.51 1019.42 1732.83 1023.42C1731.22 1027.28 1728.85 1030.79 1725.86 1033.72C1722.89 1036.66 1719.4 1039.03 1715.56 1040.69C1711.57 1042.38 1707.27 1043.24 1702.93 1043.22C1698.6 1043.22 1694.31 1042.36 1690.31 1040.69H1690.3Z" fill="#222222"/>
<path d="M1738.34 1104.88H1667.53V1107.86H1688.71C1682.41 1110.62 1677.05 1115.16 1673.29 1120.92C1669.53 1126.68 1667.53 1133.41 1667.53 1140.29V1140.29C1667.53 1144.94 1668.44 1149.55 1670.22 1153.84C1672 1158.14 1674.61 1162.04 1677.89 1165.33C1681.18 1168.62 1685.08 1171.23 1689.38 1173.01C1693.68 1174.79 1698.28 1175.7 1702.93 1175.7V1175.7C1707.58 1175.7 1712.19 1174.79 1716.48 1173.01C1720.78 1171.23 1724.68 1168.62 1727.97 1165.33C1731.26 1162.04 1733.87 1158.14 1735.65 1153.84C1737.42 1149.55 1738.34 1144.94 1738.34 1140.29C1738.34 1133.41 1736.33 1126.68 1732.57 1120.92C1728.81 1115.16 1723.45 1110.62 1717.15 1107.86H1738.34V1104.88ZM1702.93 1107.89C1707.27 1107.89 1711.56 1108.75 1715.56 1110.43C1719.43 1112.04 1722.93 1114.41 1725.86 1117.4C1728.81 1120.36 1731.18 1123.85 1732.83 1127.7C1734.53 1131.69 1735.39 1135.99 1735.36 1140.33C1735.37 1144.66 1734.51 1148.96 1732.83 1152.96C1731.22 1156.82 1728.85 1160.32 1725.86 1163.25C1722.9 1166.21 1719.41 1168.57 1715.56 1170.23C1711.57 1171.92 1707.27 1172.78 1702.93 1172.76C1698.59 1172.76 1694.3 1171.9 1690.3 1170.23C1686.43 1168.61 1682.93 1166.24 1680 1163.25C1677.05 1160.29 1674.68 1156.8 1673.03 1152.96C1671.34 1148.96 1670.47 1144.66 1670.49 1140.33C1670.5 1135.99 1671.36 1131.7 1673.03 1127.7C1674.64 1123.83 1677.01 1120.33 1680 1117.4C1682.96 1114.45 1686.45 1112.08 1690.3 1110.43C1694.3 1108.73 1698.6 1107.87 1702.94 1107.89H1702.93Z" fill="#222222"/>
<path d="M1735.26 1110.98V1089.8C1738.02 1096.1 1742.56 1101.45 1748.32 1105.22C1754.08 1108.98 1760.81 1110.98 1767.69 1110.98V1110.98C1772.34 1110.98 1776.95 1110.07 1781.24 1108.29C1785.54 1106.51 1789.44 1103.9 1792.73 1100.61C1796.02 1097.33 1798.63 1093.42 1800.41 1089.13C1802.18 1084.83 1803.1 1080.23 1803.1 1075.58C1803.1 1070.93 1802.18 1066.32 1800.41 1062.03C1798.63 1057.73 1796.02 1053.83 1792.73 1050.54C1789.44 1047.25 1785.54 1044.64 1781.24 1042.86C1776.95 1041.09 1772.34 1040.17 1767.69 1040.17V1040.17C1760.81 1040.17 1754.08 1042.17 1748.32 1045.94C1742.56 1049.7 1738.02 1055.06 1735.26 1061.36V1040.17H1732.28V1110.98H1735.26ZM1737.79 1062.94C1739.41 1059.08 1741.77 1055.58 1744.76 1052.65C1747.72 1049.7 1751.22 1047.33 1755.06 1045.68C1759.05 1043.99 1763.35 1043.12 1767.69 1043.14C1772.03 1043.14 1776.33 1044 1780.33 1045.68C1784.19 1047.29 1787.69 1049.66 1790.62 1052.65C1793.57 1055.61 1795.94 1059.1 1797.59 1062.94C1799.28 1066.94 1800.15 1071.24 1800.13 1075.58C1800.13 1079.91 1799.27 1084.21 1797.59 1088.21C1795.98 1092.07 1793.61 1095.58 1790.62 1098.51C1787.65 1101.45 1784.16 1103.81 1780.33 1105.48C1776.33 1107.17 1772.03 1108.03 1767.69 1108.01C1763.36 1108.01 1759.06 1107.15 1755.06 1105.48C1751.2 1103.86 1747.7 1101.49 1744.76 1098.51C1741.81 1095.55 1739.44 1092.05 1737.79 1088.21C1736.1 1084.22 1735.24 1079.92 1735.26 1075.58C1735.25 1071.24 1736.12 1066.94 1737.79 1062.94V1062.94Z" fill="#222222"/>
<path d="M1673.6 1110.98V1040.17H1670.62V1061.37C1667.86 1055.06 1663.32 1049.7 1657.56 1045.94C1651.8 1042.18 1645.07 1040.18 1638.19 1040.18V1040.18C1633.54 1040.18 1628.93 1041.09 1624.64 1042.87C1620.34 1044.65 1616.44 1047.26 1613.15 1050.54C1609.86 1053.83 1607.26 1057.74 1605.48 1062.03C1603.7 1066.33 1602.78 1070.93 1602.79 1075.58V1075.58C1602.78 1080.23 1603.7 1084.84 1605.48 1089.13C1607.26 1093.43 1609.86 1097.33 1613.15 1100.62C1616.44 1103.91 1620.34 1106.51 1624.64 1108.29C1628.93 1110.07 1633.54 1110.99 1638.19 1110.99C1645.07 1110.99 1651.8 1108.99 1657.56 1105.22C1663.32 1101.46 1667.86 1096.1 1670.62 1089.8V1110.99H1673.6V1110.98ZM1670.59 1075.54C1670.59 1079.87 1669.73 1084.17 1668.07 1088.16C1666.45 1092.03 1664.08 1095.53 1661.1 1098.46C1658.14 1101.42 1654.64 1103.78 1650.8 1105.43C1646.8 1107.13 1642.5 1107.99 1638.16 1107.97C1633.82 1107.97 1629.53 1107.11 1625.53 1105.43C1621.67 1103.82 1618.16 1101.45 1615.23 1098.47C1612.28 1095.51 1609.91 1092.01 1608.26 1088.17C1606.57 1084.18 1605.71 1079.88 1605.73 1075.54C1605.73 1071.2 1606.59 1066.91 1608.26 1062.9C1609.88 1059.04 1612.25 1055.54 1615.23 1052.61C1618.19 1049.66 1621.69 1047.29 1625.53 1045.64C1629.52 1043.95 1633.82 1043.08 1638.16 1043.1C1642.5 1043.1 1646.79 1043.96 1650.8 1045.64C1654.66 1047.25 1658.16 1049.62 1661.09 1052.61C1664.04 1055.57 1666.41 1059.06 1668.06 1062.9C1669.75 1066.9 1670.61 1071.2 1670.59 1075.54V1075.54Z" fill="#222222"/>
<path d="M1750.84 1077.71L1735.87 1062.75C1742.28 1065.25 1749.27 1065.83 1756.01 1064.42C1762.74 1063 1768.91 1059.66 1773.77 1054.79V1054.79C1780.41 1048.14 1784.13 1039.13 1784.13 1029.74C1784.13 1020.35 1780.41 1011.34 1773.77 1004.69V1004.69C1767.12 998.054 1758.11 994.326 1748.72 994.326C1739.33 994.326 1730.32 998.054 1723.67 1004.69V1004.69C1718.81 1009.55 1715.46 1015.72 1714.05 1022.45C1712.63 1029.19 1713.21 1036.18 1715.71 1042.59L1700.74 1027.62L1698.64 1029.72L1748.74 1079.82L1750.84 1077.71ZM1718.68 1041.98C1715.62 1034.51 1715.45 1026.17 1718.19 1018.57C1720.94 1010.98 1726.4 1004.68 1733.53 1000.89C1740.66 997.101 1748.95 996.097 1756.78 998.073C1764.6 1000.05 1771.42 1004.86 1775.9 1011.58C1780.38 1018.3 1782.2 1026.44 1781.01 1034.43C1779.83 1042.41 1775.71 1049.67 1769.47 1054.8C1763.23 1059.92 1755.31 1062.55 1747.25 1062.16C1739.18 1061.77 1731.55 1058.4 1725.83 1052.7C1722.75 1049.64 1720.31 1045.98 1718.68 1041.95V1041.98Z" fill="#222222"/>
<path d="M1707.22 1121.36L1657.13 1071.26L1655.02 1073.36L1670 1088.33C1663.59 1085.83 1656.59 1085.24 1649.86 1086.66C1643.13 1088.07 1636.95 1091.42 1632.1 1096.29V1096.29C1625.46 1102.93 1621.73 1111.94 1621.73 1121.34C1621.73 1130.73 1625.46 1139.74 1632.1 1146.39C1638.74 1153.02 1647.75 1156.75 1657.14 1156.75C1666.54 1156.75 1675.54 1153.02 1682.19 1146.39C1687.06 1141.53 1690.4 1135.35 1691.82 1128.62C1693.23 1121.89 1692.65 1114.89 1690.15 1108.48L1705.12 1123.46L1707.22 1121.36ZM1680.05 1098.43C1685.7 1104.11 1689.04 1111.69 1689.41 1119.7C1689.79 1127.7 1687.18 1135.56 1682.09 1141.75C1677 1147.94 1669.79 1152.02 1661.86 1153.19C1653.94 1154.37 1645.85 1152.56 1639.19 1148.11C1632.52 1143.67 1627.74 1136.91 1625.77 1129.14C1623.81 1121.37 1624.8 1113.14 1628.56 1106.06C1632.31 1098.98 1638.57 1093.55 1646.1 1090.82C1653.63 1088.09 1661.91 1088.25 1669.33 1091.28C1673.36 1092.9 1677.01 1095.33 1680.05 1098.43Z" fill="#222222"/>
<path d="M1700.76 1123.46L1715.74 1108.48C1713.23 1114.89 1712.65 1121.89 1714.06 1128.62C1715.48 1135.35 1718.82 1141.53 1723.69 1146.39V1146.39C1730.34 1153.02 1739.35 1156.75 1748.74 1156.75C1758.13 1156.75 1767.14 1153.02 1773.79 1146.39V1146.39C1780.43 1139.74 1784.16 1130.73 1784.16 1121.34C1784.16 1111.94 1780.43 1102.93 1773.79 1096.29C1768.93 1091.42 1762.76 1088.08 1756.03 1086.66C1749.3 1085.25 1742.3 1085.83 1735.89 1088.33L1750.86 1073.36L1748.76 1071.26L1698.67 1121.36L1700.76 1123.46ZM1736.52 1091.3C1744 1088.24 1752.34 1088.06 1759.93 1090.81C1767.53 1093.55 1773.83 1099.02 1777.62 1106.15C1781.41 1113.28 1782.41 1121.56 1780.43 1129.39C1778.46 1137.22 1773.65 1144.03 1766.93 1148.51C1760.21 1152.99 1752.07 1154.81 1744.08 1153.63C1736.09 1152.44 1728.83 1148.33 1723.71 1142.09C1718.58 1135.85 1715.96 1127.93 1716.35 1119.86C1716.74 1111.8 1720.11 1104.16 1725.81 1098.44C1728.86 1095.35 1732.51 1092.91 1736.55 1091.3H1736.52Z" fill="#222222"/>
<path d="M1657.13 1079.86L1707.22 1029.76L1705.12 1027.66L1690.15 1042.63C1692.66 1036.22 1693.24 1029.22 1691.82 1022.49C1690.41 1015.76 1687.06 1009.59 1682.19 1004.73V1004.73C1675.54 998.091 1666.54 994.364 1657.14 994.364C1647.75 994.364 1638.74 998.091 1632.1 1004.73V1004.73C1625.46 1011.37 1621.73 1020.38 1621.73 1029.78C1621.73 1039.17 1625.46 1048.18 1632.1 1054.83V1054.83C1636.96 1059.69 1643.13 1063.04 1649.86 1064.45C1656.59 1065.87 1663.59 1065.29 1670 1062.78L1655.02 1077.75L1657.13 1079.86ZM1680.05 1052.69C1674.36 1058.35 1666.78 1061.69 1658.76 1062.06C1650.75 1062.44 1642.88 1059.83 1636.69 1054.73C1630.49 1049.64 1626.41 1042.42 1625.23 1034.49C1624.05 1026.55 1625.86 1018.46 1630.31 1011.79C1634.76 1005.11 1641.53 1000.33 1649.31 998.365C1657.09 996.399 1665.32 997.393 1672.41 1001.15C1679.49 1004.91 1684.93 1011.17 1687.66 1018.71C1690.4 1026.25 1690.23 1034.54 1687.2 1041.97C1685.58 1046 1683.15 1049.65 1680.05 1052.69Z" fill="#222222"/>
<path d="M1750.95 723.336L1735.98 708.365C1742.39 710.864 1749.38 711.442 1756.11 710.027C1762.84 708.611 1769.01 705.265 1773.86 700.397V700.397C1780.5 693.751 1784.23 684.742 1784.23 675.349C1784.23 665.957 1780.5 656.948 1773.86 650.302V650.302C1767.22 643.665 1758.21 639.937 1748.81 639.937C1739.42 639.937 1730.41 643.665 1723.77 650.302V650.302C1718.9 655.163 1715.56 661.338 1714.15 668.07C1712.73 674.802 1713.31 681.8 1715.82 688.207L1700.85 673.235L1698.75 675.338L1748.83 725.408L1750.95 723.336ZM1718.79 687.605C1715.73 680.13 1715.55 671.782 1718.3 664.184C1721.05 656.586 1726.52 650.279 1733.65 646.487C1740.78 642.696 1749.07 641.691 1756.91 643.668C1764.74 645.644 1771.56 650.461 1776.04 657.183C1780.52 663.905 1782.35 672.053 1781.16 680.044C1779.97 688.035 1775.85 695.299 1769.61 700.427C1763.37 705.554 1755.44 708.178 1747.37 707.789C1739.3 707.401 1731.66 704.028 1725.94 698.324C1722.86 695.261 1720.43 691.604 1718.79 687.575V687.605Z" fill="#222222"/>
<path d="M1707.33 766.976L1657.24 716.881L1655.14 718.977L1670.11 733.948C1663.7 731.443 1656.7 730.861 1649.97 732.274C1643.24 733.687 1637.07 737.034 1632.21 741.904V741.904C1625.57 748.551 1621.84 757.561 1621.84 766.955C1621.84 776.348 1625.57 785.358 1632.21 792.005V792.005C1638.85 798.641 1647.86 802.368 1657.26 802.368C1666.65 802.368 1675.66 798.641 1682.3 792.005V792.005C1687.17 787.146 1690.52 780.973 1691.93 774.242C1693.34 767.511 1692.76 760.514 1690.26 754.107L1705.24 769.072L1707.33 766.976ZM1680.16 744.042C1685.81 749.727 1689.15 757.307 1689.53 765.313C1689.9 773.318 1687.29 781.178 1682.2 787.367C1677.11 793.557 1669.9 797.635 1661.97 798.811C1654.05 799.987 1645.97 798.177 1639.3 793.731C1632.63 789.286 1627.85 782.522 1625.89 774.752C1623.92 766.982 1624.91 758.76 1628.67 751.68C1632.43 744.6 1638.68 739.168 1646.21 736.436C1653.74 733.704 1662.03 733.868 1669.45 736.896C1673.47 738.515 1677.12 740.948 1680.16 744.042Z" fill="#222222"/>
<path d="M1700.88 769.072L1715.85 754.107C1713.34 760.513 1712.76 767.51 1714.18 774.242C1715.59 780.973 1718.93 787.146 1723.8 792.005V792.005C1730.45 798.64 1739.46 802.366 1748.85 802.366C1758.25 802.366 1767.26 798.64 1773.9 792.005C1780.54 785.358 1784.27 776.348 1784.27 766.955C1784.27 757.561 1780.54 748.551 1773.9 741.904C1769.04 737.038 1762.87 733.694 1756.14 732.281C1749.41 730.868 1742.41 731.447 1736.01 733.948L1750.95 718.977L1748.86 716.881L1698.76 766.976L1700.88 769.072ZM1736.64 736.914C1744.11 733.853 1752.45 733.678 1760.04 736.422C1767.64 739.166 1773.94 744.634 1777.73 751.764C1781.52 758.894 1782.52 767.178 1780.55 775.006C1778.57 782.835 1773.76 789.651 1767.04 794.129C1760.32 798.608 1752.18 800.431 1744.19 799.243C1736.2 798.056 1728.94 793.943 1723.82 787.703C1718.7 781.464 1716.07 773.543 1716.46 765.478C1716.85 757.413 1720.22 749.78 1725.92 744.06C1728.97 740.963 1732.62 738.53 1736.66 736.914H1736.64Z" fill="#222222"/>
<path d="M1657.24 725.474L1707.33 675.385L1705.24 673.289L1690.26 688.261C1692.77 681.855 1693.35 674.86 1691.93 668.13C1690.52 661.401 1687.17 655.23 1682.3 650.374C1675.66 643.736 1666.65 640.008 1657.25 640.008C1647.86 640.008 1638.85 643.736 1632.21 650.374V650.374C1625.57 657.02 1621.84 666.028 1621.84 675.421C1621.84 684.814 1625.57 693.823 1632.21 700.469C1637.07 705.336 1643.24 708.68 1649.97 710.093C1656.7 711.506 1663.7 710.926 1670.11 708.425L1655.13 723.396L1657.24 725.474ZM1680.16 698.307C1674.48 703.956 1666.9 707.292 1658.89 707.668C1650.89 708.044 1643.03 705.434 1636.84 700.343C1630.65 695.252 1626.57 688.044 1625.4 680.117C1624.22 672.189 1626.03 664.107 1630.48 657.439C1634.92 650.771 1641.68 645.992 1649.45 644.028C1657.22 642.064 1665.45 643.057 1672.53 646.812C1679.61 650.568 1685.04 656.819 1687.77 664.353C1690.5 671.887 1690.34 680.167 1687.31 687.588C1685.69 691.615 1683.26 695.264 1680.16 698.307Z" fill="#222222"/>
</g>
<defs>
<clipPath id="clip0_248_59301">
<rect width="2000" height="1400" fill="white"/>
</clipPath>
</defs>
</svg>
