<svg width="2000" height="1400" viewBox="0 0 2000 1400" fill="none" xmlns="http://www.w3.org/2000/svg">
<rect width="2000" height="1400" fill="white"/>
<path d="M1249.49 423.769V556.9H1255.08V423.769H1249.49Z" fill="#222222"/>
<path d="M1188.52 429.362C1196.67 429.314 1204.74 430.952 1212.23 434.173C1219.48 437.222 1226.06 441.669 1231.59 447.262C1237.27 452.906 1241.77 459.617 1244.84 467.009C1247.92 474.402 1249.49 482.329 1249.49 490.334C1249.54 498.487 1247.9 506.562 1244.68 514.052C1241.63 521.301 1237.18 527.878 1231.59 533.406C1225.95 539.084 1219.23 543.589 1211.84 546.661C1204.45 549.733 1196.52 551.312 1188.52 551.307C1180.36 551.354 1172.29 549.717 1164.8 546.496C1157.55 543.447 1150.97 538.999 1145.45 533.406C1139.77 527.763 1135.26 521.052 1132.19 513.659C1129.12 506.267 1127.54 498.34 1127.54 490.334C1127.5 482.182 1129.13 474.107 1132.36 466.617C1135.4 459.368 1139.85 452.791 1145.45 447.262C1151.09 441.585 1157.8 437.08 1165.19 434.008C1172.58 430.936 1180.51 429.357 1188.52 429.362ZM1188.52 423.769C1175.35 423.769 1162.48 427.673 1151.54 434.987C1140.59 442.301 1132.06 452.697 1127.02 464.861C1121.98 477.024 1120.66 490.408 1123.23 503.321C1125.8 516.233 1132.14 528.094 1141.45 537.404C1150.76 546.713 1162.62 553.053 1175.53 555.621C1188.44 558.19 1201.83 556.871 1213.99 551.833C1226.15 546.795 1236.55 538.263 1243.86 527.316C1251.18 516.37 1255.08 503.5 1255.08 490.334C1255.09 481.591 1253.37 472.932 1250.03 464.852C1246.69 456.773 1241.79 449.432 1235.6 443.249C1229.42 437.066 1222.08 432.163 1214 428.821C1205.92 425.478 1197.26 423.761 1188.52 423.769Z" fill="#222222"/>
<path d="M1254.63 556.9V423.769H1249.04V556.9H1254.63Z" fill="#222222"/>
<path d="M1315.61 551.306C1307.45 551.354 1299.38 549.717 1291.89 546.496C1284.64 543.447 1278.06 538.999 1272.53 533.406C1266.86 527.763 1262.35 521.052 1259.28 513.659C1256.21 506.267 1254.63 498.34 1254.63 490.334C1254.59 482.182 1256.22 474.107 1259.45 466.617C1262.49 459.368 1266.94 452.791 1272.53 447.262C1278.18 441.585 1284.89 437.08 1292.28 434.008C1299.67 430.936 1307.6 429.357 1315.61 429.362C1323.76 429.314 1331.83 430.952 1339.32 434.173C1346.57 437.222 1353.15 441.669 1358.68 447.262C1364.36 452.906 1368.86 459.617 1371.93 467.009C1375.01 474.402 1376.58 482.329 1376.58 490.334C1376.63 498.487 1374.99 506.562 1371.77 514.052C1368.72 521.301 1364.27 527.878 1358.68 533.406C1353.12 538.964 1346.55 543.406 1339.32 546.496C1331.83 549.717 1323.76 551.354 1315.61 551.306ZM1315.61 556.9C1328.77 556.9 1341.64 552.996 1352.59 545.682C1363.54 538.368 1372.07 527.971 1377.11 515.808C1382.14 503.645 1383.46 490.261 1380.89 477.348C1378.33 464.436 1371.99 452.575 1362.68 443.265C1353.37 433.956 1341.51 427.616 1328.59 425.048C1315.68 422.479 1302.3 423.797 1290.13 428.836C1277.97 433.874 1267.57 442.406 1260.26 453.352C1252.95 464.299 1249.04 477.169 1249.04 490.334C1249.03 499.078 1250.75 507.737 1254.09 515.817C1257.44 523.896 1262.34 531.237 1268.52 537.42C1274.7 543.603 1282.05 548.506 1290.12 551.848C1298.2 555.191 1306.86 556.908 1315.61 556.9Z" fill="#222222"/>
<path d="M1318.61 487.538H1185.47V493.132H1318.61V487.538Z" fill="#222222"/>
<path d="M1313.01 426.566C1313.06 434.719 1311.42 442.794 1308.2 450.283C1305.15 457.533 1300.71 464.11 1295.11 469.638C1289.47 475.316 1282.76 479.82 1275.37 482.893C1267.97 485.965 1260.05 487.544 1252.04 487.538C1243.89 487.586 1235.81 485.948 1228.32 482.727C1221.07 479.679 1214.5 475.231 1208.97 469.638C1203.29 463.994 1198.79 457.283 1195.71 449.891C1192.64 442.498 1191.06 434.571 1191.07 426.566C1191.02 418.413 1192.66 410.338 1195.88 402.848C1198.93 395.599 1203.38 389.022 1208.97 383.494C1214.61 377.816 1221.32 373.311 1228.72 370.239C1236.11 367.167 1244.04 365.588 1252.04 365.594C1260.19 365.546 1268.27 367.184 1275.76 370.404C1283.01 373.453 1289.58 377.901 1295.11 383.494C1300.67 389.052 1305.11 395.621 1308.2 402.848C1311.41 410.342 1313.05 418.414 1313.01 426.566ZM1318.61 426.566C1318.61 413.4 1314.7 400.531 1307.39 389.584C1300.07 378.637 1289.68 370.105 1277.51 365.067C1265.35 360.029 1251.97 358.711 1239.05 361.279C1226.14 363.848 1214.28 370.187 1204.97 379.497C1195.66 388.806 1189.32 400.667 1186.75 413.58C1184.19 426.492 1185.5 439.876 1190.54 452.04C1195.58 464.203 1204.11 474.599 1215.06 481.913C1226.01 489.228 1238.87 493.132 1252.04 493.132C1260.78 493.139 1269.44 491.422 1277.52 488.08C1285.6 484.737 1292.94 479.834 1299.13 473.651C1305.31 467.469 1310.21 460.128 1313.55 452.048C1316.9 443.969 1318.61 435.31 1318.61 426.566Z" fill="#222222"/>
<path d="M1185.47 493.132H1318.61V487.538H1185.47V493.132Z" fill="#222222"/>
<path d="M1191.07 554.104C1191.02 545.951 1192.66 537.876 1195.88 530.386C1198.93 523.137 1203.38 516.56 1208.97 511.032C1214.61 505.354 1221.32 500.849 1228.72 497.777C1236.11 494.705 1244.04 493.126 1252.04 493.132C1260.19 493.084 1268.27 494.722 1275.76 497.942C1283.01 500.991 1289.58 505.439 1295.11 511.032C1300.79 516.675 1305.29 523.387 1308.37 530.779C1311.44 538.171 1313.02 546.099 1313.01 554.104C1313.06 562.257 1311.42 570.332 1308.2 577.822C1305.15 585.071 1300.71 591.648 1295.11 597.176C1289.47 602.854 1282.76 607.358 1275.37 610.431C1267.97 613.503 1260.05 615.082 1252.04 615.076C1243.89 615.124 1235.81 613.486 1228.32 610.265C1221.07 607.217 1214.5 602.769 1208.97 597.176C1203.29 591.533 1198.79 584.821 1195.71 577.429C1192.64 570.037 1191.06 562.109 1191.07 554.104ZM1185.47 554.104C1185.47 567.269 1189.38 580.139 1196.69 591.086C1204.01 602.033 1214.4 610.565 1226.57 615.603C1238.73 620.641 1252.11 621.959 1265.03 619.391C1277.94 616.822 1289.8 610.483 1299.11 601.173C1308.42 591.864 1314.76 580.003 1317.33 567.09C1319.9 554.178 1318.58 540.794 1313.54 528.63C1308.5 516.467 1299.97 506.071 1289.02 498.756C1278.08 491.442 1265.21 487.538 1252.04 487.538C1234.39 487.541 1217.46 494.555 1204.97 507.038C1192.49 519.521 1185.48 536.45 1185.47 554.104Z" fill="#222222"/>
<path d="M1510.16 842.504V975.636H1515.75V842.504H1510.16Z" fill="#222222"/>
<path d="M1449.19 848.098C1457.34 848.05 1465.41 849.688 1472.9 852.908C1480.15 855.957 1486.73 860.405 1492.26 865.998C1497.94 871.641 1502.44 878.352 1505.51 885.745C1508.59 893.137 1510.16 901.064 1510.16 909.07C1510.21 917.223 1508.57 925.297 1505.35 932.787C1502.3 940.036 1497.85 946.613 1492.26 952.142C1486.62 957.82 1479.9 962.324 1472.51 965.396C1465.12 968.469 1457.19 970.047 1449.19 970.042C1441.18 970.047 1433.25 968.469 1425.86 965.396C1418.47 962.324 1411.76 957.82 1406.11 952.142C1400.44 946.498 1395.93 939.787 1392.86 932.395C1389.79 925.002 1388.21 917.075 1388.21 909.07C1388.17 900.917 1389.8 892.842 1393.03 885.352C1396.07 878.103 1400.52 871.526 1406.11 865.998C1411.76 860.32 1418.47 855.815 1425.86 852.743C1433.25 849.671 1441.18 848.092 1449.19 848.098ZM1449.19 842.504C1436.02 842.504 1423.15 846.408 1412.2 853.722C1401.26 861.037 1392.73 871.433 1387.69 883.596C1382.65 895.759 1381.33 909.144 1383.9 922.056C1386.47 934.969 1392.81 946.83 1402.12 956.139C1411.43 965.448 1423.29 971.788 1436.2 974.357C1449.11 976.925 1462.5 975.607 1474.66 970.569C1486.82 965.53 1497.22 956.998 1504.53 946.052C1511.85 935.105 1515.75 922.235 1515.75 909.07C1515.75 891.416 1508.74 874.487 1496.25 862.004C1483.77 849.521 1466.84 842.507 1449.19 842.504Z" fill="#222222"/>
<path d="M1515.42 975.636V842.504H1509.82V975.636H1515.42Z" fill="#222222"/>
<path d="M1576.43 970.042C1568.28 970.09 1560.21 968.452 1552.72 965.231C1545.47 962.183 1538.89 957.735 1533.36 952.142C1527.69 946.498 1523.18 939.787 1520.11 932.395C1517.04 925.002 1515.46 917.075 1515.46 909.07C1515.42 900.917 1517.05 892.842 1520.27 885.352C1523.32 878.103 1527.77 871.526 1533.36 865.998C1539.01 860.32 1545.72 855.815 1553.11 852.743C1560.5 849.671 1568.43 848.092 1576.43 848.098C1584.59 848.05 1592.66 849.688 1600.15 852.908C1607.4 855.957 1613.98 860.405 1619.51 865.998C1625.18 871.641 1629.69 878.352 1632.76 885.745C1635.83 893.137 1637.41 901.064 1637.41 909.07C1637.45 917.223 1635.82 925.297 1632.6 932.787C1629.55 940.037 1625.1 946.613 1619.51 952.142C1613.95 957.699 1607.38 962.142 1600.15 965.231C1592.66 968.441 1584.59 970.079 1576.43 970.042ZM1576.43 975.636C1589.6 975.636 1602.47 971.732 1613.42 964.417C1624.36 957.103 1632.9 946.707 1637.93 934.543C1642.97 922.38 1644.29 908.996 1641.72 896.083C1639.15 883.171 1632.81 871.31 1623.5 862.001C1614.19 852.691 1602.33 846.351 1589.42 843.783C1576.51 841.215 1563.12 842.533 1550.96 847.571C1538.8 852.609 1528.4 861.141 1521.09 872.088C1513.77 883.034 1509.87 895.904 1509.87 909.07C1509.87 926.723 1516.89 943.653 1529.37 956.136C1541.85 968.619 1558.78 975.633 1576.43 975.636Z" fill="#222222"/>
<path d="M1579.3 906.273H1446.17V911.867H1579.3V906.273Z" fill="#222222"/>
<path d="M1573.7 845.301C1573.75 853.454 1572.11 861.529 1568.89 869.019C1565.84 876.268 1561.4 882.845 1555.8 888.373C1550.16 894.051 1543.45 898.556 1536.06 901.628C1528.66 904.7 1520.74 906.279 1512.73 906.273C1504.58 906.321 1496.5 904.683 1489.01 901.463C1481.77 898.414 1475.19 893.966 1469.66 888.373C1463.98 882.73 1459.48 876.019 1456.41 868.626C1453.33 861.234 1451.75 853.307 1451.76 845.301C1451.71 837.148 1453.35 829.074 1456.57 821.584C1459.62 814.335 1464.07 807.758 1469.66 802.229C1475.3 796.551 1482.01 792.047 1489.41 788.975C1496.8 785.902 1504.73 784.324 1512.73 784.329C1520.74 784.324 1528.66 785.902 1536.06 788.975C1543.45 792.047 1550.16 796.551 1555.8 802.229C1561.36 807.787 1565.8 814.357 1568.89 821.584C1572.1 829.077 1573.74 837.149 1573.7 845.301ZM1579.3 845.301C1579.3 832.136 1575.39 819.266 1568.08 808.319C1560.77 797.373 1550.37 788.841 1538.21 783.802C1526.04 778.764 1512.66 777.446 1499.75 780.014C1486.83 782.583 1474.97 788.923 1465.66 798.232C1456.35 807.541 1450.01 819.402 1447.45 832.315C1444.88 845.227 1446.19 858.612 1451.23 870.775C1456.27 882.938 1464.8 893.334 1475.75 900.649C1486.7 907.963 1499.57 911.867 1512.73 911.867C1521.48 911.874 1530.13 910.158 1538.21 906.815C1546.29 903.472 1553.63 898.569 1559.82 892.387C1566 886.204 1570.9 878.863 1574.25 870.784C1577.59 862.704 1579.31 854.045 1579.3 845.301Z" fill="#222222"/>
<path d="M1446.28 911.867H1579.41V906.273H1446.28V911.867Z" fill="#222222"/>
<path d="M1451.87 972.839C1451.83 964.686 1453.46 956.612 1456.68 949.122C1459.73 941.873 1464.18 935.296 1469.77 929.767C1475.42 924.09 1482.13 919.585 1489.52 916.513C1496.91 913.44 1504.84 911.862 1512.85 911.867C1520.85 911.862 1528.78 913.44 1536.17 916.513C1543.56 919.585 1550.27 924.09 1555.92 929.767C1561.59 935.411 1566.1 942.122 1569.17 949.514C1572.24 956.907 1573.82 964.834 1573.82 972.839C1573.87 980.992 1572.23 989.067 1569.01 996.557C1565.96 1003.81 1561.51 1010.38 1555.92 1015.91C1550.27 1021.59 1543.56 1026.09 1536.17 1029.17C1528.78 1032.24 1520.85 1033.82 1512.85 1033.81C1504.71 1033.85 1496.65 1032.22 1489.17 1029C1481.92 1025.95 1475.35 1021.5 1469.82 1015.91C1464.26 1010.35 1459.82 1003.78 1456.73 996.557C1453.49 989.07 1451.84 980.995 1451.87 972.839ZM1446.28 972.839C1446.28 986.005 1450.18 998.875 1457.5 1009.82C1464.81 1020.77 1475.21 1029.3 1487.37 1034.34C1499.53 1039.38 1512.92 1040.69 1525.83 1038.13C1538.74 1035.56 1550.6 1029.22 1559.91 1019.91C1569.22 1010.6 1575.56 998.738 1578.13 985.826C1580.7 972.913 1579.38 959.529 1574.34 947.366C1569.31 935.202 1560.77 924.806 1549.83 917.492C1538.88 910.177 1526.01 906.273 1512.85 906.273C1495.19 906.276 1478.26 913.291 1465.78 925.773C1453.3 938.256 1446.28 955.186 1446.28 972.839Z" fill="#222222"/>
<path d="M1558.04 860.181L1463.96 954.268L1467.87 958.183L1561.96 864.096L1558.04 860.181Z" fill="#222222"/>
<path d="M1510.94 821.024C1516.69 826.795 1521.25 833.636 1524.37 841.162C1530.33 855.87 1530.33 872.323 1524.37 887.031C1521.32 894.593 1516.75 901.448 1510.94 907.169C1505.17 912.917 1498.33 917.478 1490.8 920.594C1479.71 925.122 1467.51 926.263 1455.77 923.874C1444.02 921.485 1433.25 915.672 1424.8 907.169C1419.05 901.398 1414.49 894.557 1411.37 887.031C1405.41 872.323 1405.41 855.87 1411.37 841.162C1414.42 833.6 1418.99 826.745 1424.8 821.024C1430.57 815.276 1437.41 810.715 1444.93 807.599C1452.22 804.657 1460.01 803.137 1467.87 803.124C1475.73 803.083 1483.53 804.604 1490.8 807.599C1498.33 810.715 1505.17 815.276 1510.94 821.024ZM1514.86 817.109C1505.55 807.804 1493.7 801.467 1480.79 798.899C1467.89 796.331 1454.51 797.649 1442.35 802.684C1430.19 807.72 1419.8 816.247 1412.49 827.189C1405.18 838.13 1401.28 850.993 1401.28 864.152C1401.28 877.312 1405.18 890.175 1412.49 901.116C1419.8 912.058 1430.19 920.585 1442.35 925.621C1454.51 930.656 1467.89 931.974 1480.79 929.406C1493.7 926.838 1505.55 920.501 1514.86 911.196C1527.33 898.719 1534.34 881.803 1534.35 864.162C1534.35 846.521 1527.36 829.598 1514.9 817.109H1514.86Z" fill="#222222"/>
<path d="M1467.53 957.96L1561.62 863.873L1557.71 859.957L1463.62 954.044L1467.53 957.96Z" fill="#222222"/>
<path d="M1514.63 997.116C1508.89 991.346 1504.32 984.504 1501.21 976.978C1498.27 969.689 1496.75 961.904 1496.73 954.044C1496.72 946.038 1498.3 938.108 1501.37 930.715C1504.44 923.322 1508.95 916.611 1514.63 910.972C1520.4 905.223 1527.25 900.662 1534.77 897.547C1542.06 894.604 1549.85 893.085 1557.71 893.072C1565.71 893.06 1573.64 894.636 1581.03 897.708C1588.43 900.781 1595.14 905.289 1600.78 910.972C1606.53 916.742 1611.09 923.584 1614.2 931.109C1618.73 942.208 1619.87 954.399 1617.48 966.145C1615.09 977.891 1609.28 988.668 1600.78 997.116C1595.01 1002.86 1588.17 1007.43 1580.64 1010.54C1565.93 1016.51 1549.48 1016.51 1534.77 1010.54C1527.22 1007.47 1520.37 1002.9 1514.63 997.116ZM1510.72 1001.14C1520.02 1010.45 1531.88 1016.79 1544.78 1019.35C1557.69 1021.92 1571.07 1020.6 1583.23 1015.57C1595.38 1010.53 1605.77 1002 1613.08 991.064C1620.4 980.122 1624.3 967.259 1624.3 954.1C1624.3 940.941 1620.4 928.077 1613.08 917.136C1605.77 906.195 1595.38 897.667 1583.23 892.631C1571.07 887.596 1557.69 886.279 1544.78 888.846C1531.88 891.414 1520.02 897.751 1510.72 907.056C1498.25 919.539 1491.25 936.459 1491.25 954.1C1491.25 971.741 1498.25 988.66 1510.72 1001.14Z" fill="#222222"/>
<path d="M1561.89 954.156L1467.76 860.068L1463.84 863.984L1557.93 958.071L1561.89 954.156Z" fill="#222222"/>
<path d="M1601.05 907.168C1595.28 912.917 1588.44 917.478 1580.91 920.593C1573.62 923.536 1565.84 925.055 1557.97 925.068C1549.97 925.08 1542.04 923.504 1534.65 920.431C1527.25 917.359 1520.54 912.851 1514.9 907.168C1509.15 901.398 1504.59 894.556 1501.48 887.03C1498.54 879.741 1497.02 871.956 1497 864.096C1496.99 856.09 1498.57 848.16 1501.64 840.767C1504.71 833.374 1509.22 826.663 1514.9 821.024C1520.67 815.275 1527.51 810.714 1535.04 807.599C1542.33 804.656 1550.11 803.137 1557.97 803.124C1565.98 803.112 1573.91 804.688 1581.3 807.761C1588.7 810.833 1595.41 815.341 1601.05 821.024C1606.8 826.794 1611.36 833.636 1614.47 841.161C1620.44 855.869 1620.44 872.323 1614.47 887.03C1611.36 894.556 1606.8 901.398 1601.05 907.168ZM1604.96 911.083C1614.27 901.779 1620.6 889.924 1623.17 877.018C1625.74 864.112 1624.42 850.734 1619.39 838.577C1614.35 826.419 1605.82 816.028 1594.88 808.717C1583.94 801.406 1571.08 797.504 1557.92 797.504C1544.76 797.504 1531.9 801.406 1520.96 808.717C1510.01 816.028 1501.49 826.419 1496.45 838.577C1491.42 850.734 1490.1 864.112 1492.67 877.018C1495.23 889.924 1501.57 901.779 1510.88 911.083C1523.36 923.535 1540.27 930.528 1557.9 930.528C1575.53 930.528 1592.44 923.535 1604.92 911.083H1604.96Z" fill="#222222"/>
<path d="M1463.73 863.984L1557.82 958.071L1561.73 954.156L1467.65 860.068L1463.73 863.984Z" fill="#222222"/>
<path d="M1424.57 911.084C1430.34 905.336 1437.19 900.774 1444.71 897.659C1455.81 893.131 1468 891.99 1479.75 894.379C1491.49 896.768 1502.27 902.581 1510.72 911.084C1516.47 916.854 1521.03 923.696 1524.14 931.222C1528.67 942.321 1529.81 954.511 1527.42 966.258C1525.03 978.004 1519.22 988.78 1510.72 997.228C1504.95 1002.98 1498.11 1007.54 1490.58 1010.65C1483.29 1013.6 1475.51 1015.12 1467.65 1015.13C1459.64 1015.14 1451.71 1013.56 1444.32 1010.49C1436.92 1007.42 1430.21 1002.91 1424.57 997.228C1418.83 991.458 1414.26 984.617 1411.15 977.091C1405.18 962.383 1405.18 945.929 1411.15 931.222C1414.26 923.696 1418.83 916.854 1424.57 911.084ZM1420.66 907.169C1411.35 916.473 1405.02 928.328 1402.45 941.234C1399.88 954.14 1401.2 967.518 1406.23 979.676C1411.27 991.833 1419.8 1002.22 1430.74 1009.54C1441.68 1016.85 1454.54 1020.75 1467.7 1020.75C1480.86 1020.75 1493.72 1016.85 1504.67 1009.54C1515.61 1002.22 1524.14 991.833 1529.17 979.676C1534.21 967.518 1535.52 954.14 1532.96 941.234C1530.39 928.328 1524.05 916.473 1514.75 907.169C1502.26 894.704 1485.34 887.702 1467.7 887.702C1450.06 887.702 1433.14 894.704 1420.66 907.169Z" fill="#222222"/>
<path d="M964.613 852.797L1031.18 968.029L1035.99 965.232L969.424 850L964.613 852.797Z" fill="#222222"/>
<path d="M914.716 888.038C928.697 879.954 945.312 877.741 960.921 881.885C968.544 883.888 975.693 887.387 981.953 892.177C988.422 897.112 993.858 903.27 997.951 910.301C1002.04 917.349 1004.67 925.149 1005.67 933.235C1006.68 941.026 1006.11 948.941 1003.99 956.505C999.803 972.115 989.596 985.426 975.608 993.521C961.62 1001.62 944.993 1003.83 929.372 999.689C917.656 996.542 907.143 989.977 899.173 980.832C891.203 971.686 886.137 960.374 884.622 948.339C883.609 940.548 884.18 932.633 886.3 925.068C890.49 909.446 900.71 896.127 914.716 888.038ZM911.919 883.227C900.512 889.81 891.314 899.627 885.486 911.438C879.659 923.249 877.465 936.522 879.181 949.58C880.898 962.637 886.448 974.893 895.13 984.796C903.811 994.7 915.235 1001.81 927.956 1005.22C940.676 1008.63 954.123 1008.19 966.595 1003.96C979.066 999.728 990.004 991.893 998.023 981.446C1006.04 970.999 1010.78 958.409 1011.65 945.267C1012.51 932.125 1009.46 919.022 1002.87 907.616C998.504 900.041 992.685 893.402 985.749 888.077C978.812 882.752 970.895 878.845 962.449 876.58C954.002 874.315 945.193 873.737 936.523 874.877C927.853 876.018 919.492 878.855 911.919 883.227Z" fill="#222222"/>
<path d="M1035.76 965.455L969.233 850.224L964.422 853.021L1030.99 968.252L1035.76 965.455Z" fill="#222222"/>
<path d="M1085.77 930.103C1071.79 938.187 1055.18 940.399 1039.57 936.256C1031.94 934.252 1024.8 930.754 1018.54 925.963C1012.07 921.029 1006.63 914.871 1002.54 907.84C994.454 893.859 992.241 877.244 996.385 861.635C998.388 854.012 1001.89 846.862 1006.68 840.603C1013.99 830.938 1024.02 823.67 1035.48 819.725C1046.95 815.78 1059.32 815.336 1071.04 818.451C1078.66 820.455 1085.81 823.953 1092.07 828.744C1098.54 833.678 1103.98 839.836 1108.07 846.868C1112.16 853.916 1114.78 861.716 1115.79 869.802C1116.8 877.593 1116.23 885.507 1114.11 893.072C1109.91 908.657 1099.74 921.96 1085.81 930.103H1085.77ZM1088.57 934.913C1099.98 928.331 1109.18 918.513 1115 906.703C1120.83 894.892 1123.02 881.618 1121.31 868.561C1119.59 855.503 1114.04 843.248 1105.36 833.344C1096.68 823.441 1085.25 816.334 1072.53 812.923C1059.81 809.512 1046.37 809.95 1033.89 814.181C1021.42 818.413 1010.49 826.247 1002.47 836.694C994.447 847.141 989.706 859.732 988.843 872.874C987.979 886.015 991.032 899.118 997.615 910.525C1001.99 918.099 1007.8 924.739 1014.74 930.064C1021.68 935.389 1029.59 939.295 1038.04 941.56C1046.49 943.825 1055.3 944.404 1063.97 943.263C1072.64 942.123 1081 939.286 1088.57 934.913Z" fill="#222222"/>
<path d="M1066.75 906.329H933.623V911.923H1066.75V906.329Z" fill="#222222"/>
<path d="M1061.16 845.301C1061.21 853.454 1059.57 861.529 1056.35 869.019C1053.3 876.268 1048.85 882.845 1043.26 888.373C1037.62 894.051 1030.91 898.556 1023.51 901.628C1016.12 904.7 1008.19 906.279 1000.19 906.273C992.036 906.321 983.961 904.683 976.471 901.463C969.227 898.431 962.65 894.002 957.117 888.429C951.439 882.786 946.934 876.074 943.862 868.682C940.79 861.29 939.211 853.362 939.217 845.357C939.169 837.204 940.807 829.129 944.027 821.64C947.076 814.39 951.524 807.814 957.117 802.285C962.76 796.607 969.472 792.103 976.864 789.03C984.256 785.958 992.184 784.38 1000.19 784.385C1008.34 784.337 1016.42 785.975 1023.91 789.196C1031.16 792.244 1037.73 796.692 1043.26 802.285C1048.82 807.843 1053.26 814.413 1056.35 821.64C1059.55 829.116 1061.19 837.168 1061.16 845.301ZM1066.75 845.301C1066.75 832.136 1062.85 819.266 1055.54 808.319C1048.22 797.373 1037.83 788.841 1025.66 783.802C1013.5 778.764 1000.12 777.446 987.203 780.014C974.29 782.583 962.429 788.923 953.12 798.232C943.81 807.541 937.471 819.402 934.902 832.315C932.334 845.227 933.652 858.612 938.69 870.775C943.728 882.938 952.26 893.334 963.207 900.649C974.154 907.963 987.023 911.867 1000.19 911.867C1008.93 911.874 1017.59 910.158 1025.67 906.815C1033.75 903.472 1041.09 898.569 1047.27 892.387C1053.46 886.204 1058.36 878.863 1061.7 870.784C1065.05 862.704 1066.76 854.045 1066.75 845.301Z" fill="#222222"/>
<path d="M933.623 911.923H1066.75V906.329H933.623V911.923Z" fill="#222222"/>
<path d="M939.217 972.839C939.169 964.686 940.807 956.612 944.027 949.122C947.082 941.893 951.53 935.335 957.117 929.823C962.76 924.145 969.472 919.641 976.864 916.569C984.256 913.496 992.184 911.918 1000.19 911.923C1008.34 911.875 1016.42 913.513 1023.91 916.734C1031.16 919.782 1037.73 924.23 1043.26 929.823C1048.94 935.467 1053.44 942.178 1056.52 949.57C1059.59 956.963 1061.17 964.89 1061.16 972.895C1061.21 981.048 1059.57 989.123 1056.35 996.613C1053.3 1003.86 1048.85 1010.44 1043.26 1015.97C1037.62 1021.64 1030.91 1026.15 1023.51 1029.22C1016.12 1032.29 1008.19 1033.87 1000.19 1033.87C992.036 1033.92 983.961 1032.28 976.471 1029.06C969.222 1026.01 962.645 1021.56 957.117 1015.97C951.439 1010.32 946.934 1003.61 943.862 996.22C940.79 988.828 939.211 980.901 939.217 972.895V972.839ZM933.623 972.839C933.623 986.005 937.527 998.875 944.841 1009.82C952.156 1020.77 962.552 1029.3 974.715 1034.34C986.879 1039.38 1000.26 1040.69 1013.18 1038.13C1026.09 1035.56 1037.95 1029.22 1047.26 1019.91C1056.57 1010.6 1062.91 998.738 1065.48 985.826C1068.04 972.913 1066.73 959.529 1061.69 947.366C1056.65 935.202 1048.12 924.806 1037.17 917.492C1026.22 910.177 1013.35 906.273 1000.19 906.273C982.535 906.276 965.606 913.291 953.123 925.773C940.64 938.256 933.626 955.186 933.623 972.839Z" fill="#222222"/>
<path d="M1035.76 852.797L969.233 968.029L964.422 965.232L1030.99 850L1035.76 852.797Z" fill="#222222"/>
<path d="M1085.77 888.037C1092.83 892.101 1098.99 897.541 1103.9 904.035C1113.47 916.7 1117.76 932.578 1115.87 948.338C1114.85 956.417 1112.23 964.211 1108.15 971.262C1104.08 978.313 1098.64 984.478 1092.15 989.396C1085.85 994.122 1078.71 997.614 1071.12 999.689C1059.41 1002.79 1047.04 1002.34 1035.58 998.4C1024.13 994.456 1014.11 987.194 1006.79 977.537C1002.06 971.238 998.572 964.102 996.497 956.505C993.393 944.794 993.841 932.425 997.786 920.97C1001.73 909.516 1008.99 899.493 1018.65 892.177C1024.95 887.451 1032.08 883.959 1039.68 881.884C1047.26 879.855 1055.17 879.323 1062.95 880.318C1070.99 881.393 1078.74 884.014 1085.77 888.037ZM1088.57 883.226C1077.16 876.643 1064.06 873.59 1050.92 874.454C1037.78 875.317 1025.19 880.058 1014.74 888.078C1004.29 896.097 996.459 907.034 992.227 919.506C987.996 931.978 987.558 945.424 990.969 958.145C994.38 970.865 1001.49 982.289 1011.39 990.971C1021.29 999.652 1033.55 1005.2 1046.61 1006.92C1059.66 1008.64 1072.94 1006.44 1084.75 1000.61C1096.56 994.787 1106.38 985.588 1112.96 974.181C1121.78 958.883 1124.16 940.711 1119.59 923.656C1115.02 906.602 1103.86 892.06 1088.57 883.226Z" fill="#222222"/>
<path d="M964.613 965.455L1031.18 850.224L1035.99 853.021L969.424 968.252L964.613 965.455Z" fill="#222222"/>
<path d="M914.715 930.102C907.667 926.055 901.504 920.634 896.591 914.16C887.024 901.496 882.733 885.617 884.621 869.858C885.638 861.779 888.261 853.985 892.334 846.934C896.407 839.883 901.848 833.717 908.338 828.799C914.638 824.074 921.774 820.582 929.371 818.507C941.081 815.402 953.45 815.851 964.905 819.795C976.36 823.74 986.383 831.002 993.699 840.658C1003.27 853.323 1007.56 869.201 1005.67 884.961C1004.65 893.04 1002.03 900.834 997.957 907.885C993.884 914.936 988.442 921.101 981.952 926.019C975.652 930.744 968.516 934.236 960.92 936.311C953.338 938.34 945.434 938.872 937.65 937.878C929.551 936.891 921.744 934.244 914.715 930.102ZM911.918 934.913C923.322 941.502 936.424 944.56 949.567 943.702C962.709 942.844 975.302 938.108 985.753 930.092C996.204 922.077 1004.04 911.142 1008.28 898.672C1012.51 886.201 1012.96 872.754 1009.55 860.031C1006.14 847.309 999.041 835.883 989.14 827.198C979.239 818.512 966.985 812.958 953.927 811.238C940.869 809.517 927.595 811.708 915.782 817.532C903.969 823.356 894.149 832.553 887.563 843.958C878.742 859.252 876.353 877.421 880.92 894.475C885.486 911.53 896.636 926.074 911.918 934.913Z" fill="#222222"/>
<path d="M546.77 884.502H426.957V889.536H546.77V884.502Z" fill="#222222"/>
<path d="M541.736 829.629C541.767 836.97 540.279 844.237 537.367 850.974C534.635 857.495 530.646 863.414 525.627 868.393C520.548 873.502 514.508 877.556 507.855 880.321C501.202 883.086 494.068 884.507 486.864 884.502C479.527 884.545 472.26 883.071 465.519 880.173C458.995 877.429 453.076 873.426 448.101 868.393C442.991 863.314 438.937 857.274 436.172 850.621C433.407 843.968 431.986 836.834 431.991 829.629C431.948 822.292 433.422 815.025 436.321 808.284C439.064 801.761 443.067 795.842 448.101 790.866C453.18 785.756 459.219 781.702 465.872 778.938C472.525 776.173 479.659 774.752 486.864 774.757C494.188 774.719 501.44 776.193 508.168 779.086C514.707 781.825 520.64 785.828 525.627 790.866C530.614 795.872 534.598 801.784 537.367 808.284C540.279 815.022 541.767 822.289 541.736 829.629ZM546.771 829.629C546.771 817.781 543.257 806.199 536.674 796.347C530.092 786.495 520.736 778.817 509.789 774.283C498.843 769.749 486.797 768.562 475.177 770.874C463.556 773.185 452.881 778.891 444.503 787.269C436.125 795.647 430.42 806.321 428.108 817.942C425.797 829.563 426.983 841.608 431.517 852.555C436.051 863.501 443.73 872.857 453.581 879.44C463.433 886.023 475.015 889.536 486.864 889.536C494.733 889.543 502.526 887.998 509.797 884.989C517.068 881.981 523.675 877.569 529.239 872.005C534.803 866.44 539.216 859.834 542.224 852.563C545.232 845.291 546.777 837.498 546.771 829.629Z" fill="#222222"/>
<path d="M426.957 915.613H546.77V910.579H426.957V915.613Z" fill="#222222"/>
<path d="M431.991 970.486C431.948 963.149 433.422 955.882 436.321 949.141C439.064 942.617 443.067 936.698 448.101 931.723C453.179 926.613 459.219 922.559 465.872 919.794C472.525 917.029 479.659 915.608 486.864 915.613C494.201 915.57 501.468 917.044 508.209 919.943C514.733 922.686 520.652 926.689 525.627 931.723C530.737 936.802 534.791 942.841 537.556 949.494C540.32 956.147 541.741 963.281 541.736 970.486C541.779 977.823 540.305 985.09 537.407 991.831C534.663 998.355 530.66 1004.27 525.627 1009.25C520.548 1014.36 514.508 1018.41 507.855 1021.18C501.202 1023.94 494.068 1025.36 486.864 1025.36C479.526 1025.4 472.259 1023.93 465.519 1021.03C458.995 1018.29 453.076 1014.28 448.101 1009.25C442.991 1004.17 438.937 998.13 436.172 991.477C433.407 984.825 431.986 977.69 431.991 970.486ZM426.957 970.486C426.957 982.334 430.47 993.917 437.053 1003.77C443.636 1013.62 452.992 1021.3 463.938 1025.83C474.885 1030.37 486.93 1031.55 498.551 1029.24C510.172 1026.93 520.846 1021.22 529.224 1012.85C537.602 1004.47 543.308 993.794 545.619 982.173C547.931 970.552 546.745 958.507 542.21 947.561C537.676 936.614 529.998 927.258 520.146 920.675C510.295 914.093 498.712 910.579 486.864 910.579C478.995 910.573 471.202 912.118 463.931 915.126C456.659 918.134 450.053 922.546 444.489 928.111C438.924 933.675 434.512 940.281 431.504 947.553C428.495 954.824 426.95 962.617 426.957 970.486Z" fill="#222222"/>
<path d="M502.47 959.914V840.101H497.436V959.914H502.47Z" fill="#222222"/>
<path d="M557.342 954.88C550.005 954.923 542.738 953.449 535.997 950.55C529.473 947.807 523.554 943.804 518.579 938.77C513.469 933.692 509.415 927.652 506.65 920.999C503.886 914.346 502.465 907.212 502.47 900.007C502.427 892.67 503.901 885.403 506.799 878.662C509.543 872.138 513.546 866.219 518.579 861.244C523.658 856.134 529.698 852.08 536.351 849.315C543.004 846.551 550.138 845.13 557.342 845.135C564.666 845.097 571.919 846.571 578.647 849.464C585.171 852.208 591.09 856.211 596.065 861.244C601.175 866.323 605.229 872.363 607.994 879.016C610.759 885.669 612.179 892.803 612.174 900.007C612.218 907.345 610.744 914.612 607.845 921.352C605.102 927.876 601.099 933.795 596.065 938.77C591.063 943.772 585.151 947.77 578.647 950.55C571.916 953.434 564.665 954.907 557.342 954.88ZM557.342 959.914C569.191 959.914 580.773 956.401 590.625 949.818C600.476 943.235 608.155 933.879 612.689 922.933C617.223 911.986 618.409 899.941 616.098 888.32C613.786 876.699 608.081 866.025 599.703 857.647C591.325 849.269 580.65 843.563 569.029 841.252C557.409 838.94 545.363 840.127 534.417 844.661C523.47 849.195 514.114 856.873 507.532 866.725C500.949 876.577 497.436 888.159 497.436 900.007C497.438 915.895 503.751 931.131 514.985 942.365C526.219 953.599 541.455 959.911 557.342 959.914Z" fill="#222222"/>
<path d="M471.359 840.101V959.914H476.394V840.101H471.359Z" fill="#222222"/>
<path d="M416.487 845.135C423.824 845.092 431.091 846.566 437.832 849.464C444.356 852.208 450.275 856.211 455.25 861.244C460.36 866.323 464.414 872.363 467.179 879.016C469.944 885.669 471.364 892.803 471.359 900.007C471.402 907.345 469.929 914.612 467.03 921.352C464.286 927.876 460.283 933.795 455.25 938.77C450.171 943.88 444.131 947.934 437.478 950.699C430.826 953.464 423.691 954.885 416.487 954.88C409.15 954.923 401.883 953.449 395.142 950.55C388.618 947.807 382.699 943.804 377.724 938.77C372.614 933.692 368.56 927.652 365.795 920.999C363.03 914.346 361.609 907.212 361.614 900.007C361.571 892.67 363.045 885.403 365.944 878.662C368.687 872.138 372.69 866.219 377.724 861.244C382.803 856.134 388.842 852.08 395.495 849.315C402.148 846.551 409.282 845.13 416.487 845.135ZM416.487 840.101C404.638 840.101 393.056 843.614 383.204 850.197C373.353 856.779 365.674 866.135 361.14 877.082C356.606 888.029 355.42 900.074 357.731 911.695C360.043 923.315 365.748 933.99 374.126 942.368C382.504 950.746 393.179 956.451 404.8 958.763C416.42 961.074 428.466 959.888 439.412 955.354C450.359 950.82 459.715 943.141 466.297 933.29C472.88 923.438 476.394 911.856 476.394 900.007C476.391 884.12 470.078 868.884 458.844 857.65C447.61 846.416 432.374 840.103 416.487 840.101Z" fill="#222222"/>
<g clip-path="url(#clip0_248_59661)">
<path d="M695.749 449.432V473.96C692.549 466.672 687.298 460.473 680.636 456.118C673.974 451.762 666.189 449.439 658.229 449.432C647.371 449.423 636.954 453.727 629.269 461.397C621.584 469.068 617.261 479.477 617.25 490.335C617.243 501.192 621.547 511.608 629.217 519.293C636.888 526.977 647.296 531.301 658.153 531.314C666.115 531.328 673.909 529.018 680.577 524.668C687.246 520.317 692.499 514.114 695.694 506.821V531.349H699.056L699.132 449.418H695.721L695.749 449.432ZM692.706 505.011C690.825 509.469 688.083 513.512 684.636 516.908C681.206 520.319 677.16 523.048 672.712 524.95C668.103 526.887 663.152 527.88 658.153 527.868C653.231 527.88 648.357 526.912 643.813 525.022C639.269 523.132 635.146 520.358 631.684 516.859C628.277 513.434 625.548 509.395 623.642 504.956C621.711 500.336 620.717 495.38 620.717 490.373C620.717 485.366 621.711 480.409 623.642 475.79C625.521 471.337 628.261 467.298 631.705 463.907C635.131 460.498 639.172 457.769 643.615 455.865C648.232 453.93 653.188 452.933 658.195 452.933C663.201 452.933 668.157 453.93 672.774 455.865C677.245 457.758 681.296 460.52 684.691 463.991C688.11 467.406 690.841 471.447 692.733 475.894C694.664 480.513 695.659 485.47 695.659 490.477C695.659 495.484 694.664 500.44 692.733 505.06L692.706 505.011Z" fill="#222222"/>
<path d="M837.162 449.584C829.199 449.57 821.406 451.88 814.738 456.231C808.069 460.582 802.815 466.784 799.621 474.078V449.55H796.203L796.127 531.487H799.579V506.973C802.775 514.262 808.02 520.464 814.676 524.825C821.333 529.186 829.114 531.517 837.071 531.536C847.929 531.545 858.346 527.241 866.031 519.571C873.716 511.9 878.04 501.491 878.051 490.633C878.07 485.25 877.026 479.917 874.98 474.939C872.934 469.96 869.926 465.434 866.127 461.621C862.328 457.808 857.814 454.781 852.844 452.716C847.873 450.65 842.544 449.586 837.162 449.584ZM871.68 505.199C869.799 509.655 867.057 513.695 863.61 517.088C860.184 520.495 856.146 523.224 851.706 525.13C847.088 527.061 842.133 528.056 837.127 528.056C832.121 528.056 827.166 527.061 822.547 525.13C818.094 523.239 814.059 520.487 810.672 517.033C807.265 513.607 804.536 509.569 802.63 505.129C800.699 500.511 799.704 495.555 799.704 490.55C799.704 485.544 800.699 480.588 802.63 475.97C804.508 471.513 807.251 467.472 810.7 464.081C814.114 460.66 818.155 457.93 822.603 456.039C827.221 454.108 832.177 453.113 837.182 453.113C842.188 453.113 847.144 454.108 851.762 456.039C856.217 457.918 860.257 460.658 863.652 464.102C867.059 467.529 869.787 471.571 871.693 476.012C873.625 480.63 874.619 485.586 874.619 490.591C874.619 495.597 873.625 500.553 871.693 505.171L871.68 505.199Z" fill="#222222"/>
<path d="M747.683 360C736.832 360.011 726.429 364.329 718.76 372.005C711.09 379.681 706.782 390.087 706.78 400.938C706.776 408.898 709.094 416.688 713.449 423.352C717.804 430.015 724.008 435.265 731.301 438.457H706.752V441.875H788.683V438.457H764.099C771.384 435.254 777.58 430.002 781.934 423.341C786.288 416.679 788.611 408.896 788.62 400.938C788.607 390.084 784.29 379.679 776.616 372.005C768.941 364.33 758.536 360.013 747.683 360V360ZM785.202 401C785.222 405.921 784.261 410.797 782.376 415.343C780.49 419.889 777.718 424.013 774.221 427.476C770.756 430.97 766.631 433.74 762.086 435.625C757.54 437.51 752.666 438.473 747.745 438.457C742.82 438.477 737.94 437.516 733.39 435.63C728.839 433.745 724.71 430.973 721.241 427.476C717.749 424.011 714.982 419.885 713.101 415.34C711.221 410.794 710.264 405.919 710.288 401C710.273 396 711.268 391.048 713.213 386.441C715.077 381.976 717.805 377.924 721.241 374.517C724.675 371.109 728.721 368.378 733.166 366.468C737.783 364.533 742.739 363.536 747.745 363.536C752.751 363.536 757.708 364.533 762.325 366.468C766.782 368.34 770.826 371.075 774.221 374.517C777.634 377.932 780.36 381.971 782.249 386.414C784.182 391.035 785.186 395.991 785.202 401Z" fill="#222222"/>
<path d="M706.682 542.475H731.203C723.919 545.679 717.722 550.931 713.369 557.592C709.015 564.254 706.692 572.037 706.682 579.995C706.684 590.852 710.998 601.264 718.675 608.94C726.352 616.617 736.763 620.931 747.62 620.933C758.471 620.922 768.873 616.604 776.543 608.928C784.212 601.252 788.521 590.846 788.523 579.995C788.526 572.034 786.209 564.245 781.854 557.581C777.498 550.917 771.295 545.668 764.002 542.475H788.558V539.058H706.627V542.475H706.682ZM747.675 542.475C752.676 542.461 757.628 543.456 762.234 545.401C766.692 547.276 770.735 550.014 774.131 553.457C777.576 556.864 780.332 560.903 782.249 565.353C784.185 569.97 785.182 574.927 785.182 579.933C785.182 584.939 784.185 589.895 782.249 594.512C780.376 598.969 777.64 603.012 774.2 606.409C770.737 609.907 766.611 612.68 762.064 614.565C757.517 616.451 752.64 617.411 747.717 617.39C742.717 617.405 737.765 616.41 733.158 614.465C728.693 612.592 724.643 609.854 721.241 606.409C717.829 602.989 715.097 598.952 713.192 594.512C711.257 589.895 710.26 584.939 710.26 579.933C710.26 574.927 711.257 569.97 713.192 565.353C715.063 560.895 717.799 556.852 721.241 553.457C724.654 550.034 728.692 547.299 733.138 545.401C737.74 543.457 742.687 542.462 747.682 542.475H747.675Z" fill="#222222"/>
<path d="M739.202 424.121L721.871 441.452C724.77 434.038 725.443 425.938 723.807 418.147C722.17 410.355 718.295 403.211 712.657 397.589C708.856 393.788 704.343 390.772 699.376 388.715C694.409 386.658 689.086 385.599 683.71 385.599C678.334 385.599 673.01 386.658 668.043 388.715C663.076 390.772 658.563 393.788 654.762 397.589C650.961 401.391 647.945 405.904 645.888 410.87C643.83 415.837 642.771 421.161 642.771 426.537C642.771 431.913 643.83 437.236 645.888 442.203C647.945 447.17 650.961 451.683 654.762 455.484C660.391 461.112 667.538 464.979 675.328 466.613C683.119 468.246 691.216 467.576 698.632 464.684L681.3 482.016L683.741 484.456L741.643 426.554L739.202 424.114V424.121ZM697.842 461.335C693.367 463.161 688.581 464.103 683.748 464.109C678.828 464.116 673.956 463.149 669.412 461.264C664.868 459.38 660.742 456.614 657.272 453.127C653.783 449.652 651.017 445.522 649.132 440.973C647.247 436.424 646.281 431.547 646.29 426.623C646.3 419.169 648.526 411.887 652.686 405.702C656.847 399.517 662.753 394.709 669.654 391.891C674.129 390.065 678.915 389.123 683.748 389.117C688.67 389.116 693.544 390.089 698.088 391.981C702.632 393.873 706.757 396.646 710.224 400.14C713.716 403.61 716.488 407.736 718.378 412.281C720.269 416.826 721.241 421.701 721.24 426.623C721.245 431.543 720.277 436.414 718.393 440.958C716.508 445.502 713.744 449.628 710.258 453.099C706.71 456.645 702.488 459.445 697.842 461.335Z" fill="#222222"/>
<path d="M843.713 528.624C838.084 522.996 830.938 519.127 823.148 517.491C815.358 515.855 807.26 516.522 799.843 519.411L817.174 502.079L814.734 499.639L756.832 557.534L759.272 559.974L776.604 542.642C773.703 550.056 773.03 558.156 774.665 565.947C776.3 573.739 780.174 580.883 785.811 586.505C793.489 594.183 803.903 598.497 814.762 598.497C825.62 598.497 836.034 594.183 843.713 586.505C851.382 578.827 855.691 568.418 855.691 557.565C855.691 546.712 851.382 536.303 843.713 528.624ZM828.884 592.315C819.846 595.976 809.739 595.976 800.702 592.315C796.052 590.447 791.835 587.644 788.313 584.079C783.103 578.876 779.542 572.252 778.077 565.036C776.613 557.82 777.308 550.332 780.077 543.509C781.95 538.863 784.753 534.65 788.313 531.127C793.519 525.921 800.145 522.366 807.361 520.906C814.577 519.446 822.063 520.146 828.884 522.919C833.531 524.791 837.747 527.594 841.272 531.155C844.756 534.618 847.521 538.736 849.408 543.271C851.295 547.806 852.267 552.67 852.268 557.582C852.256 565.034 850.027 572.314 845.865 578.495C841.704 584.676 835.797 589.48 828.897 592.294L828.884 592.315Z" fill="#222222"/>
<path d="M843.713 397.582C836.034 389.905 825.62 385.591 814.762 385.591C803.903 385.591 793.489 389.905 785.811 397.582C780.182 403.209 776.313 410.354 774.678 418.144C773.043 425.933 773.712 434.03 776.604 441.446L759.272 424.114L756.832 426.554L814.734 484.449L817.174 482.009L799.843 464.677C807.258 467.578 815.359 468.252 823.152 466.615C830.945 464.979 838.091 461.103 843.713 455.464C851.382 447.785 855.691 437.376 855.691 426.523C855.691 415.67 851.382 405.261 843.713 397.582ZM841.272 453.044C836.069 458.255 829.446 461.815 822.229 463.28C815.013 464.745 807.525 464.049 800.702 461.28C796.055 459.407 791.839 456.605 788.313 453.044C783.103 447.841 779.542 441.217 778.077 434.001C776.613 426.785 777.308 419.297 780.077 412.474C781.949 407.828 784.751 403.614 788.313 400.092C793.516 394.882 800.14 391.321 807.357 389.856C814.573 388.391 822.061 389.087 828.884 391.856C833.534 393.724 837.751 396.527 841.272 400.092C844.795 403.641 847.588 407.845 849.495 412.467C851.319 416.94 852.261 421.724 852.268 426.554C852.275 431.474 851.308 436.346 849.423 440.89C847.539 445.434 844.773 449.56 841.286 453.03L841.272 453.044Z" fill="#222222"/>
<path d="M681.309 502.12L698.641 519.452C691.226 516.553 683.126 515.88 675.335 517.516C667.543 519.153 660.399 523.028 654.778 528.666C650.976 532.467 647.961 536.98 645.903 541.947C643.846 546.914 642.787 552.237 642.787 557.613C642.787 562.989 643.846 568.313 645.903 573.28C647.961 578.246 650.976 582.759 654.778 586.561C658.579 590.362 663.092 593.378 668.059 595.435C673.026 597.492 678.349 598.551 683.725 598.551C689.101 598.551 694.425 597.492 699.392 595.435C704.358 593.378 708.871 590.362 712.673 586.561C718.302 580.934 722.17 573.789 723.806 566C725.442 558.211 724.775 550.114 721.886 542.698L739.218 560.029L741.658 557.589L683.749 499.646L681.309 502.12ZM710.225 531.099C715.43 536.298 718.988 542.916 720.454 550.125C721.92 557.334 721.229 564.816 718.468 571.635C716.596 576.282 713.793 580.498 710.232 584.023C705.027 589.233 698.401 592.792 691.184 594.254C683.966 595.717 676.478 595.018 669.655 592.246C665.009 590.374 660.795 587.572 657.273 584.01C653.787 580.537 651.022 576.41 649.138 571.865C647.253 567.32 646.286 562.447 646.292 557.527C646.287 552.608 647.254 547.736 649.139 543.192C651.024 538.648 653.788 534.522 657.273 531.051C662.476 525.84 669.1 522.28 676.317 520.815C683.533 519.35 691.021 520.045 697.844 522.815C702.503 524.667 706.722 527.477 710.225 531.065V531.099Z" fill="#222222"/>
</g>
<defs>
<clipPath id="clip0_248_59661">
<rect width="260.808" height="260.933" fill="white" transform="translate(617.25 360)"/>
</clipPath>
</defs>
</svg>
