<svg width="2000" height="1400" viewBox="0 0 2000 1400" fill="none" xmlns="http://www.w3.org/2000/svg">
<g clip-path="url(#clip0_248_59721)">
<rect width="2000" height="1400" fill="#3EB9FF"/>
<path d="M517.432 436.475C513.278 436.475 509.215 436.891 505.295 437.669C506.061 433.775 506.476 429.751 506.476 425.624C506.476 391.291 478.725 363.539 444.392 363.539C410.059 363.539 382.307 391.291 382.307 425.624C382.307 429.738 382.723 433.762 383.475 437.656C379.581 436.891 375.57 436.475 371.456 436.475C337.227 436.475 309.371 464.227 309.371 498.56C309.371 532.893 337.123 560.644 371.456 560.644C375.583 560.644 379.607 560.229 383.501 559.463C382.723 563.383 382.307 567.446 382.307 571.6C382.307 605.933 410.059 633.684 444.392 633.684C478.725 633.684 506.476 605.933 506.476 571.6C506.476 567.446 506.061 563.383 505.282 559.45C509.215 560.229 513.265 560.644 517.432 560.644C551.661 560.644 579.516 532.893 579.516 498.56C579.516 464.227 551.765 436.475 517.432 436.475V436.475ZM387.525 425.624C387.525 417.9 388.992 410.489 392.016 403.505C394.833 396.717 399.013 390.668 404.231 385.45C409.449 380.232 415.498 376.169 422.286 373.235C429.283 370.315 436.682 368.744 444.405 368.744C452.128 368.744 459.54 370.211 466.523 373.235C473.312 376.052 479.361 380.232 484.579 385.45C489.797 390.668 493.86 396.717 496.793 403.505C499.818 410.502 501.284 417.9 501.284 425.624C501.284 430.219 500.752 434.71 499.701 439.058C482.138 444.276 467.86 457.049 460.591 473.612V436.475H455.373V481.413C451.804 482.114 448.143 482.49 444.418 482.49C440.692 482.49 437.11 482.14 433.566 481.465V436.475H428.348V473.69C421.066 457.114 406.749 444.302 389.187 439.058C388.109 434.671 387.551 430.167 387.551 425.611L387.525 425.624ZM466.51 519.224C473.299 522.041 479.348 526.221 484.566 531.439C489.784 536.657 493.847 542.706 496.78 549.494C497.118 550.299 497.429 551.104 497.728 551.922C496.923 551.623 496.118 551.299 495.313 550.948C488.525 548.131 482.476 543.952 477.258 538.734C472.04 533.516 467.977 527.467 465.043 520.678C464.706 519.873 464.394 519.069 464.096 518.251C464.901 518.549 465.705 518.874 466.51 519.224ZM455.347 509.515H433.54V487.708H455.347V509.515ZM424.818 518.225C424.506 519.056 424.181 519.873 423.831 520.678C421.014 527.467 416.835 533.516 411.617 538.734C406.399 543.952 400.35 548.015 393.561 550.948C392.717 551.299 391.861 551.636 391.004 551.948C391.316 551.117 391.64 550.299 391.991 549.494C394.807 542.706 398.987 536.657 404.205 531.439C409.423 526.221 415.472 522.158 422.26 519.224C423.104 518.874 423.961 518.536 424.818 518.225V518.225ZM422.26 478.012C415.472 475.195 409.423 471.016 404.205 465.798C398.987 460.58 394.924 454.531 391.991 447.742C391.627 446.885 391.29 446.016 390.978 445.146C391.848 445.471 392.704 445.808 393.561 446.184C400.35 449.001 406.399 453.181 411.617 458.399C416.835 463.617 420.897 469.666 423.831 476.454C424.194 477.311 424.532 478.181 424.844 479.063C423.974 478.739 423.117 478.401 422.26 478.025V478.012ZM464.018 478.986C464.343 478.142 464.667 477.285 465.03 476.454C467.847 469.666 472.027 463.617 477.245 458.399C482.463 453.181 488.512 449.118 495.3 446.184C496.118 445.847 496.949 445.522 497.78 445.211C497.455 446.055 497.131 446.911 496.767 447.742C493.951 454.531 489.771 460.58 484.553 465.798C479.335 471.016 473.286 475.079 466.497 478.012C465.679 478.35 464.849 478.674 464.018 478.986ZM371.443 555.439C363.719 555.439 356.308 553.973 349.324 550.948C342.536 548.131 336.487 543.952 331.269 538.734C326.051 533.516 321.988 527.467 319.054 520.678C316.134 513.682 314.563 506.283 314.563 498.56C314.563 490.837 316.03 483.425 319.054 476.441C321.871 469.653 326.051 463.604 331.269 458.386C336.487 453.168 342.536 449.105 349.324 446.171C356.321 443.251 363.719 441.68 371.443 441.68C376.025 441.68 380.503 442.212 384.851 443.264C390.056 460.878 402.829 475.195 419.444 482.477H382.307V487.695H427.258C427.946 491.239 428.322 494.847 428.322 498.547C428.322 502.246 427.972 505.933 427.284 509.502H382.307V514.72H419.496C402.959 521.976 390.16 536.242 384.916 553.778C380.555 554.842 376.064 555.413 371.456 555.413L371.443 555.439ZM501.245 571.613C501.245 579.336 499.779 586.748 496.754 593.731C493.938 600.52 489.758 606.569 484.54 611.787C479.322 617.005 473.273 621.068 466.484 624.001C459.488 626.922 452.089 628.492 444.366 628.492C436.643 628.492 429.231 627.026 422.247 624.001C415.459 621.184 409.41 617.005 404.192 611.787C398.974 606.569 394.911 600.52 391.978 593.731C389.057 586.735 387.486 579.232 387.486 571.613C387.486 566.979 388.019 562.462 389.096 558.087C406.671 552.869 421.001 540.084 428.283 523.482V560.657H433.501V515.811C437.045 515.123 440.654 514.746 444.353 514.746C448.052 514.746 451.739 515.097 455.308 515.785V560.657H460.526V523.521C467.782 540.058 482.022 552.817 499.545 558.048C500.635 562.475 501.219 567.018 501.219 571.613H501.245ZM557.593 538.747C552.375 543.965 546.326 548.028 539.537 550.961C532.541 553.986 525.038 555.452 517.419 555.452C512.785 555.452 508.255 554.92 503.867 553.843C498.636 536.293 485.877 522.028 469.314 514.759H506.45V509.541H461.617C460.916 505.972 460.539 502.311 460.539 498.586C460.539 494.86 460.89 491.278 461.565 487.734H506.45V482.516H469.275C485.864 475.234 498.636 460.93 503.867 443.381C508.255 442.303 512.772 441.719 517.406 441.719C525.129 441.719 532.541 443.186 539.524 446.21C546.313 449.027 552.362 453.207 557.58 458.425C562.798 463.643 566.861 469.692 569.794 476.48C572.715 483.477 574.285 490.875 574.285 498.599C574.285 506.322 572.819 513.734 569.794 520.717C566.978 527.506 562.798 533.555 557.58 538.773L557.593 538.747Z" fill="white"/>
<path d="M1105.13 437.877C1093.95 418.523 1073.88 407.464 1053.02 406.867C1042.13 388.98 1022.45 377.038 999.946 377.038C977.438 377.038 957.825 388.954 946.909 406.841C926.102 407.438 906.099 418.484 894.871 437.877C883.695 457.308 884.136 480.257 894.092 498.598C884.149 516.952 883.695 539.902 894.871 559.32C906.034 578.648 926.063 589.707 946.896 590.33C957.786 608.204 977.451 620.159 999.946 620.159C1022.44 620.159 1042.07 608.243 1052.98 590.356C1073.83 589.785 1093.88 578.738 1105.13 559.32C1116.3 539.902 1115.81 516.978 1105.88 498.637C1115.85 480.283 1116.31 457.308 1105.13 437.864V437.877ZM1066 414.084C1073.1 415.966 1079.77 419.198 1085.62 423.689C1091.66 428.284 1096.68 434.021 1100.54 440.589C1104.4 447.261 1106.8 454.465 1107.75 461.981C1108.68 469.289 1108.16 476.584 1106.18 483.684C1105.29 487.007 1104.11 490.213 1102.65 493.302C1097.56 485.813 1090.74 479.336 1082.38 474.507C1073.97 469.652 1064.87 466.991 1055.77 466.342C1059.79 458.126 1062.03 448.897 1062.03 439.123C1062.03 429.349 1059.86 420.47 1056 412.37C1059.36 412.643 1062.71 413.214 1065.99 414.084H1066ZM1052.33 580.205C1051.65 581.854 1050.88 583.463 1050.04 585.021C1048.16 584.969 1046.29 584.826 1044.4 584.593C1036.89 583.658 1029.7 581.257 1023.01 577.389C1016.33 573.52 1010.69 568.523 1006.11 562.461C1005.05 561.046 1004.06 559.593 1003.14 558.087C1009.06 547.222 1011.64 534.722 1010.46 522.3L1028.66 553.79L1033.15 551.181L1033.11 551.116L1033.36 550.974L1015.09 519.354C1025.3 526.688 1037.49 530.75 1049.96 531.036C1050.83 532.62 1051.62 534.255 1052.35 535.943C1055.27 542.939 1056.84 550.338 1056.84 558.061C1056.84 565.784 1055.37 573.196 1052.35 580.179L1052.33 580.205ZM947.571 580.205C944.65 573.209 943.08 565.81 943.08 558.087C943.08 550.364 944.546 542.952 947.571 535.969C948.272 534.268 949.064 532.62 949.933 531.023C962.394 530.75 974.583 526.714 984.811 519.406L966.561 551L966.808 551.142L966.769 551.207L971.26 553.816L989.549 522.145C988.316 534.619 990.899 547.183 996.883 558.126C995.961 559.606 994.975 561.059 993.897 562.474C989.302 568.523 983.669 573.533 976.997 577.402C970.325 581.27 963.121 583.658 955.606 584.606C953.711 584.852 951.802 584.995 949.907 585.034C949.064 583.476 948.285 581.867 947.571 580.218V580.205ZM947.571 417.017C948.259 415.369 949.025 413.759 949.868 412.202C951.789 412.254 953.711 412.383 955.606 412.63C963.121 413.565 970.312 415.966 976.997 419.834C983.682 423.702 989.315 428.7 993.897 434.761C994.962 436.176 995.948 437.63 996.87 439.136C990.886 450.104 988.316 462.721 989.588 475.26L971.26 443.523L966.769 446.132L966.808 446.197L966.561 446.34L984.707 477.752C974.518 470.496 962.381 466.498 949.985 466.213C949.116 464.603 948.311 462.954 947.584 461.267C944.663 454.271 943.093 446.768 943.093 439.149C943.093 431.529 944.559 424.014 947.584 417.03L947.571 417.017ZM1052.33 417.017C1055.36 424.014 1056.83 431.516 1056.83 439.136C1056.83 446.755 1055.36 454.271 1052.33 461.254C1051.63 462.954 1050.84 464.603 1049.97 466.213C1037.52 466.511 1025.34 470.548 1015.13 477.882L1033.36 446.34L1033.11 446.197L1033.15 446.132L1028.66 443.523L1010.47 475C1011.68 462.513 1009.08 449.935 1003.07 439.006C1003.98 437.552 1004.96 436.137 1006.01 434.774C1010.6 428.726 1016.24 423.715 1022.91 419.847C1029.58 415.979 1036.78 413.591 1044.3 412.643C1046.19 412.396 1048.1 412.254 1050 412.215C1050.84 413.772 1051.62 415.382 1052.33 417.03V417.017ZM1004.76 501.519L1004.71 501.428C1010.72 501.908 1016.54 503.31 1022.08 505.712C1028.87 508.528 1034.92 512.708 1040.13 517.926C1042.55 520.34 1044.69 522.936 1046.61 525.688C1043.27 525.416 1039.95 524.844 1036.68 523.975C1029.58 522.093 1022.91 518.861 1017.07 514.369C1012.3 510.748 1008.19 506.412 1004.76 501.519ZM982.942 514.369C977.101 518.757 970.52 521.989 963.329 523.975C960.006 524.857 956.644 525.429 953.256 525.701C955.19 522.936 957.371 520.34 959.785 517.926C965.003 512.708 971.052 508.645 977.841 505.712C983.383 503.401 989.186 501.947 995.196 501.441L994.546 502.57C991.275 507.061 987.394 510.994 982.955 514.369H982.942ZM994.391 494.51L995.131 495.795C989.134 495.301 983.357 493.912 977.828 491.511C971.039 488.694 964.99 484.515 959.772 479.297C957.358 476.882 955.203 474.286 953.282 471.521C956.657 471.794 960.019 472.365 963.316 473.235C970.416 475.117 977.088 478.349 982.929 482.84C987.303 486.163 991.133 490.083 994.378 494.497L994.391 494.51ZM1004.79 495.782C1008.23 490.823 1012.37 486.501 1017.17 482.853C1023.01 478.466 1029.59 475.234 1036.78 473.248C1040.03 472.391 1043.33 471.833 1046.64 471.547C1044.7 474.299 1042.53 476.895 1040.12 479.297C1034.9 484.515 1028.85 488.578 1022.06 491.511C1016.55 493.822 1010.77 495.262 1004.77 495.782H1004.79ZM1003.5 454.375C1005.39 461.475 1005.9 468.77 1005.07 476.078C1004.39 481.581 1002.91 486.916 1000.65 492.004L999.959 493.186L999.778 492.874C997.298 487.526 995.676 481.893 994.949 476.065C994.014 468.757 994.534 461.462 996.416 454.362C997.298 451.052 998.48 447.832 999.933 444.743C1001.39 447.807 1002.59 451.013 1003.52 454.362L1003.5 454.375ZM975.05 496.002H937.875V501.22H975.089C963.368 506.361 953.529 515.018 946.922 525.844C945.157 525.792 943.391 525.649 941.626 525.416C934.007 524.481 926.815 522.08 920.234 518.211C913.563 514.356 907.916 509.346 903.334 503.284C902.192 501.753 901.127 500.169 900.141 498.546C901.127 496.95 902.192 495.392 903.334 493.899C907.825 487.851 913.563 482.84 920.234 478.972C926.906 475.104 934.11 472.716 941.626 471.768C943.378 471.547 945.144 471.405 946.896 471.353C953.49 482.191 963.316 490.836 975.05 495.976V496.002ZM996.519 542.848C994.637 535.748 994.118 528.349 995.053 521.145C995.793 515.252 997.441 509.554 999.972 504.154L1000.8 505.595C1002.97 510.566 1004.4 515.771 1005.07 521.145C1006.01 528.453 1005.49 535.748 1003.5 542.848C1002.63 546.132 1001.46 549.286 1000.02 552.337C998.596 549.312 997.415 546.145 996.507 542.848H996.519ZM1024.91 501.22H1062.04V496.002H1024.91C1036.63 490.862 1046.47 482.217 1053.06 471.366C1054.88 471.418 1056.68 471.56 1058.5 471.794C1065.91 472.729 1073.1 475.234 1079.79 478.998C1086.46 482.853 1092.11 487.864 1096.69 493.925C1097.8 495.418 1098.86 496.963 1099.82 498.546C1098.82 500.169 1097.74 501.765 1096.58 503.31C1092.09 509.359 1086.36 514.369 1079.79 518.237C1073.12 522.093 1065.91 524.494 1058.4 525.442C1056.62 525.675 1054.83 525.805 1053.05 525.87C1046.45 515.018 1036.63 506.373 1024.91 501.233V501.22ZM959.772 398.962C964.99 393.744 971.039 389.681 977.828 386.747C984.824 383.827 992.223 382.256 999.946 382.256C1007.67 382.256 1015.08 383.723 1022.06 386.747C1028.85 389.564 1034.9 393.744 1040.12 398.962C1042.61 401.454 1044.83 404.141 1046.81 406.997C1037.74 407.646 1028.7 410.294 1020.3 415.135C1011.93 419.977 1005.1 426.48 1000.01 433.983C994.923 426.48 988.095 419.977 979.71 415.135C971.273 410.281 962.174 407.62 953.075 406.984C955.048 404.128 957.293 401.454 959.772 398.975V398.962ZM893.729 483.684C891.847 476.584 891.327 469.185 892.158 461.981C893.093 454.465 895.494 447.274 899.362 440.589C903.23 433.905 908.228 428.271 914.289 423.689C920.131 419.302 926.712 416.07 933.903 414.084C937.187 413.214 940.549 412.643 943.923 412.37C940.042 420.47 937.875 429.543 937.875 439.123C937.875 448.702 940.133 458.113 944.157 466.342C935.084 466.991 926.024 469.652 917.625 474.494C909.24 479.323 902.413 485.813 897.311 493.302C895.858 490.239 894.65 487.02 893.729 483.671V483.684ZM933.903 583.126C926.802 581.244 920.234 578.012 914.289 573.52C908.241 568.925 903.23 563.292 899.362 556.62C895.494 549.948 893.106 542.744 892.158 535.229C891.224 527.921 891.743 520.626 893.729 513.526C894.611 510.19 895.806 506.945 897.272 503.842C902.374 511.358 909.214 517.874 917.612 522.703C926.011 527.557 935.084 530.205 944.157 530.854C940.12 539.084 937.862 548.313 937.862 558.074C937.862 567.835 940.042 576.727 943.923 584.839C940.549 584.567 937.2 583.996 933.903 583.126ZM1040.12 598.261C1034.9 603.479 1028.85 607.542 1022.06 610.475C1015.07 613.396 1007.67 614.966 999.946 614.966C992.223 614.966 984.811 613.5 977.828 610.475C971.039 607.659 964.99 603.479 959.772 598.261C957.28 595.769 955.061 593.082 953.1 590.226C962.187 589.59 971.286 586.942 979.71 582.087C988.082 577.246 994.91 570.743 999.998 563.24C1005.09 570.743 1011.91 577.246 1020.3 582.087C1028.71 586.929 1037.77 589.59 1046.83 590.239C1044.86 593.095 1042.61 595.769 1040.12 598.261V598.261ZM1106.28 513.539C1108.16 520.639 1108.68 527.934 1107.85 535.242C1106.92 542.757 1104.52 549.948 1100.65 556.633C1096.78 563.318 1091.78 568.951 1085.72 573.533C1079.88 577.921 1073.3 581.153 1066.11 583.139C1062.77 584.021 1059.38 584.593 1055.98 584.865C1059.86 576.765 1062.04 567.692 1062.04 558.1C1062.04 548.507 1059.8 539.136 1055.8 530.932C1064.89 530.283 1073.96 527.609 1082.38 522.729C1090.77 517.9 1097.6 511.41 1102.7 503.92C1104.15 506.984 1105.36 510.203 1106.28 513.552V513.539Z" fill="white"/>
<path d="M1659.51 541.744C1670.3 530.581 1676.97 515.395 1676.97 498.624C1676.97 481.853 1670.36 466.731 1659.63 455.568C1659.37 440.031 1653.33 424.585 1641.5 412.747C1629.68 400.934 1614.29 394.912 1598.79 394.613C1587.61 383.749 1572.36 377.051 1555.51 377.051C1538.67 377.051 1523.36 383.788 1512.16 394.717C1496.77 395.08 1481.48 401.103 1469.74 412.837C1457.95 424.623 1451.92 440.005 1451.62 455.478C1440.83 466.641 1434.16 481.828 1434.16 498.598C1434.16 515.369 1440.77 530.439 1451.5 541.602C1451.72 557.178 1457.76 572.702 1469.64 584.566C1481.49 596.417 1496.95 602.44 1512.5 602.7C1523.66 613.486 1538.85 620.145 1555.62 620.145C1572.39 620.145 1587.67 613.447 1598.86 602.583C1614.29 602.245 1629.62 596.223 1641.39 584.463C1653.17 572.702 1659.24 557.217 1659.53 541.706L1659.51 541.744ZM1617.63 555.426C1617.03 541.355 1611.77 528.505 1603.35 518.393C1616.42 517.186 1629.18 511.851 1639.5 502.388C1644.01 507.36 1647.56 513.032 1650.13 519.185C1652.81 525.649 1654.15 532.49 1654.28 539.525C1649.23 544.392 1643.44 548.235 1636.98 551.012C1630.83 553.673 1624.28 555.127 1617.61 555.439L1617.63 555.426ZM1596.6 597.417C1589.48 597.313 1582.58 595.976 1576.06 593.263C1569.91 590.784 1564.24 587.162 1559.27 582.632C1568.73 572.313 1574.08 559.54 1575.28 546.469C1585.43 554.88 1598.32 560.112 1612.43 560.657C1612.15 567.458 1610.69 574.013 1608.01 580.231C1605.35 586.656 1601.45 592.406 1596.61 597.43L1596.6 597.417ZM1514.7 597.508C1509.84 592.458 1506.01 586.682 1503.22 580.218C1500.53 574 1499.08 567.445 1498.79 560.644C1512.8 560.073 1525.6 554.893 1535.71 546.573C1536.95 559.579 1542.31 572.274 1551.79 582.58C1546.78 587.162 1541.05 590.771 1534.84 593.367C1528.44 595.924 1521.66 597.352 1514.7 597.508V597.508ZM1474.12 550.999C1467.57 548.274 1461.71 544.289 1456.62 539.317C1456.77 532.386 1458.11 525.649 1460.76 519.276C1463.35 513.058 1466.96 507.334 1471.55 502.323C1481.88 511.864 1494.69 517.264 1507.81 518.484C1499.41 528.595 1494.18 541.42 1493.59 555.426C1486.88 555.127 1480.29 553.673 1474.12 550.999ZM1493.48 441.822C1494.08 455.88 1499.36 468.743 1507.81 478.881C1494.74 480.075 1481.98 485.423 1471.65 494.912C1467.11 489.927 1463.55 484.242 1460.97 478.063C1458.28 471.599 1456.94 464.758 1456.81 457.723C1461.86 452.856 1467.65 449.013 1474.12 446.236C1480.27 443.666 1486.81 442.147 1493.48 441.822V441.822ZM1514.51 399.831C1521.62 399.935 1528.53 401.272 1535.04 403.985C1541.22 406.568 1546.91 410.137 1551.89 414.668C1542.42 424.987 1537.06 437.747 1535.84 450.818C1525.69 442.393 1512.8 437.149 1498.69 436.591C1498.97 429.79 1500.43 423.235 1503.11 417.017C1505.77 410.592 1509.67 404.842 1514.51 399.818V399.831ZM1596.49 399.831C1601.31 404.855 1605.11 410.605 1607.88 417.017C1610.56 423.235 1612.02 429.855 1612.3 436.591C1598.32 437.162 1585.51 442.355 1575.39 450.701C1574.14 437.695 1568.78 425.013 1559.3 414.745C1564.32 410.163 1570.04 406.568 1576.26 403.959C1582.68 401.389 1589.48 399.961 1596.49 399.818V399.831ZM1636.99 446.236C1643.53 448.961 1649.4 452.946 1654.49 457.918C1654.35 464.888 1653 471.664 1650.35 478.063C1647.75 484.281 1644.14 490.005 1639.56 495.015C1629.22 485.462 1616.39 480.062 1603.24 478.855C1611.67 468.73 1616.92 455.893 1617.51 441.822C1624.28 442.121 1630.8 443.562 1636.98 446.249L1636.99 446.236ZM1575.5 539.564C1575.37 532.23 1573.95 524.922 1571.23 518.004L1597.54 544.315L1597.6 544.263L1597.65 544.315L1601.3 540.667L1575.05 514.421C1581.92 517.095 1589.17 518.497 1596.44 518.627C1601.34 523.689 1605.19 529.491 1607.98 535.981C1610.56 542.16 1612.08 548.676 1612.39 555.439C1605.57 555.153 1598.99 553.712 1592.74 551.012C1586.3 548.338 1580.53 544.431 1575.5 539.577V539.564ZM1518.35 550.999C1512.15 553.595 1505.53 555.114 1498.8 555.426C1499.1 548.663 1500.56 542.16 1503.23 535.981C1505.9 529.543 1509.81 523.767 1514.67 518.743C1521.74 518.627 1528.79 517.303 1535.49 514.784L1509.69 540.576L1513.34 544.224L1513.39 544.172L1513.65 544.431L1539.47 518.614C1536.9 525.402 1535.55 532.541 1535.45 539.707C1530.45 544.483 1524.73 548.261 1518.35 550.999V550.999ZM1535.59 457.671C1535.71 464.979 1537.11 472.261 1539.8 479.167L1513.55 452.92L1513.5 452.972L1513.45 452.92L1509.8 456.568L1536.12 482.892C1529.24 480.192 1521.97 478.777 1514.69 478.647C1509.79 473.585 1505.93 467.77 1503.13 461.267C1500.54 455.088 1499.02 448.507 1498.71 441.809C1505.54 442.095 1512.12 443.536 1518.37 446.236C1524.8 448.91 1530.58 452.817 1535.6 457.671H1535.59ZM1592.74 446.236C1598.96 443.64 1605.5 442.121 1612.29 441.809C1611.99 448.572 1610.54 455.075 1607.86 461.254C1605.18 467.731 1601.23 473.546 1596.32 478.608C1589.22 478.738 1582.16 480.075 1575.44 482.619L1601.4 456.659L1597.75 453.011L1597.7 453.063L1597.44 452.804L1571.68 478.569C1574.22 471.794 1575.56 464.668 1575.65 457.528C1580.64 452.752 1586.37 448.974 1592.74 446.236V446.236ZM1533.37 491.524C1528.92 489.681 1524.79 487.227 1520.99 484.294C1525.74 484.917 1530.37 486.124 1534.82 487.967C1539.57 489.849 1543.94 492.406 1547.93 495.509C1542.91 494.86 1538.04 493.549 1533.36 491.524H1533.37ZM1548.22 501.726C1544.17 504.842 1539.74 507.386 1535.03 509.359C1530.5 511.241 1525.79 512.448 1520.95 513.058C1524.78 510.099 1528.96 507.645 1533.46 505.698C1538.19 503.725 1543.14 502.388 1548.21 501.713L1548.22 501.726ZM1577.71 505.711C1582.23 507.58 1586.41 510.073 1590.24 513.058C1585.43 512.448 1580.75 511.228 1576.24 509.359C1571.44 507.451 1567.03 504.855 1562.98 501.7C1568.04 502.349 1572.99 503.66 1577.7 505.698L1577.71 505.711ZM1562.85 495.509C1566.9 492.393 1571.32 489.836 1576.04 487.863C1580.55 486.059 1585.25 484.826 1590.08 484.19C1586.26 487.136 1582.1 489.59 1577.59 491.524C1572.86 493.51 1567.92 494.847 1562.84 495.509H1562.85ZM1566.34 478.063C1564.38 483.009 1561.69 487.539 1558.42 491.667C1559.05 486.436 1560.38 481.36 1562.49 476.506C1564.42 471.859 1566.99 467.575 1570.09 463.642C1569.49 468.601 1568.27 473.429 1566.34 478.063ZM1544.95 478.063C1543.14 473.546 1541.91 468.847 1541.28 464.019C1544.22 467.835 1546.68 472.001 1548.61 476.506C1550.6 481.243 1551.93 486.176 1552.59 491.264C1549.48 487.214 1546.92 482.788 1544.95 478.076V478.063ZM1512.42 483.826C1517.66 488.889 1523.8 493.042 1530.58 496.015H1493.4V501.233H1530.68C1523.87 504.231 1517.69 508.411 1512.42 513.512C1505.45 513.37 1498.66 512.033 1492.26 509.372C1485.94 506.866 1480.29 503.193 1475.3 498.585C1480.26 494.081 1485.91 490.55 1492.05 487.98C1498.52 485.293 1505.37 483.943 1512.42 483.826V483.826ZM1544.74 519.172C1546.7 514.226 1549.39 509.696 1552.66 505.568C1552.04 510.799 1550.7 515.875 1548.6 520.729C1546.66 525.376 1544.09 529.66 1540.99 533.593C1541.59 528.634 1542.81 523.806 1544.74 519.172V519.172ZM1566.13 519.276C1568 523.767 1569.21 528.44 1569.82 533.229C1566.87 529.4 1564.42 525.234 1562.47 520.729C1560.51 516.044 1559.19 511.124 1558.5 506.101C1561.6 510.15 1564.15 514.564 1566.12 519.263L1566.13 519.276ZM1598.8 513.512C1593.53 508.398 1587.36 504.218 1580.53 501.233H1617.66V496.015H1580.42C1587.25 493.029 1593.42 488.837 1598.69 483.736C1605.64 483.878 1612.42 485.228 1618.81 487.876C1625.15 490.395 1630.83 494.094 1635.84 498.715C1630.87 503.232 1625.18 506.789 1619.03 509.372C1612.6 511.942 1605.8 513.37 1598.8 513.512V513.512ZM1566.34 435.28C1568.98 441.615 1570.31 448.325 1570.48 455.231C1565.46 460.371 1561.32 466.381 1558.31 473.014V436.526H1552.78V473.014C1549.8 466.472 1545.74 460.527 1540.81 455.426C1540.95 448.455 1542.29 441.667 1544.95 435.267C1547.44 428.998 1551.08 423.377 1555.64 418.406C1560.19 423.39 1563.76 429.089 1566.34 435.267V435.28ZM1544.74 561.955C1542.21 555.62 1540.78 548.936 1540.6 542.043C1545.62 536.903 1549.76 530.893 1552.78 524.26V560.709H1558.31V524.26C1561.28 530.802 1565.34 536.747 1570.27 541.835C1570.14 548.832 1568.79 555.633 1566.13 562.059C1563.65 568.315 1560.03 573.91 1555.49 578.868C1550.92 573.871 1547.34 568.159 1544.74 561.955V561.955ZM1671.73 498.624C1671.73 506.347 1670.26 513.759 1667.24 520.742C1665.21 525.61 1662.49 530.101 1659.18 534.177C1657.84 521.326 1652.52 508.814 1643.2 498.676C1652.54 488.551 1657.9 476.051 1659.27 463.201C1662.5 467.251 1665.17 471.69 1667.24 476.506C1670.16 483.502 1671.73 490.901 1671.73 498.624ZM1637.81 416.511C1643.24 421.937 1647.42 428.297 1650.34 435.293C1652.37 440.187 1653.63 445.314 1654.18 450.558C1644.12 442.316 1631.41 437.188 1617.51 436.604C1616.95 422.806 1611.91 410.176 1603.8 400.143C1609.05 400.701 1614.15 401.96 1619.03 403.985C1626.13 406.802 1632.38 411.085 1637.81 416.511V416.511ZM1555.49 382.282C1563.11 382.282 1570.62 383.749 1577.61 386.773C1582.53 388.811 1587.06 391.589 1591.17 394.938C1578.27 396.275 1565.7 401.635 1555.54 411.02C1545.31 401.622 1532.7 396.288 1519.74 395.002C1523.87 391.654 1528.42 388.902 1533.37 386.76C1540.37 383.839 1547.87 382.269 1555.49 382.269V382.282ZM1473.48 416.511C1478.91 411.085 1485.27 406.905 1492.26 403.985C1497.05 402.077 1502.04 400.792 1507.16 400.208C1499.06 410.241 1494.03 422.845 1493.47 436.617C1479.74 437.214 1467.14 442.29 1457.12 450.428C1457.68 445.223 1458.94 440.148 1460.95 435.306C1463.77 428.206 1468.05 421.95 1473.48 416.524V416.511ZM1439.35 498.624C1439.35 490.901 1440.82 483.489 1443.85 476.506C1445.87 471.638 1448.6 467.16 1451.89 463.084C1453.2 475.96 1458.54 488.512 1467.88 498.676C1458.55 508.788 1453.2 521.249 1451.83 534.06C1448.58 530.01 1445.92 525.571 1443.85 520.742C1440.92 513.746 1439.35 506.243 1439.35 498.624V498.624ZM1473.27 580.841C1467.85 575.415 1463.67 569.055 1460.75 562.059C1458.69 557.113 1457.42 551.947 1456.88 546.638C1466.95 554.893 1479.66 560.047 1493.57 560.631C1494.13 574.468 1499.22 587.136 1507.41 597.209C1502.13 596.664 1496.97 595.405 1492.05 593.354C1484.95 590.537 1478.7 586.254 1473.27 580.828V580.841ZM1555.59 614.966C1547.87 614.966 1540.46 613.499 1533.47 610.475C1528.59 608.45 1524.1 605.711 1520.03 602.401C1532.89 601.051 1545.4 595.69 1555.55 586.332C1565.74 595.69 1578.33 601.025 1591.25 602.336C1587.15 605.646 1582.63 608.372 1577.72 610.488C1570.73 613.409 1563.33 614.979 1555.61 614.979L1555.59 614.966ZM1618.82 593.263C1614.03 595.249 1609.03 596.495 1603.91 597.066C1612.02 587.033 1617.05 574.416 1617.61 560.631C1631.35 560.034 1643.94 554.958 1653.96 546.82C1653.4 552.025 1652.14 557.1 1650.13 561.942C1647.31 569.042 1643.03 575.298 1637.6 580.724C1632.18 586.15 1625.82 590.33 1618.82 593.25V593.263Z" fill="white"/>
<path d="M514.692 836.099C512.94 836.099 511.188 836.164 509.435 836.306C509.578 834.58 509.643 832.867 509.643 831.153C509.643 795.172 480.373 765.901 444.391 765.901C408.41 765.901 379.152 795.172 379.152 831.14C379.152 832.854 379.217 834.58 379.36 836.293C377.647 836.151 375.92 836.086 374.207 836.086C338.226 836.086 308.955 865.356 308.955 901.337C308.955 937.319 338.226 966.589 374.207 966.589C375.92 966.589 377.647 966.524 379.373 966.382C379.23 968.134 379.165 969.886 379.165 971.639C379.165 1007.62 408.436 1036.89 444.417 1036.89C480.398 1036.89 509.669 1007.62 509.669 971.639C509.669 969.886 509.604 968.134 509.461 966.382C511.214 966.524 512.966 966.589 514.718 966.589C550.7 966.589 579.97 937.319 579.97 901.337C579.97 865.356 550.7 836.086 514.718 836.086L514.692 836.099ZM514.692 961.099C510.694 961.099 506.787 960.696 502.997 959.956C503.75 963.734 504.139 967.641 504.139 971.652C504.139 1004.69 477.322 1031.4 444.391 1031.4C411.46 1031.4 384.643 1004.69 384.643 971.652C384.643 967.654 385.045 963.747 385.798 959.969C382.047 960.709 378.166 961.099 374.207 961.099C341.172 961.099 314.459 934.281 314.459 901.35C314.459 868.42 341.263 841.589 374.194 841.589C378.153 841.589 382.021 841.992 385.759 842.719C385.019 838.967 384.63 835.099 384.63 831.14C384.63 798.105 411.447 771.392 444.378 771.392C477.309 771.392 504.126 798.105 504.126 831.14C504.126 835.099 503.724 838.98 502.997 842.732C506.774 841.979 510.681 841.589 514.679 841.589C547.714 841.589 574.428 868.407 574.428 901.337C574.428 934.268 547.61 961.086 514.679 961.086L514.692 961.099Z" fill="white"/>
<path d="M428.932 877.402V841.589H433.955V884.891C437.356 885.541 440.848 885.878 444.404 885.878C447.961 885.878 451.504 885.515 454.944 884.84V841.589H459.968V877.337C466.964 861.397 480.697 849.105 497.597 844.082C498.61 839.889 499.129 835.579 499.129 831.153C499.129 823.728 497.727 816.589 494.807 809.866C491.99 803.336 488.083 797.508 483.059 792.498C478.036 787.488 472.208 783.464 465.692 780.751C458.968 777.843 451.829 776.428 444.404 776.428C436.979 776.428 429.84 777.934 423.117 780.751C416.587 783.568 410.759 787.475 405.749 792.498C400.739 797.521 396.715 803.349 394.002 809.866C391.094 816.589 389.679 823.728 389.679 831.153C389.679 835.528 390.225 839.863 391.263 844.095C408.163 849.131 421.935 861.462 428.945 877.415L428.932 877.402Z" fill="white"/>
<path d="M493.405 951.753C494.171 952.09 494.949 952.389 495.728 952.687C495.443 951.909 495.144 951.117 494.82 950.351C492.003 943.822 488.096 937.994 483.072 932.983C478.049 927.96 472.221 923.949 465.705 921.236C464.939 920.899 464.16 920.6 463.381 920.302C463.667 921.08 463.965 921.872 464.29 922.638C467.107 929.167 471.014 934.995 476.037 940.006C481.06 945.029 486.889 949.04 493.405 951.753Z" fill="white"/>
<path d="M454.944 890.901H433.955V911.89H454.944V890.901Z" fill="white"/>
<path d="M393.976 950.351C393.638 951.13 393.327 951.922 393.028 952.713C393.859 952.415 394.677 952.09 395.482 951.753C402.011 948.936 407.839 945.029 412.849 940.006C417.873 934.982 421.883 929.154 424.596 922.638C424.934 921.859 425.245 921.068 425.544 920.276C424.713 920.574 423.895 920.899 423.091 921.236C416.562 924.053 410.733 927.96 405.723 932.983C400.7 938.007 396.689 943.835 393.976 950.351Z" fill="white"/>
<path d="M395.482 850.922C394.664 850.572 393.833 850.234 393.002 849.923C393.314 850.766 393.638 851.597 393.976 852.428C396.793 858.957 400.7 864.785 405.723 869.795C410.746 874.819 416.575 878.83 423.091 881.543C423.908 881.893 424.739 882.231 425.57 882.542C425.258 881.698 424.934 880.868 424.596 880.037C421.78 873.508 417.873 867.68 412.849 862.669C407.826 857.646 401.998 853.635 395.482 850.922Z" fill="white"/>
<path d="M464.277 880.05C463.927 880.855 463.602 881.672 463.29 882.49C464.095 882.192 464.887 881.893 465.679 881.556C472.208 878.739 478.036 874.832 483.046 869.808C488.07 864.785 492.081 858.957 494.794 852.441C495.144 851.636 495.469 850.818 495.78 850.001C494.975 850.299 494.184 850.598 493.392 850.935C486.863 853.752 481.035 857.659 476.024 862.682C471.001 867.706 466.99 873.534 464.277 880.05Z" fill="white"/>
<path d="M420.43 916.901H384.643V911.877H427.919C428.581 908.438 428.919 904.92 428.919 901.337C428.919 897.755 428.568 894.302 427.893 890.888H384.643V885.865H420.391C404.412 878.856 392.107 865.071 387.109 848.118C382.93 847.106 378.62 846.6 374.207 846.6C366.782 846.6 359.643 848.105 352.919 850.922C346.39 853.739 340.562 857.646 335.552 862.669C330.528 867.693 326.517 873.521 323.805 880.037C320.897 886.761 319.482 893.9 319.482 901.325C319.482 908.749 320.988 915.888 323.805 922.612C326.621 929.141 330.528 934.969 335.552 939.98C340.575 945.003 346.403 949.014 352.919 951.727C359.643 954.634 366.782 956.049 374.207 956.049C378.646 956.049 382.969 955.504 387.161 954.479C392.211 937.604 404.516 923.871 420.443 916.888L420.43 916.901Z" fill="white"/>
<path d="M459.955 925.351V961.099H454.931V917.913C451.491 917.251 447.974 916.914 444.391 916.914C440.809 916.914 437.356 917.264 433.942 917.939V961.099H428.919V925.325C421.909 941.304 408.111 953.609 391.198 958.619C390.16 962.838 389.653 967.186 389.653 971.639C389.653 978.972 391.159 986.203 393.976 992.926C396.793 999.455 400.7 1005.28 405.723 1010.29C410.746 1015.32 416.575 1019.33 423.091 1022.04C429.814 1024.95 436.954 1026.36 444.378 1026.36C451.803 1026.36 458.942 1024.86 465.666 1022.04C472.195 1019.22 478.023 1015.32 483.033 1010.29C488.057 1005.27 492.068 999.442 494.781 992.926C497.688 986.203 499.103 979.063 499.103 971.639C499.103 967.225 498.545 962.838 497.494 958.58C480.632 953.544 466.912 941.265 459.942 925.351H459.955Z" fill="white"/>
<path d="M565.095 880.05C562.278 873.521 558.371 867.693 553.348 862.682C548.324 857.659 542.496 853.648 535.98 850.935C529.256 848.028 522.117 846.613 514.692 846.613C510.227 846.613 505.879 847.171 501.66 848.209C496.637 865.097 484.332 878.869 468.379 885.878H504.152V890.901H460.954C460.305 894.302 459.968 897.794 459.968 901.35C459.968 904.907 460.331 908.451 461.006 911.89H504.152V916.914H468.405C484.344 923.897 496.624 937.63 501.647 954.518C505.866 955.556 510.227 956.075 514.692 956.075C522.026 956.075 529.256 954.673 535.98 951.753C542.509 948.936 548.337 945.029 553.348 940.006C558.371 934.982 562.382 929.154 565.095 922.638C568.002 915.914 569.417 908.775 569.417 901.35C569.417 893.926 567.911 886.787 565.095 880.063V880.05Z" fill="white"/>
<path d="M1110.07 837.811C1098.73 818.159 1078.76 805.724 1056.24 804.102C1043.61 785.267 1022.79 774.117 999.947 774.117C977.102 774.117 956.333 785.254 943.691 804.076C921.235 805.711 901.31 818.159 889.939 837.798C878.582 857.541 877.803 881.088 887.681 901.389C877.803 921.69 878.582 945.236 889.926 964.966C901.258 984.579 921.183 997.014 943.678 998.676C956.32 1017.51 977.128 1028.66 999.947 1028.66C1022.77 1028.66 1043.55 1017.52 1056.2 998.715C1078.7 997.105 1098.68 984.67 1110.07 964.979C1121.4 945.275 1122.18 921.755 1112.3 901.441C1122.21 881.127 1121.44 857.567 1110.07 837.811ZM1105.13 962.11C1093.89 981.529 1073.83 992.575 1052.98 993.146C1042.07 1011.02 1022.38 1022.95 999.947 1022.95C977.517 1022.95 957.787 1010.99 946.897 993.12C926.063 992.497 906.022 981.438 894.872 962.11C883.696 942.679 884.137 919.73 894.093 901.389C884.15 883.035 883.696 860.086 894.872 840.667C906.1 821.275 926.102 810.241 946.91 809.631C957.826 791.757 977.517 779.829 999.947 779.829C1022.38 779.829 1042.13 791.757 1053.02 809.657C1073.88 810.254 1093.95 821.313 1105.13 840.667C1116.32 860.111 1115.86 883.087 1105.88 901.441C1115.81 919.782 1116.29 942.705 1105.13 962.123V962.11Z" fill="white"/>
<path d="M1055.78 869.12C1064.87 869.756 1073.96 872.417 1082.38 877.284C1090.74 882.113 1097.55 888.59 1102.65 896.08C1104.11 892.991 1105.3 889.784 1106.18 886.461C1108.16 879.361 1108.68 872.066 1107.75 864.758C1106.81 857.243 1104.41 850.052 1100.54 843.367C1096.69 836.799 1091.68 831.049 1085.62 826.467C1079.78 821.975 1073.09 818.743 1066 816.861C1062.71 815.992 1059.37 815.42 1056.01 815.148C1059.88 823.248 1062.04 832.321 1062.04 841.9C1062.04 851.48 1059.79 860.903 1055.79 869.12H1055.78Z" fill="white"/>
<path d="M1052.32 938.746C1051.6 937.071 1050.8 935.436 1049.93 933.839C1037.46 933.554 1025.27 929.491 1015.07 922.157L1033.33 953.777L1033.09 953.92L1033.12 953.985L1028.63 956.594L1010.44 925.104C1011.62 937.526 1009.03 950.026 1003.11 960.89C1004.04 962.383 1005.04 963.85 1006.09 965.265C1010.68 971.313 1016.32 976.324 1022.99 980.192C1029.66 984.047 1036.86 986.448 1044.38 987.396C1046.26 987.643 1048.14 987.772 1050.01 987.824C1050.86 986.267 1051.62 984.657 1052.31 983.009C1055.33 976.012 1056.8 968.614 1056.8 960.89C1056.8 953.167 1055.23 945.755 1052.31 938.772L1052.32 938.746Z" fill="white"/>
<path d="M976.985 980.166C983.657 976.311 989.303 971.3 993.885 965.239C994.95 963.824 995.936 962.37 996.871 960.89C990.9 949.948 988.317 937.383 989.537 924.909L971.248 956.581L966.757 953.972L966.796 953.907L966.549 953.764L984.799 922.17C974.571 929.478 962.382 933.515 949.921 933.787C949.052 935.397 948.26 937.046 947.559 938.733C944.534 945.729 943.068 953.128 943.068 960.851C943.068 968.575 944.638 975.986 947.559 982.97C948.273 984.618 949.052 986.228 949.895 987.785C951.79 987.733 953.685 987.591 955.594 987.357C963.109 986.422 970.3 984.021 976.985 980.153V980.166Z" fill="white"/>
<path d="M947.572 864.032C948.299 865.732 949.103 867.38 949.973 868.977C962.369 869.263 974.506 873.26 984.695 880.516L966.549 849.104L966.796 848.961L966.757 848.897L971.248 846.287L989.576 878.024C988.304 865.485 990.887 852.868 996.858 841.9C995.936 840.407 994.937 838.941 993.885 837.526C989.29 831.477 983.657 826.467 976.985 822.598C970.313 818.743 963.109 816.342 955.594 815.394C953.698 815.148 951.777 815.005 949.856 814.966C949.013 816.524 948.247 818.133 947.559 819.782C944.534 826.778 943.068 834.177 943.068 841.9C943.068 849.623 944.638 857.035 947.559 864.019L947.572 864.032Z" fill="white"/>
<path d="M1022.9 822.611C1016.22 826.467 1010.58 831.477 1006 837.539C1004.94 838.902 1003.97 840.33 1003.06 841.77C1009.07 852.7 1011.67 865.278 1010.46 877.765L1028.65 846.287L1033.14 848.897L1033.1 848.961L1033.35 849.104L1015.12 880.646C1025.34 873.325 1037.51 869.276 1049.96 868.977C1050.83 867.367 1051.62 865.719 1052.32 864.019C1055.35 857.022 1056.81 849.623 1056.81 841.9C1056.81 834.177 1055.35 826.765 1052.32 819.782C1051.61 818.133 1050.83 816.524 1049.99 814.966C1048.09 815.018 1046.2 815.161 1044.29 815.394C1036.77 816.329 1029.58 818.73 1022.9 822.598V822.611Z" fill="white"/>
<path d="M1017.06 917.147C1022.9 921.638 1029.58 924.87 1036.67 926.752C1039.94 927.622 1043.25 928.18 1046.6 928.466C1044.68 925.714 1042.52 923.118 1040.12 920.703C1034.9 915.485 1028.85 911.319 1022.07 908.489C1016.52 906.088 1010.72 904.686 1004.7 904.205L1004.75 904.296C1008.18 909.19 1012.28 913.525 1017.06 917.147Z" fill="white"/>
<path d="M982.943 917.147C987.382 913.772 991.263 909.839 994.534 905.348L995.183 904.218C989.174 904.725 983.371 906.178 977.829 908.489C971.04 911.409 964.991 915.485 959.773 920.703C957.359 923.118 955.178 925.714 953.244 928.479C956.632 928.206 959.994 927.635 963.317 926.752C970.521 924.766 977.089 921.534 982.93 917.147H982.943Z" fill="white"/>
<path d="M982.943 885.631C977.102 881.14 970.417 877.907 963.33 876.025C960.02 875.156 956.671 874.584 953.296 874.312C955.217 877.077 957.372 879.673 959.786 882.087C965.004 887.305 971.053 891.472 977.842 894.301C983.358 896.69 989.148 898.092 995.144 898.585L994.405 897.3C991.16 892.9 987.33 888.967 982.956 885.644L982.943 885.631Z" fill="white"/>
<path d="M1022.07 894.289C1028.85 891.368 1034.9 887.292 1040.12 882.074C1042.52 879.673 1044.7 877.077 1046.64 874.325C1043.33 874.61 1040.03 875.169 1036.79 876.025C1029.58 878.011 1023.01 881.243 1017.17 885.631C1012.37 889.278 1008.23 893.588 1004.79 898.559C1010.77 898.04 1016.56 896.599 1022.08 894.289H1022.07Z" fill="white"/>
<path d="M999.921 847.534C998.467 850.623 997.273 853.842 996.404 857.152C994.521 864.252 994.002 871.547 994.937 878.855C995.664 884.683 997.286 890.304 999.765 895.664L999.947 895.976L1000.64 894.795C1002.89 889.706 1004.37 884.372 1005.06 878.868C1005.89 871.56 1005.37 864.265 1003.49 857.165C1002.57 853.816 1001.36 850.61 999.908 847.547L999.921 847.534Z" fill="white"/>
<path d="M941.614 874.571C934.098 875.506 926.907 877.907 920.222 881.776C913.551 885.631 907.8 890.641 903.322 896.703C902.167 898.196 901.102 899.753 900.129 901.35C901.115 902.972 902.18 904.556 903.322 906.088C907.917 912.136 913.551 917.147 920.222 921.015C926.79 924.87 933.994 927.271 941.614 928.219C943.379 928.44 945.144 928.582 946.91 928.647C953.517 917.809 963.369 909.164 975.077 904.024H937.863V898.806H975.038C963.317 893.665 953.491 885.008 946.897 874.182C945.144 874.234 943.379 874.377 941.627 874.597L941.614 874.571Z" fill="white"/>
<path d="M1000.03 955.114C1001.47 952.064 1002.63 948.909 1003.5 945.625C1005.49 938.525 1006.01 931.23 1005.07 923.922C1004.4 918.549 1002.97 913.344 1000.8 908.372L999.973 906.931C997.442 912.331 995.793 918.029 995.054 923.922C994.119 931.127 994.638 938.525 996.52 945.625C997.429 948.922 998.61 952.09 1000.04 955.114H1000.03Z" fill="white"/>
<path d="M1058.38 928.206C1065.9 927.271 1073.09 924.87 1079.78 921.002C1086.34 917.147 1092.09 912.136 1096.57 906.075C1097.74 904.53 1098.82 902.933 1099.8 901.311C1098.83 899.727 1097.79 898.183 1096.68 896.69C1092.08 890.641 1086.45 885.631 1079.78 881.763C1073.1 878.011 1065.9 875.506 1058.49 874.559C1056.67 874.325 1054.85 874.182 1053.05 874.13C1046.46 884.982 1036.63 893.627 1024.9 898.767H1062.03V903.985H1024.9C1036.62 909.125 1046.46 917.77 1053.04 928.621C1054.81 928.569 1056.59 928.427 1058.38 928.193V928.206Z" fill="white"/>
<path d="M999.999 836.76C1005.1 829.244 1011.91 822.741 1020.29 817.913C1028.69 813.084 1037.73 810.436 1046.79 809.774C1044.82 806.918 1042.6 804.231 1040.11 801.739C1034.89 796.521 1028.84 792.354 1022.05 789.525C1015.06 786.5 1007.66 785.034 999.934 785.034C992.211 785.034 984.799 786.604 977.816 789.525C971.027 792.445 964.978 796.521 959.76 801.739C957.281 804.218 955.035 806.905 953.062 809.748C962.162 810.397 971.248 813.045 979.698 817.9C988.083 822.754 994.898 829.257 999.999 836.747V836.76Z" fill="white"/>
<path d="M917.613 877.284C926.012 872.443 935.072 869.782 944.145 869.133C940.121 860.903 937.863 851.674 937.863 841.913C937.863 832.152 940.043 823.26 943.911 815.161C940.536 815.433 937.188 816.005 933.891 816.874C926.687 818.86 920.119 822.092 914.277 826.48C908.229 831.075 903.218 836.708 899.35 843.38C895.482 850.052 893.094 857.256 892.146 864.771C891.315 871.975 891.835 879.374 893.717 886.474C894.638 889.823 895.845 893.029 897.299 896.106C902.4 888.616 909.215 882.126 917.613 877.297V877.284Z" fill="white"/>
<path d="M944.158 933.645C935.085 932.996 926.012 930.335 917.613 925.493C909.202 920.651 902.362 914.148 897.273 906.633C895.806 909.735 894.612 912.98 893.73 916.316C891.744 923.416 891.224 930.711 892.159 938.019C893.094 945.535 895.495 952.726 899.363 959.411C903.231 966.095 908.229 971.729 914.29 976.311C920.235 980.802 926.816 984.034 933.904 985.916C937.201 986.786 940.549 987.357 943.924 987.63C940.043 979.517 937.863 970.444 937.863 960.864C937.863 951.285 940.134 941.874 944.158 933.645Z" fill="white"/>
<path d="M999.999 966.005C994.898 973.52 988.083 980.023 979.711 984.852C971.287 989.706 962.188 992.354 953.101 992.991C955.074 995.846 957.294 998.533 959.773 1001.03C964.991 1006.24 971.04 1010.41 977.829 1013.24C984.825 1016.26 992.224 1017.73 999.947 1017.73C1007.67 1017.73 1015.08 1016.16 1022.07 1013.24C1028.85 1010.32 1034.9 1006.24 1040.12 1001.03C1042.61 998.533 1044.85 995.859 1046.83 993.003C1037.77 992.341 1028.71 989.694 1020.3 984.852C1011.91 979.997 1005.1 973.494 999.999 966.005Z" fill="white"/>
<path d="M1082.37 925.493C1073.95 930.374 1064.87 933.035 1055.79 933.697C1059.79 941.9 1062.03 951.116 1062.03 960.864C1062.03 970.612 1059.85 979.53 1055.97 987.63C1059.38 987.357 1062.76 986.786 1066.09 985.903C1073.3 983.917 1079.87 980.685 1085.71 976.298C1091.76 971.703 1096.77 966.069 1100.64 959.398C1104.5 952.726 1106.89 945.522 1107.84 938.006C1108.67 930.698 1108.15 923.403 1106.27 916.303C1105.35 912.954 1104.14 909.748 1102.69 906.672C1097.58 914.161 1090.77 920.651 1082.37 925.48V925.493Z" fill="white"/>
<path d="M1665.25 856.01C1664.42 839.161 1657.46 823.416 1645.52 811.474C1633.62 799.571 1617.93 792.614 1601.13 791.757C1588.62 780.361 1572.51 774.117 1555.5 774.117C1538.5 774.117 1522.33 780.4 1509.79 791.874C1493.11 792.809 1477.52 799.753 1465.69 811.578C1453.8 823.468 1446.85 839.148 1445.98 855.919C1434.64 868.419 1428.44 884.475 1428.44 901.389C1428.44 918.302 1434.61 934.229 1445.85 946.716C1446.64 963.616 1453.6 979.413 1465.59 991.407C1477.54 1003.36 1493.29 1010.32 1510.15 1011.14C1522.65 1022.46 1538.69 1028.66 1555.61 1028.66C1572.52 1028.66 1588.68 1022.42 1601.19 1011.01C1617.93 1010.11 1633.55 1003.15 1645.4 991.29C1657.33 979.361 1664.28 963.655 1665.13 946.833C1676.45 934.333 1682.66 918.276 1682.66 901.376C1682.66 884.475 1676.49 868.471 1665.24 855.997L1665.25 856.01ZM1659.51 944.509C1659.23 960.021 1653.21 975.441 1641.38 987.266C1629.62 999.026 1614.28 1005.06 1598.84 1005.39C1587.66 1016.25 1572.4 1022.95 1555.61 1022.95C1538.81 1022.95 1523.65 1016.29 1512.49 1005.5C1496.94 1005.24 1481.48 999.221 1469.63 987.37C1457.75 975.493 1451.71 959.982 1451.49 944.405C1440.76 933.242 1434.15 918.081 1434.15 901.402C1434.15 884.722 1440.81 869.444 1451.61 858.281C1451.91 842.809 1457.94 827.427 1469.73 815.641C1481.46 803.907 1496.75 797.884 1512.15 797.521C1523.35 786.591 1538.65 779.854 1555.5 779.854C1572.35 779.854 1587.6 786.552 1598.78 797.417C1614.28 797.702 1629.67 803.738 1641.48 815.55C1653.32 827.388 1659.36 842.835 1659.62 858.372C1670.35 869.535 1676.96 884.696 1676.96 901.428C1676.96 918.159 1670.3 933.385 1659.5 944.548L1659.51 944.509Z" fill="white"/>
<path d="M1639.51 905.14C1629.19 914.603 1616.43 919.938 1603.36 921.145C1611.79 931.269 1617.04 944.107 1617.64 958.177C1624.31 957.866 1630.87 956.412 1637.01 953.751C1643.47 950.973 1649.26 947.131 1654.31 942.264C1654.19 935.228 1652.84 928.388 1650.16 921.924C1647.59 915.771 1644.03 910.098 1639.52 905.127L1639.51 905.14Z" fill="white"/>
<path d="M1612.41 963.408C1598.3 962.863 1585.42 957.632 1575.26 949.221C1574.05 962.305 1568.72 975.065 1559.24 985.384C1564.21 989.914 1569.89 993.536 1576.04 996.015C1582.55 998.728 1589.47 1000.06 1596.57 1000.17C1601.4 995.145 1605.3 989.395 1607.97 982.97C1610.66 976.752 1612.11 970.197 1612.4 963.395L1612.41 963.408Z" fill="white"/>
<path d="M1551.8 985.345C1542.33 975.039 1536.97 962.344 1535.72 949.338C1525.61 957.671 1512.81 962.85 1498.81 963.408C1499.09 970.21 1500.54 976.765 1503.23 982.983C1506.01 989.447 1509.85 995.223 1514.72 1000.27C1521.69 1000.12 1528.45 998.689 1534.85 996.132C1541.08 993.536 1546.79 989.927 1551.8 985.345Z" fill="white"/>
<path d="M1493.59 958.19C1494.18 944.185 1499.42 931.373 1507.81 921.249C1494.69 920.028 1481.88 914.629 1471.55 905.088C1466.96 910.098 1463.36 915.823 1460.76 922.04C1458.11 928.414 1456.78 935.15 1456.62 942.082C1461.71 947.053 1467.57 951.038 1474.12 953.764C1480.3 956.438 1486.89 957.892 1493.59 958.19Z" fill="white"/>
<path d="M1471.65 897.676C1481.98 888.188 1494.74 882.84 1507.81 881.646C1499.36 871.508 1494.08 858.645 1493.48 844.587C1486.81 844.912 1480.26 846.43 1474.12 849C1467.65 851.778 1461.86 855.62 1456.81 860.488C1456.93 867.523 1458.28 874.364 1460.97 880.828C1463.55 887.007 1467.11 892.692 1471.65 897.676Z" fill="white"/>
<path d="M1498.7 839.369C1512.81 839.914 1525.7 845.158 1535.85 853.595C1537.07 840.511 1542.43 827.752 1551.91 817.445C1546.92 812.902 1541.24 809.346 1535.06 806.763C1528.54 804.05 1521.62 802.713 1514.52 802.609C1509.7 807.632 1505.8 813.383 1503.13 819.808C1500.44 826.025 1498.99 832.58 1498.7 839.382V839.369Z" fill="white"/>
<path d="M1559.32 817.536C1568.8 827.804 1574.16 840.472 1575.4 853.492C1585.53 845.145 1598.34 839.953 1612.32 839.382C1612.03 832.645 1610.58 826.012 1607.89 819.808C1605.13 813.395 1601.32 807.645 1596.51 802.622C1589.51 802.765 1582.71 804.192 1576.27 806.763C1570.05 809.359 1564.33 812.967 1559.32 817.549V817.536Z" fill="white"/>
<path d="M1650.35 880.828C1653.01 874.429 1654.35 867.653 1654.49 860.683C1649.4 855.711 1643.54 851.726 1636.99 849C1630.8 846.326 1624.29 844.873 1617.52 844.574C1616.93 858.645 1611.67 871.495 1603.26 881.607C1616.41 882.814 1629.23 888.214 1639.58 897.767C1644.16 892.757 1647.77 887.033 1650.36 880.815L1650.35 880.828Z" fill="white"/>
<path d="M1597.61 947.04L1597.56 947.092L1571.25 920.781C1573.96 927.7 1575.38 935.008 1575.52 942.341C1580.56 947.196 1586.32 951.103 1592.76 953.777C1599 956.477 1605.58 957.931 1612.41 958.203C1612.1 951.441 1610.58 944.938 1608 938.746C1605.2 932.256 1601.35 926.454 1596.46 921.391C1589.19 921.262 1581.93 919.86 1575.06 917.186L1601.31 943.432L1597.66 947.079L1597.61 947.027V947.04Z" fill="white"/>
<path d="M1498.81 958.19C1505.54 957.879 1512.15 956.36 1518.35 953.764C1524.73 951.012 1530.45 947.248 1535.45 942.471C1535.55 935.306 1536.9 928.167 1539.47 921.378L1513.65 947.196L1513.4 946.936L1513.34 946.988L1509.7 943.341L1535.49 917.549C1528.79 920.067 1521.73 921.391 1514.67 921.508C1509.81 926.544 1505.91 932.308 1503.23 938.746C1500.56 944.925 1499.1 951.428 1498.81 958.19Z" fill="white"/>
<path d="M1513.5 855.737L1513.55 855.685L1539.8 881.931C1537.11 875.026 1535.71 867.744 1535.59 860.436C1530.56 855.581 1524.79 851.674 1518.35 849C1512.11 846.3 1505.53 844.847 1498.7 844.574C1499.03 851.272 1500.54 857.853 1503.11 864.032C1505.92 870.522 1509.77 876.337 1514.68 881.412C1521.96 881.555 1529.23 882.97 1536.11 885.657L1509.79 859.333L1513.43 855.685L1513.49 855.737H1513.5Z" fill="white"/>
<path d="M1596.35 881.386C1601.25 876.324 1605.19 870.522 1607.89 864.032C1610.57 857.853 1612.02 851.35 1612.32 844.587C1605.52 844.899 1598.97 846.417 1592.77 849.013C1586.4 851.765 1580.67 855.529 1575.67 860.306C1575.57 867.445 1574.25 874.571 1571.7 881.347L1597.47 855.581L1597.73 855.841L1597.78 855.789L1601.43 859.436L1575.47 885.397C1582.19 882.853 1589.26 881.516 1596.35 881.386Z" fill="white"/>
<path d="M1521 887.071C1524.79 890.005 1528.93 892.445 1533.38 894.302C1538.07 896.326 1542.94 897.637 1547.96 898.286C1543.96 895.184 1539.6 892.64 1534.85 890.745C1530.4 888.902 1525.77 887.695 1521.01 887.071H1521Z" fill="white"/>
<path d="M1533.49 908.489C1528.98 910.436 1524.8 912.889 1520.98 915.849C1525.82 915.239 1530.53 914.019 1535.06 912.149C1539.77 910.176 1544.2 907.619 1548.25 904.517C1543.19 905.192 1538.21 906.529 1533.5 908.502L1533.49 908.489Z" fill="white"/>
<path d="M1590.26 915.836C1586.42 912.85 1582.24 910.358 1577.74 908.489C1573.03 906.451 1568.08 905.14 1563.02 904.491C1567.06 907.645 1571.47 910.241 1576.28 912.149C1580.79 914.019 1585.47 915.226 1590.28 915.849L1590.26 915.836Z" fill="white"/>
<path d="M1577.62 894.289C1582.11 892.354 1586.28 889.901 1590.11 886.955C1585.28 887.591 1580.58 888.824 1576.06 890.628C1571.34 892.601 1566.93 895.158 1562.88 898.273C1567.96 897.598 1572.9 896.262 1577.63 894.289H1577.62Z" fill="white"/>
<path d="M1570.11 866.407C1567 870.327 1564.43 874.623 1562.5 879.27C1560.4 884.138 1559.06 889.2 1558.44 894.431C1561.71 890.304 1564.39 885.773 1566.35 880.828C1568.28 876.194 1569.51 871.365 1570.11 866.407Z" fill="white"/>
<path d="M1544.96 880.828C1546.94 885.553 1549.49 889.966 1552.61 894.016C1551.93 888.928 1550.6 883.995 1548.62 879.257C1546.69 874.766 1544.24 870.6 1541.29 866.77C1541.93 871.599 1543.16 876.298 1544.96 880.815V880.828Z" fill="white"/>
<path d="M1475.3 901.35C1480.3 905.958 1485.94 909.631 1492.26 912.136C1498.68 914.797 1505.45 916.134 1512.42 916.277C1517.69 911.163 1523.87 906.983 1530.68 903.998H1493.41V898.78H1530.58C1523.81 895.807 1517.67 891.654 1512.42 886.591C1505.37 886.708 1498.52 888.058 1492.06 890.745C1485.92 893.315 1480.26 896.846 1475.3 901.35Z" fill="white"/>
<path d="M1541 936.371C1544.11 932.451 1546.68 928.154 1548.61 923.507C1550.71 918.64 1552.05 913.577 1552.67 908.346C1549.4 912.474 1546.72 917.004 1544.76 921.949C1542.83 926.583 1541.6 931.412 1541 936.371Z" fill="white"/>
<path d="M1569.83 936.007C1569.22 931.217 1568 926.532 1566.15 922.053C1564.17 917.341 1561.63 912.928 1558.53 908.891C1559.2 913.915 1560.54 918.834 1562.5 923.52C1564.43 928.024 1566.9 932.191 1569.85 936.02L1569.83 936.007Z" fill="white"/>
<path d="M1635.86 901.48C1630.85 896.846 1625.18 893.159 1618.83 890.641C1612.43 887.98 1605.67 886.643 1598.71 886.5C1593.44 891.615 1587.27 895.794 1580.45 898.78H1617.69V903.998H1580.56C1587.38 906.983 1593.55 911.176 1598.83 916.277C1605.83 916.134 1612.63 914.706 1619.05 912.136C1625.22 909.566 1630.89 906.01 1635.86 901.48Z" fill="white"/>
<path d="M1555.66 821.184C1551.1 826.155 1547.46 831.776 1544.96 838.045C1542.3 844.444 1540.97 851.233 1540.82 858.203C1545.76 863.305 1549.83 869.237 1552.79 875.792V839.304H1558.32V875.792C1561.33 869.159 1565.47 863.149 1570.5 858.009C1570.33 851.103 1568.99 844.405 1566.35 838.058C1563.77 831.866 1560.2 826.181 1555.66 821.197V821.184Z" fill="white"/>
<path d="M1555.5 981.646C1560.05 976.687 1563.67 971.08 1566.15 964.836C1568.82 958.411 1570.16 951.609 1570.29 944.613C1565.36 939.525 1561.28 933.58 1558.32 927.038V963.486H1552.79V927.038C1549.78 933.671 1545.65 939.681 1540.61 944.821C1540.8 951.713 1542.22 958.398 1544.76 964.732C1547.35 970.937 1550.93 976.648 1555.5 981.646Z" fill="white"/>
<path d="M1667.25 879.27C1665.17 874.455 1662.51 870.015 1659.28 865.966C1657.92 878.816 1652.57 891.316 1643.21 901.441C1652.53 911.591 1657.85 924.091 1659.19 936.942C1662.5 932.866 1665.23 928.375 1667.25 923.507C1670.27 916.511 1671.74 909.112 1671.74 901.389C1671.74 893.665 1670.17 886.254 1667.25 879.27Z" fill="white"/>
<path d="M1654.19 853.323C1653.65 848.066 1652.38 842.952 1650.35 838.058C1647.43 831.062 1643.25 824.701 1637.82 819.276C1632.4 813.85 1626.14 809.566 1619.04 806.75C1614.16 804.725 1609.05 803.466 1603.82 802.907C1611.93 812.954 1616.96 825.571 1617.52 839.369C1631.42 839.953 1644.13 845.08 1654.19 853.323Z" fill="white"/>
<path d="M1591.19 797.702C1587.07 794.353 1582.54 791.576 1577.62 789.538C1570.63 786.513 1563.12 785.047 1555.5 785.047C1547.88 785.047 1540.37 786.617 1533.38 789.538C1528.44 791.667 1523.88 794.418 1519.76 797.78C1532.71 799.052 1545.34 804.4 1555.56 813.798C1565.73 804.413 1578.28 799.052 1591.19 797.715V797.702Z" fill="white"/>
<path d="M1507.18 802.959C1502.05 803.556 1497.05 804.829 1492.28 806.737C1485.28 809.657 1478.92 813.837 1473.49 819.263C1468.07 824.688 1463.78 830.945 1460.97 838.045C1458.96 842.9 1457.7 847.962 1457.14 853.167C1467.16 845.028 1479.75 839.966 1493.48 839.356C1494.04 825.584 1499.08 812.98 1507.18 802.946V802.959Z" fill="white"/>
<path d="M1451.91 865.849C1448.61 869.925 1445.87 874.403 1443.86 879.27C1440.84 886.267 1439.37 893.665 1439.37 901.389C1439.37 909.112 1440.94 916.524 1443.86 923.507C1445.94 928.336 1448.61 932.775 1451.84 936.825C1453.22 924.013 1458.57 911.539 1467.9 901.441C1458.55 891.277 1453.23 878.725 1451.91 865.849Z" fill="white"/>
<path d="M1456.89 949.403C1457.44 954.712 1458.7 959.878 1460.76 964.823C1463.68 971.82 1467.86 978.18 1473.29 983.606C1478.71 989.032 1484.97 993.315 1492.07 996.132C1496.99 998.183 1502.14 999.442 1507.42 999.987C1499.23 989.914 1494.15 977.232 1493.59 963.408C1479.67 962.824 1466.96 957.671 1456.89 949.416V949.403Z" fill="white"/>
<path d="M1520.04 1005.17C1524.13 1008.48 1528.62 1011.21 1533.49 1013.24C1540.49 1016.26 1547.88 1017.73 1555.61 1017.73C1563.33 1017.73 1570.74 1016.16 1577.73 1013.24C1582.63 1011.12 1587.15 1008.41 1591.25 1005.09C1578.34 1003.79 1565.76 998.455 1555.56 989.083C1545.42 998.442 1532.89 1003.8 1520.03 1005.15L1520.04 1005.17Z" fill="white"/>
<path d="M1603.92 999.831C1609.05 999.26 1614.06 998.014 1618.83 996.028C1625.83 993.107 1632.19 988.928 1637.62 983.502C1643.04 978.076 1647.33 971.82 1650.14 964.719C1652.15 959.865 1653.41 954.803 1653.97 949.597C1643.95 957.736 1631.36 962.798 1617.63 963.408C1617.07 977.194 1612.03 989.797 1603.92 999.844V999.831Z" fill="white"/>
</g>
<defs>
<clipPath id="clip0_248_59721">
<rect width="2000" height="1400" fill="white"/>
</clipPath>
</defs>
</svg>
