<svg width="2000" height="1400" viewBox="0 0 2000 1400" fill="none" xmlns="http://www.w3.org/2000/svg">
<g clip-path="url(#clip0_248_59733)">
<rect width="2000" height="1400" fill="white"/>
<path d="M371.771 377.517H371.573C367.747 384.108 360.592 387.352 353.136 387.352C336.859 387.352 324.305 375.355 324.305 358.932C324.305 342.509 336.662 330.017 353.136 330.017C360.395 330.017 367.55 332.97 371.573 339.166H371.771V331.496H381.968V385.978H371.771V377.517ZM353.141 339.355C342.352 339.355 334.507 348.206 334.507 358.829C334.507 369.451 342.648 378.006 353.042 378.006C363.437 378.006 371.968 369.352 371.968 358.829C371.968 348.305 364.221 339.355 353.141 339.355Z" fill="#222222"/>
<path d="M422.104 387.348C414.845 387.348 406.906 384.594 402.981 378.105H402.784V404.167H392.587V331.487H401.901V339.844H402.099C406.61 333.351 413.672 330.008 421.418 330.008C438.189 330.008 449.564 342.99 449.564 359.413C449.564 374.852 437.7 387.343 422.108 387.343L422.104 387.348ZM420.733 339.355C410.24 339.355 402.591 348.404 402.591 358.631C402.591 368.858 410.24 378.006 421.028 378.006C431.817 378.006 439.367 369.253 439.367 358.829C439.367 348.404 431.226 339.355 420.733 339.355Z" fill="#222222"/>
<path d="M488.065 387.348C480.807 387.348 472.867 384.594 468.942 378.105H468.745V404.167H458.548V331.487H467.863V339.844H468.06C472.571 333.351 479.633 330.008 487.379 330.008C504.15 330.008 515.525 342.99 515.525 359.413C515.525 374.852 503.661 387.343 488.069 387.343L488.065 387.348ZM486.694 339.355C476.201 339.355 468.553 348.404 468.553 358.631C468.553 368.858 476.201 378.006 486.99 378.006C497.778 378.006 505.328 369.253 505.328 358.829C505.328 348.404 497.187 339.355 486.694 339.355Z" fill="#222222"/>
<path d="M540.688 342.504C535.885 344.962 534.706 351.257 534.706 356.173V385.973H524.509V331.491H534.021V336.407H534.218C537.551 331.684 542.551 330.211 548.045 330.013V340.536C545.791 340.536 542.65 341.422 540.688 342.504Z" fill="#222222"/>
<path d="M605.085 363.156H560.075C562.136 371.612 569 378.006 577.92 378.006C584.296 378.006 590.474 374.564 593.413 368.858H603.611C599.493 379.97 589.39 387.348 577.526 387.348C562.032 387.348 549.873 373.872 549.873 358.631C549.873 343.39 561.835 330.013 577.723 330.013C593.611 330.013 605.376 342.698 605.376 358.042C605.376 359.714 605.278 361.484 605.081 363.156H605.085ZM577.629 339.355C568.802 339.355 560.666 346.337 560.075 355.288H595.183C594.596 346.337 586.455 339.355 577.629 339.355Z" fill="#222222"/>
<path d="M638.989 387.348C622.81 387.348 611.138 374.564 611.138 358.631C611.138 342.698 623.002 330.013 639.087 330.013C650.759 330.013 662.721 337.881 665.759 349.586H654.482C651.44 343.192 646.439 339.359 639.186 339.359C628.007 339.359 621.34 347.914 621.34 358.636C621.34 369.357 628.106 378.011 638.993 378.011C645.956 378.011 651.547 374.272 654.388 367.977H665.764C661.745 379.682 651.444 387.352 638.993 387.352L638.989 387.348Z" fill="#222222"/>
<path d="M674.017 325.192V313.194H684.214V325.192H674.017ZM674.017 385.969V331.487H684.214V385.969H674.017Z" fill="#222222"/>
<path d="M740.632 377.517H740.435C736.608 384.108 729.453 387.352 721.998 387.352C705.72 387.352 693.166 375.355 693.166 358.932C693.166 342.509 705.523 330.017 721.998 330.017C729.256 330.017 736.411 332.97 740.435 339.166H740.632V331.496H750.829V385.978H740.632V377.517ZM722.002 339.355C711.213 339.355 703.368 348.206 703.368 358.829C703.368 369.451 711.509 378.006 721.904 378.006C732.298 378.006 740.829 369.352 740.829 358.829C740.829 348.305 733.082 339.355 722.002 339.355Z" fill="#222222"/>
<path d="M775.006 340.833V385.973H764.808V340.833H757.451V331.491H764.808V313.199H775.006V331.491H783.931V340.833H775.006Z" fill="#222222"/>
<path d="M840.68 363.156H795.67C797.731 371.612 804.595 378.006 813.515 378.006C819.891 378.006 826.069 374.564 829.009 368.858H839.206C835.089 379.97 824.985 387.348 813.121 387.348C797.628 387.348 785.468 373.872 785.468 358.631C785.468 343.39 797.43 330.013 813.318 330.013C829.206 330.013 840.971 342.698 840.971 358.042C840.971 359.714 840.873 361.484 840.676 363.156H840.68ZM813.224 339.355C804.398 339.355 796.261 346.337 795.67 355.288H830.778C830.191 346.337 822.05 339.355 813.224 339.355Z" fill="#222222"/>
<path d="M621.685 179.257C619.463 179.257 617.29 179.479 615.192 179.896C615.602 177.813 615.824 175.66 615.824 173.452C615.824 155.084 600.977 140.236 582.609 140.236C564.241 140.236 549.394 155.084 549.394 173.452C549.394 175.653 549.616 177.806 550.019 179.889C547.936 179.479 545.79 179.257 543.588 179.257C525.276 179.257 510.373 194.104 510.373 212.472C510.373 230.84 525.22 245.688 543.588 245.688C545.797 245.688 547.949 245.466 550.033 245.056C549.616 247.153 549.394 249.327 549.394 251.549C549.394 269.917 564.241 284.764 582.609 284.764C600.977 284.764 615.824 269.917 615.824 251.549C615.824 249.327 615.602 247.153 615.185 245.049C617.29 245.466 619.456 245.688 621.685 245.688C639.998 245.688 654.901 230.84 654.901 212.472C654.901 194.104 640.054 179.257 621.685 179.257V179.257ZM552.186 173.452C552.186 169.32 552.97 165.354 554.588 161.618C556.095 157.986 558.331 154.75 561.123 151.959C563.915 149.167 567.151 146.993 570.783 145.424C574.526 143.861 578.484 143.021 582.616 143.021C586.748 143.021 590.713 143.806 594.449 145.424C598.081 146.931 601.317 149.167 604.109 151.959C606.901 154.75 609.074 157.986 610.644 161.618C612.262 165.361 613.047 169.32 613.047 173.452C613.047 175.91 612.762 178.313 612.199 180.639C602.804 183.431 595.165 190.264 591.276 199.125V179.257H588.484V203.299C586.574 203.674 584.616 203.875 582.623 203.875C580.63 203.875 578.713 203.688 576.817 203.327V179.257H574.026V199.167C570.13 190.299 562.47 183.445 553.074 180.639C552.498 178.292 552.199 175.882 552.199 173.445L552.186 173.452ZM594.442 223.528C598.074 225.035 601.311 227.271 604.102 230.063C606.894 232.854 609.067 236.091 610.637 239.722C610.817 240.153 610.984 240.584 611.144 241.021C610.713 240.861 610.283 240.688 609.852 240.5C606.22 238.993 602.984 236.757 600.192 233.966C597.401 231.174 595.227 227.938 593.658 224.306C593.477 223.875 593.311 223.445 593.151 223.007C593.581 223.167 594.012 223.341 594.442 223.528ZM588.47 218.334H576.804V206.667H588.47V218.334ZM572.137 222.993C571.97 223.438 571.797 223.875 571.609 224.306C570.102 227.938 567.866 231.174 565.074 233.966C562.283 236.757 559.047 238.931 555.415 240.5C554.963 240.688 554.505 240.868 554.047 241.035C554.213 240.591 554.387 240.153 554.574 239.722C556.081 236.091 558.317 232.854 561.109 230.063C563.901 227.271 567.137 225.097 570.769 223.528C571.22 223.341 571.679 223.16 572.137 222.993V222.993ZM570.769 201.479C567.137 199.972 563.901 197.736 561.109 194.945C558.317 192.153 556.144 188.917 554.574 185.285C554.38 184.827 554.199 184.361 554.033 183.896C554.498 184.07 554.956 184.25 555.415 184.452C559.047 185.959 562.283 188.195 565.074 190.986C567.866 193.778 570.04 197.014 571.609 200.646C571.804 201.104 571.984 201.57 572.151 202.042C571.686 201.868 571.227 201.688 570.769 201.486V201.479ZM593.109 202C593.283 201.549 593.456 201.09 593.651 200.646C595.158 197.014 597.394 193.778 600.186 190.986C602.977 188.195 606.213 186.021 609.845 184.452C610.283 184.271 610.727 184.097 611.172 183.931C610.998 184.382 610.824 184.84 610.63 185.285C609.123 188.917 606.887 192.153 604.095 194.945C601.304 197.736 598.067 199.91 594.435 201.479C593.998 201.66 593.554 201.834 593.109 202ZM543.581 242.903C539.449 242.903 535.484 242.118 531.748 240.5C528.116 238.993 524.88 236.757 522.088 233.966C519.297 231.174 517.123 227.938 515.554 224.306C513.991 220.563 513.151 216.604 513.151 212.472C513.151 208.34 513.936 204.375 515.554 200.639C517.061 197.007 519.297 193.771 522.088 190.979C524.88 188.188 528.116 186.014 531.748 184.445C535.491 182.882 539.449 182.042 543.581 182.042C546.033 182.042 548.429 182.327 550.755 182.889C553.54 192.313 560.373 199.972 569.262 203.868H549.394V206.66H573.442C573.811 208.556 574.012 210.486 574.012 212.465C574.012 214.445 573.824 216.417 573.456 218.327H549.394V221.118H569.29C560.442 225 553.595 232.632 550.79 242.014C548.456 242.584 546.054 242.889 543.588 242.889L543.581 242.903ZM613.026 251.556C613.026 255.688 612.241 259.653 610.623 263.389C609.116 267.021 606.88 270.257 604.088 273.049C601.297 275.841 598.06 278.014 594.429 279.584C590.685 281.146 586.727 281.986 582.595 281.986C578.463 281.986 574.498 281.202 570.762 279.584C567.13 278.077 563.894 275.841 561.102 273.049C558.31 270.257 556.137 267.021 554.567 263.389C553.005 259.646 552.165 255.632 552.165 251.556C552.165 249.077 552.449 246.66 553.026 244.32C562.429 241.528 570.095 234.688 573.991 225.806V245.695H576.783V221.702C578.679 221.334 580.609 221.132 582.588 221.132C584.567 221.132 586.54 221.32 588.449 221.688V245.695H591.241V225.827C595.123 234.674 602.741 241.5 612.116 244.299C612.699 246.667 613.012 249.097 613.012 251.556H613.026ZM643.172 233.972C640.38 236.764 637.144 238.938 633.512 240.507C629.769 242.125 625.755 242.91 621.679 242.91C619.199 242.91 616.776 242.625 614.429 242.049C611.63 232.66 604.804 225.028 595.942 221.139H615.811V218.347H591.824C591.449 216.438 591.248 214.479 591.248 212.486C591.248 210.493 591.436 208.577 591.797 206.681H615.811V203.889H595.922C604.797 199.993 611.63 192.34 614.429 182.952C616.776 182.375 619.193 182.063 621.672 182.063C625.804 182.063 629.769 182.847 633.505 184.465C637.137 185.972 640.373 188.209 643.165 191C645.956 193.792 648.13 197.028 649.699 200.66C651.262 204.403 652.102 208.361 652.102 212.493C652.102 216.625 651.317 220.59 649.699 224.327C648.192 227.959 645.956 231.195 643.165 233.986L643.172 233.972Z" fill="#222222" stroke="#222222" stroke-width="0.694444"/>
<path d="M371.771 793.489H371.573C367.747 800.081 360.592 803.325 353.136 803.325C336.859 803.325 324.305 791.328 324.305 774.905C324.305 758.482 336.662 745.99 353.136 745.99C360.395 745.99 367.55 748.942 371.573 755.139H371.771V747.468H381.968V801.95H371.771V793.489ZM353.141 755.327C342.352 755.327 334.507 764.179 334.507 774.801C334.507 785.424 342.648 793.979 353.042 793.979C363.437 793.979 371.968 785.325 371.968 774.801C371.968 764.278 364.221 755.327 353.141 755.327Z" fill="#222222"/>
<path d="M422.104 803.321C414.845 803.321 406.906 800.566 402.981 794.078H402.784V820.139H392.587V747.459H401.901V755.817H402.099C406.61 749.324 413.672 745.981 421.418 745.981C438.189 745.981 449.564 758.962 449.564 775.386C449.564 790.825 437.7 803.316 422.108 803.316L422.104 803.321ZM420.733 755.327C410.24 755.327 402.591 764.377 402.591 774.604C402.591 784.831 410.24 793.979 421.028 793.979C431.817 793.979 439.367 785.226 439.367 774.801C439.367 764.377 431.226 755.327 420.733 755.327Z" fill="#222222"/>
<path d="M488.065 803.321C480.807 803.321 472.867 800.566 468.942 794.078H468.745V820.139H458.548V747.459H467.863V755.817H468.06C472.571 749.324 479.633 745.981 487.379 745.981C504.15 745.981 515.525 758.962 515.525 775.386C515.525 790.825 503.661 803.316 488.069 803.316L488.065 803.321ZM486.694 755.327C476.201 755.327 468.553 764.377 468.553 774.604C468.553 784.831 476.201 793.979 486.99 793.979C497.778 793.979 505.328 785.226 505.328 774.801C505.328 764.377 497.187 755.327 486.694 755.327Z" fill="#222222"/>
<path d="M540.688 758.477C535.885 760.935 534.706 767.23 534.706 772.146V801.946H524.509V747.464H534.021V752.38H534.218C537.551 747.657 542.551 746.183 548.045 745.986V756.509C545.791 756.509 542.65 757.394 540.688 758.477Z" fill="#222222"/>
<path d="M605.085 779.128H560.075C562.136 787.585 569 793.979 577.92 793.979C584.296 793.979 590.474 790.537 593.413 784.831H603.611C599.493 795.943 589.39 803.321 577.526 803.321C562.032 803.321 549.873 789.845 549.873 774.604C549.873 759.362 561.835 745.986 577.723 745.986C593.611 745.986 605.376 758.67 605.376 774.015C605.376 775.687 605.278 777.457 605.081 779.128H605.085ZM577.629 755.327C568.802 755.327 560.666 762.31 560.075 771.261H595.183C594.596 762.31 586.455 755.327 577.629 755.327Z" fill="#222222"/>
<path d="M638.989 803.321C622.81 803.321 611.138 790.537 611.138 774.604C611.138 758.67 623.002 745.986 639.087 745.986C650.759 745.986 662.721 753.853 665.759 765.559H654.482C651.44 759.165 646.439 755.332 639.186 755.332C628.007 755.332 621.34 763.887 621.34 774.608C621.34 785.329 628.106 793.983 638.993 793.983C645.956 793.983 651.547 790.245 654.388 783.95H665.764C661.745 795.655 651.444 803.325 638.993 803.325L638.989 803.321Z" fill="#222222"/>
<path d="M674.017 741.164V729.167H684.214V741.164H674.017ZM674.017 801.941V747.459H684.214V801.941H674.017Z" fill="#222222"/>
<path d="M740.632 793.489H740.435C736.608 800.081 729.453 803.325 721.998 803.325C705.72 803.325 693.166 791.328 693.166 774.905C693.166 758.482 705.523 745.99 721.998 745.99C729.256 745.99 736.411 748.942 740.435 755.139H740.632V747.468H750.829V801.95H740.632V793.489ZM722.002 755.327C711.213 755.327 703.368 764.179 703.368 774.801C703.368 785.424 711.509 793.979 721.904 793.979C732.298 793.979 740.829 785.325 740.829 774.801C740.829 764.278 733.082 755.327 722.002 755.327Z" fill="#222222"/>
<path d="M775.006 756.806V801.946H764.808V756.806H757.451V747.464H764.808V729.171H775.006V747.464H783.931V756.806H775.006Z" fill="#222222"/>
<path d="M840.68 779.128H795.67C797.731 787.585 804.595 793.979 813.515 793.979C819.891 793.979 826.069 790.537 829.009 784.831H839.206C835.089 795.943 824.985 803.321 813.121 803.321C797.628 803.321 785.468 789.845 785.468 774.604C785.468 759.362 797.43 745.986 813.318 745.986C829.206 745.986 840.971 758.67 840.971 774.015C840.971 775.687 840.873 777.457 840.676 779.128H840.68ZM813.224 755.327C804.398 755.327 796.261 762.31 795.67 771.261H830.778C830.191 762.31 822.05 755.327 813.224 755.327Z" fill="#222222"/>
<path d="M638.88 595.979C632.9 585.625 622.164 579.708 611.005 579.389C605.178 569.82 594.65 563.431 582.609 563.431C570.567 563.431 560.074 569.806 554.234 579.375C543.102 579.695 532.4 585.604 526.393 595.979C520.414 606.375 520.65 618.653 525.977 628.465C520.657 638.285 520.414 650.563 526.393 660.951C532.366 671.292 543.081 677.208 554.227 677.542C560.053 687.104 570.574 693.5 582.609 693.5C594.643 693.5 605.143 687.125 610.984 677.556C622.137 677.25 632.866 671.34 638.88 660.951C644.859 650.563 644.595 638.299 639.282 628.486C644.616 618.667 644.866 606.375 638.88 595.972V595.979ZM617.949 583.25C621.748 584.257 625.317 585.986 628.442 588.389C631.678 590.847 634.359 593.917 636.428 597.431C638.491 601 639.775 604.854 640.282 608.875C640.782 612.785 640.505 616.688 639.442 620.486C638.97 622.264 638.338 623.979 637.553 625.632C634.831 621.625 631.185 618.16 626.713 615.576C622.213 612.979 617.345 611.556 612.477 611.208C614.623 606.813 615.824 601.875 615.824 596.646C615.824 591.417 614.664 586.667 612.595 582.333C614.393 582.479 616.185 582.785 617.942 583.25H617.949ZM610.637 672.125C610.268 673.007 609.859 673.868 609.407 674.702C608.4 674.674 607.4 674.597 606.393 674.472C602.373 673.972 598.525 672.688 594.949 670.618C591.373 668.549 588.359 665.875 585.907 662.632C585.338 661.875 584.81 661.097 584.317 660.292C587.484 654.479 588.866 647.792 588.234 641.146L597.97 657.993L600.373 656.597L600.352 656.563L600.484 656.486L590.713 639.57C596.171 643.493 602.692 645.667 609.366 645.82C609.831 646.667 610.255 647.542 610.643 648.445C612.206 652.188 613.046 656.146 613.046 660.278C613.046 664.41 612.262 668.375 610.643 672.111L610.637 672.125ZM554.588 672.125C553.025 668.382 552.185 664.424 552.185 660.292C552.185 656.16 552.97 652.195 554.588 648.458C554.963 647.549 555.387 646.667 555.852 645.813C562.518 645.667 569.039 643.507 574.512 639.597L564.748 656.5L564.88 656.576L564.859 656.611L567.262 658.007L577.046 641.063C576.387 647.736 577.768 654.458 580.97 660.313C580.477 661.104 579.949 661.882 579.373 662.639C576.914 665.875 573.9 668.556 570.331 670.625C566.762 672.695 562.907 673.972 558.887 674.479C557.873 674.611 556.852 674.688 555.838 674.708C555.387 673.875 554.97 673.014 554.588 672.132V672.125ZM554.588 584.82C554.956 583.938 555.366 583.076 555.817 582.243C556.845 582.271 557.873 582.34 558.887 582.472C562.907 582.972 566.755 584.257 570.331 586.326C573.907 588.396 576.921 591.07 579.373 594.313C579.942 595.07 580.47 595.847 580.963 596.653C577.762 602.521 576.387 609.271 577.067 615.979L567.262 599L564.859 600.396L564.88 600.431L564.748 600.507L574.456 617.313C569.005 613.431 562.512 611.292 555.88 611.139C555.414 610.278 554.984 609.396 554.595 608.493C553.032 604.75 552.192 600.736 552.192 596.66C552.192 592.583 552.977 588.563 554.595 584.826L554.588 584.82ZM610.637 584.82C612.255 588.563 613.039 592.576 613.039 596.653C613.039 600.729 612.255 604.75 610.637 608.486C610.262 609.396 609.838 610.278 609.373 611.139C602.713 611.299 596.192 613.458 590.734 617.382L600.484 600.507L600.352 600.431L600.373 600.396L597.97 599L588.241 615.84C588.887 609.16 587.498 602.431 584.282 596.583C584.768 595.806 585.289 595.049 585.852 594.32C588.31 591.083 591.324 588.403 594.893 586.333C598.463 584.264 602.317 582.986 606.338 582.479C607.352 582.347 608.373 582.271 609.387 582.25C609.838 583.083 610.255 583.945 610.637 584.826V584.82ZM585.185 630.028L585.157 629.979C588.373 630.236 591.484 630.986 594.449 632.271C598.081 633.778 601.317 636.014 604.109 638.806C605.4 640.097 606.546 641.486 607.574 642.958C605.789 642.813 604.012 642.507 602.262 642.042C598.463 641.035 594.893 639.306 591.768 636.903C589.22 634.965 587.018 632.646 585.185 630.028ZM573.512 636.903C570.387 639.25 566.866 640.979 563.018 642.042C561.241 642.514 559.442 642.82 557.63 642.965C558.664 641.486 559.831 640.097 561.123 638.806C563.914 636.014 567.15 633.84 570.782 632.271C573.748 631.035 576.852 630.257 580.067 629.986L579.72 630.59C577.97 632.993 575.893 635.097 573.518 636.903H573.512ZM579.637 626.278L580.032 626.965C576.824 626.701 573.734 625.958 570.775 624.674C567.143 623.167 563.907 620.931 561.116 618.139C559.824 616.847 558.671 615.458 557.643 613.979C559.449 614.125 561.248 614.431 563.012 614.896C566.81 615.903 570.38 617.632 573.505 620.035C575.845 621.813 577.893 623.91 579.63 626.271L579.637 626.278ZM585.199 626.958C587.039 624.306 589.255 621.993 591.824 620.042C594.949 617.695 598.47 615.965 602.317 614.903C604.053 614.445 605.817 614.146 607.588 613.993C606.553 615.465 605.393 616.854 604.102 618.139C601.31 620.931 598.074 623.104 594.442 624.674C591.491 625.91 588.4 626.681 585.192 626.958H585.199ZM584.512 604.806C585.518 608.604 585.796 612.507 585.352 616.417C584.984 619.361 584.192 622.215 582.984 624.938L582.616 625.57L582.518 625.403C581.192 622.542 580.324 619.528 579.935 616.41C579.435 612.5 579.713 608.597 580.72 604.799C581.192 603.028 581.824 601.306 582.602 599.653C583.38 601.292 584.025 603.007 584.518 604.799L584.512 604.806ZM569.289 627.076H549.4V629.868H569.31C563.039 632.618 557.775 637.25 554.241 643.042C553.296 643.014 552.352 642.938 551.407 642.813C547.331 642.313 543.484 641.028 539.963 638.958C536.393 636.896 533.373 634.215 530.921 630.972C530.31 630.153 529.741 629.306 529.213 628.438C529.741 627.583 530.31 626.75 530.921 625.951C533.324 622.715 536.393 620.035 539.963 617.965C543.532 615.896 547.387 614.618 551.407 614.111C552.345 613.993 553.289 613.917 554.227 613.889C557.755 619.688 563.012 624.313 569.289 627.063V627.076ZM580.775 652.139C579.768 648.34 579.491 644.382 579.991 640.528C580.387 637.375 581.268 634.326 582.623 631.438L583.067 632.208C584.227 634.868 584.991 637.653 585.352 640.528C585.852 644.438 585.574 648.34 584.512 652.139C584.046 653.896 583.421 655.583 582.65 657.215C581.887 655.597 581.255 653.903 580.768 652.139H580.775ZM595.963 629.868H615.831V627.076H595.963C602.234 624.326 607.498 619.701 611.025 613.896C611.998 613.924 612.963 614 613.935 614.125C617.9 614.625 621.748 615.965 625.324 617.979C628.893 620.042 631.914 622.722 634.366 625.965C634.963 626.764 635.525 627.59 636.039 628.438C635.505 629.306 634.928 630.16 634.31 630.986C631.907 634.222 628.838 636.903 625.324 638.972C621.755 641.035 617.9 642.32 613.88 642.826C612.928 642.951 611.97 643.021 611.018 643.056C607.491 637.25 602.234 632.625 595.963 629.875V629.868ZM561.116 575.16C563.907 572.368 567.143 570.195 570.775 568.625C574.518 567.063 578.477 566.222 582.609 566.222C586.741 566.222 590.706 567.007 594.442 568.625C598.074 570.132 601.31 572.368 604.102 575.16C605.435 576.493 606.623 577.931 607.678 579.458C602.831 579.806 597.991 581.222 593.498 583.813C589.018 586.403 585.366 589.882 582.643 593.896C579.921 589.882 576.268 586.403 571.782 583.813C567.268 581.215 562.4 579.792 557.532 579.451C558.588 577.924 559.789 576.493 561.116 575.167V575.16ZM525.782 620.486C524.775 616.688 524.498 612.729 524.942 608.875C525.442 604.854 526.727 601.007 528.796 597.431C530.866 593.854 533.539 590.84 536.782 588.389C539.907 586.042 543.428 584.313 547.275 583.25C549.032 582.785 550.831 582.479 552.637 582.333C550.56 586.667 549.4 591.521 549.4 596.646C549.4 601.771 550.609 606.806 552.762 611.208C547.907 611.556 543.06 612.979 538.567 615.57C534.081 618.153 530.428 621.625 527.699 625.632C526.921 623.993 526.275 622.271 525.782 620.479V620.486ZM547.275 673.688C543.477 672.681 539.963 670.952 536.782 668.549C533.546 666.09 530.866 663.076 528.796 659.507C526.727 655.938 525.449 652.083 524.942 648.063C524.442 644.153 524.72 640.25 525.782 636.451C526.255 634.667 526.893 632.931 527.678 631.271C530.407 635.292 534.067 638.778 538.56 641.361C543.053 643.958 547.907 645.375 552.762 645.722C550.602 650.125 549.393 655.063 549.393 660.285C549.393 665.507 550.56 670.264 552.637 674.604C550.831 674.458 549.039 674.153 547.275 673.688ZM604.102 681.785C601.31 684.576 598.074 686.75 594.442 688.32C590.699 689.882 586.741 690.722 582.609 690.722C578.477 690.722 574.512 689.938 570.775 688.32C567.143 686.813 563.907 684.576 561.116 681.785C559.782 680.451 558.595 679.014 557.546 677.486C562.407 677.146 567.275 675.729 571.782 673.132C576.262 670.542 579.914 667.063 582.637 663.049C585.359 667.063 589.012 670.542 593.498 673.132C597.998 675.722 602.845 677.146 607.692 677.493C606.637 679.021 605.435 680.451 604.102 681.785V681.785ZM639.498 636.458C640.505 640.257 640.782 644.16 640.338 648.07C639.838 652.09 638.553 655.938 636.484 659.514C634.414 663.09 631.741 666.104 628.498 668.556C625.373 670.903 621.852 672.632 618.005 673.695C616.22 674.167 614.407 674.472 612.588 674.618C614.664 670.285 615.831 665.431 615.831 660.299C615.831 655.167 614.63 650.153 612.491 645.764C617.352 645.417 622.206 643.986 626.713 641.375C631.199 638.792 634.852 635.32 637.581 631.313C638.359 632.951 639.005 634.674 639.498 636.465V636.458Z" fill="#222222" stroke="#222222" stroke-width="0.694444"/>
<path d="M371.771 1209.46H371.573C367.747 1216.05 360.592 1219.3 353.136 1219.3C336.859 1219.3 324.305 1207.3 324.305 1190.88C324.305 1174.45 336.662 1161.96 353.136 1161.96C360.395 1161.96 367.55 1164.91 371.573 1171.11H371.771V1163.44H381.968V1217.92H371.771V1209.46ZM353.141 1171.3C342.352 1171.3 334.507 1180.15 334.507 1190.77C334.507 1201.4 342.648 1209.95 353.042 1209.95C363.437 1209.95 371.968 1201.3 371.968 1190.77C371.968 1180.25 364.221 1171.3 353.141 1171.3Z" fill="#222222"/>
<path d="M422.104 1219.29C414.845 1219.29 406.906 1216.54 402.981 1210.05H402.784V1236.11H392.587V1163.43H401.901V1171.79H402.099C406.61 1165.3 413.672 1161.95 421.418 1161.95C438.189 1161.95 449.564 1174.93 449.564 1191.36C449.564 1206.8 437.7 1219.29 422.108 1219.29L422.104 1219.29ZM420.733 1171.3C410.24 1171.3 402.591 1180.35 402.591 1190.58C402.591 1200.8 410.24 1209.95 421.028 1209.95C431.817 1209.95 439.367 1201.2 439.367 1190.77C439.367 1180.35 431.226 1171.3 420.733 1171.3Z" fill="#222222"/>
<path d="M488.065 1219.29C480.807 1219.29 472.867 1216.54 468.942 1210.05H468.745V1236.11H458.548V1163.43H467.863V1171.79H468.06C472.571 1165.3 479.633 1161.95 487.379 1161.95C504.15 1161.95 515.525 1174.93 515.525 1191.36C515.525 1206.8 503.661 1219.29 488.069 1219.29L488.065 1219.29ZM486.694 1171.3C476.201 1171.3 468.553 1180.35 468.553 1190.58C468.553 1200.8 476.201 1209.95 486.99 1209.95C497.778 1209.95 505.328 1201.2 505.328 1190.77C505.328 1180.35 497.187 1171.3 486.694 1171.3Z" fill="#222222"/>
<path d="M540.688 1174.45C535.885 1176.91 534.706 1183.2 534.706 1188.12V1217.92H524.509V1163.44H534.021V1168.35H534.218C537.551 1163.63 542.551 1162.15 548.045 1161.96V1172.48C545.791 1172.48 542.65 1173.37 540.688 1174.45Z" fill="#222222"/>
<path d="M605.085 1195.1H560.075C562.136 1203.56 569 1209.95 577.92 1209.95C584.296 1209.95 590.474 1206.51 593.413 1200.8H603.611C599.493 1211.91 589.39 1219.29 577.526 1219.29C562.032 1219.29 549.873 1205.82 549.873 1190.58C549.873 1175.33 561.835 1161.96 577.723 1161.96C593.611 1161.96 605.376 1174.64 605.376 1189.99C605.376 1191.66 605.278 1193.43 605.081 1195.1H605.085ZM577.629 1171.3C568.802 1171.3 560.666 1178.28 560.075 1187.23H595.183C594.596 1178.28 586.455 1171.3 577.629 1171.3Z" fill="#222222"/>
<path d="M638.989 1219.29C622.81 1219.29 611.138 1206.51 611.138 1190.58C611.138 1174.64 623.002 1161.96 639.087 1161.96C650.759 1161.96 662.721 1169.83 665.759 1181.53H654.482C651.44 1175.14 646.439 1171.3 639.186 1171.3C628.007 1171.3 621.34 1179.86 621.34 1190.58C621.34 1201.3 628.106 1209.96 638.993 1209.96C645.956 1209.96 651.547 1206.22 654.388 1199.92H665.764C661.745 1211.63 651.444 1219.3 638.993 1219.3L638.989 1219.29Z" fill="#222222"/>
<path d="M674.017 1157.14V1145.14H684.214V1157.14H674.017ZM674.017 1217.91V1163.43H684.214V1217.91H674.017Z" fill="#222222"/>
<path d="M740.632 1209.46H740.435C736.608 1216.05 729.453 1219.3 721.998 1219.3C705.72 1219.3 693.166 1207.3 693.166 1190.88C693.166 1174.45 705.523 1161.96 721.998 1161.96C729.256 1161.96 736.411 1164.91 740.435 1171.11H740.632V1163.44H750.829V1217.92H740.632V1209.46ZM722.002 1171.3C711.213 1171.3 703.368 1180.15 703.368 1190.77C703.368 1201.4 711.509 1209.95 721.904 1209.95C732.298 1209.95 740.829 1201.3 740.829 1190.77C740.829 1180.25 733.082 1171.3 722.002 1171.3Z" fill="#222222"/>
<path d="M775.006 1172.78V1217.92H764.808V1172.78H757.451V1163.44H764.808V1145.14H775.006V1163.44H783.931V1172.78H775.006Z" fill="#222222"/>
<path d="M840.68 1195.1H795.67C797.731 1203.56 804.595 1209.95 813.515 1209.95C819.891 1209.95 826.069 1206.51 829.009 1200.8H839.206C835.089 1211.91 824.985 1219.29 813.121 1219.29C797.628 1219.29 785.468 1205.82 785.468 1190.58C785.468 1175.33 797.43 1161.96 813.318 1161.96C829.206 1161.96 840.971 1174.64 840.971 1189.99C840.971 1191.66 840.873 1193.43 840.676 1195.1H840.68ZM813.224 1171.3C804.398 1171.3 796.261 1178.28 795.67 1187.23H830.778C830.191 1178.28 822.05 1171.3 813.224 1171.3Z" fill="#222222"/>
<path d="M638.256 1067.52C644.027 1061.55 647.596 1053.42 647.596 1044.45C647.596 1035.48 644.061 1027.39 638.318 1021.42C638.179 1013.1 634.95 1004.84 628.617 998.506C622.298 992.187 614.061 988.965 605.77 988.805C599.791 982.993 591.631 979.409 582.617 979.409C573.603 979.409 565.416 983.013 559.423 988.861C551.186 989.055 543.006 992.277 536.728 998.555C530.423 1004.86 527.193 1013.09 527.034 1021.37C521.263 1027.34 517.693 1035.46 517.693 1044.44C517.693 1053.41 521.228 1061.47 526.971 1067.44C527.089 1075.78 530.318 1084.08 536.673 1090.43C543.013 1096.77 551.284 1099.99 559.603 1100.13C565.575 1105.9 573.7 1109.46 582.673 1109.46C591.645 1109.46 599.818 1105.88 605.804 1100.07C614.061 1099.89 622.263 1096.67 628.561 1090.37C634.86 1084.08 638.11 1075.8 638.263 1067.5L638.256 1067.52ZM615.846 1074.84C615.527 1067.31 612.714 1060.44 608.207 1055.03C615.2 1054.38 622.027 1051.53 627.548 1046.46C629.964 1049.12 631.86 1052.16 633.235 1055.45C634.673 1058.91 635.388 1062.57 635.457 1066.33C632.756 1068.94 629.659 1070.99 626.2 1072.48C622.909 1073.9 619.409 1074.68 615.839 1074.85L615.846 1074.84ZM604.596 1097.31C600.791 1097.25 597.096 1096.53 593.61 1095.08C590.318 1093.76 587.284 1091.82 584.624 1089.4C589.686 1083.87 592.548 1077.04 593.193 1070.05C598.624 1074.55 605.52 1077.35 613.068 1077.64C612.916 1081.28 612.138 1084.78 610.7 1088.11C609.277 1091.55 607.193 1094.62 604.603 1097.31L604.596 1097.31ZM560.784 1097.35C558.179 1094.65 556.131 1091.56 554.638 1088.1C553.2 1084.78 552.423 1081.27 552.27 1077.63C559.763 1077.33 566.61 1074.56 572.02 1070.1C572.686 1077.06 575.554 1083.85 580.624 1089.37C577.943 1091.82 574.881 1093.75 571.554 1095.14C568.131 1096.51 564.506 1097.27 560.784 1097.35V1097.35ZM539.068 1072.47C535.568 1071.01 532.429 1068.88 529.707 1066.22C529.791 1062.51 530.506 1058.91 531.923 1055.5C533.311 1052.17 535.242 1049.11 537.693 1046.43C543.221 1051.53 550.075 1054.42 557.096 1055.08C552.603 1060.49 549.804 1067.35 549.485 1074.84C545.895 1074.68 542.374 1073.9 539.068 1072.47ZM549.429 1014.06C549.749 1021.58 552.575 1028.46 557.096 1033.89C550.103 1034.53 543.277 1037.39 537.749 1042.46C535.318 1039.8 533.416 1036.76 532.034 1033.45C530.596 1029.99 529.881 1026.33 529.811 1022.57C532.513 1019.96 535.61 1017.91 539.068 1016.42C542.36 1015.05 545.86 1014.24 549.429 1014.06V1014.06ZM560.679 991.597C564.485 991.652 568.179 992.368 571.666 993.819C574.971 995.201 578.013 997.111 580.679 999.534C575.61 1005.06 572.742 1011.88 572.089 1018.87C566.659 1014.37 559.763 1011.56 552.214 1011.26C552.367 1007.62 553.145 1004.12 554.582 1000.79C556.006 997.354 558.089 994.277 560.679 991.59V991.597ZM604.541 991.597C607.117 994.284 609.152 997.361 610.631 1000.79C612.068 1004.12 612.846 1007.66 612.999 1011.26C605.52 1011.57 598.666 1014.35 593.249 1018.81C592.582 1011.85 589.714 1005.07 584.645 999.576C587.325 997.124 590.388 995.201 593.714 993.805C597.152 992.43 600.791 991.666 604.541 991.59V991.597ZM626.207 1016.42C629.707 1017.88 632.846 1020.01 635.568 1022.67C635.492 1026.4 634.77 1030.03 633.353 1033.45C631.964 1036.78 630.034 1039.84 627.582 1042.52C622.048 1037.41 615.186 1034.52 608.152 1033.87C612.659 1028.46 615.471 1021.59 615.784 1014.06C619.409 1014.22 622.895 1014.99 626.2 1016.43L626.207 1016.42ZM593.311 1066.35C593.242 1062.43 592.478 1058.52 591.027 1054.82L605.103 1068.9L605.131 1068.87L605.159 1068.9L607.11 1066.94L593.068 1052.9C596.742 1054.33 600.624 1055.08 604.513 1055.15C607.131 1057.86 609.193 1060.96 610.686 1064.44C612.068 1067.74 612.881 1071.23 613.048 1074.85C609.395 1074.69 605.874 1073.92 602.534 1072.48C599.089 1071.05 595.999 1068.96 593.311 1066.36V1066.35ZM562.735 1072.47C559.416 1073.86 555.874 1074.67 552.277 1074.84C552.436 1071.22 553.214 1067.74 554.645 1064.44C556.075 1060.99 558.166 1057.9 560.763 1055.21C564.548 1055.15 568.318 1054.44 571.902 1053.1L558.103 1066.9L560.054 1068.85L560.082 1068.82L560.221 1068.96L574.034 1055.15C572.659 1058.78 571.936 1062.6 571.881 1066.43C569.207 1068.99 566.145 1071.01 562.735 1072.47V1072.47ZM571.957 1022.54C572.02 1026.45 572.77 1030.35 574.207 1034.04L560.166 1020L560.138 1020.03L560.11 1020L558.159 1021.95L572.242 1036.03C568.561 1034.59 564.673 1033.83 560.777 1033.76C558.152 1031.06 556.089 1027.94 554.589 1024.46C553.207 1021.16 552.395 1017.64 552.228 1014.06C555.881 1014.21 559.402 1014.98 562.742 1016.42C566.186 1017.85 569.277 1019.94 571.964 1022.54H571.957ZM602.534 1016.42C605.86 1015.03 609.36 1014.22 612.992 1014.06C612.832 1017.67 612.054 1021.15 610.624 1024.46C609.186 1027.92 607.075 1031.03 604.45 1033.74C600.652 1033.81 596.874 1034.53 593.277 1035.89L607.166 1022L605.214 1020.05L605.186 1020.08L605.048 1019.94L591.263 1033.72C592.624 1030.1 593.339 1026.28 593.388 1022.46C596.061 1019.91 599.124 1017.89 602.534 1016.42V1016.42ZM570.77 1040.65C568.388 1039.67 566.179 1038.35 564.145 1036.78C566.686 1037.12 569.166 1037.76 571.548 1038.75C574.089 1039.76 576.423 1041.12 578.561 1042.78C575.874 1042.44 573.27 1041.74 570.763 1040.65H570.77ZM578.714 1046.11C576.548 1047.78 574.179 1049.14 571.659 1050.19C569.235 1051.2 566.714 1051.85 564.124 1052.17C566.173 1050.59 568.409 1049.28 570.818 1048.24C573.346 1047.18 575.999 1046.46 578.707 1046.1L578.714 1046.11ZM594.492 1048.24C596.909 1049.24 599.145 1050.58 601.193 1052.17C598.624 1051.85 596.117 1051.19 593.707 1050.19C591.138 1049.17 588.777 1047.78 586.61 1046.1C589.318 1046.44 591.964 1047.15 594.485 1048.24L594.492 1048.24ZM586.541 1042.78C588.707 1041.12 591.075 1039.75 593.596 1038.69C596.013 1037.73 598.527 1037.07 601.11 1036.73C599.068 1038.31 596.839 1039.62 594.429 1040.65C591.895 1041.71 589.256 1042.43 586.534 1042.78H586.541ZM588.409 1033.45C587.36 1036.1 585.923 1038.52 584.173 1040.73C584.506 1037.93 585.221 1035.21 586.346 1032.62C587.381 1030.13 588.756 1027.84 590.416 1025.74C590.096 1028.39 589.443 1030.97 588.409 1033.45ZM576.964 1033.45C575.999 1031.03 575.339 1028.52 574.999 1025.94C576.575 1027.98 577.888 1030.21 578.923 1032.62C579.985 1035.15 580.7 1037.79 581.054 1040.51C579.388 1038.35 578.02 1035.98 576.964 1033.46V1033.45ZM559.561 1036.53C562.367 1039.24 565.652 1041.46 569.277 1043.06H549.388V1045.85H569.332C565.686 1047.45 562.381 1049.69 559.561 1052.42C555.832 1052.34 552.2 1051.62 548.777 1050.2C545.395 1048.86 542.374 1046.9 539.7 1044.43C542.353 1042.02 545.381 1040.13 548.666 1038.76C552.124 1037.32 555.791 1036.6 559.561 1036.53V1036.53ZM576.853 1055.44C577.902 1052.8 579.339 1050.37 581.089 1048.17C580.756 1050.96 580.041 1053.68 578.916 1056.28C577.881 1058.76 576.506 1061.06 574.846 1063.16C575.166 1060.51 575.818 1057.92 576.853 1055.44V1055.44ZM588.298 1055.5C589.298 1057.9 589.943 1060.4 590.27 1062.96C588.693 1060.92 587.381 1058.69 586.339 1056.28C585.291 1053.77 584.582 1051.14 584.214 1048.45C585.874 1050.62 587.235 1052.98 588.291 1055.49L588.298 1055.5ZM605.777 1052.42C602.957 1049.68 599.652 1047.44 595.999 1045.85H615.867V1043.06H595.943C599.596 1041.46 602.895 1039.21 605.714 1036.49C609.436 1036.56 613.061 1037.28 616.478 1038.7C619.874 1040.05 622.909 1042.03 625.589 1044.5C622.929 1046.92 619.888 1048.82 616.596 1050.2C613.159 1051.58 609.52 1052.34 605.777 1052.42V1052.42ZM588.409 1010.56C589.818 1013.95 590.534 1017.54 590.624 1021.24C587.936 1023.99 585.721 1027.2 584.11 1030.75V1011.23H581.152V1030.75C579.561 1027.25 577.388 1024.07 574.749 1021.34C574.825 1017.61 575.541 1013.98 576.964 1010.56C578.298 1007.2 580.242 1004.19 582.686 1001.53C585.117 1004.2 587.027 1007.25 588.409 1010.56V1010.56ZM576.853 1078.33C575.499 1074.94 574.735 1071.37 574.638 1067.68C577.325 1064.93 579.541 1061.71 581.152 1058.17V1077.67H584.11V1058.17C585.7 1061.67 587.874 1064.85 590.513 1067.57C590.443 1071.31 589.721 1074.95 588.298 1078.39C586.971 1081.74 585.034 1084.73 582.603 1087.38C580.159 1084.71 578.242 1081.65 576.853 1078.33V1078.33ZM644.791 1044.45C644.791 1048.58 644.006 1052.55 642.388 1056.28C641.304 1058.89 639.846 1061.29 638.075 1063.47C637.36 1056.6 634.513 1049.9 629.527 1044.48C634.527 1039.06 637.395 1032.37 638.124 1025.5C639.853 1027.67 641.284 1030.04 642.388 1032.62C643.95 1036.36 644.791 1040.32 644.791 1044.45ZM626.645 1000.52C629.548 1003.42 631.784 1006.83 633.346 1010.57C634.436 1013.19 635.11 1015.93 635.402 1018.74C630.02 1014.33 623.221 1011.58 615.784 1011.27C615.485 1003.89 612.791 997.131 608.45 991.763C611.256 992.062 613.985 992.736 616.596 993.819C620.395 995.326 623.742 997.618 626.645 1000.52V1000.52ZM582.603 982.208C586.679 982.208 590.7 982.993 594.436 984.611C597.068 985.701 599.492 987.187 601.693 988.979C594.791 989.694 588.068 992.562 582.631 997.583C577.159 992.555 570.409 989.701 563.478 989.013C565.686 987.222 568.124 985.749 570.77 984.604C574.513 983.041 578.527 982.201 582.603 982.201V982.208ZM538.728 1000.52C541.631 997.618 545.034 995.381 548.777 993.819C551.339 992.798 554.006 992.111 556.749 991.798C552.416 997.166 549.721 1003.91 549.423 1011.28C542.075 1011.6 535.339 1014.31 529.978 1018.67C530.277 1015.88 530.95 1013.17 532.027 1010.58C533.534 1006.78 535.825 1003.43 538.728 1000.53V1000.52ZM520.471 1044.45C520.471 1040.32 521.256 1036.35 522.874 1032.62C523.957 1030.01 525.416 1027.62 527.179 1025.44C527.881 1032.33 530.735 1039.04 535.735 1044.48C530.742 1049.89 527.881 1056.56 527.145 1063.41C525.409 1061.24 523.985 1058.87 522.874 1056.28C521.311 1052.54 520.471 1048.53 520.471 1044.45V1044.45ZM538.617 1088.44C535.714 1085.53 533.478 1082.13 531.916 1078.39C530.818 1075.74 530.138 1072.98 529.846 1070.14C535.235 1074.56 542.034 1077.31 549.478 1077.62C549.777 1085.03 552.499 1091.81 556.881 1097.19C554.054 1096.9 551.298 1096.23 548.666 1095.13C544.867 1093.62 541.52 1091.33 538.617 1088.43V1088.44ZM582.659 1106.69C578.527 1106.69 574.561 1105.91 570.825 1104.29C568.214 1103.21 565.811 1101.74 563.631 1099.97C570.513 1099.25 577.207 1096.38 582.638 1091.37C588.089 1096.38 594.825 1099.24 601.735 1099.94C599.541 1101.71 597.124 1103.17 594.499 1104.3C590.756 1105.86 586.798 1106.7 582.666 1106.7L582.659 1106.69ZM616.485 1095.08C613.923 1096.15 611.249 1096.81 608.506 1097.12C612.846 1091.75 615.541 1085 615.839 1077.62C623.186 1077.31 629.923 1074.59 635.284 1070.24C634.985 1073.02 634.311 1075.74 633.235 1078.33C631.728 1082.12 629.436 1085.47 626.534 1088.37C623.631 1091.28 620.228 1093.51 616.485 1095.08V1095.08Z" fill="#222222" stroke="#222222" stroke-width="0.694444"/>
<path d="M1206.49 377.517H1206.3C1202.47 384.108 1195.31 387.352 1187.86 387.352C1171.58 387.352 1159.03 375.355 1159.03 358.932C1159.03 342.509 1171.38 330.017 1187.86 330.017C1195.12 330.017 1202.27 332.97 1206.3 339.166H1206.49V331.496H1216.69V385.978H1206.49V377.517ZM1187.86 339.355C1177.07 339.355 1169.23 348.206 1169.23 358.829C1169.23 369.451 1177.37 378.006 1187.76 378.006C1198.16 378.006 1206.69 369.352 1206.69 358.829C1206.69 348.305 1198.94 339.355 1187.86 339.355Z" fill="#222222"/>
<path d="M1256.83 387.348C1249.57 387.348 1241.63 384.594 1237.7 378.105H1237.51V404.167H1227.31V331.487H1236.62V339.844H1236.82C1241.33 333.351 1248.39 330.008 1256.14 330.008C1272.91 330.008 1284.29 342.99 1284.29 359.413C1284.29 374.852 1272.42 387.343 1256.83 387.343L1256.83 387.348ZM1255.46 339.355C1244.96 339.355 1237.31 348.404 1237.31 358.631C1237.31 368.858 1244.96 378.006 1255.75 378.006C1266.54 378.006 1274.09 369.253 1274.09 358.829C1274.09 348.404 1265.95 339.355 1255.46 339.355Z" fill="#222222"/>
<path d="M1322.79 387.348C1315.53 387.348 1307.59 384.594 1303.66 378.105H1303.47V404.167H1293.27V331.487H1302.59V339.844H1302.78C1307.29 333.351 1314.36 330.008 1322.1 330.008C1338.87 330.008 1350.25 342.99 1350.25 359.413C1350.25 374.852 1338.38 387.343 1322.79 387.343L1322.79 387.348ZM1321.42 339.355C1310.92 339.355 1303.28 348.404 1303.28 358.631C1303.28 368.858 1310.92 378.006 1321.71 378.006C1332.5 378.006 1340.05 369.253 1340.05 358.829C1340.05 348.404 1331.91 339.355 1321.42 339.355Z" fill="#222222"/>
<path d="M1375.41 342.504C1370.61 344.962 1369.43 351.257 1369.43 356.173V385.973H1359.23V331.491H1368.74V336.407H1368.94C1372.27 331.684 1377.27 330.211 1382.77 330.013V340.536C1380.51 340.536 1377.37 341.422 1375.41 342.504Z" fill="#222222"/>
<path d="M1439.81 363.156H1394.8C1396.86 371.612 1403.72 378.006 1412.64 378.006C1419.02 378.006 1425.2 374.564 1428.14 368.858H1438.33C1434.22 379.97 1424.11 387.348 1412.25 387.348C1396.76 387.348 1384.6 373.872 1384.6 358.631C1384.6 343.39 1396.56 330.013 1412.45 330.013C1428.33 330.013 1440.1 342.698 1440.1 358.042C1440.1 359.714 1440 361.484 1439.8 363.156H1439.81ZM1412.35 339.355C1403.53 339.355 1395.39 346.337 1394.8 355.288H1429.91C1429.32 346.337 1421.18 339.355 1412.35 339.355Z" fill="#222222"/>
<path d="M1473.71 387.348C1457.53 387.348 1445.86 374.564 1445.86 358.631C1445.86 342.698 1457.72 330.013 1473.81 330.013C1485.48 330.013 1497.44 337.881 1500.48 349.586H1489.2C1486.16 343.192 1481.16 339.359 1473.91 339.359C1462.73 339.359 1456.06 347.914 1456.06 358.636C1456.06 369.357 1462.83 378.011 1473.72 378.011C1480.68 378.011 1486.27 374.272 1489.11 367.977H1500.49C1496.47 379.682 1486.17 387.352 1473.72 387.352L1473.71 387.348Z" fill="#222222"/>
<path d="M1508.74 325.192V313.194H1518.94V325.192H1508.74ZM1508.74 385.969V331.487H1518.94V385.969H1508.74Z" fill="#222222"/>
<path d="M1575.35 377.517H1575.16C1571.33 384.108 1564.18 387.352 1556.72 387.352C1540.44 387.352 1527.89 375.355 1527.89 358.932C1527.89 342.509 1540.25 330.017 1556.72 330.017C1563.98 330.017 1571.13 332.97 1575.16 339.166H1575.35V331.496H1585.55V385.978H1575.35V377.517ZM1556.72 339.355C1545.94 339.355 1538.09 348.206 1538.09 358.829C1538.09 369.451 1546.23 378.006 1556.63 378.006C1567.02 378.006 1575.55 369.352 1575.55 358.829C1575.55 348.305 1567.8 339.355 1556.72 339.355Z" fill="#222222"/>
<path d="M1609.73 340.833V385.973H1599.53V340.833H1592.17V331.491H1599.53V313.199H1609.73V331.491H1618.65V340.833H1609.73Z" fill="#222222"/>
<path d="M1675.4 363.156H1630.39C1632.45 371.612 1639.32 378.006 1648.24 378.006C1654.61 378.006 1660.79 374.564 1663.73 368.858H1673.93C1669.81 379.97 1659.71 387.348 1647.84 387.348C1632.35 387.348 1620.19 373.872 1620.19 358.631C1620.19 343.39 1632.15 330.013 1648.04 330.013C1663.93 330.013 1675.69 342.698 1675.69 358.042C1675.69 359.714 1675.6 361.484 1675.4 363.156H1675.4ZM1647.95 339.355C1639.12 339.355 1630.98 346.337 1630.39 355.288H1665.5C1664.91 346.337 1656.77 339.355 1647.95 339.355Z" fill="#222222"/>
<path d="M1454.94 177.569C1454.01 177.569 1453.07 177.604 1452.13 177.68C1452.21 176.757 1452.24 175.84 1452.24 174.923C1452.24 155.673 1436.58 140.014 1417.33 140.014C1398.08 140.014 1382.43 155.673 1382.43 174.916C1382.43 175.833 1382.47 176.757 1382.54 177.673C1381.62 177.597 1380.7 177.562 1379.78 177.562C1360.53 177.562 1344.88 193.222 1344.88 212.472C1344.88 231.722 1360.53 247.382 1379.78 247.382C1380.7 247.382 1381.62 247.347 1382.55 247.271C1382.47 248.208 1382.44 249.146 1382.44 250.083C1382.44 269.333 1398.1 284.993 1417.35 284.993C1436.6 284.993 1452.26 269.333 1452.26 250.083C1452.26 249.146 1452.22 248.208 1452.15 247.271C1453.08 247.347 1454.02 247.382 1454.96 247.382C1474.21 247.382 1489.87 231.722 1489.87 212.472C1489.87 193.222 1474.21 177.562 1454.96 177.562L1454.94 177.569ZM1454.94 244.444C1452.81 244.444 1450.72 244.229 1448.69 243.833C1449.09 245.854 1449.3 247.944 1449.3 250.09C1449.3 267.764 1434.95 282.055 1417.33 282.055C1399.72 282.055 1385.37 267.764 1385.37 250.09C1385.37 247.951 1385.58 245.861 1385.99 243.84C1383.98 244.236 1381.9 244.444 1379.78 244.444C1362.11 244.444 1347.82 230.097 1347.82 212.479C1347.82 194.861 1362.16 180.507 1379.78 180.507C1381.9 180.507 1383.97 180.722 1385.97 181.111C1385.57 179.104 1385.36 177.035 1385.36 174.916C1385.36 157.243 1399.71 142.951 1417.33 142.951C1434.94 142.951 1449.29 157.243 1449.29 174.916C1449.29 177.035 1449.08 179.111 1448.69 181.118C1450.71 180.715 1452.8 180.507 1454.94 180.507C1472.61 180.507 1486.9 194.854 1486.9 212.472C1486.9 230.09 1472.56 244.437 1454.94 244.437L1454.94 244.444Z" fill="#222222"/>
<path d="M1409.06 199.666V180.507H1411.75V203.673C1413.57 204.021 1415.44 204.201 1417.34 204.201C1419.24 204.201 1421.14 204.007 1422.98 203.646V180.507H1425.67V199.632C1429.41 191.104 1436.76 184.528 1445.8 181.84C1446.34 179.597 1446.62 177.291 1446.62 174.923C1446.62 170.951 1445.87 167.132 1444.31 163.535C1442.8 160.041 1440.71 156.923 1438.02 154.243C1435.33 151.562 1432.22 149.41 1428.73 147.958C1425.13 146.403 1421.31 145.646 1417.34 145.646C1413.37 145.646 1409.55 146.451 1405.95 147.958C1402.46 149.465 1399.34 151.555 1396.66 154.243C1393.98 156.93 1391.83 160.048 1390.37 163.535C1388.82 167.132 1388.06 170.951 1388.06 174.923C1388.06 177.264 1388.35 179.583 1388.91 181.847C1397.95 184.541 1405.32 191.139 1409.07 199.673L1409.06 199.666Z" fill="#222222"/>
<path d="M1443.56 239.444C1443.97 239.625 1444.38 239.784 1444.8 239.944C1444.65 239.528 1444.49 239.104 1444.31 238.694C1442.81 235.201 1440.72 232.083 1438.03 229.403C1435.34 226.715 1432.22 224.569 1428.74 223.118C1428.33 222.937 1427.91 222.778 1427.49 222.618C1427.65 223.034 1427.81 223.458 1427.98 223.868C1429.49 227.361 1431.58 230.479 1434.26 233.159C1436.95 235.847 1440.07 237.993 1443.56 239.444Z" fill="#222222"/>
<path d="M1422.98 206.889H1411.75V218.118H1422.98V206.889Z" fill="#222222"/>
<path d="M1390.36 238.694C1390.18 239.111 1390.01 239.534 1389.85 239.958C1390.3 239.798 1390.74 239.625 1391.17 239.444C1394.66 237.937 1397.78 235.847 1400.46 233.159C1403.15 230.472 1405.29 227.354 1406.74 223.868C1406.92 223.451 1407.09 223.028 1407.25 222.604C1406.81 222.764 1406.37 222.937 1405.94 223.118C1402.44 224.625 1399.33 226.715 1396.65 229.403C1393.96 232.09 1391.81 235.208 1390.36 238.694Z" fill="#222222"/>
<path d="M1391.17 185.5C1390.73 185.312 1390.28 185.132 1389.84 184.965C1390.01 185.416 1390.18 185.861 1390.36 186.305C1391.87 189.798 1393.96 192.916 1396.65 195.597C1399.33 198.284 1402.45 200.43 1405.94 201.882C1406.37 202.069 1406.82 202.25 1407.26 202.416C1407.1 201.965 1406.92 201.521 1406.74 201.076C1405.24 197.583 1403.15 194.465 1400.46 191.784C1397.77 189.097 1394.65 186.951 1391.17 185.5Z" fill="#222222"/>
<path d="M1427.97 201.083C1427.78 201.514 1427.61 201.951 1427.44 202.389C1427.87 202.229 1428.3 202.069 1428.72 201.889C1432.22 200.382 1435.33 198.291 1438.01 195.604C1440.7 192.916 1442.85 189.798 1444.3 186.312C1444.49 185.882 1444.66 185.444 1444.83 185.007C1444.4 185.166 1443.97 185.326 1443.55 185.507C1440.06 187.014 1436.94 189.104 1434.26 191.791C1431.57 194.479 1429.42 197.597 1427.97 201.083Z" fill="#222222"/>
<path d="M1404.51 220.798H1385.37V218.111H1408.52C1408.87 216.271 1409.06 214.389 1409.06 212.472C1409.06 210.555 1408.87 208.708 1408.51 206.882H1385.37V204.194H1404.49C1395.94 200.444 1389.36 193.069 1386.69 184C1384.45 183.458 1382.15 183.187 1379.78 183.187C1375.81 183.187 1371.99 183.993 1368.4 185.5C1364.9 187.007 1361.78 189.097 1359.1 191.784C1356.42 194.472 1354.27 197.59 1352.82 201.076C1351.26 204.673 1350.51 208.493 1350.51 212.465C1350.51 216.437 1351.31 220.257 1352.82 223.854C1354.33 227.347 1356.42 230.465 1359.1 233.146C1361.79 235.833 1364.91 237.979 1368.4 239.43C1371.99 240.986 1375.81 241.743 1379.78 241.743C1382.16 241.743 1384.47 241.451 1386.72 240.903C1389.42 231.875 1396 224.528 1404.52 220.791L1404.51 220.798Z" fill="#222222"/>
<path d="M1425.66 225.319V244.444H1422.97V221.34C1421.13 220.986 1419.25 220.805 1417.33 220.805C1415.42 220.805 1413.57 220.993 1411.74 221.354V244.444H1409.06V225.305C1405.31 233.854 1397.92 240.437 1388.88 243.118C1388.32 245.375 1388.05 247.701 1388.05 250.083C1388.05 254.007 1388.85 257.875 1390.36 261.472C1391.87 264.965 1393.96 268.083 1396.65 270.764C1399.33 273.451 1402.45 275.597 1405.94 277.048C1409.53 278.604 1413.35 279.361 1417.33 279.361C1421.3 279.361 1425.12 278.555 1428.72 277.048C1432.21 275.541 1435.33 273.451 1438.01 270.764C1440.69 268.076 1442.84 264.958 1444.29 261.472C1445.85 257.875 1446.6 254.055 1446.6 250.083C1446.6 247.722 1446.31 245.375 1445.74 243.097C1436.72 240.403 1429.38 233.833 1425.65 225.319H1425.66Z" fill="#222222"/>
<path d="M1481.91 201.083C1480.4 197.59 1478.31 194.472 1475.62 191.791C1472.94 189.104 1469.82 186.958 1466.33 185.507C1462.74 183.951 1458.92 183.194 1454.94 183.194C1452.56 183.194 1450.23 183.493 1447.97 184.048C1445.28 193.083 1438.7 200.451 1430.17 204.201H1449.31V206.889H1426.19C1425.85 208.708 1425.67 210.576 1425.67 212.479C1425.67 214.382 1425.86 216.278 1426.22 218.118H1449.31V220.805H1430.18C1438.71 224.541 1445.28 231.889 1447.97 240.923C1450.22 241.479 1452.56 241.757 1454.94 241.757C1458.87 241.757 1462.74 241.007 1466.33 239.444C1469.83 237.937 1472.94 235.847 1475.62 233.159C1478.31 230.472 1480.46 227.354 1481.91 223.868C1483.47 220.271 1484.22 216.451 1484.22 212.479C1484.22 208.507 1483.42 204.687 1481.91 201.09V201.083Z" fill="#222222"/>
<path d="M1206.49 793.489H1206.3C1202.47 800.081 1195.31 803.325 1187.86 803.325C1171.58 803.325 1159.03 791.328 1159.03 774.905C1159.03 758.482 1171.38 745.99 1187.86 745.99C1195.12 745.99 1202.27 748.942 1206.3 755.139H1206.49V747.468H1216.69V801.95H1206.49V793.489ZM1187.86 755.327C1177.07 755.327 1169.23 764.179 1169.23 774.801C1169.23 785.424 1177.37 793.979 1187.76 793.979C1198.16 793.979 1206.69 785.325 1206.69 774.801C1206.69 764.278 1198.94 755.327 1187.86 755.327Z" fill="#222222"/>
<path d="M1256.83 803.321C1249.57 803.321 1241.63 800.566 1237.7 794.078H1237.51V820.139H1227.31V747.459H1236.62V755.817H1236.82C1241.33 749.324 1248.39 745.981 1256.14 745.981C1272.91 745.981 1284.29 758.962 1284.29 775.386C1284.29 790.825 1272.42 803.316 1256.83 803.316L1256.83 803.321ZM1255.46 755.327C1244.96 755.327 1237.31 764.377 1237.31 774.604C1237.31 784.831 1244.96 793.979 1255.75 793.979C1266.54 793.979 1274.09 785.226 1274.09 774.801C1274.09 764.377 1265.95 755.327 1255.46 755.327Z" fill="#222222"/>
<path d="M1322.79 803.321C1315.53 803.321 1307.59 800.566 1303.66 794.078H1303.47V820.139H1293.27V747.459H1302.59V755.817H1302.78C1307.29 749.324 1314.36 745.981 1322.1 745.981C1338.87 745.981 1350.25 758.962 1350.25 775.386C1350.25 790.825 1338.38 803.316 1322.79 803.316L1322.79 803.321ZM1321.42 755.327C1310.92 755.327 1303.28 764.377 1303.28 774.604C1303.28 784.831 1310.92 793.979 1321.71 793.979C1332.5 793.979 1340.05 785.226 1340.05 774.801C1340.05 764.377 1331.91 755.327 1321.42 755.327Z" fill="#222222"/>
<path d="M1375.41 758.477C1370.61 760.935 1369.43 767.23 1369.43 772.146V801.946H1359.23V747.464H1368.74V752.38H1368.94C1372.27 747.657 1377.27 746.183 1382.77 745.986V756.509C1380.51 756.509 1377.37 757.394 1375.41 758.477Z" fill="#222222"/>
<path d="M1439.81 779.128H1394.8C1396.86 787.585 1403.72 793.979 1412.64 793.979C1419.02 793.979 1425.2 790.537 1428.14 784.831H1438.33C1434.22 795.943 1424.11 803.321 1412.25 803.321C1396.76 803.321 1384.6 789.845 1384.6 774.604C1384.6 759.362 1396.56 745.986 1412.45 745.986C1428.33 745.986 1440.1 758.67 1440.1 774.015C1440.1 775.687 1440 777.457 1439.8 779.128H1439.81ZM1412.35 755.327C1403.53 755.327 1395.39 762.31 1394.8 771.261H1429.91C1429.32 762.31 1421.18 755.327 1412.35 755.327Z" fill="#222222"/>
<path d="M1473.71 803.321C1457.53 803.321 1445.86 790.537 1445.86 774.604C1445.86 758.67 1457.72 745.986 1473.81 745.986C1485.48 745.986 1497.44 753.853 1500.48 765.559H1489.2C1486.16 759.165 1481.16 755.332 1473.91 755.332C1462.73 755.332 1456.06 763.887 1456.06 774.608C1456.06 785.329 1462.83 793.983 1473.72 793.983C1480.68 793.983 1486.27 790.245 1489.11 783.95H1500.49C1496.47 795.655 1486.17 803.325 1473.72 803.325L1473.71 803.321Z" fill="#222222"/>
<path d="M1508.74 741.164V729.167H1518.94V741.164H1508.74ZM1508.74 801.941V747.459H1518.94V801.941H1508.74Z" fill="#222222"/>
<path d="M1575.35 793.489H1575.16C1571.33 800.081 1564.18 803.325 1556.72 803.325C1540.44 803.325 1527.89 791.328 1527.89 774.905C1527.89 758.482 1540.25 745.99 1556.72 745.99C1563.98 745.99 1571.13 748.942 1575.16 755.139H1575.35V747.468H1585.55V801.95H1575.35V793.489ZM1556.72 755.327C1545.94 755.327 1538.09 764.179 1538.09 774.801C1538.09 785.424 1546.23 793.979 1556.63 793.979C1567.02 793.979 1575.55 785.325 1575.55 774.801C1575.55 764.278 1567.8 755.327 1556.72 755.327Z" fill="#222222"/>
<path d="M1609.73 756.806V801.946H1599.53V756.806H1592.17V747.464H1599.53V729.171H1609.73V747.464H1618.65V756.806H1609.73Z" fill="#222222"/>
<path d="M1675.4 779.128H1630.39C1632.45 787.585 1639.32 793.979 1648.24 793.979C1654.61 793.979 1660.79 790.537 1663.73 784.831H1673.93C1669.81 795.943 1659.71 803.321 1647.84 803.321C1632.35 803.321 1620.19 789.845 1620.19 774.604C1620.19 759.362 1632.15 745.986 1648.04 745.986C1663.93 745.986 1675.69 758.67 1675.69 774.015C1675.69 775.687 1675.6 777.457 1675.4 779.128H1675.4ZM1647.95 755.327C1639.12 755.327 1630.98 762.31 1630.39 771.261H1665.5C1664.91 762.31 1656.77 755.327 1647.95 755.327Z" fill="#222222"/>
<path d="M1476.25 594.459C1470.18 583.945 1459.5 577.293 1447.45 576.424C1440.69 566.348 1429.56 560.383 1417.33 560.383C1405.11 560.383 1394 566.341 1387.24 576.411C1375.22 577.286 1364.56 583.945 1358.48 594.452C1352.4 605.015 1351.99 617.612 1357.27 628.473C1351.99 639.334 1352.4 651.931 1358.47 662.487C1364.53 672.98 1375.19 679.633 1387.23 680.522C1393.99 690.598 1405.12 696.563 1417.33 696.563C1429.54 696.563 1440.66 690.605 1447.43 680.543C1459.46 679.681 1470.15 673.029 1476.25 662.494C1482.31 651.952 1482.73 639.369 1477.44 628.501C1482.74 617.633 1482.33 605.029 1476.25 594.459ZM1473.6 660.959C1467.59 671.348 1456.86 677.258 1445.71 677.563C1439.87 687.126 1429.33 693.508 1417.33 693.508C1405.33 693.508 1394.78 687.112 1388.95 677.549C1377.81 677.216 1367.08 671.299 1361.12 660.959C1355.14 650.563 1355.37 638.286 1360.7 628.473C1355.38 618.654 1355.14 606.376 1361.12 595.987C1367.12 585.612 1377.83 579.709 1388.96 579.383C1394.8 569.82 1405.33 563.438 1417.33 563.438C1429.33 563.438 1439.9 569.82 1445.73 579.397C1456.89 579.716 1467.62 585.633 1473.6 595.987C1479.59 606.39 1479.35 618.681 1474.01 628.501C1479.32 638.313 1479.58 650.577 1473.6 660.966V660.959Z" fill="#222222"/>
<path d="M1447.2 611.209C1452.07 611.549 1456.93 612.973 1461.44 615.577C1465.91 618.161 1469.55 621.626 1472.28 625.633C1473.06 623.98 1473.69 622.265 1474.17 620.487C1475.23 616.688 1475.51 612.786 1475.01 608.876C1474.51 604.855 1473.22 601.008 1471.15 597.431C1469.09 593.918 1466.41 590.841 1463.17 588.39C1460.04 585.987 1456.46 584.258 1452.67 583.251C1450.91 582.786 1449.12 582.48 1447.33 582.334C1449.4 586.668 1450.56 591.522 1450.56 596.647C1450.56 601.772 1449.35 606.813 1447.21 611.209H1447.2Z" fill="#222222"/>
<path d="M1445.35 648.459C1444.96 647.563 1444.54 646.688 1444.08 645.834C1437.4 645.681 1430.88 643.508 1425.42 639.584L1435.19 656.501L1435.06 656.577L1435.08 656.612L1432.68 658.008L1422.94 641.161C1423.58 647.806 1422.19 654.494 1419.03 660.306C1419.52 661.105 1420.06 661.89 1420.62 662.647C1423.08 665.883 1426.09 668.563 1429.66 670.633C1433.23 672.695 1437.08 673.98 1441.1 674.487C1442.11 674.619 1443.12 674.688 1444.12 674.716C1444.57 673.883 1444.98 673.022 1445.35 672.14C1446.96 668.397 1447.75 664.438 1447.75 660.306C1447.75 656.174 1446.91 652.209 1445.35 648.473L1445.35 648.459Z" fill="#222222"/>
<path d="M1405.05 670.619C1408.62 668.556 1411.64 665.876 1414.09 662.633C1414.66 661.876 1415.19 661.098 1415.69 660.306C1412.49 654.452 1411.11 647.73 1411.76 641.056L1401.98 658.001L1399.58 656.605L1399.6 656.57L1399.46 656.494L1409.23 639.591C1403.76 643.501 1397.24 645.661 1390.57 645.806C1390.1 646.668 1389.68 647.549 1389.31 648.452C1387.69 652.195 1386.9 656.154 1386.9 660.286C1386.9 664.418 1387.74 668.383 1389.31 672.119C1389.69 673.001 1390.1 673.862 1390.56 674.695C1391.57 674.668 1392.58 674.591 1393.6 674.466C1397.62 673.966 1401.47 672.681 1405.05 670.612V670.619Z" fill="#222222"/>
<path d="M1389.31 608.487C1389.7 609.397 1390.13 610.279 1390.6 611.133C1397.23 611.286 1403.72 613.424 1409.17 617.306L1399.46 600.501L1399.6 600.424L1399.58 600.39L1401.98 598.994L1411.78 615.973C1411.1 609.265 1412.49 602.515 1415.68 596.647C1415.19 595.848 1414.65 595.063 1414.09 594.306C1411.63 591.07 1408.62 588.39 1405.05 586.32C1401.48 584.258 1397.62 582.973 1393.6 582.466C1392.59 582.334 1391.56 582.258 1390.53 582.237C1390.08 583.07 1389.67 583.931 1389.31 584.813C1387.69 588.556 1386.9 592.515 1386.9 596.647C1386.9 600.779 1387.74 604.744 1389.31 608.48L1389.31 608.487Z" fill="#222222"/>
<path d="M1429.61 586.327C1426.04 588.39 1423.02 591.07 1420.57 594.313C1420.01 595.043 1419.49 595.806 1419 596.577C1422.21 602.424 1423.6 609.154 1422.96 615.834L1432.69 598.994L1435.09 600.39L1435.07 600.424L1435.2 600.501L1425.45 617.376C1430.92 613.459 1437.43 611.293 1444.09 611.133C1444.56 610.272 1444.98 609.39 1445.35 608.48C1446.97 604.737 1447.76 600.779 1447.76 596.647C1447.76 592.515 1446.97 588.549 1445.35 584.813C1444.97 583.931 1444.56 583.07 1444.1 582.237C1443.09 582.265 1442.08 582.341 1441.06 582.466C1437.03 582.966 1433.19 584.251 1429.61 586.32V586.327Z" fill="#222222"/>
<path d="M1426.49 636.904C1429.61 639.306 1433.19 641.036 1436.98 642.043C1438.73 642.508 1440.5 642.806 1442.29 642.959C1441.26 641.487 1440.11 640.098 1438.83 638.806C1436.03 636.015 1432.8 633.786 1429.17 632.272C1426.2 630.987 1423.1 630.237 1419.87 629.98L1419.9 630.029C1421.74 632.647 1423.93 634.966 1426.49 636.904Z" fill="#222222"/>
<path d="M1408.24 636.904C1410.61 635.098 1412.69 632.994 1414.44 630.591L1414.78 629.987C1411.57 630.258 1408.46 631.036 1405.5 632.272C1401.87 633.834 1398.63 636.015 1395.84 638.806C1394.55 640.098 1393.38 641.487 1392.35 642.966C1394.16 642.82 1395.96 642.515 1397.74 642.043C1401.59 640.98 1405.1 639.251 1408.23 636.904H1408.24Z" fill="#222222"/>
<path d="M1408.24 620.043C1405.11 617.64 1401.53 615.911 1397.74 614.904C1395.97 614.438 1394.18 614.133 1392.37 613.987C1393.4 615.466 1394.56 616.855 1395.85 618.147C1398.64 620.938 1401.87 623.168 1405.51 624.681C1408.46 625.959 1411.56 626.709 1414.76 626.973L1414.37 626.286C1412.63 623.931 1410.58 621.827 1408.24 620.049L1408.24 620.043Z" fill="#222222"/>
<path d="M1429.17 624.674C1432.8 623.112 1436.03 620.931 1438.83 618.14C1440.11 616.855 1441.28 615.466 1442.31 613.994C1440.54 614.147 1438.78 614.445 1437.04 614.904C1433.19 615.966 1429.67 617.695 1426.55 620.043C1423.98 621.994 1421.76 624.299 1419.92 626.959C1423.12 626.681 1426.22 625.911 1429.17 624.674H1429.17Z" fill="#222222"/>
<path d="M1417.32 599.661C1416.54 601.313 1415.9 603.036 1415.44 604.806C1414.43 608.605 1414.15 612.508 1414.65 616.418C1415.04 619.536 1415.91 622.543 1417.24 625.411L1417.33 625.577L1417.7 624.945C1418.91 622.223 1419.7 619.369 1420.07 616.424C1420.51 612.515 1420.24 608.612 1419.23 604.813C1418.74 603.022 1418.09 601.306 1417.31 599.668L1417.32 599.661Z" fill="#222222"/>
<path d="M1386.12 614.126C1382.1 614.626 1378.26 615.911 1374.68 617.98C1371.11 620.043 1368.03 622.723 1365.64 625.966C1365.02 626.765 1364.45 627.598 1363.93 628.452C1364.46 629.32 1365.03 630.168 1365.64 630.987C1368.1 634.223 1371.11 636.904 1374.68 638.973C1378.19 641.036 1382.05 642.32 1386.12 642.827C1387.07 642.945 1388.01 643.022 1388.96 643.056C1392.49 637.258 1397.76 632.633 1404.03 629.883H1384.12V627.091H1404.01C1397.74 624.341 1392.48 619.709 1388.95 613.918C1388.01 613.945 1387.07 614.022 1386.13 614.14L1386.12 614.126Z" fill="#222222"/>
<path d="M1417.37 657.216C1418.15 655.584 1418.77 653.897 1419.24 652.14C1420.3 648.341 1420.58 644.438 1420.08 640.529C1419.71 637.654 1418.95 634.869 1417.79 632.209L1417.35 631.438C1415.99 634.327 1415.11 637.376 1414.71 640.529C1414.21 644.383 1414.49 648.341 1415.5 652.14C1415.99 653.904 1416.62 655.598 1417.38 657.216H1417.37Z" fill="#222222"/>
<path d="M1448.6 642.82C1452.62 642.32 1456.46 641.036 1460.04 638.966C1463.56 636.904 1466.63 634.223 1469.03 630.98C1469.65 630.154 1470.23 629.299 1470.76 628.431C1470.24 627.584 1469.68 626.758 1469.08 625.959C1466.62 622.723 1463.61 620.043 1460.04 617.973C1456.47 615.966 1452.62 614.626 1448.65 614.119C1447.68 613.994 1446.71 613.918 1445.74 613.89C1442.21 619.695 1436.96 624.32 1430.68 627.07H1450.55V629.862H1430.68C1436.95 632.612 1442.21 637.237 1445.74 643.043C1446.69 643.015 1447.64 642.938 1448.6 642.813V642.82Z" fill="#222222"/>
<path d="M1417.36 593.897C1420.09 589.876 1423.74 586.397 1428.21 583.813C1432.71 581.23 1437.55 579.813 1442.4 579.459C1441.34 577.931 1440.15 576.494 1438.82 575.161C1436.03 572.369 1432.79 570.14 1429.16 568.626C1425.42 567.008 1421.46 566.223 1417.33 566.223C1413.19 566.223 1409.23 567.063 1405.49 568.626C1401.86 570.188 1398.62 572.369 1395.83 575.161C1394.51 576.487 1393.31 577.924 1392.25 579.445C1397.12 579.793 1401.98 581.209 1406.5 583.806C1410.99 586.404 1414.63 589.883 1417.36 593.89V593.897Z" fill="#222222"/>
<path d="M1373.28 615.577C1377.78 612.987 1382.62 611.563 1387.48 611.216C1385.33 606.813 1384.12 601.876 1384.12 596.654C1384.12 591.431 1385.28 586.674 1387.35 582.341C1385.55 582.487 1383.76 582.793 1381.99 583.258C1378.14 584.32 1374.62 586.049 1371.5 588.397C1368.26 590.855 1365.58 593.869 1363.51 597.438C1361.44 601.008 1360.17 604.862 1359.66 608.883C1359.21 612.737 1359.49 616.695 1360.5 620.494C1360.99 622.286 1361.64 624.001 1362.42 625.647C1365.15 621.64 1368.79 618.168 1373.28 615.584V615.577Z" fill="#222222"/>
<path d="M1387.49 645.73C1382.63 645.383 1377.78 643.959 1373.28 641.369C1368.78 638.779 1365.12 635.299 1362.4 631.279C1361.62 632.938 1360.98 634.674 1360.51 636.459C1359.44 640.258 1359.17 644.161 1359.67 648.07C1360.17 652.091 1361.45 655.938 1363.52 659.515C1365.59 663.091 1368.26 666.105 1371.51 668.556C1374.69 670.959 1378.21 672.688 1382 673.695C1383.76 674.161 1385.56 674.466 1387.36 674.612C1385.28 670.272 1384.12 665.418 1384.12 660.293C1384.12 655.168 1385.33 650.133 1387.49 645.73Z" fill="#222222"/>
<path d="M1417.36 663.043C1414.63 667.063 1410.99 670.543 1406.51 673.126C1402 675.723 1397.13 677.14 1392.27 677.48C1393.33 679.008 1394.51 680.445 1395.84 681.779C1398.63 684.57 1401.87 686.799 1405.5 688.313C1409.24 689.931 1413.2 690.716 1417.33 690.716C1421.46 690.716 1425.43 689.876 1429.17 688.313C1432.8 686.751 1436.03 684.57 1438.83 681.779C1440.16 680.445 1441.35 679.015 1442.42 677.487C1437.57 677.133 1432.72 675.716 1428.22 673.126C1423.74 670.529 1420.09 667.049 1417.36 663.043Z" fill="#222222"/>
<path d="M1461.43 641.369C1456.92 643.98 1452.07 645.404 1447.21 645.758C1449.35 650.147 1450.55 655.077 1450.55 660.293C1450.55 665.508 1449.38 670.279 1447.31 674.612C1449.13 674.466 1450.94 674.161 1452.72 673.688C1456.58 672.626 1460.09 670.897 1463.21 668.549C1466.45 666.091 1469.13 663.077 1471.2 659.508C1473.27 655.938 1474.55 652.084 1475.06 648.063C1475.5 644.154 1475.22 640.251 1474.21 636.452C1473.72 634.661 1473.08 632.945 1472.3 631.299C1469.57 635.306 1465.92 638.779 1461.43 641.362V641.369Z" fill="#222222"/>
<path d="M1206.49 1209.46H1206.3C1202.47 1216.05 1195.31 1219.3 1187.86 1219.3C1171.58 1219.3 1159.03 1207.3 1159.03 1190.88C1159.03 1174.45 1171.38 1161.96 1187.86 1161.96C1195.12 1161.96 1202.27 1164.91 1206.3 1171.11H1206.49V1163.44H1216.69V1217.92H1206.49V1209.46ZM1187.86 1171.3C1177.07 1171.3 1169.23 1180.15 1169.23 1190.77C1169.23 1201.4 1177.37 1209.95 1187.76 1209.95C1198.16 1209.95 1206.69 1201.3 1206.69 1190.77C1206.69 1180.25 1198.94 1171.3 1187.86 1171.3Z" fill="#222222"/>
<path d="M1256.83 1219.29C1249.57 1219.29 1241.63 1216.54 1237.7 1210.05H1237.51V1236.11H1227.31V1163.43H1236.62V1171.79H1236.82C1241.33 1165.3 1248.39 1161.95 1256.14 1161.95C1272.91 1161.95 1284.29 1174.93 1284.29 1191.36C1284.29 1206.8 1272.42 1219.29 1256.83 1219.29L1256.83 1219.29ZM1255.46 1171.3C1244.96 1171.3 1237.31 1180.35 1237.31 1190.58C1237.31 1200.8 1244.96 1209.95 1255.75 1209.95C1266.54 1209.95 1274.09 1201.2 1274.09 1190.77C1274.09 1180.35 1265.95 1171.3 1255.46 1171.3Z" fill="#222222"/>
<path d="M1322.79 1219.29C1315.53 1219.29 1307.59 1216.54 1303.66 1210.05H1303.47V1236.11H1293.27V1163.43H1302.59V1171.79H1302.78C1307.29 1165.3 1314.36 1161.95 1322.1 1161.95C1338.87 1161.95 1350.25 1174.93 1350.25 1191.36C1350.25 1206.8 1338.38 1219.29 1322.79 1219.29L1322.79 1219.29ZM1321.42 1171.3C1310.92 1171.3 1303.28 1180.35 1303.28 1190.58C1303.28 1200.8 1310.92 1209.95 1321.71 1209.95C1332.5 1209.95 1340.05 1201.2 1340.05 1190.77C1340.05 1180.35 1331.91 1171.3 1321.42 1171.3Z" fill="#222222"/>
<path d="M1375.41 1174.45C1370.61 1176.91 1369.43 1183.2 1369.43 1188.12V1217.92H1359.23V1163.44H1368.74V1168.35H1368.94C1372.27 1163.63 1377.27 1162.15 1382.77 1161.96V1172.48C1380.51 1172.48 1377.37 1173.37 1375.41 1174.45Z" fill="#222222"/>
<path d="M1439.81 1195.1H1394.8C1396.86 1203.56 1403.72 1209.95 1412.64 1209.95C1419.02 1209.95 1425.2 1206.51 1428.14 1200.8H1438.33C1434.22 1211.91 1424.11 1219.29 1412.25 1219.29C1396.76 1219.29 1384.6 1205.82 1384.6 1190.58C1384.6 1175.33 1396.56 1161.96 1412.45 1161.96C1428.33 1161.96 1440.1 1174.64 1440.1 1189.99C1440.1 1191.66 1440 1193.43 1439.8 1195.1H1439.81ZM1412.35 1171.3C1403.53 1171.3 1395.39 1178.28 1394.8 1187.23H1429.91C1429.32 1178.28 1421.18 1171.3 1412.35 1171.3Z" fill="#222222"/>
<path d="M1473.71 1219.29C1457.53 1219.29 1445.86 1206.51 1445.86 1190.58C1445.86 1174.64 1457.72 1161.96 1473.81 1161.96C1485.48 1161.96 1497.44 1169.83 1500.48 1181.53H1489.2C1486.16 1175.14 1481.16 1171.3 1473.91 1171.3C1462.73 1171.3 1456.06 1179.86 1456.06 1190.58C1456.06 1201.3 1462.83 1209.96 1473.72 1209.96C1480.68 1209.96 1486.27 1206.22 1489.11 1199.92H1500.49C1496.47 1211.63 1486.17 1219.3 1473.72 1219.3L1473.71 1219.29Z" fill="#222222"/>
<path d="M1508.74 1157.14V1145.14H1518.94V1157.14H1508.74ZM1508.74 1217.91V1163.43H1518.94V1217.91H1508.74Z" fill="#222222"/>
<path d="M1575.35 1209.46H1575.16C1571.33 1216.05 1564.18 1219.3 1556.72 1219.3C1540.44 1219.3 1527.89 1207.3 1527.89 1190.88C1527.89 1174.45 1540.25 1161.96 1556.72 1161.96C1563.98 1161.96 1571.13 1164.91 1575.16 1171.11H1575.35V1163.44H1585.55V1217.92H1575.35V1209.46ZM1556.72 1171.3C1545.94 1171.3 1538.09 1180.15 1538.09 1190.77C1538.09 1201.4 1546.23 1209.95 1556.63 1209.95C1567.02 1209.95 1575.55 1201.3 1575.55 1190.77C1575.55 1180.25 1567.8 1171.3 1556.72 1171.3Z" fill="#222222"/>
<path d="M1609.73 1172.78V1217.92H1599.53V1172.78H1592.17V1163.44H1599.53V1145.14H1609.73V1163.44H1618.65V1172.78H1609.73Z" fill="#222222"/>
<path d="M1675.4 1195.1H1630.39C1632.45 1203.56 1639.32 1209.95 1648.24 1209.95C1654.61 1209.95 1660.79 1206.51 1663.73 1200.8H1673.93C1669.81 1211.91 1659.71 1219.29 1647.84 1219.29C1632.35 1219.29 1620.19 1205.82 1620.19 1190.58C1620.19 1175.33 1632.15 1161.96 1648.04 1161.96C1663.93 1161.96 1675.69 1174.64 1675.69 1189.99C1675.69 1191.66 1675.6 1193.43 1675.4 1195.1H1675.4ZM1647.95 1171.3C1639.12 1171.3 1630.98 1178.28 1630.39 1187.23H1665.5C1664.91 1178.28 1656.77 1171.3 1647.95 1171.3Z" fill="#222222"/>
<path d="M1476.05 1020.17C1475.6 1011.15 1471.88 1002.73 1465.49 996.341C1459.12 989.973 1450.73 986.25 1441.74 985.792C1435.05 979.695 1426.43 976.354 1417.33 976.354C1408.24 976.354 1399.58 979.716 1392.87 985.854C1383.95 986.354 1375.61 990.07 1369.28 996.396C1362.92 1002.76 1359.2 1011.15 1358.74 1020.12C1352.67 1026.81 1349.35 1035.4 1349.35 1044.44C1349.35 1053.49 1352.65 1062.01 1358.67 1068.69C1359.09 1077.74 1362.81 1086.19 1369.23 1092.6C1375.62 1099 1384.05 1102.72 1393.07 1103.16C1399.76 1109.22 1408.34 1112.54 1417.39 1112.54C1426.44 1112.54 1435.08 1109.19 1441.78 1103.09C1450.73 1102.61 1459.09 1098.89 1465.43 1092.54C1471.81 1086.16 1475.53 1077.76 1475.99 1068.76C1482.04 1062.07 1485.36 1053.48 1485.36 1044.44C1485.36 1035.4 1482.06 1026.83 1476.04 1020.16L1476.05 1020.17ZM1472.98 1067.51C1472.83 1075.81 1469.6 1084.06 1463.28 1090.39C1456.99 1096.68 1448.78 1099.91 1440.52 1100.08C1434.53 1105.9 1426.37 1109.48 1417.39 1109.48C1408.4 1109.48 1400.29 1105.92 1394.32 1100.15C1386 1100.01 1377.73 1096.79 1371.39 1090.44C1365.03 1084.09 1361.8 1075.79 1361.69 1067.46C1355.94 1061.49 1352.41 1053.38 1352.41 1044.45C1352.41 1035.53 1355.97 1027.35 1361.75 1021.38C1361.91 1013.1 1365.14 1004.88 1371.44 998.57C1377.72 992.292 1385.9 989.07 1394.14 988.875C1400.13 983.028 1408.32 979.424 1417.33 979.424C1426.35 979.424 1434.51 983.007 1440.49 988.82C1448.78 988.973 1457.01 992.202 1463.33 998.521C1469.67 1004.85 1472.9 1013.12 1473.03 1021.43C1478.78 1027.4 1482.31 1035.51 1482.31 1044.47C1482.31 1053.42 1478.75 1061.56 1472.97 1067.54L1472.98 1067.51Z" fill="#222222"/>
<path d="M1462.28 1046.45C1456.76 1051.51 1449.93 1054.37 1442.94 1055.01C1447.44 1060.43 1450.26 1067.3 1450.58 1074.83C1454.15 1074.66 1457.65 1073.88 1460.94 1072.46C1464.4 1070.97 1467.49 1068.92 1470.19 1066.31C1470.13 1062.55 1469.41 1058.89 1467.97 1055.43C1466.6 1052.14 1464.69 1049.1 1462.28 1046.44L1462.28 1046.45Z" fill="#222222"/>
<path d="M1447.78 1077.63C1440.23 1077.33 1433.34 1074.54 1427.9 1070.04C1427.26 1077.04 1424.4 1083.86 1419.33 1089.38C1421.99 1091.81 1425.03 1093.74 1428.32 1095.07C1431.8 1096.52 1435.51 1097.24 1439.3 1097.29C1441.89 1094.6 1443.97 1091.53 1445.4 1088.09C1446.84 1084.76 1447.62 1081.26 1447.77 1077.62L1447.78 1077.63Z" fill="#222222"/>
<path d="M1415.35 1089.36C1410.28 1083.85 1407.42 1077.06 1406.75 1070.1C1401.34 1074.56 1394.49 1077.33 1387 1077.63C1387.15 1081.26 1387.93 1084.77 1389.37 1088.1C1390.85 1091.56 1392.91 1094.65 1395.51 1097.35C1399.24 1097.26 1402.86 1096.5 1406.28 1095.13C1409.62 1093.74 1412.67 1091.81 1415.35 1089.36Z" fill="#222222"/>
<path d="M1384.21 1074.83C1384.53 1067.34 1387.33 1060.49 1391.82 1055.07C1384.8 1054.42 1377.94 1051.53 1372.42 1046.42C1369.96 1049.1 1368.03 1052.17 1366.65 1055.49C1365.23 1058.9 1364.51 1062.51 1364.43 1066.22C1367.15 1068.88 1370.29 1071.01 1373.79 1072.47C1377.1 1073.9 1380.62 1074.67 1384.21 1074.83Z" fill="#222222"/>
<path d="M1372.47 1042.46C1378 1037.38 1384.83 1034.52 1391.82 1033.88C1387.3 1028.46 1384.47 1021.58 1384.15 1014.06C1380.58 1014.23 1377.08 1015.04 1373.79 1016.42C1370.33 1017.9 1367.24 1019.96 1364.53 1022.56C1364.6 1026.33 1365.32 1029.99 1366.76 1033.44C1368.14 1036.75 1370.04 1039.79 1372.47 1042.46Z" fill="#222222"/>
<path d="M1386.94 1011.26C1394.49 1011.56 1401.39 1014.36 1406.82 1018.88C1407.47 1011.88 1410.34 1005.05 1415.41 999.535C1412.74 997.104 1409.7 995.202 1406.4 993.82C1402.91 992.368 1399.21 991.653 1395.41 991.598C1392.83 994.285 1390.74 997.361 1389.31 1000.8C1387.87 1004.13 1387.1 1007.63 1386.94 1011.27V1011.26Z" fill="#222222"/>
<path d="M1419.37 999.584C1424.44 1005.08 1427.31 1011.85 1427.98 1018.82C1433.4 1014.35 1440.25 1011.58 1447.73 1011.27C1447.58 1007.67 1446.8 1004.12 1445.36 1000.8C1443.88 997.368 1441.85 994.292 1439.27 991.604C1435.53 991.681 1431.89 992.445 1428.44 993.82C1425.12 995.209 1422.05 997.139 1419.37 999.591V999.584Z" fill="#222222"/>
<path d="M1468.08 1033.44C1469.5 1030.02 1470.21 1026.4 1470.29 1022.67C1467.57 1020.01 1464.43 1017.88 1460.93 1016.42C1457.62 1014.99 1454.13 1014.21 1450.51 1014.05C1450.19 1021.58 1447.38 1028.45 1442.88 1033.86C1449.92 1034.51 1456.78 1037.4 1462.31 1042.51C1464.76 1039.83 1466.69 1036.76 1468.08 1033.44L1468.08 1033.44Z" fill="#222222"/>
<path d="M1439.86 1068.87L1439.83 1068.9L1425.76 1054.82C1427.21 1058.52 1427.96 1062.43 1428.04 1066.35C1430.74 1068.95 1433.82 1071.04 1437.26 1072.47C1440.6 1073.92 1444.12 1074.69 1447.78 1074.84C1447.61 1071.22 1446.8 1067.74 1445.42 1064.43C1443.92 1060.96 1441.86 1057.85 1439.24 1055.15C1435.35 1055.08 1431.47 1054.33 1427.8 1052.9L1441.84 1066.94L1439.89 1068.89L1439.86 1068.86V1068.87Z" fill="#222222"/>
<path d="M1387 1074.83C1390.6 1074.67 1394.14 1073.85 1397.46 1072.47C1400.87 1070.99 1403.93 1068.98 1406.6 1066.42C1406.66 1062.59 1407.38 1058.77 1408.76 1055.14L1394.94 1068.95L1394.8 1068.81L1394.78 1068.84L1392.83 1066.89L1406.62 1053.09C1403.04 1054.44 1399.26 1055.15 1395.49 1055.21C1392.89 1057.9 1390.8 1060.99 1389.37 1064.43C1387.94 1067.74 1387.16 1071.22 1387 1074.83Z" fill="#222222"/>
<path d="M1394.86 1020.02L1394.89 1019.99L1408.93 1034.04C1407.49 1030.34 1406.74 1026.44 1406.68 1022.54C1403.99 1019.94 1400.9 1017.85 1397.46 1016.42C1394.12 1014.97 1390.6 1014.19 1386.94 1014.05C1387.12 1017.63 1387.93 1021.15 1389.3 1024.46C1390.8 1027.93 1392.87 1031.04 1395.49 1033.76C1399.39 1033.83 1403.28 1034.59 1406.96 1036.03L1392.87 1021.94L1394.83 1019.99L1394.85 1020.02H1394.86Z" fill="#222222"/>
<path d="M1439.19 1033.74C1441.8 1031.04 1443.92 1027.93 1445.36 1024.46C1446.79 1021.15 1447.57 1017.67 1447.73 1014.06C1444.09 1014.22 1440.59 1015.04 1437.27 1016.42C1433.86 1017.9 1430.8 1019.91 1428.12 1022.47C1428.07 1026.29 1427.36 1030.1 1426 1033.72L1439.78 1019.94L1439.92 1020.08L1439.95 1020.05L1441.9 1022L1428.01 1035.89C1431.61 1034.53 1435.4 1033.81 1439.19 1033.74Z" fill="#222222"/>
<path d="M1398.87 1036.79C1400.9 1038.35 1403.12 1039.66 1405.5 1040.65C1408.01 1041.74 1410.61 1042.44 1413.3 1042.79C1411.16 1041.13 1408.83 1039.76 1406.28 1038.75C1403.9 1037.76 1401.42 1037.12 1398.88 1036.79H1398.87Z" fill="#222222"/>
<path d="M1405.55 1048.24C1403.15 1049.29 1400.91 1050.6 1398.86 1052.18C1401.45 1051.85 1403.97 1051.2 1406.4 1050.2C1408.92 1049.15 1411.28 1047.78 1413.45 1046.12C1410.74 1046.48 1408.08 1047.19 1405.56 1048.25L1405.55 1048.24Z" fill="#222222"/>
<path d="M1435.93 1052.17C1433.87 1050.58 1431.64 1049.24 1429.23 1048.24C1426.71 1047.15 1424.06 1046.45 1421.35 1046.1C1423.51 1047.79 1425.87 1049.18 1428.45 1050.2C1430.86 1051.2 1433.37 1051.85 1435.94 1052.18L1435.93 1052.17Z" fill="#222222"/>
<path d="M1429.17 1040.65C1431.57 1039.61 1433.8 1038.3 1435.85 1036.72C1433.26 1037.06 1430.75 1037.72 1428.33 1038.69C1425.8 1039.74 1423.44 1041.11 1421.28 1042.78C1424 1042.42 1426.64 1041.7 1429.17 1040.65H1429.17Z" fill="#222222"/>
<path d="M1425.15 1025.73C1423.49 1027.83 1422.11 1030.13 1421.08 1032.61C1419.95 1035.22 1419.24 1037.92 1418.9 1040.72C1420.65 1038.51 1422.09 1036.09 1423.14 1033.44C1424.17 1030.97 1424.83 1028.38 1425.15 1025.73Z" fill="#222222"/>
<path d="M1411.69 1033.44C1412.75 1035.97 1414.12 1038.33 1415.78 1040.5C1415.42 1037.78 1414.71 1035.14 1413.65 1032.6C1412.62 1030.2 1411.3 1027.97 1409.73 1025.92C1410.07 1028.51 1410.73 1031.02 1411.69 1033.44V1033.44Z" fill="#222222"/>
<path d="M1374.42 1044.42C1377.1 1046.89 1380.12 1048.85 1383.5 1050.19C1386.93 1051.62 1390.55 1052.33 1394.28 1052.41C1397.1 1049.67 1400.41 1047.44 1404.05 1045.84H1384.11V1043.05H1404C1400.37 1041.46 1397.09 1039.24 1394.28 1036.53C1390.51 1036.59 1386.85 1037.31 1383.39 1038.75C1380.1 1040.13 1377.08 1042.01 1374.42 1044.42Z" fill="#222222"/>
<path d="M1409.58 1063.16C1411.24 1061.06 1412.61 1058.76 1413.65 1056.28C1414.77 1053.67 1415.49 1050.97 1415.82 1048.17C1414.07 1050.38 1412.63 1052.8 1411.58 1055.44C1410.55 1057.92 1409.9 1060.51 1409.58 1063.16Z" fill="#222222"/>
<path d="M1425 1062.97C1424.67 1060.4 1424.02 1057.9 1423.03 1055.5C1421.97 1052.98 1420.61 1050.62 1418.95 1048.46C1419.31 1051.15 1420.03 1053.78 1421.08 1056.29C1422.11 1058.69 1423.43 1060.92 1425.01 1062.97L1425 1062.97Z" fill="#222222"/>
<path d="M1460.33 1044.49C1457.65 1042.01 1454.61 1040.04 1451.21 1038.69C1447.79 1037.27 1444.17 1036.56 1440.45 1036.48C1437.63 1039.22 1434.33 1041.45 1430.68 1043.05H1450.6V1045.84H1430.74C1434.39 1047.44 1437.69 1049.68 1440.51 1052.41C1444.26 1052.33 1447.9 1051.57 1451.33 1050.19C1454.63 1048.82 1457.67 1046.92 1460.33 1044.49Z" fill="#222222"/>
<path d="M1417.42 1001.54C1414.98 1004.19 1413.03 1007.2 1411.69 1010.56C1410.27 1013.98 1409.55 1017.61 1409.48 1021.34C1412.12 1024.07 1414.3 1027.24 1415.88 1030.75V1011.23H1418.84V1030.75C1420.45 1027.2 1422.67 1023.99 1425.35 1021.24C1425.26 1017.54 1424.55 1013.96 1423.14 1010.56C1421.76 1007.25 1419.85 1004.21 1417.42 1001.54V1001.54Z" fill="#222222"/>
<path d="M1417.33 1087.38C1419.76 1084.73 1421.7 1081.73 1423.03 1078.39C1424.46 1074.95 1425.17 1071.31 1425.24 1067.57C1422.6 1064.85 1420.42 1061.67 1418.84 1058.17V1077.67H1415.88V1058.17C1414.27 1061.72 1412.06 1064.93 1409.37 1067.68C1409.46 1071.37 1410.23 1074.94 1411.58 1078.33C1412.97 1081.65 1414.89 1084.71 1417.33 1087.38Z" fill="#222222"/>
<path d="M1477.12 1032.61C1476.01 1030.04 1474.58 1027.66 1472.85 1025.49C1472.12 1032.37 1469.26 1039.06 1464.26 1044.47C1469.24 1049.9 1472.09 1056.59 1472.8 1063.47C1474.58 1061.29 1476.03 1058.88 1477.12 1056.28C1478.74 1052.54 1479.52 1048.58 1479.52 1044.44C1479.52 1040.31 1478.68 1036.35 1477.12 1032.61Z" fill="#222222"/>
<path d="M1470.13 1018.73C1469.84 1015.92 1469.16 1013.18 1468.08 1010.56C1466.51 1006.82 1464.28 1003.42 1461.37 1000.51C1458.47 997.611 1455.12 995.32 1451.33 993.813C1448.71 992.729 1445.98 992.056 1443.18 991.757C1447.52 997.132 1450.21 1003.88 1450.51 1011.26C1457.95 1011.58 1464.75 1014.32 1470.13 1018.73Z" fill="#222222"/>
<path d="M1436.42 988.973C1434.22 987.181 1431.8 985.695 1429.17 984.604C1425.42 982.986 1421.41 982.202 1417.33 982.202C1413.26 982.202 1409.24 983.042 1405.5 984.604C1402.85 985.743 1400.42 987.216 1398.21 989.014C1405.14 989.695 1411.9 992.556 1417.36 997.584C1422.8 992.563 1429.52 989.695 1436.42 988.979V988.973Z" fill="#222222"/>
<path d="M1391.48 991.785C1388.74 992.104 1386.06 992.785 1383.51 993.806C1379.76 995.368 1376.36 997.604 1373.46 1000.51C1370.55 1003.41 1368.26 1006.76 1366.76 1010.56C1365.68 1013.15 1365.01 1015.86 1364.71 1018.65C1370.07 1014.29 1376.8 1011.58 1384.15 1011.26C1384.45 1003.89 1387.15 997.146 1391.48 991.778V991.785Z" fill="#222222"/>
<path d="M1361.91 1025.43C1360.15 1027.61 1358.68 1030.01 1357.6 1032.61C1355.99 1036.35 1355.2 1040.31 1355.2 1044.44C1355.2 1048.58 1356.04 1052.54 1357.6 1056.28C1358.71 1058.86 1360.15 1061.24 1361.87 1063.4C1362.61 1056.55 1365.47 1049.88 1370.46 1044.47C1365.46 1039.04 1362.62 1032.32 1361.91 1025.43Z" fill="#222222"/>
<path d="M1364.58 1070.13C1364.87 1072.97 1365.54 1075.74 1366.65 1078.38C1368.21 1082.13 1370.44 1085.53 1373.35 1088.43C1376.25 1091.33 1379.6 1093.63 1383.4 1095.13C1386.03 1096.23 1388.78 1096.9 1391.61 1097.19C1387.23 1091.81 1384.51 1085.02 1384.21 1077.63C1376.76 1077.31 1369.96 1074.56 1364.58 1070.14V1070.13Z" fill="#222222"/>
<path d="M1398.36 1099.97C1400.55 1101.74 1402.95 1103.2 1405.55 1104.29C1409.3 1105.9 1413.26 1106.69 1417.39 1106.69C1421.52 1106.69 1425.49 1105.85 1429.22 1104.29C1431.85 1103.15 1434.26 1101.7 1436.46 1099.92C1429.55 1099.23 1422.82 1096.38 1417.36 1091.36C1411.94 1096.37 1405.24 1099.24 1398.35 1099.96L1398.36 1099.97Z" fill="#222222"/>
<path d="M1443.24 1097.11C1445.98 1096.81 1448.66 1096.14 1451.21 1095.08C1454.96 1093.51 1458.36 1091.28 1461.26 1088.38C1464.17 1085.47 1466.46 1082.13 1467.96 1078.33C1469.04 1075.73 1469.71 1073.02 1470.01 1070.24C1464.65 1074.59 1457.92 1077.3 1450.57 1077.63C1450.27 1085 1447.58 1091.74 1443.24 1097.12V1097.11Z" fill="#222222"/>
</g>
<defs>
<clipPath id="clip0_248_59733">
<rect width="2000" height="1400" fill="white"/>
</clipPath>
</defs>
</svg>
