<svg width="24" height="24" viewBox="0 0 24 24" fill="none" xmlns="http://www.w3.org/2000/svg">
<path d="M12.94 12L20.47 4.46996C20.73 4.20996 20.73 3.78996 20.47 3.52996C20.21 3.26996 19.79 3.26996 19.53 3.52996L12 11.06L4.46996 3.52996C4.20996 3.26996 3.78996 3.26996 3.52996 3.52996C3.26996 3.78996 3.26996 4.20996 3.52996 4.46996L11.06 12L3.52996 19.53C3.26996 19.79 3.26996 20.21 3.52996 20.47C3.65996 20.6 3.82996 20.66 3.99996 20.66C4.16996 20.66 4.33996 20.59 4.46996 20.47L12 12.94L19.53 20.47C19.66 20.6 19.83 20.66 20 20.66C20.17 20.66 20.34 20.59 20.47 20.47C20.73 20.21 20.73 19.79 20.47 19.53L12.94 12Z" fill="#222222"/>
</svg>
