<svg width="98" height="98" viewBox="0 0 98 98" fill="none" xmlns="http://www.w3.org/2000/svg">
<rect width="98" height="98" fill="#222222"/>
<path d="M50.2004 12.0329C49.7976 12.0164 49.4029 12 49 12C48.5971 12 48.1942 12.0164 47.7996 12.0329V47.7996H12.0329C12.0164 48.2024 12 48.5971 12 49C12 49.4029 12.0164 49.8058 12.0329 50.2004H47.7996V85.9671C48.2024 85.9836 48.5971 86 49 86C49.4029 86 49.8058 85.9836 50.2004 85.9671V50.2004H85.9671C85.9836 49.7976 86 49.4029 86 49C86 48.5971 85.9836 48.1942 85.9671 47.7996H50.2004V12.0329Z" fill="white"/>
</svg>
