<svg width="600" height="525" viewBox="0 0 600 525" fill="none" xmlns="http://www.w3.org/2000/svg">
<rect width="600" height="525" rx="4.88661" fill="white"/>
<g clip-path="url(#clip0_1386_10907)">
<rect width="600" height="525" fill="#6219FF"/>
<path d="M142.766 104.877C186.086 104.877 221.21 69.7524 221.21 26.4327C221.21 -16.8871 186.086 -52.0117 142.766 -52.0117C99.446 -52.0117 64.3398 -16.8871 64.3398 26.4327C64.3398 69.7524 99.4645 104.877 142.766 104.877Z" stroke="#F3F3F3" stroke-width="3.40761" stroke-miterlimit="10"/>
<path d="M613.378 -52.0293C599.092 -52.0293 585.692 -48.2086 574.156 -41.5454C550.715 -27.9792 534.934 -2.61856 534.934 26.4151C534.934 55.4487 550.715 80.8094 574.156 94.3756C585.692 101.057 599.073 104.859 613.378 104.859" stroke="#F3F3F3" stroke-width="3.40761" stroke-miterlimit="10"/>
<path d="M299.636 104.877C342.956 104.877 378.062 69.7524 378.062 26.4327C378.062 -16.8871 342.937 -52.0117 299.636 -52.0117C256.334 -52.0117 221.191 -16.8871 221.191 26.4327C221.191 69.7524 256.316 104.877 299.636 104.877Z" stroke="#F3F3F3" stroke-width="3.40761" stroke-miterlimit="10"/>
<path d="M534.946 -52.0293H378.076V104.859H534.946V-52.0293Z" stroke="#F3F3F3" stroke-width="3.40761" stroke-miterlimit="10"/>
<path d="M378.078 104.877C421.398 104.877 456.504 69.7524 456.504 26.4327C456.504 -16.8871 421.38 -52.0117 378.078 -52.0117C334.777 -52.0117 299.652 -16.8871 299.652 26.4327C299.652 69.7524 334.777 104.877 378.078 104.877Z" stroke="#F3F3F3" stroke-width="3.40761" stroke-miterlimit="10"/>
<path d="M64.3382 104.877C107.658 104.877 142.783 69.7524 142.783 26.4327C142.783 -16.8871 107.658 -52.0117 64.3382 -52.0117C21.0185 -52.0117 -14.0879 -16.8871 -14.0879 26.4327C-14.0879 69.7524 21.0369 104.877 64.3382 104.877Z" stroke="#F3F3F3" stroke-width="3.40761" stroke-miterlimit="10"/>
<path d="M299.634 -52.0293H142.764V104.859H299.634V-52.0293Z" stroke="#F3F3F3" stroke-width="3.40761" stroke-miterlimit="10"/>
<path d="M534.932 104.877C578.252 104.877 613.358 69.7524 613.358 26.4327C613.358 -16.8871 578.233 -52.0117 534.932 -52.0117C491.63 -52.0117 456.506 -16.8871 456.506 26.4327C456.506 69.7524 491.63 104.877 534.932 104.877Z" stroke="#F3F3F3" stroke-width="3.40761" stroke-miterlimit="10"/>
<path d="M64.3539 -52.0293H-14.0723V104.859H64.3539V-52.0293Z" stroke="#F3F3F3" stroke-width="3.40761" stroke-miterlimit="10"/>
<path d="M64.3539 261.766H-14.0723V418.654H64.3539V261.766V261.766Z" stroke="#F3F3F3" stroke-width="3.40761" stroke-miterlimit="10"/>
<path d="M64.3382 261.766C107.658 261.766 142.783 226.641 142.783 183.321C142.783 140.002 107.658 104.877 64.3382 104.877C21.0185 104.877 -14.0879 140.002 -14.0879 183.321C-14.0879 226.641 21.0369 261.766 64.3382 261.766Z" stroke="#F3F3F3" stroke-width="3.40761" stroke-miterlimit="10"/>
<path d="M534.932 261.768C578.252 261.768 613.358 226.643 613.358 183.323C613.358 140.004 578.233 104.879 534.932 104.879C491.63 104.879 456.506 140.004 456.506 183.323C456.506 226.643 491.63 261.768 534.932 261.768Z" stroke="#F3F3F3" stroke-width="3.40761" stroke-miterlimit="10"/>
<path d="M221.208 261.768C264.528 261.768 299.652 226.643 299.652 183.323C299.652 140.004 264.528 104.879 221.208 104.879C177.888 104.879 142.764 140.004 142.764 183.323C142.764 226.643 177.888 261.768 221.208 261.768Z" stroke="#F3F3F3" stroke-width="3.40761" stroke-miterlimit="10"/>
<path d="M456.507 104.879H299.637V261.768H456.507V104.879Z" stroke="#F3F3F3" stroke-width="3.40761" stroke-miterlimit="10"/>
<path d="M299.636 261.768C342.956 261.768 378.062 226.643 378.062 183.323C378.062 140.004 342.937 104.879 299.636 104.879C256.334 104.879 221.191 140.004 221.191 183.323C221.191 226.643 256.316 261.768 299.636 261.768Z" stroke="#F3F3F3" stroke-width="3.40761" stroke-miterlimit="10"/>
<path d="M221.21 104.877H64.3398V261.766H221.21V104.877Z" stroke="#F3F3F3" stroke-width="3.40761" stroke-miterlimit="10"/>
<path d="M456.505 261.766C499.825 261.766 534.931 226.641 534.931 183.321C534.931 140.002 499.806 104.877 456.505 104.877C413.204 104.877 378.061 140.002 378.061 183.321C378.061 226.641 413.185 261.766 456.505 261.766Z" stroke="#F3F3F3" stroke-width="3.40761" stroke-miterlimit="10"/>
<path d="M613.378 104.879H534.934V261.768H613.378V104.879Z" stroke="#F3F3F3" stroke-width="3.40761" stroke-miterlimit="10"/>
<path d="M142.766 418.637C186.086 418.637 221.21 383.512 221.21 340.192C221.21 296.873 186.086 261.748 142.766 261.748C99.446 261.748 64.3398 296.873 64.3398 340.192C64.3398 383.512 99.4645 418.637 142.766 418.637Z" stroke="#F3F3F3" stroke-width="3.40761" stroke-miterlimit="10"/>
<path d="M613.378 261.766C599.092 261.766 585.692 265.586 574.156 272.249C550.715 285.816 534.934 311.158 534.934 340.21C534.934 369.262 550.715 394.586 574.156 408.171C585.692 414.834 599.073 418.654 613.378 418.654" stroke="#F3F3F3" stroke-width="3.40761" stroke-miterlimit="10"/>
<path d="M299.636 418.637C342.956 418.637 378.062 383.512 378.062 340.192C378.062 296.873 342.937 261.748 299.636 261.748C256.334 261.748 221.191 296.873 221.191 340.192C221.191 383.512 256.316 418.637 299.636 418.637Z" stroke="#F3F3F3" stroke-width="3.40761" stroke-miterlimit="10"/>
<path d="M534.946 261.766H378.076V418.654H534.946V261.766V261.766Z" stroke="#F3F3F3" stroke-width="3.40761" stroke-miterlimit="10"/>
<path d="M378.078 418.637C421.398 418.637 456.504 383.512 456.504 340.192C456.504 296.873 421.38 261.748 378.078 261.748C334.777 261.748 299.652 296.873 299.652 340.192C299.652 383.512 334.777 418.637 378.078 418.637Z" stroke="#F3F3F3" stroke-width="3.40761" stroke-miterlimit="10"/>
<path d="M64.3382 418.637C107.658 418.637 142.783 383.512 142.783 340.192C142.783 296.873 107.658 261.748 64.3382 261.748C21.0185 261.748 -14.0879 296.873 -14.0879 340.192C-14.0879 383.512 21.0369 418.637 64.3382 418.637Z" stroke="#F3F3F3" stroke-width="3.40761" stroke-miterlimit="10"/>
<path d="M299.634 261.766H142.764V418.654H299.634V261.766V261.766Z" stroke="#F3F3F3" stroke-width="3.40761" stroke-miterlimit="10"/>
<path d="M534.932 418.637C578.252 418.637 613.358 383.512 613.358 340.192C613.358 296.873 578.233 261.748 534.932 261.748C491.63 261.748 456.506 296.873 456.506 340.192C456.506 383.512 491.63 418.637 534.932 418.637Z" stroke="#F3F3F3" stroke-width="3.40761" stroke-miterlimit="10"/>
<path d="M64.3382 575.527C107.658 575.527 142.783 540.403 142.783 497.083C142.783 453.763 107.658 418.639 64.3382 418.639C21.0185 418.639 -14.0879 453.763 -14.0879 497.083C-14.0879 540.403 21.0369 575.527 64.3382 575.527Z" stroke="#F3F3F3" stroke-width="3.40761" stroke-miterlimit="10"/>
<path d="M534.932 575.527C578.252 575.527 613.358 540.403 613.358 497.083C613.358 453.763 578.233 418.639 534.932 418.639C491.63 418.639 456.506 453.763 456.506 497.083C456.506 540.403 491.63 575.527 534.932 575.527Z" stroke="#F3F3F3" stroke-width="3.40761" stroke-miterlimit="10"/>
<path d="M221.208 575.525C264.528 575.525 299.652 540.401 299.652 497.081C299.652 453.761 264.528 418.637 221.208 418.637C177.888 418.637 142.764 453.761 142.764 497.081C142.764 540.401 177.888 575.525 221.208 575.525Z" stroke="#F3F3F3" stroke-width="3.40761" stroke-miterlimit="10"/>
<path d="M456.507 418.637H299.637V575.525H456.507V418.637Z" stroke="#F3F3F3" stroke-width="3.40761" stroke-miterlimit="10"/>
<path d="M299.636 575.525C342.956 575.525 378.062 540.401 378.062 497.081C378.062 453.761 342.937 418.637 299.636 418.637C256.334 418.637 221.191 453.761 221.191 497.081C221.191 540.401 256.316 575.525 299.636 575.525Z" stroke="#F3F3F3" stroke-width="3.40761" stroke-miterlimit="10"/>
<path d="M221.21 418.637H64.3398V575.525H221.21V418.637Z" stroke="#F3F3F3" stroke-width="3.40761" stroke-miterlimit="10"/>
<path d="M456.505 575.525C499.825 575.525 534.931 540.401 534.931 497.081C534.931 453.761 499.806 418.637 456.505 418.637C413.204 418.637 378.061 453.761 378.061 497.081C378.061 540.401 413.185 575.525 456.505 575.525Z" stroke="#F3F3F3" stroke-width="3.40761" stroke-miterlimit="10"/>
<path d="M613.378 418.637H534.934V575.525H613.378V418.637Z" stroke="#F3F3F3" stroke-width="3.40761" stroke-miterlimit="10"/>
<path d="M613.372 -52.0293H-14.0723V575.526H613.372V-52.0293V-52.0293Z" stroke="#F3F3F3" stroke-width="3.40761" stroke-miterlimit="10"/>
</g>
<defs>
<clipPath id="clip0_1386_10907">
<rect width="600" height="525" fill="white"/>
</clipPath>
</defs>
</svg>
