<svg width="600" height="525" viewBox="0 0 600 525" fill="none" xmlns="http://www.w3.org/2000/svg">
<rect width="600" height="525" rx="4.88661" fill="white"/>
<g clip-path="url(#clip0_1386_10511)">
<rect width="600" height="525" fill="#44F4B3"/>
<path d="M142.555 106.365C185.875 106.365 220.981 71.2407 220.981 27.921C220.981 -15.3988 185.875 -50.5234 142.555 -50.5234C99.2351 -50.5234 64.1289 -15.3988 64.1289 27.921C64.1289 71.2407 99.2535 106.365 142.555 106.365Z" stroke="#8F00FF" stroke-width="3.40761" stroke-miterlimit="10"/>
<path d="M-14.2949 -50.5234C29.0064 -50.5234 64.131 -15.3988 64.131 27.921C64.131 71.2407 29.0248 106.365 -14.2949 106.365" stroke="#8F00FF" stroke-width="3.40761" stroke-miterlimit="10"/>
<path d="M142.554 -50.5234H-14.3164V106.365H142.554V-50.5234Z" stroke="#8F00FF" stroke-width="3.40761" stroke-miterlimit="10"/>
<path d="M220.979 263.254C264.298 263.254 299.405 228.129 299.405 184.81C299.405 141.49 264.28 106.365 220.979 106.365C177.677 106.365 142.553 141.49 142.553 184.81C142.553 228.129 177.677 263.254 220.979 263.254Z" stroke="#8F00FF" stroke-width="3.40761" stroke-miterlimit="10"/>
<path d="M64.1095 263.254C107.429 263.254 142.535 228.129 142.535 184.81C142.535 141.49 107.411 106.365 64.1095 106.365C20.8083 106.365 -14.3164 141.49 -14.3164 184.81C-14.3164 228.129 20.8083 263.254 64.1095 263.254Z" stroke="#8F00FF" stroke-width="3.40761" stroke-miterlimit="10"/>
<path d="M220.982 106.365H64.1113V263.254H220.982V106.365Z" stroke="#8F00FF" stroke-width="3.40761" stroke-miterlimit="10"/>
<path d="M456.274 106.365C499.593 106.365 534.718 71.2407 534.718 27.921C534.718 -15.3988 499.593 -50.5234 456.274 -50.5234C412.954 -50.5234 377.848 -15.3988 377.848 27.921C377.848 71.2407 412.972 106.365 456.274 106.365Z" stroke="#8F00FF" stroke-width="3.40761" stroke-miterlimit="10"/>
<path d="M299.422 106.365C342.742 106.365 377.848 71.2407 377.848 27.921C377.848 -15.3988 342.742 -50.5234 299.422 -50.5234C256.102 -50.5234 220.996 -15.3988 220.996 27.921C220.996 71.2407 256.121 106.365 299.422 106.365Z" stroke="#8F00FF" stroke-width="3.40761" stroke-miterlimit="10"/>
<path d="M456.294 -50.5234H299.424V106.365H456.294V-50.5234Z" stroke="#8F00FF" stroke-width="3.40761" stroke-miterlimit="10"/>
<path d="M534.703 263.254C578.023 263.254 613.148 228.129 613.148 184.81C613.148 141.49 578.023 106.365 534.703 106.365C491.383 106.365 456.277 141.49 456.277 184.81C456.277 228.129 491.383 263.254 534.703 263.254Z" stroke="#8F00FF" stroke-width="3.40761" stroke-miterlimit="10"/>
<path d="M377.834 263.254C421.154 263.254 456.26 228.129 456.26 184.81C456.26 141.49 421.135 106.365 377.834 106.365C334.533 106.365 299.408 141.49 299.408 184.81C299.408 228.129 334.533 263.254 377.834 263.254Z" stroke="#8F00FF" stroke-width="3.40761" stroke-miterlimit="10"/>
<path d="M534.702 106.365H377.832V263.254H534.702V106.365Z" stroke="#8F00FF" stroke-width="3.40761" stroke-miterlimit="10"/>
<path d="M142.555 420.143C185.875 420.143 220.981 385.018 220.981 341.698C220.981 298.379 185.856 263.254 142.555 263.254C99.2535 263.254 64.1289 298.379 64.1289 341.698C64.1289 385.018 99.2535 420.143 142.555 420.143Z" stroke="#8F00FF" stroke-width="3.40761" stroke-miterlimit="10"/>
<path d="M-14.2949 263.236C29.0064 263.236 64.131 298.361 64.131 341.681C64.131 385 29.0248 420.125 -14.2949 420.125" stroke="#8F00FF" stroke-width="3.40761" stroke-miterlimit="10"/>
<path d="M142.554 263.254H-14.3164V420.143H142.554V263.254Z" stroke="#8F00FF" stroke-width="3.40761" stroke-miterlimit="10"/>
<path d="M456.274 420.143C499.593 420.143 534.718 385.018 534.718 341.698C534.718 298.379 499.593 263.254 456.274 263.254C412.954 263.254 377.848 298.379 377.848 341.698C377.848 385.018 412.972 420.143 456.274 420.143Z" stroke="#8F00FF" stroke-width="3.40761" stroke-miterlimit="10"/>
<path d="M299.422 420.143C342.742 420.143 377.848 385.018 377.848 341.698C377.848 298.379 342.723 263.254 299.422 263.254C256.121 263.254 220.996 298.379 220.996 341.698C220.996 385.018 256.121 420.143 299.422 420.143Z" stroke="#8F00FF" stroke-width="3.40761" stroke-miterlimit="10"/>
<path d="M456.294 263.254H299.424V420.143H456.294V263.254Z" stroke="#8F00FF" stroke-width="3.40761" stroke-miterlimit="10"/>
<path d="M613.147 -50.5234C569.845 -50.5234 534.721 -15.3988 534.721 27.921C534.721 71.2407 569.845 106.365 613.147 106.365" stroke="#8F00FF" stroke-width="3.40761" stroke-miterlimit="10"/>
<path d="M220.979 577.031C264.298 577.031 299.405 541.907 299.405 498.587C299.405 455.267 264.28 420.143 220.979 420.143C177.677 420.143 142.553 455.267 142.553 498.587C142.553 541.907 177.677 577.031 220.979 577.031Z" stroke="#8F00FF" stroke-width="3.40761" stroke-miterlimit="10"/>
<path d="M64.1095 577.033C107.429 577.033 142.535 541.909 142.535 498.589C142.535 455.269 107.411 420.145 64.1095 420.145C20.8083 420.145 -14.3164 455.269 -14.3164 498.589C-14.3164 541.909 20.8083 577.033 64.1095 577.033Z" stroke="#8F00FF" stroke-width="3.40761" stroke-miterlimit="10"/>
<path d="M220.982 420.143H64.1113V577.031H220.982V420.143Z" stroke="#8F00FF" stroke-width="3.40761" stroke-miterlimit="10"/>
<path d="M534.703 577.033C578.023 577.033 613.148 541.909 613.148 498.589C613.148 455.269 578.023 420.145 534.703 420.145C491.383 420.145 456.277 455.269 456.277 498.589C456.277 541.909 491.383 577.033 534.703 577.033Z" stroke="#8F00FF" stroke-width="3.40761" stroke-miterlimit="10"/>
<path d="M377.834 577.031C421.154 577.031 456.26 541.907 456.26 498.587C456.26 455.267 421.135 420.143 377.834 420.143C334.533 420.143 299.408 455.267 299.408 498.587C299.408 541.907 334.533 577.031 377.834 577.031Z" stroke="#8F00FF" stroke-width="3.40761" stroke-miterlimit="10"/>
<path d="M534.702 420.143H377.832V577.031H534.702V420.143Z" stroke="#8F00FF" stroke-width="3.40761" stroke-miterlimit="10"/>
<path d="M613.147 263.236C569.845 263.236 534.721 298.361 534.721 341.681C534.721 385 569.845 420.125 613.147 420.125" stroke="#8F00FF" stroke-width="3.40761" stroke-miterlimit="10"/>
<path d="M613.146 -50.5234H-14.3164V577.032H613.146V-50.5234Z" stroke="#8F00FF" stroke-width="3.40761" stroke-miterlimit="10"/>
</g>
<defs>
<clipPath id="clip0_1386_10511">
<rect width="600" height="525" fill="white"/>
</clipPath>
</defs>
</svg>
