<svg width="600" height="525" viewBox="0 0 600 525" fill="none" xmlns="http://www.w3.org/2000/svg">
<rect width="600" height="525" rx="4.88661" fill="white"/>
<g clip-path="url(#clip0_1386_10639)">
<rect width="600" height="525" fill="#8F00FF"/>
<path d="M164.114 573.557H16.7305C16.7305 555.395 23.4859 537.215 36.9783 523.076L37.6427 522.412C37.8458 522.172 38.0672 521.95 38.3072 521.729C38.5471 521.489 38.7686 521.267 38.9901 521.064L39.6548 520.381C68.5408 493.101 114.186 493.544 142.537 521.71C152.024 531.142 158.392 542.549 161.622 554.565C163.301 560.766 164.132 567.153 164.132 573.539L164.114 573.557Z" stroke="#3EB9FF" stroke-width="3.40761" stroke-miterlimit="10"/>
<path d="M142.521 521.731L90.3971 573.56L-13.7402 573.486L36.9625 523.078L37.6269 522.414L39.6389 520.402L90.3971 469.902L142.521 521.713V521.731Z" stroke="#3EB9FF" stroke-width="3.40761" stroke-linejoin="bevel"/>
<path d="M90.4141 469.92C99.9012 479.352 111.326 485.683 123.416 488.913C148.02 495.428 175.337 489.116 194.625 469.92C213.895 450.743 220.263 423.573 213.71 399.117C210.48 387.083 204.112 375.713 194.625 366.281" stroke="#3EB9FF" stroke-width="3.40761" stroke-miterlimit="10"/>
<path d="M350.962 521.729L298.838 573.557H194.627L194.295 573.225L142.521 521.729L194.645 469.9L246.751 418.09L298.543 469.568C298.635 469.679 298.764 469.808 298.875 469.9C298.986 470.011 299.115 470.14 299.225 470.232L350.648 521.396L350.999 521.729H350.962Z" stroke="#3EB9FF" stroke-width="3.40761" stroke-miterlimit="10"/>
<path d="M372.537 573.56H225.154C225.154 554.808 232.353 536.055 246.731 521.732C275.414 493.215 321.816 493.123 350.61 521.399L350.942 521.732L351.274 522.064C360.595 531.44 366.834 542.681 370.027 554.568C371.707 560.769 372.537 567.156 372.537 573.542V573.56Z" stroke="#3EB9FF" stroke-width="3.40761" stroke-miterlimit="10"/>
<path d="M194.624 543.196C235.323 543.196 268.325 510.379 268.325 469.901C268.325 429.424 235.323 396.625 194.624 396.625C153.926 396.625 120.924 429.424 120.924 469.901C120.924 510.379 153.926 543.196 194.624 543.196Z" stroke="#3EB9FF" stroke-width="3.40761" stroke-miterlimit="10"/>
<path d="M298.855 439.556C339.554 439.556 372.556 406.739 372.556 366.262C372.556 325.784 339.554 292.967 298.855 292.967C258.156 292.967 225.154 325.784 225.154 366.262C225.154 406.739 258.156 439.556 298.855 439.556Z" stroke="#3EB9FF" stroke-width="3.40761" stroke-miterlimit="10"/>
<path d="M580.975 573.56H433.592C433.592 554.807 440.79 536.054 455.187 521.731C474.475 502.554 501.774 496.241 526.359 502.738C535.791 505.248 544.835 509.641 552.846 515.935C555.116 517.726 557.312 519.627 559.398 521.731C561.484 523.817 563.44 525.995 565.212 528.246C575.733 541.499 580.975 557.539 580.975 573.56V573.56Z" stroke="#3EB9FF" stroke-width="3.40761" stroke-miterlimit="10"/>
<path d="M403.066 366.281L507.296 469.92L403.066 573.577L298.855 469.92L403.066 366.281V366.281Z" stroke="#3EB9FF" stroke-width="3.40761" stroke-miterlimit="10"/>
<path d="M507.294 573.559H403.083C374.308 544.95 374.308 498.548 403.083 469.92C430.4 442.732 473.886 441.366 502.828 465.841C504.36 467.133 505.855 468.499 507.294 469.92C508.734 471.341 510.082 472.818 511.374 474.35C511.946 475.014 512.518 475.679 513.035 476.362L513.09 476.417C519.421 484.391 523.851 493.379 526.361 502.774C532.932 527.231 526.582 554.381 507.276 573.577L507.294 573.559Z" stroke="#3EB9FF" stroke-width="3.40761" stroke-miterlimit="10"/>
<path d="M610.784 573.557H507.293L559.011 522.098L559.38 521.729L605.284 567.374" stroke="#3EB9FF" stroke-width="3.40761" stroke-linejoin="round"/>
<path d="M350.958 491.386C391.657 491.386 424.659 458.569 424.659 418.092C424.659 377.614 391.657 344.797 350.958 344.797C310.26 344.797 277.258 377.614 277.258 418.092C277.258 458.569 310.26 491.386 350.958 491.386Z" stroke="#3EB9FF" stroke-width="3.40761" stroke-miterlimit="10"/>
<path d="M298.854 262.643L350.96 314.453L246.73 418.11L194.625 366.281L298.854 262.643Z" stroke="#3EB9FF" stroke-width="3.40761" stroke-miterlimit="10"/>
<path d="M38.4941 419.585L90.8026 471.893L195.42 367.258L143.111 314.949L38.4941 419.585V419.585Z" stroke="#3EB9FF" stroke-width="3.40761" stroke-miterlimit="10"/>
<path d="M-13.8184 545.892C5.11904 545.892 24.0381 538.656 38.4904 524.204C67.3763 495.318 67.3763 448.473 38.4904 419.587C24.0381 405.153 5.11904 397.918 -13.8184 397.918V471.896" stroke="#3EB9FF" stroke-width="3.40761" stroke-miterlimit="10"/>
<path d="M38.4904 419.586L-13.8184 471.894V367.277L38.4904 419.586V419.586Z" stroke="#3EB9FF" stroke-width="3.40761" stroke-miterlimit="10"/>
<path d="M-13.8187 367.258C-4.29467 376.782 7.16757 383.169 19.3126 386.399C43.9903 393.007 71.4181 386.602 90.7615 367.258C110.123 347.878 116.51 320.45 109.902 295.772C106.654 283.627 100.267 272.165 90.7615 262.641C61.8755 233.737 15.0305 233.737 -13.8555 262.641" stroke="#3EB9FF" stroke-width="3.40761" stroke-miterlimit="10"/>
<path d="M-13.8184 262.641V158.006C15.0676 186.892 15.0676 233.737 -13.8184 262.641Z" stroke="#3EB9FF" stroke-width="3.40761" stroke-miterlimit="10"/>
<path d="M90.8018 441.236C131.648 441.236 164.78 408.104 164.78 367.258C164.78 326.411 131.648 293.262 90.8018 293.262C49.9554 293.262 16.8242 326.393 16.8242 367.258C16.8242 408.123 49.9554 441.236 90.8018 441.236Z" stroke="#3EB9FF" stroke-width="3.40761" stroke-miterlimit="10"/>
<path d="M-13.8194 367.258L37.1417 316.297L39.8367 313.602L90.7793 262.623L39.1353 210.96L38.4708 210.296C38.2493 210.074 38.0279 209.834 37.8064 209.613L-13.8379 157.969V262.604" stroke="#3EB9FF" stroke-width="3.40761" stroke-miterlimit="10"/>
<path d="M195.419 336.619C236.284 336.619 269.397 303.488 269.397 262.642C269.397 221.795 236.284 188.664 195.419 188.664C154.554 188.664 121.441 221.795 121.441 262.642C121.441 303.488 154.572 336.619 195.419 336.619Z" stroke="#3EB9FF" stroke-width="3.40761" stroke-miterlimit="10"/>
<path d="M90.8018 231.984C131.648 231.984 164.78 198.852 164.78 157.987C164.78 117.123 131.648 84.0098 90.8018 84.0098C49.9554 84.0098 16.8242 117.141 16.8242 157.987C16.8242 198.834 49.9554 231.984 90.8018 231.984Z" stroke="#3EB9FF" stroke-width="3.40761" stroke-miterlimit="10"/>
<path d="M-13.0759 -50.5273L32.311 -5.14034L38.4944 1.04292L44.6776 7.22619L84.564 47.1129L90.8029 53.3515L90.4339 53.7206L39.1773 105.014L38.845 105.346L38.1806 106.011L37.1838 107.026L-13.7773 157.987" stroke="#3EB9FF" stroke-width="3.40761" stroke-miterlimit="10"/>
<path d="M-13.8159 157.986C-4.29182 167.528 7.17042 173.896 19.3155 177.145C43.9931 183.752 71.4209 177.348 90.7644 157.986C110.126 138.624 116.513 111.196 109.905 86.5182C107.376 77.0495 102.965 68.0053 96.6152 59.9578C96.0615 59.2565 95.5264 58.5735 94.8988 57.8906C93.5883 56.3217 92.204 54.8082 90.7459 53.3501C89.2877 51.8919 87.7558 50.4891 86.2054 49.1787C57.1533 24.5194 13.5568 25.9222 -13.8711 53.3501" stroke="#3EB9FF" stroke-width="3.40761" stroke-miterlimit="10"/>
<path d="M38.4941 210.296L143.111 314.931L247.728 210.296L143.111 105.66L38.4941 210.296V210.296Z" stroke="#3EB9FF" stroke-width="3.40761" stroke-miterlimit="10"/>
<path d="M-13.8184 -50.5273V53.3515C12.9635 26.5696 14.92 -15.6611 -7.96725 -44.6948C-9.53614 -46.7066 -11.2527 -48.6447 -13.08 -50.5273" stroke="#3EB9FF" stroke-width="3.40761" stroke-miterlimit="10"/>
<path d="M612.319 573.559C610.344 571.547 608.517 569.479 606.819 567.32C584.061 538.434 585.907 496.48 612.319 469.68C612.375 469.624 612.448 469.551 612.504 469.495L612.688 469.311L612.319 573.577" stroke="#3EB9FF" stroke-width="3.40761" stroke-miterlimit="10"/>
<path d="M299.664 262.993C309.188 272.517 320.669 278.903 332.796 282.152C357.473 288.741 384.92 282.355 404.263 262.993C423.625 243.613 430.011 216.203 423.422 191.507C420.192 179.362 413.787 167.881 404.263 158.357" stroke="#3EB9FF" stroke-width="3.40761" stroke-miterlimit="10"/>
<path d="M613.517 367.627L613.148 367.276C603.698 357.937 592.365 351.661 580.386 348.487C555.708 341.879 528.28 348.284 508.937 367.627C489.557 386.989 483.189 414.417 489.778 439.094C492.307 448.6 496.773 457.681 503.178 465.747C503.178 465.766 503.234 465.784 503.234 465.821C503.732 466.467 504.249 467.113 504.803 467.74C506.095 469.272 507.479 470.786 508.937 472.226C510.377 473.665 511.872 475.031 513.385 476.323C542.326 500.927 585.702 499.69 613.166 472.576C613.222 472.521 613.296 472.466 613.351 472.41L613.536 472.226" stroke="#3EB9FF" stroke-width="3.40761" stroke-miterlimit="10"/>
<path d="M351.973 315.3L456.59 419.935L561.207 315.3L456.59 210.664L351.973 315.3Z" stroke="#3EB9FF" stroke-width="3.40761" stroke-miterlimit="10"/>
<path d="M508.917 441.624C549.764 441.624 582.895 408.493 582.895 367.647C582.895 326.8 549.764 293.65 508.917 293.65C468.071 293.65 434.939 326.782 434.939 367.647C434.939 408.511 468.071 441.624 508.917 441.624Z" stroke="#3EB9FF" stroke-width="3.40761" stroke-miterlimit="10"/>
<path d="M613.515 367.629L613.146 367.998L561.207 419.937L509.267 471.895L508.898 472.246L515.026 478.392L515.081 478.448L555.005 518.353L561.207 524.573L567.427 530.793L601.998 564.755L608.458 571.547" stroke="#3EB9FF" stroke-width="3.40761" stroke-miterlimit="10"/>
<path d="M404.284 336.989C445.149 336.989 478.262 303.858 478.262 262.993C478.262 222.128 445.149 189.016 404.284 189.016C363.42 189.016 330.307 222.147 330.307 262.993C330.307 303.84 363.438 336.989 404.284 336.989V336.989Z" stroke="#3EB9FF" stroke-width="3.40761" stroke-miterlimit="10"/>
<path d="M508.917 232.353C549.764 232.353 582.895 199.221 582.895 158.357C582.895 117.492 549.764 84.3789 508.917 84.3789C468.071 84.3789 434.939 117.51 434.939 158.357C434.939 199.203 468.071 232.353 508.917 232.353Z" stroke="#3EB9FF" stroke-width="3.40761" stroke-miterlimit="10"/>
<path d="M613.515 158.357V367.629L613.146 367.278V367.241L561.207 315.302L508.898 262.975L613.146 158.727L613.515 158.357V158.357Z" stroke="#3EB9FF" stroke-width="3.40761" stroke-miterlimit="10"/>
<path d="M613.517 262.992V367.628L613.148 367.259C584.761 338.446 584.761 292.173 613.148 263.38C613.259 263.251 613.388 263.121 613.517 262.992Z" stroke="#3EB9FF" stroke-width="3.40761" stroke-miterlimit="10"/>
<path d="M613.518 158.356V262.973L613.334 263.158C613.334 263.158 613.204 263.269 613.149 263.324C584.245 291.859 537.676 291.749 508.901 262.973C499.377 253.449 492.991 241.987 489.742 229.842C483.134 205.164 489.539 177.718 508.901 158.356C528.263 138.994 555.691 132.608 580.369 139.216C592.347 142.409 603.68 148.666 613.131 157.987L613.518 158.356V158.356Z" stroke="#3EB9FF" stroke-width="3.40761" stroke-miterlimit="10"/>
<path d="M404.285 158.376L456.593 210.684L561.211 106.049L508.902 53.7402L404.285 158.376V158.376Z" stroke="#3EB9FF" stroke-width="3.40761" stroke-miterlimit="10"/>
<path d="M613.519 53.7227C613.39 53.8519 613.28 53.9626 613.15 54.0918C593.807 73.1769 566.582 79.4524 542.071 72.9C529.944 69.6515 518.464 63.2467 508.939 53.7227" stroke="#3EB9FF" stroke-width="3.40761" stroke-miterlimit="10"/>
<path d="M613.519 53.7227V158.358L613.15 158.008L561.211 106.05L613.15 54.0918L613.519 53.7227V53.7227Z" stroke="#3EB9FF" stroke-width="3.40761" stroke-miterlimit="10"/>
<path d="M613.517 -20.2559H613.147C594.93 -20.1636 576.749 -13.3897 562.556 0.0658461L561.54 1.06255C561.43 1.15484 561.319 1.26559 561.19 1.39479C561.061 1.52399 560.95 1.63474 560.857 1.74548L559.86 2.76064C541.532 22.0487 535.607 48.7752 542.049 72.8807C545.279 85.0257 551.684 96.5063 561.19 106.03C575.55 120.372 594.321 127.589 613.129 127.699H613.498V53.7218" stroke="#3EB9FF" stroke-width="3.40761" stroke-miterlimit="10"/>
<path d="M247.359 180.027C288.224 180.027 321.336 146.895 321.336 106.049C321.336 65.2024 288.224 32.0527 247.359 32.0527C206.494 32.0527 173.381 65.1839 173.381 106.049C173.381 146.914 206.512 180.027 247.359 180.027Z" stroke="#3EB9FF" stroke-width="3.40761" stroke-miterlimit="10"/>
<path d="M194.682 -50.5273H90.0646C70.998 -31.1839 64.7406 -3.95906 71.2931 20.571C73.8217 30.0212 78.2514 39.0838 84.5639 47.1129C85.1176 47.8142 85.6717 48.5156 86.2808 49.1986C87.5912 50.749 88.9756 52.2625 90.4522 53.7391C91.9288 55.2157 93.4237 56.6 94.9742 57.892C124.045 82.5513 167.641 81.1669 195.069 53.7391C223.826 24.9823 223.955 -21.586 195.438 -50.5089" stroke="#3EB9FF" stroke-width="3.40761" stroke-miterlimit="10"/>
<path d="M-13.8184 -50.5273L-7.98573 -44.6948L38.1026 1.41207L38.4719 1.06137L90.0238 -50.5273H-13.117" stroke="#3EB9FF" stroke-width="3.40761" stroke-miterlimit="10"/>
<path d="M164.41 -50.5273C164.318 -31.7007 157.083 -12.9294 142.741 1.41207C123.379 20.7924 95.9515 27.1603 71.2922 20.571C61.8235 18.0607 52.7426 13.594 44.6767 7.22618C42.4064 5.4358 40.2283 3.49777 38.1242 1.41207C36.0385 -0.673628 34.1004 -2.87007 32.31 -5.14035C21.8261 -18.4113 16.5289 -34.4693 16.4551 -50.5273H164.41V-50.5273Z" stroke="#3EB9FF" stroke-width="3.40761" stroke-miterlimit="10"/>
<path d="M299.686 232.353C340.551 232.353 373.664 199.221 373.664 158.357C373.664 117.492 340.551 84.3789 299.686 84.3789C258.821 84.3789 225.709 117.51 225.709 158.357C225.709 199.203 258.84 232.353 299.686 232.353Z" stroke="#3EB9FF" stroke-width="3.40761" stroke-miterlimit="10"/>
<path d="M194.682 -50.5265L142.742 1.41295L90.8027 53.3524L90.4336 53.7215L96.672 59.9601L136.503 99.8099L142.742 106.049L148.981 112.287L195.051 158.357L195.42 157.988L247.359 106.049L299.668 53.7215L299.335 53.3893L299.003 53.057L247.359 1.39448L195.438 -50.5449H195.42" stroke="#3EB9FF" stroke-width="3.40761" stroke-miterlimit="10"/>
<path d="M247.359 210.665L299.668 262.973L404.285 158.338L351.976 106.029L247.359 210.665Z" stroke="#3EB9FF" stroke-width="3.40761" stroke-miterlimit="10"/>
<path d="M613.149 -50.5273L562.576 0.0646693L561.561 1.06138L560.878 1.74431L559.881 2.75947L508.92 53.7206L456.611 1.41207L508.255 -50.2136C508.348 -50.3243 508.44 -50.3981 508.551 -50.5273H613.168H613.149Z" stroke="#3EB9FF" stroke-width="3.40761" stroke-linejoin="round"/>
<path d="M404.284 127.718C445.131 127.718 478.262 94.5867 478.262 53.7218C478.262 12.8569 445.131 -20.2559 404.284 -20.2559C363.438 -20.2559 330.307 12.8754 330.307 53.7218C330.307 94.5683 363.42 127.718 404.284 127.718Z" stroke="#3EB9FF" stroke-width="3.40761" stroke-miterlimit="10"/>
<path d="M373.645 -50.5273C373.552 -31.7007 366.317 -12.9294 351.976 1.41207C323.09 30.3165 276.245 30.3165 247.359 1.41207C237.834 -8.112 231.466 -19.5741 228.218 -31.7192C226.557 -37.8655 225.726 -44.1964 225.689 -50.5273H373.626H373.645Z" stroke="#3EB9FF" stroke-width="3.40761" stroke-miterlimit="10"/>
<path d="M456.592 1.41295L351.975 106.049L301.014 55.0874L300.018 54.0722L299.685 53.7215L299.353 53.3893L299.021 53.057L247.377 1.39448L299.021 -50.2311L299.316 -50.5449H404.709L456.629 1.39448L456.592 1.41295Z" stroke="#3EB9FF" stroke-width="3.40761" stroke-miterlimit="10"/>
<path d="M582.895 -50.5273C582.803 -31.7007 575.567 -12.9294 561.208 1.41207C532.322 30.3165 485.476 30.3165 456.609 1.41207C447.084 -8.112 440.717 -19.5741 437.468 -31.7192C435.807 -37.8655 434.976 -44.1964 434.939 -50.5273H582.895V-50.5273Z" stroke="#3EB9FF" stroke-width="3.40761" stroke-miterlimit="10"/>
<path d="M613.168 567.67L613.537 472.263V-50.5273H-13.7969V576.954" stroke="#3EB9FF" stroke-width="3.40761" stroke-miterlimit="10"/>
</g>
<defs>
<clipPath id="clip0_1386_10639">
<rect width="600" height="525" fill="white"/>
</clipPath>
</defs>
</svg>
