<svg width="600" height="525" viewBox="0 0 600 525" fill="none" xmlns="http://www.w3.org/2000/svg">
<rect width="600" height="525" rx="4.88661" fill="white"/>
<g clip-path="url(#clip0_1386_10586)">
<rect width="600" height="525" fill="#F3F3F3"/>
<path d="M607.724 -50.5234H-9.36523V577.032H607.724V-50.5234Z" stroke="#8F00FF" stroke-width="3.11413" stroke-miterlimit="10"/>
<path d="M-11.4512 420.07V420.144H53.2977V414.902H-11.4512V420.07Z" fill="#8F00FF"/>
<path d="M-11.4542 414.901V414.845C-10.7713 414.882 -10.0699 414.882 -9.36847 414.901H-8.85161C-1.15483 414.901 6.28354 413.406 13.2974 410.434C20.0898 407.573 26.1621 403.476 31.3856 398.252C36.6275 393.01 40.7251 386.938 43.586 380.145C46.5576 373.131 48.0528 365.675 48.0528 357.996C48.0528 350.318 46.5392 342.861 43.586 335.847C40.7251 329.073 36.6091 322.982 31.3856 317.74C26.1437 312.498 20.0713 308.419 13.2974 305.558C6.28354 302.587 -1.15483 301.092 -8.85161 301.092H-9.36847C-10.0699 301.092 -10.7713 301.129 -11.4542 301.147V295.942C-10.7713 295.905 -10.0699 295.887 -9.36847 295.887C-9.20236 295.887 -9.01773 295.887 -8.85161 295.887C25.4609 295.887 53.2762 323.702 53.2762 358.015C53.2762 375.18 46.3177 390.721 35.0771 401.944C29.6506 407.37 23.246 411.781 16.1214 414.919C8.48004 418.278 0.0264302 420.161 -8.87009 420.161C-9.05466 420.161 -9.22083 420.161 -9.38695 420.161C-10.0883 420.161 -10.7897 420.161 -11.4727 420.106V414.938L-11.4542 414.901Z" fill="#8F00FF"/>
<path d="M-11.4512 111.571H53.2977V106.348H-11.4512V111.571Z" fill="#8F00FF"/>
<path d="M-11.4512 106.421C-10.7682 106.384 -10.0669 106.365 -9.36547 106.365C-9.19935 106.365 -9.01472 106.365 -8.8486 106.365C0.0294574 106.365 8.46457 108.229 16.106 111.589C23.249 114.726 29.6536 119.156 35.0801 124.564C46.3207 135.805 53.2792 151.346 53.2792 168.512C53.2792 185.677 46.3207 201.2 35.0801 212.441C23.8395 223.681 8.29842 230.64 -8.8486 230.64C-9.03318 230.64 -9.19935 230.64 -9.36547 230.64C-10.0669 230.64 -10.7682 230.64 -11.4512 230.584V225.379C-10.7682 225.416 -10.0669 225.416 -9.36547 225.435H-8.8486C-1.15182 225.435 6.28655 223.94 13.3004 220.968C20.0928 218.107 26.1651 213.991 31.3886 208.767C36.6121 203.544 40.7281 197.453 43.589 190.679C46.5607 183.665 48.0558 176.208 48.0558 168.53C48.0558 160.852 46.5422 153.395 43.589 146.381C40.7281 139.589 36.6121 133.516 31.3886 128.293C26.1651 123.051 20.0743 118.972 13.3004 116.092C6.28655 113.121 -1.15182 111.626 -8.8486 111.626H-9.36547C-10.0669 111.626 -10.7682 111.663 -11.4512 111.681V106.476V106.421Z" fill="#8F00FF"/>
<path d="M142.812 201.105V325.38H148.036V201.105H142.812Z" fill="#8F00FF"/>
<path d="M145.435 245.369C144.696 242.914 143.829 240.551 142.814 238.244C139.676 231.138 135.265 224.733 129.838 219.307C118.598 208.066 103.056 201.107 85.9093 201.107C51.5968 201.107 23.7812 228.923 23.7812 263.235C23.7812 280.382 30.7212 295.924 41.9803 307.164C53.2209 318.405 68.7622 325.363 85.9093 325.363C103.056 325.363 118.616 318.405 129.838 307.164C135.265 301.756 139.676 295.333 142.814 288.208C143.829 285.901 144.696 283.539 145.435 281.102C147.133 275.436 148.037 269.437 148.037 263.217C148.037 256.997 147.133 250.998 145.435 245.35V245.369ZM138.347 285.403C135.486 292.177 131.389 298.268 126.165 303.491C120.923 308.733 114.851 312.831 108.058 315.692C101.044 318.645 93.5876 320.158 85.9093 320.158C78.2309 320.158 70.7741 318.645 63.7603 315.692C56.9864 312.831 50.8953 308.715 45.6718 303.491C40.4483 298.268 36.3324 292.177 33.4714 285.403C30.4998 278.389 29.0049 270.932 29.0049 263.235C29.0049 255.539 30.4998 248.1 33.4714 241.086C36.3324 234.312 40.4483 228.221 45.6718 222.998C50.9137 217.756 56.9864 213.659 63.7603 210.798C70.7741 207.826 78.2309 206.331 85.9093 206.331C93.5876 206.331 101.044 207.844 108.058 210.798C114.832 213.659 120.923 217.775 126.165 222.998C131.407 228.221 135.486 234.312 138.347 241.086C141.319 248.1 142.814 255.557 142.814 263.235C142.814 270.914 141.319 278.389 138.347 285.403Z" fill="#8F00FF"/>
<path d="M361.828 414.902H237.572V420.126H361.828V414.902Z" fill="#8F00FF"/>
<path d="M299.7 295.867C282.553 295.867 267.012 302.826 255.771 314.066C244.531 325.307 237.572 340.83 237.572 357.995C237.572 375.161 244.531 390.702 255.771 401.924C261.198 407.35 267.603 411.762 274.727 414.9C282.369 418.259 290.822 420.142 299.719 420.142C308.615 420.142 317.069 418.259 324.71 414.9C331.816 411.762 338.221 407.35 343.647 401.924C354.888 390.683 361.847 375.142 361.847 357.995C361.847 323.683 334.031 295.867 299.719 295.867H299.7ZM339.937 398.251C334.714 403.493 328.623 407.572 321.849 410.433C314.835 413.405 307.378 414.9 299.7 414.9C292.022 414.9 284.546 413.405 277.533 410.433C270.759 407.572 264.668 403.474 259.463 398.251C254.221 393.009 250.123 386.937 247.244 380.144C244.291 373.13 242.777 365.673 242.777 357.995C242.777 350.317 244.291 342.86 247.244 335.846C250.105 329.072 254.221 322.981 259.463 317.739C264.686 312.516 270.777 308.418 277.533 305.557C284.546 302.586 292.003 301.091 299.7 301.091C307.397 301.091 314.835 302.586 321.849 305.557C328.623 308.418 334.714 312.534 339.937 317.739C345.179 322.981 349.277 329.072 352.138 335.846C355.11 342.86 356.605 350.317 356.605 357.995C356.605 365.673 355.091 373.13 352.138 380.144C349.277 386.937 345.161 393.009 339.937 398.251Z" fill="#8F00FF"/>
<path d="M237.572 111.571H361.828V106.348H237.572V111.571Z" fill="#8F00FF"/>
<path d="M343.629 124.547C338.202 119.139 331.761 114.709 324.655 111.571C317.032 108.212 308.578 106.348 299.7 106.348C290.822 106.348 282.387 108.212 274.746 111.571C267.603 114.709 261.198 119.139 255.771 124.547C244.531 135.787 237.572 151.329 237.572 168.494C237.572 202.807 265.388 230.622 299.7 230.622C316.866 230.622 332.388 223.682 343.629 212.423C354.87 201.182 361.828 185.641 361.828 168.494C361.828 151.347 354.87 135.787 343.629 124.547V124.547ZM339.937 208.731C334.714 213.955 328.623 218.071 321.849 220.932C314.835 223.903 307.378 225.399 299.7 225.399C292.022 225.399 284.546 223.903 277.533 220.932C270.759 218.071 264.668 213.955 259.463 208.731C254.221 203.508 250.123 197.417 247.244 190.643C244.291 183.629 242.777 176.172 242.777 168.494C242.777 160.816 244.291 153.359 247.244 146.345C250.105 139.553 254.221 133.48 259.463 128.257C264.686 123.015 270.777 118.936 277.533 116.056C284.546 113.085 292.003 111.59 299.7 111.59C307.397 111.59 314.835 113.103 321.849 116.056C328.623 118.936 334.714 123.033 339.937 128.257C345.179 133.499 349.277 139.571 352.138 146.345C355.11 153.359 356.605 160.816 356.605 168.494C356.605 176.172 355.091 183.629 352.138 190.643C349.277 197.417 345.161 203.508 339.937 208.731Z" fill="#8F00FF"/>
<path d="M451.365 201.107V325.382H456.607V201.107H451.384H451.365Z" fill="#8F00FF"/>
<path d="M453.987 245.388C453.268 242.952 452.4 240.589 451.385 238.3C448.247 231.176 443.817 224.753 438.391 219.326C427.15 208.085 411.609 201.127 394.462 201.127C360.149 201.127 332.334 228.942 332.334 263.255C332.334 280.402 339.274 295.943 350.533 307.184C361.774 318.424 377.315 325.383 394.462 325.383C411.609 325.383 427.169 318.424 438.391 307.184C443.817 301.776 448.247 295.334 451.385 288.209C452.4 285.902 453.268 283.54 453.987 281.103C455.686 275.455 456.59 269.457 456.59 263.255C456.59 257.053 455.686 251.036 453.987 245.407V245.388ZM446.9 285.404C444.02 292.178 439.923 298.269 434.699 303.492C429.457 308.734 423.385 312.832 416.593 315.693C409.579 318.646 402.122 320.159 394.444 320.159C386.765 320.159 379.308 318.646 372.295 315.693C365.521 312.832 359.43 308.716 354.206 303.492C348.983 298.269 344.867 292.178 342.006 285.404C339.034 278.39 337.539 270.933 337.539 263.236C337.539 255.54 339.034 248.101 342.006 241.087C344.867 234.314 348.983 228.223 354.206 222.999C359.448 217.757 365.521 213.66 372.295 210.799C379.308 207.827 386.765 206.332 394.444 206.332C402.122 206.332 409.579 207.845 416.593 210.799C423.385 213.66 429.457 217.776 434.699 222.999C439.941 228.223 444.02 234.314 446.9 241.087C449.853 248.101 451.366 255.558 451.366 263.236C451.366 270.915 449.853 278.39 446.9 285.404Z" fill="#8F00FF"/>
<path d="M148.036 325.38V201.105H142.812V325.38H148.036V325.38Z" fill="#8F00FF"/>
<path d="M248.889 219.307C237.648 208.066 222.126 201.107 204.96 201.107C187.795 201.107 172.253 208.066 161.031 219.307C155.605 224.733 151.193 231.138 148.056 238.244C147.04 240.551 146.173 242.914 145.453 245.369C143.737 251.016 142.832 257.034 142.832 263.235C142.832 269.437 143.737 275.454 145.453 281.121C146.173 283.557 147.04 285.92 148.056 288.227C151.193 295.351 155.605 301.756 161.031 307.183C172.272 318.423 187.813 325.382 204.96 325.382C239.273 325.382 267.088 297.548 267.088 263.235C267.088 246.07 260.13 230.547 248.889 219.307V219.307ZM245.216 303.491C239.974 308.733 233.901 312.831 227.128 315.692C220.114 318.645 212.657 320.158 204.979 320.158C197.3 320.158 189.843 318.645 182.83 315.692C176.037 312.831 169.965 308.715 164.741 303.491C159.499 298.268 155.42 292.177 152.559 285.403C149.588 278.389 148.093 270.932 148.093 263.235C148.093 255.539 149.588 248.1 152.559 241.086C155.42 234.312 159.518 228.221 164.741 222.998C169.983 217.756 176.056 213.659 182.83 210.798C189.843 207.826 197.3 206.331 204.979 206.331C212.657 206.331 220.114 207.844 227.128 210.798C233.901 213.659 239.992 217.775 245.216 222.998C250.439 228.221 254.555 234.312 257.416 241.086C260.388 248.1 261.883 255.557 261.883 263.235C261.883 270.914 260.388 278.389 257.416 285.403C254.555 292.177 250.439 298.268 245.216 303.491Z" fill="#8F00FF"/>
<path d="M607.722 414.902H546.111V420.144H608.258L607.741 414.902H607.722Z" fill="#8F00FF"/>
<path d="M607.722 414.901C607.021 414.901 606.32 414.864 605.637 414.845C598.881 414.55 592.311 413.073 586.09 410.434C579.298 407.573 573.226 403.476 568.002 398.252C562.76 393.01 558.662 386.938 555.783 380.145C552.83 373.131 551.316 365.675 551.316 357.996C551.316 350.318 552.83 342.861 555.783 335.847C558.662 329.073 562.76 322.982 568.002 317.74C573.226 312.517 579.316 308.419 586.09 305.558C592.292 302.919 598.863 301.442 605.637 301.147C606.32 301.11 607.021 301.11 607.722 301.092V295.887C607.021 295.887 606.338 295.887 605.637 295.942C589.523 296.607 574.979 303.417 564.311 314.086C553.07 325.326 546.111 340.849 546.111 358.015C546.111 375.18 553.07 390.703 564.311 401.944C569.719 407.37 576.142 411.781 583.266 414.919C590.151 417.965 597.7 419.773 605.637 420.087C606.338 420.124 607.021 420.143 607.722 420.143C607.907 420.143 608.073 420.143 608.239 420.143L607.722 414.901V414.901Z" fill="#8F00FF"/>
<path d="M608.258 106.365H546.111V111.589H607.722L608.239 106.365H608.258Z" fill="#8F00FF"/>
<path d="M568.023 128.257C573.247 123.015 579.338 118.936 586.112 116.056C592.314 113.435 598.884 111.94 605.658 111.627C606.341 111.608 607.043 111.59 607.744 111.571L608.261 106.348C608.076 106.348 607.91 106.348 607.744 106.348C607.043 106.348 606.36 106.348 605.658 106.403C597.74 106.717 590.209 108.526 583.306 111.553C576.182 114.69 569.758 119.12 564.332 124.528C553.091 135.769 546.133 151.31 546.133 168.476C546.133 201.921 572.564 229.182 605.658 230.53C606.36 230.567 607.043 230.585 607.744 230.585V225.38C607.043 225.38 606.341 225.343 605.658 225.325C598.903 225.029 592.332 223.553 586.112 220.913C579.319 218.052 573.247 213.936 568.023 208.713C562.781 203.489 558.684 197.399 555.805 190.625C552.851 183.611 551.338 176.154 551.338 168.476C551.338 160.797 552.851 153.34 555.805 146.327C558.684 139.534 562.781 133.462 568.023 128.238V128.257Z" fill="#8F00FF"/>
<path d="M456.574 325.382V201.107H451.332V325.382H456.556H456.574Z" fill="#8F00FF"/>
<path d="M557.445 219.307C546.204 208.066 530.663 201.107 513.516 201.107C496.369 201.107 480.827 208.066 469.587 219.307C464.179 224.733 459.749 231.175 456.611 238.281C455.596 240.57 454.729 242.932 454.009 245.369C452.311 251.017 451.406 257.015 451.406 263.217C451.406 269.419 452.311 275.417 454.009 281.065C454.729 283.502 455.596 285.864 456.611 288.171C459.749 295.296 464.179 301.719 469.587 307.146C480.827 318.386 496.35 325.345 513.516 325.345C547.828 325.345 575.644 297.511 575.644 263.198C575.644 246.033 568.685 230.51 557.445 219.27V219.307ZM553.753 303.491C548.511 308.733 542.439 312.831 535.665 315.692C528.651 318.645 521.194 320.158 513.516 320.158C505.837 320.158 498.381 318.645 491.367 315.692C484.593 312.831 478.502 308.715 473.278 303.491C468.055 298.268 463.957 292.177 461.078 285.403C458.106 278.389 456.611 270.932 456.611 263.235C456.611 255.539 458.106 248.1 461.078 241.086C463.957 234.312 468.055 228.221 473.278 222.998C478.52 217.756 484.593 213.659 491.367 210.798C498.381 207.826 505.837 206.331 513.516 206.331C521.194 206.331 528.651 207.844 535.665 210.798C542.439 213.659 548.53 217.775 553.753 222.998C558.995 228.221 563.092 234.312 565.953 241.086C568.925 248.1 570.42 255.557 570.42 263.235C570.42 270.914 568.925 278.389 565.953 285.403C563.092 292.177 558.995 298.268 553.753 303.491Z" fill="#8F00FF"/>
<path d="M207.562 163.27H83.2871V168.493H207.562V163.27Z" fill="#8F00FF"/>
<path d="M145.415 44.2383C128.25 44.2383 112.727 51.1968 101.486 62.4374C90.2458 73.678 83.2871 89.2008 83.2871 106.366C83.2871 123.532 90.2458 139.054 101.486 150.295C106.894 155.722 113.336 160.151 120.461 163.289C128.083 166.648 136.537 168.513 145.415 168.513C154.293 168.513 162.728 166.648 170.37 163.289C177.494 160.151 183.918 155.722 189.344 150.295C200.585 139.054 207.543 123.513 207.543 106.366C207.543 72.0537 179.709 44.2383 145.397 44.2383H145.415ZM185.653 146.622C180.429 151.846 174.338 155.943 167.583 158.822C160.569 161.776 153.112 163.289 145.415 163.289C137.718 163.289 130.28 161.776 123.266 158.822C116.492 155.943 110.401 151.846 105.178 146.622C99.936 141.38 95.8382 135.308 92.9773 128.515C90.0241 121.501 88.5107 114.045 88.5107 106.366C88.5107 98.6879 90.0241 91.2311 92.9773 84.2172C95.8382 77.4433 99.9544 71.3523 105.178 66.1104C110.401 60.8869 116.492 56.7894 123.266 53.9285C130.28 50.9568 137.737 49.4618 145.415 49.4618C153.093 49.4618 160.569 50.9568 167.583 53.9285C174.357 56.7894 180.448 60.9054 185.653 66.1104C190.894 71.3523 194.992 77.4249 197.871 84.2172C200.825 91.2311 202.338 98.6879 202.338 106.366C202.338 114.045 200.825 121.501 197.871 128.515C195.011 135.308 190.894 141.38 185.653 146.622Z" fill="#8F00FF"/>
<path d="M297.102 -50.5234V73.7325H302.325V-50.5234H297.102Z" fill="#8F00FF"/>
<path d="M299.705 -6.26234C298.967 -8.69874 298.099 -11.0798 297.084 -13.3685C293.946 -20.4931 289.535 -26.8978 284.127 -32.3243C272.886 -43.565 257.345 -50.5234 240.198 -50.5234C205.886 -50.5234 178.07 -22.6895 178.07 11.623C178.07 28.77 185.029 44.3112 196.269 55.5518C207.51 66.7924 223.033 73.7509 240.198 73.7509C257.364 73.7509 272.886 66.8109 284.127 55.5518C289.535 50.1438 293.965 43.7206 297.084 36.596C298.099 34.2888 298.967 31.9262 299.705 29.4898C301.403 23.8234 302.308 17.8247 302.308 11.6045C302.308 5.38434 301.403 -0.61435 299.705 -6.2808V-6.26234ZM292.617 33.772C289.757 40.5459 285.659 46.6369 280.417 51.8419C275.175 57.0838 269.103 61.1814 262.329 64.0607C255.315 67.0324 247.858 68.5275 240.18 68.5275C232.501 68.5275 225.044 67.0324 218.031 64.0607C211.257 61.1998 205.166 57.0838 199.942 51.8419C194.719 46.6184 190.621 40.5274 187.761 33.772C184.789 26.7581 183.294 19.3013 183.294 11.623C183.294 3.94466 184.789 -3.53064 187.761 -10.526C190.621 -17.3184 194.737 -23.3909 199.942 -28.6144C205.184 -33.8563 211.257 -37.9539 218.031 -40.8332C225.044 -43.7864 232.501 -45.3 240.18 -45.3C247.858 -45.3 255.315 -43.7864 262.329 -40.8332C269.121 -37.9539 275.194 -33.8563 280.417 -28.6144C285.659 -23.3909 289.757 -17.2999 292.617 -10.526C295.589 -3.51218 297.084 3.9262 297.084 11.623C297.084 19.3198 295.589 26.7581 292.617 33.772Z" fill="#8F00FF"/>
<path d="M94.6212 -32.3243C83.3806 -43.565 67.8395 -50.5234 50.6925 -50.5234C33.5454 -50.5234 18.0041 -43.565 6.76352 -32.3243C1.35547 -26.8978 -3.07438 -20.4746 -6.21216 -13.35C-7.46727 -10.4891 -8.53771 -7.48054 -9.34984 -4.41659C-10.7157 0.696137 -11.4355 6.06727 -11.4355 11.6045C-11.4355 17.1418 -10.7157 22.5129 -9.34984 27.6256C-8.53771 30.708 -7.48572 33.6982 -6.21216 36.5591C-3.07438 43.7021 1.35547 50.1253 6.76352 55.5334C18.0041 66.774 33.5454 73.7325 50.6925 73.7325C85.005 73.7325 112.82 45.917 112.82 11.6045C112.82 -5.56096 105.88 -21.1022 94.6212 -32.3428V-32.3243ZM90.9297 51.8419C85.6877 57.0838 79.5969 61.1814 72.823 64.0607C65.8091 67.0324 58.3523 68.5275 50.674 68.5275C42.9957 68.5275 35.5388 67.0324 28.525 64.0607C21.7326 61.1998 15.66 57.0838 10.4365 51.8419C5.19462 46.6184 1.09706 40.5274 -1.78231 33.772C-4.73551 26.7581 -6.24911 19.3013 -6.24911 11.623C-6.24911 3.94466 -4.73551 -3.53063 -1.78231 -10.526C1.09706 -17.3184 5.19462 -23.3909 10.4365 -28.6144C15.6785 -33.8563 21.7511 -37.9539 28.525 -40.8332C35.5388 -43.7864 42.9957 -45.3 50.674 -45.3C58.3523 -45.3 65.8091 -43.7864 72.823 -40.8332C79.5969 -37.9539 85.6877 -33.8563 90.9297 -28.6144C96.1531 -23.3909 100.251 -17.2999 103.112 -10.526C106.083 -3.51218 107.578 3.9262 107.578 11.623C107.578 19.3198 106.083 26.7581 103.112 33.772C100.251 40.5459 96.1347 46.6369 90.9297 51.8419V51.8419Z" fill="#8F00FF"/>
<path d="M83.3027 363.22H207.577V357.996H83.3027V363.22Z" fill="#8F00FF"/>
<path d="M189.36 376.194C183.952 370.768 177.51 366.338 170.385 363.2C162.744 359.841 154.29 357.977 145.431 357.977C136.571 357.977 128.118 359.841 120.476 363.2C113.352 366.338 106.928 370.768 101.502 376.194C90.2612 387.435 83.3027 402.976 83.3027 420.123C83.3027 454.435 111.118 482.251 145.431 482.251C162.578 482.251 178.119 475.311 189.36 464.052C200.6 452.811 207.559 437.27 207.559 420.123C207.559 402.976 200.6 387.416 189.36 376.194V376.194ZM185.668 460.379C180.445 465.602 174.354 469.7 167.598 472.561C160.584 475.532 153.128 477.027 145.431 477.027C137.734 477.027 130.296 475.532 123.282 472.561C116.508 469.7 110.417 465.584 105.193 460.36C99.9514 455.137 95.8538 449.046 92.9929 442.272C90.0397 435.258 88.5264 427.801 88.5264 420.123C88.5264 412.445 90.0397 404.988 92.9929 397.974C95.8538 391.182 99.9698 385.091 105.193 379.867C110.417 374.625 116.508 370.546 123.282 367.667C130.296 364.695 137.752 363.2 145.431 363.2C153.109 363.2 160.584 364.714 167.598 367.667C174.372 370.546 180.463 374.644 185.668 379.867C190.91 385.091 195.008 391.182 197.887 397.974C200.84 404.988 202.354 412.426 202.354 420.123C202.354 427.82 200.84 435.258 197.887 442.272C195.026 449.046 190.91 455.137 185.668 460.379Z" fill="#8F00FF"/>
<path d="M297.102 452.756V577.03H302.325V452.756H297.102Z" fill="#8F00FF"/>
<path d="M299.705 497.017C298.967 494.562 298.099 492.2 297.084 489.892C293.946 482.786 289.535 476.363 284.127 470.955C272.886 459.714 257.345 452.756 240.198 452.756C205.886 452.756 178.07 480.571 178.07 514.884C178.07 532.049 185.029 547.591 196.269 558.831C207.51 570.072 223.033 577.03 240.198 577.03C257.364 577.03 272.886 570.072 284.127 558.831C289.535 553.405 293.965 547 297.084 539.875C298.099 537.568 298.967 535.206 299.705 532.769C301.403 527.121 302.308 521.104 302.308 514.884C302.308 508.664 301.403 502.683 299.705 497.017V497.017ZM292.617 537.033C289.757 543.825 285.659 549.916 280.417 555.14C275.175 560.382 269.103 564.461 262.329 567.34C255.315 570.312 247.858 571.807 240.18 571.807C232.501 571.807 225.044 570.293 218.031 567.34C211.257 564.461 205.166 560.363 199.942 555.14C194.719 549.916 190.621 543.825 187.761 537.033C184.789 530.019 183.294 522.581 183.294 514.884C183.294 507.187 184.789 499.749 187.761 492.735C190.621 485.961 194.737 479.87 199.942 474.646C205.184 469.405 211.257 465.307 218.031 462.446C225.044 459.474 232.501 457.979 240.18 457.979C247.858 457.979 255.315 459.474 262.329 462.446C269.121 465.307 275.194 469.423 280.417 474.646C285.659 479.87 289.757 485.961 292.617 492.735C295.589 499.749 297.084 507.206 297.084 514.884C297.084 522.562 295.589 530.019 292.617 537.033Z" fill="#8F00FF"/>
<path d="M94.6212 470.955C83.3806 459.714 67.8395 452.756 50.6925 452.756C33.5454 452.756 18.0041 459.714 6.76352 470.955C1.35547 476.363 -3.07438 482.805 -6.21216 489.929C-7.46727 492.79 -8.53771 495.78 -9.34984 498.863C-10.7157 503.975 -11.4355 509.347 -11.4355 514.884C-11.4355 520.421 -10.7157 525.792 -9.34984 530.905C-8.53771 533.987 -7.48572 536.977 -6.21216 539.857C-3.07438 546.981 1.35547 553.405 6.76352 558.831C18.0041 570.072 33.5454 577.03 50.6925 577.03C85.005 577.03 112.82 549.196 112.82 514.884C112.82 497.737 105.88 482.196 94.6212 470.955V470.955ZM90.9297 555.121C85.6877 560.363 79.5969 564.442 72.823 567.322C65.8091 570.293 58.3523 571.788 50.674 571.788C42.9957 571.788 35.5388 570.275 28.525 567.322C21.7326 564.442 15.66 560.345 10.4365 555.121C5.19462 549.898 1.09706 543.807 -1.78231 537.014C-4.73551 530 -6.24911 522.562 -6.24911 514.865C-6.24911 507.169 -4.73551 499.73 -1.78231 492.716C1.09706 485.942 5.19462 479.851 10.4365 474.628C15.6785 469.386 21.7511 465.288 28.525 462.428C35.5388 459.456 42.9957 457.961 50.674 457.961C58.3523 457.961 65.8091 459.456 72.823 462.428C79.5969 465.288 85.6877 469.405 90.9297 474.628C96.1531 479.851 100.251 485.942 103.112 492.716C106.083 499.73 107.578 507.187 107.578 514.865C107.578 522.544 106.083 530 103.112 537.014C100.251 543.807 96.1347 549.898 90.9297 555.121Z" fill="#8F00FF"/>
<path d="M516.1 163.27H391.844V168.493H516.1V163.27Z" fill="#8F00FF"/>
<path d="M453.99 44.2383C436.825 44.2383 421.283 51.1968 410.043 62.4374C398.802 73.678 391.844 89.2008 391.844 106.366C391.844 123.532 398.802 139.054 410.043 150.295C415.469 155.722 421.893 160.151 429.017 163.289C436.659 166.648 445.112 168.513 453.972 168.513C462.831 168.513 471.285 166.648 478.926 163.289C486.069 160.151 492.474 155.722 497.9 150.295C509.141 139.054 516.081 123.513 516.081 106.366C516.081 72.0537 488.284 44.2383 453.953 44.2383H453.99ZM494.209 146.622C488.985 151.846 482.895 155.943 476.139 158.822C469.125 161.776 461.669 163.289 453.99 163.289C446.312 163.289 438.855 161.776 431.841 158.822C425.049 155.943 418.976 151.846 413.753 146.622C408.511 141.38 404.432 135.308 401.552 128.515C398.581 121.501 397.086 114.045 397.086 106.366C397.086 98.6879 398.599 91.2311 401.552 84.2172C404.432 77.4433 408.529 71.3523 413.753 66.1104C418.976 60.8869 425.067 56.7894 431.841 53.9285C438.855 50.9568 446.293 49.4618 453.99 49.4618C461.687 49.4618 469.125 50.9568 476.139 53.9285C482.913 56.7894 489.004 60.9054 494.209 66.1104C499.451 71.3523 503.548 77.4249 506.428 84.2172C509.399 91.2311 510.895 98.6879 510.895 106.366C510.895 114.045 509.399 121.501 506.428 128.515C503.567 135.308 499.451 141.38 494.209 146.622Z" fill="#8F00FF"/>
<path d="M607.719 -7.90506C607.11 -9.76927 606.408 -11.5781 605.633 -13.35C602.495 -20.4746 598.066 -26.8978 592.657 -32.3243C581.417 -43.565 565.876 -50.5234 548.71 -50.5234C514.398 -50.5234 486.582 -22.6895 486.582 11.623C486.582 28.77 493.541 44.3112 504.781 55.5518C516.022 66.7924 531.545 73.7509 548.71 73.7509C565.876 73.7509 581.417 66.8109 592.657 55.5518C598.066 50.1438 602.495 43.7021 605.633 36.5775C606.408 34.8056 607.11 32.9968 607.719 31.1326C609.749 25.0047 610.857 18.4338 610.857 11.623C610.857 4.81216 609.767 -1.75872 607.719 -7.88661V-7.90506ZM601.166 33.7535C598.287 40.5274 594.189 46.6184 588.966 51.8234C583.742 57.0653 577.651 61.1629 570.878 64.0423C563.864 67.0139 556.425 68.509 548.729 68.509C541.032 68.509 533.593 67.0139 526.58 64.0423C519.806 61.1814 513.715 57.0653 508.491 51.8234C503.268 46.5999 499.152 40.509 496.291 33.7535C493.319 26.7397 491.824 19.2828 491.824 11.6045C491.824 3.92619 493.319 -3.54909 496.291 -10.5445C499.152 -17.3368 503.268 -23.4094 508.491 -28.6328C513.715 -33.8748 519.806 -37.9723 526.561 -40.8517C533.575 -43.8049 541.032 -45.3184 548.71 -45.3184C556.388 -45.3184 563.845 -43.8049 570.859 -40.8517C577.651 -37.9723 583.724 -33.8748 588.947 -28.6328C594.189 -23.4094 598.268 -17.3184 601.148 -10.5445C604.12 -3.53064 605.614 3.90774 605.614 11.6045C605.614 19.3013 604.101 26.7397 601.148 33.7535H601.166Z" fill="#8F00FF"/>
<path d="M302.307 73.7325V-50.5234H297.084V73.7325H302.307Z" fill="#8F00FF"/>
<path d="M403.158 -32.3243C391.918 -43.565 376.376 -50.5234 359.229 -50.5234C342.082 -50.5234 326.541 -43.565 315.301 -32.3243C309.874 -26.8978 305.463 -20.4931 302.325 -13.3685C301.31 -11.0613 300.442 -8.69874 299.722 -6.26234C298.006 -0.614349 297.102 5.4028 297.102 11.623C297.102 17.8432 298.006 23.8418 299.722 29.5083C300.442 31.9447 301.31 34.3072 302.325 36.6144C305.463 43.739 309.874 50.1438 315.301 55.5703C326.541 66.8109 342.082 73.7694 359.229 73.7694C393.542 73.7694 421.357 45.9539 421.357 11.6414C421.357 -5.52405 414.417 -21.0653 403.158 -32.3059V-32.3243ZM399.467 51.8419C394.243 57.0838 388.152 61.1814 381.378 64.0607C374.364 67.0324 366.908 68.5275 359.229 68.5275C351.551 68.5275 344.094 67.0324 337.08 64.0607C330.306 61.1998 324.216 57.0838 318.974 51.8419C313.75 46.6184 309.653 40.5274 306.792 33.772C303.82 26.7581 302.325 19.3013 302.325 11.623C302.325 3.94466 303.82 -3.53064 306.792 -10.526C309.653 -17.3184 313.75 -23.3909 318.974 -28.6144C324.216 -33.8563 330.306 -37.9539 337.08 -40.8332C344.094 -43.7864 351.551 -45.3 359.229 -45.3C366.908 -45.3 374.364 -43.7864 381.378 -40.8332C388.152 -37.9539 394.243 -33.8563 399.467 -28.6144C404.69 -23.3909 408.806 -17.2999 411.667 -10.526C414.639 -3.51218 416.134 3.9262 416.134 11.623C416.134 19.3198 414.639 26.7581 411.667 33.772C408.806 40.5459 404.69 46.6369 399.467 51.8419V51.8419Z" fill="#8F00FF"/>
<path d="M391.844 363.22H516.1V357.996H391.844V363.22Z" fill="#8F00FF"/>
<path d="M497.918 376.194C492.492 370.768 486.069 366.338 478.944 363.2C471.303 359.841 462.867 357.977 453.989 357.977C445.111 357.977 436.658 359.841 429.035 363.2C421.91 366.338 415.487 370.768 410.06 376.194C398.82 387.435 391.861 402.976 391.861 420.123C391.861 454.435 419.695 482.251 454.008 482.251C471.155 482.251 486.696 475.311 497.937 464.052C509.177 452.811 516.117 437.27 516.117 420.123C516.117 402.976 509.177 387.416 497.937 376.194H497.918ZM494.208 460.379C488.985 465.602 482.894 469.7 476.138 472.561C469.124 475.532 461.668 477.027 453.989 477.027C446.311 477.027 438.854 475.532 431.84 472.561C425.048 469.7 418.975 465.584 413.752 460.36C408.51 455.137 404.431 449.046 401.552 442.272C398.58 435.258 397.085 427.801 397.085 420.123C397.085 412.445 398.598 404.988 401.552 397.974C404.431 391.182 408.528 385.091 413.752 379.867C418.975 374.625 425.066 370.546 431.84 367.667C438.854 364.695 446.293 363.2 453.989 363.2C461.686 363.2 469.124 364.714 476.138 367.667C482.912 370.546 489.003 374.644 494.208 379.867C499.45 385.091 503.548 391.182 506.427 397.974C509.399 404.988 510.894 412.426 510.894 420.123C510.894 427.82 509.399 435.258 506.427 442.272C503.566 449.046 499.45 455.137 494.208 460.379Z" fill="#8F00FF"/>
<path d="M607.719 495.374C607.11 493.528 606.408 491.701 605.633 489.929C602.495 482.805 598.066 476.381 592.657 470.955C581.417 459.714 565.876 452.756 548.71 452.756C514.398 452.756 486.582 480.571 486.582 514.884C486.582 532.049 493.541 547.591 504.781 558.831C516.022 570.072 531.545 577.03 548.71 577.03C565.876 577.03 581.417 570.072 592.657 558.831C598.066 553.405 602.495 546.981 605.633 539.857C606.408 538.085 607.11 536.258 607.719 534.412C609.749 528.284 610.857 521.713 610.857 514.902C610.857 508.091 609.767 501.521 607.719 495.393V495.374ZM601.166 537.033C598.287 543.825 594.189 549.916 588.966 555.14C583.742 560.382 577.651 564.461 570.878 567.34C563.864 570.312 556.425 571.807 548.729 571.807C541.032 571.807 533.593 570.293 526.58 567.34C519.806 564.461 513.715 560.363 508.491 555.14C503.268 549.916 499.152 543.825 496.291 537.033C493.319 530.019 491.824 522.581 491.824 514.884C491.824 507.187 493.319 499.749 496.291 492.735C499.152 485.961 503.268 479.87 508.491 474.646C513.715 469.405 519.806 465.307 526.561 462.446C533.575 459.474 541.032 457.979 548.71 457.979C556.388 457.979 563.845 459.474 570.859 462.446C577.651 465.307 583.724 469.423 588.947 474.646C594.189 479.87 598.268 485.961 601.148 492.735C604.12 499.749 605.614 507.206 605.614 514.884C605.614 522.562 604.101 530.019 601.148 537.033H601.166Z" fill="#8F00FF"/>
<path d="M302.307 577.03V452.756H297.084V577.03H302.307Z" fill="#8F00FF"/>
<path d="M403.158 470.955C391.918 459.714 376.376 452.756 359.229 452.756C342.082 452.756 326.541 459.714 315.301 470.955C309.874 476.363 305.463 482.786 302.325 489.892C301.31 492.2 300.442 494.562 299.722 497.017C298.006 502.683 297.102 508.682 297.102 514.884C297.102 521.086 298.006 527.103 299.722 532.769C300.442 535.206 301.31 537.568 302.325 539.875C305.463 547 309.874 553.405 315.301 558.831C326.541 570.072 342.082 577.03 359.229 577.03C393.542 577.03 421.357 549.196 421.357 514.884C421.357 497.737 414.417 482.196 403.158 470.955V470.955ZM399.467 555.121C394.243 560.363 388.152 564.442 381.378 567.322C374.364 570.293 366.908 571.788 359.229 571.788C351.551 571.788 344.094 570.275 337.08 567.322C330.306 564.442 324.216 560.345 318.974 555.121C313.75 549.898 309.653 543.807 306.792 537.014C303.82 530 302.325 522.562 302.325 514.865C302.325 507.169 303.82 499.73 306.792 492.716C309.653 485.942 313.75 479.851 318.974 474.628C324.216 469.386 330.306 465.288 337.08 462.428C344.094 459.456 351.551 457.961 359.229 457.961C366.908 457.961 374.364 459.456 381.378 462.428C388.152 465.288 394.243 469.405 399.467 474.628C404.69 479.851 408.806 485.942 411.667 492.716C414.639 499.73 416.134 507.187 416.134 514.865C416.134 522.544 414.639 530 411.667 537.014C408.806 543.807 404.69 549.898 399.467 555.121Z" fill="#8F00FF"/>
</g>
<defs>
<clipPath id="clip0_1386_10586">
<rect width="600" height="525" fill="white"/>
</clipPath>
</defs>
</svg>
