<svg width="600" height="525" viewBox="0 0 600 525" fill="none" xmlns="http://www.w3.org/2000/svg">
<rect width="600" height="525" rx="4.88661" fill="white"/>
<g clip-path="url(#clip0_1382_10239)">
<rect width="600" height="525" fill="#F3F3F3"/>
<path d="M64.0608 104.875C107.381 104.875 142.487 69.7505 142.487 26.4307C142.487 -16.889 107.362 -52.0137 64.0608 -52.0137C20.7595 -52.0137 -14.3652 -16.889 -14.3652 26.4307C-14.3652 69.7505 20.7595 104.875 64.0608 104.875Z" stroke="#999999" stroke-width="3.40761" stroke-miterlimit="10"/>
<path d="M142.49 -52.0137H-14.3809V104.875H142.49V-52.0137Z" stroke="#999999" stroke-width="3.40761" stroke-miterlimit="10"/>
<path d="M99.3009 -8.82227H28.8301V61.6669H99.3009V-8.82227Z" stroke="#999999" stroke-width="3.40761" stroke-miterlimit="10"/>
<path d="M413.021 -8.82227H342.551V61.6669H413.021V-8.82227Z" stroke="#999999" stroke-width="3.40761" stroke-miterlimit="10"/>
<path d="M99.3009 304.936H28.8301V375.425H99.3009V304.936Z" stroke="#999999" stroke-width="3.40761" stroke-miterlimit="10"/>
<path d="M413.021 304.938H342.551V375.427H413.021V304.938Z" stroke="#999999" stroke-width="3.40761" stroke-miterlimit="10"/>
<path d="M256.149 148.066H185.678V218.556H256.149V148.066Z" stroke="#999999" stroke-width="3.40761" stroke-miterlimit="10"/>
<path d="M569.891 148.066H499.402V218.556H569.891V148.066Z" stroke="#999999" stroke-width="3.40761" stroke-miterlimit="10"/>
<path d="M256.149 461.844H185.678V532.333H256.149V461.844Z" stroke="#999999" stroke-width="3.40761" stroke-miterlimit="10"/>
<path d="M569.891 461.844H499.402V532.333H569.891V461.844Z" stroke="#999999" stroke-width="3.40761" stroke-miterlimit="10"/>
<path d="M220.933 61.666C240.387 61.666 256.168 45.8849 256.168 26.4307C256.168 6.97653 240.387 -8.80469 220.933 -8.80469C201.479 -8.80469 185.697 6.97653 185.697 26.4307C185.697 45.8849 201.479 61.666 220.933 61.666Z" stroke="#999999" stroke-width="3.40761" stroke-miterlimit="10"/>
<path d="M534.657 61.666C554.111 61.666 569.892 45.8849 569.892 26.4307C569.892 6.97653 554.111 -8.80469 534.657 -8.80469C515.203 -8.80469 499.422 6.97653 499.422 26.4307C499.422 45.8849 515.203 61.666 534.657 61.666Z" stroke="#999999" stroke-width="3.40761" stroke-miterlimit="10"/>
<path d="M220.933 375.426C240.387 375.426 256.168 359.645 256.168 340.191C256.168 320.736 240.387 304.955 220.933 304.955C201.479 304.955 185.697 320.736 185.697 340.191C185.697 359.645 201.479 375.426 220.933 375.426Z" stroke="#999999" stroke-width="3.40761" stroke-miterlimit="10"/>
<path d="M534.657 375.426C554.111 375.426 569.892 359.645 569.892 340.191C569.892 320.736 554.111 304.955 534.657 304.955C515.203 304.955 499.422 320.736 499.422 340.191C499.422 359.645 515.203 375.426 534.657 375.426Z" stroke="#999999" stroke-width="3.40761" stroke-miterlimit="10"/>
<path d="M64.0656 218.537C83.5198 218.537 99.3009 202.756 99.3009 183.302C99.3009 163.848 83.5198 148.066 64.0656 148.066C44.6114 148.066 28.8301 163.848 28.8301 183.302C28.8301 202.756 44.6114 218.537 64.0656 218.537Z" stroke="#999999" stroke-width="3.40761" stroke-miterlimit="10"/>
<path d="M377.806 218.537C397.26 218.537 413.041 202.756 413.041 183.302C413.041 163.848 397.26 148.066 377.806 148.066C358.352 148.066 342.57 163.848 342.57 183.302C342.57 202.756 358.352 218.537 377.806 218.537Z" stroke="#999999" stroke-width="3.40761" stroke-miterlimit="10"/>
<path d="M64.0656 532.314C83.5198 532.314 99.3009 516.533 99.3009 497.079C99.3009 477.625 83.5198 461.844 64.0656 461.844C44.6114 461.844 28.8301 477.625 28.8301 497.079C28.8301 516.533 44.6114 532.314 64.0656 532.314Z" stroke="#999999" stroke-width="3.40761" stroke-miterlimit="10"/>
<path d="M377.806 532.314C397.26 532.314 413.041 516.533 413.041 497.079C413.041 477.625 397.26 461.844 377.806 461.844C358.352 461.844 342.57 477.625 342.57 497.079C342.57 516.533 358.352 532.314 377.806 532.314Z" stroke="#999999" stroke-width="3.40761" stroke-miterlimit="10"/>
<path d="M299.36 26.4131L220.934 -52.0312L142.508 26.4131L220.934 104.858L299.36 26.4131Z" stroke="#999999" stroke-width="3.40761" stroke-linejoin="bevel"/>
<path d="M377.785 104.875C421.105 104.875 456.211 69.7505 456.211 26.4307C456.211 -16.889 421.087 -52.0137 377.785 -52.0137C334.484 -52.0137 299.359 -16.889 299.359 26.4307C299.359 69.7505 334.484 104.875 377.785 104.875Z" stroke="#999999" stroke-width="3.40761" stroke-miterlimit="10"/>
<path d="M456.23 -52.0137H299.359V104.875H456.23V-52.0137Z" stroke="#999999" stroke-width="3.40761" stroke-miterlimit="10"/>
<path d="M534.654 261.746C577.974 261.746 613.08 226.622 613.08 183.302C613.08 139.982 577.956 104.857 534.654 104.857C491.353 104.857 456.229 139.982 456.229 183.302C456.229 226.622 491.353 261.746 534.654 261.746Z" stroke="#999999" stroke-width="3.40761" stroke-miterlimit="10"/>
<path d="M613.081 104.857H456.211V261.746H613.081V104.857Z" stroke="#999999" stroke-width="3.40761" stroke-miterlimit="10"/>
<path d="M613.08 26.4131L534.654 -52.0312L456.229 26.4131L534.654 104.858L613.08 26.4131Z" stroke="#999999" stroke-width="3.40761" stroke-linejoin="bevel"/>
<path d="M220.933 261.746C264.252 261.746 299.359 226.622 299.359 183.302C299.359 139.982 264.234 104.857 220.933 104.857C177.631 104.857 142.488 139.982 142.488 183.302C142.488 226.622 177.613 261.746 220.933 261.746Z" stroke="#999999" stroke-width="3.40761" stroke-miterlimit="10"/>
<path d="M299.359 104.857H142.488V261.746H299.359V104.857Z" stroke="#999999" stroke-width="3.40761" stroke-miterlimit="10"/>
<path d="M456.211 183.302L377.785 104.857L299.359 183.302L377.785 261.746L456.211 183.302Z" stroke="#999999" stroke-width="3.40761" stroke-linejoin="bevel"/>
<path d="M142.487 183.302L64.0608 104.857L-14.3652 183.302L64.0608 261.746L142.487 183.302Z" stroke="#999999" stroke-width="3.40761" stroke-linejoin="bevel"/>
<path d="M64.0608 418.635C107.381 418.635 142.487 383.51 142.487 340.19C142.487 296.871 107.362 261.746 64.0608 261.746C20.7595 261.746 -14.3652 296.871 -14.3652 340.19C-14.3652 383.51 20.7595 418.635 64.0608 418.635Z" stroke="#999999" stroke-width="3.40761" stroke-miterlimit="10"/>
<path d="M142.49 261.746H-14.3809V418.635H142.49V261.746V261.746Z" stroke="#999999" stroke-width="3.40761" stroke-miterlimit="10"/>
<path d="M299.36 340.19L220.934 261.746L142.508 340.19L220.934 418.635L299.36 340.19V340.19Z" stroke="#999999" stroke-width="3.40761" stroke-linejoin="bevel"/>
<path d="M377.785 418.635C421.105 418.635 456.211 383.51 456.211 340.19C456.211 296.871 421.087 261.746 377.785 261.746C334.484 261.746 299.359 296.871 299.359 340.19C299.359 383.51 334.484 418.635 377.785 418.635Z" stroke="#999999" stroke-width="3.40761" stroke-miterlimit="10"/>
<path d="M456.23 261.746H299.359V418.635H456.23V261.746V261.746Z" stroke="#999999" stroke-width="3.40761" stroke-miterlimit="10"/>
<path d="M534.654 575.525C577.974 575.525 613.08 540.401 613.08 497.081C613.08 453.761 577.956 418.637 534.654 418.637C491.353 418.637 456.229 453.761 456.229 497.081C456.229 540.401 491.353 575.525 534.654 575.525Z" stroke="#999999" stroke-width="3.40761" stroke-miterlimit="10"/>
<path d="M613.081 418.637H456.211V575.525H613.081V418.637Z" stroke="#999999" stroke-width="3.40761" stroke-miterlimit="10"/>
<path d="M613.08 340.208L534.654 261.764L456.229 340.208L534.654 418.634L613.08 340.208V340.208Z" stroke="#999999" stroke-width="3.40761" stroke-linejoin="bevel"/>
<path d="M220.933 575.524C264.252 575.524 299.359 540.399 299.359 497.079C299.359 453.759 264.234 418.635 220.933 418.635C177.631 418.635 142.488 453.759 142.488 497.079C142.488 540.399 177.613 575.524 220.933 575.524Z" stroke="#999999" stroke-width="3.40761" stroke-miterlimit="10"/>
<path d="M299.359 418.635H142.488V575.524H299.359V418.635Z" stroke="#999999" stroke-width="3.40761" stroke-miterlimit="10"/>
<path d="M456.211 497.062L377.785 418.617L299.359 497.062L377.785 575.506L456.211 497.062Z" stroke="#999999" stroke-width="3.40761" stroke-linejoin="bevel"/>
<path d="M142.487 497.079L64.0608 418.635L-14.3652 497.079L64.0608 575.505L142.487 497.079Z" stroke="#999999" stroke-width="3.40761" stroke-linejoin="bevel"/>
<path d="M613.079 -52.0137H-14.3652V575.541H613.079V-52.0137V-52.0137Z" stroke="#999999" stroke-width="3.40761" stroke-miterlimit="10"/>
</g>
<defs>
<clipPath id="clip0_1382_10239">
<rect width="600" height="525" fill="white"/>
</clipPath>
</defs>
</svg>
