<svg width="600" height="525" viewBox="0 0 600 525" fill="none" xmlns="http://www.w3.org/2000/svg">
<rect width="600" height="525" rx="4.88661" fill="white"/>
<g clip-path="url(#clip0_1382_9945)">
<rect width="600" height="525" fill="#F3F3F3"/>
<path d="M613.291 -50.5234H-14.1719V577.032H613.291V-50.5234Z" stroke="#999999" stroke-width="3.40761" stroke-miterlimit="10"/>
<path d="M-14.1719 171.336V277.282C15.4155 292.805 52.8473 288.135 77.7095 263.236C108.331 232.615 108.331 182.946 77.7095 152.306C52.8288 127.426 15.4155 122.756 -14.1719 138.279" stroke="#999999" stroke-width="3.40761" stroke-miterlimit="10"/>
<path d="M77.7067 263.238L22.6112 318.352L22.2605 318.721C22.1313 318.85 22.0205 318.961 21.9098 319.072L-14.1562 355.156V171.338L77.7251 263.238H77.7067Z" stroke="#999999" stroke-width="3.40761" stroke-miterlimit="10"/>
<path d="M188.637 341.68C231.957 341.68 267.063 306.555 267.063 263.235C267.063 219.916 231.938 184.791 188.637 184.791C145.336 184.791 110.211 219.916 110.211 263.235C110.211 306.555 145.336 341.68 188.637 341.68Z" stroke="#999999" stroke-width="3.40761" stroke-miterlimit="10"/>
<path d="M77.7109 452.629C121.031 452.629 156.137 417.504 156.137 374.185C156.137 330.865 121.012 295.74 77.7109 295.74C34.4096 295.74 -0.714844 330.865 -0.714844 374.185C-0.714844 417.504 34.4096 452.629 77.7109 452.629Z" stroke="#999999" stroke-width="3.40761" stroke-miterlimit="10"/>
<path d="M133.176 207.771L22.2461 318.701L133.176 429.649L244.105 318.701L133.176 207.771V207.771Z" stroke="#999999" stroke-width="3.40761" stroke-miterlimit="10"/>
<path d="M207.653 -50.5234H313.581C329.104 -20.9361 324.434 16.4958 299.553 41.3765C268.932 71.9975 219.282 71.9975 188.642 41.3765C163.762 16.4958 159.11 -20.9361 174.614 -50.5234" stroke="#999999" stroke-width="3.40761" stroke-miterlimit="10"/>
<path d="M133.174 175.284C176.494 175.284 211.6 140.16 211.6 96.8399C211.6 53.5201 176.475 18.3955 133.174 18.3955C89.8727 18.3955 54.748 53.5201 54.748 96.8399C54.748 140.16 89.8727 175.284 133.174 175.284Z" stroke="#999999" stroke-width="3.40761" stroke-miterlimit="10"/>
<path d="M169.609 -50.5234L133.174 -14.0883L77.709 41.3765L188.62 152.306L244.085 96.8412L299.55 41.3765L207.65 -50.5234" stroke="#999999" stroke-width="3.40761" stroke-miterlimit="10"/>
<path d="M410.481 119.821C453.8 119.821 488.906 84.6968 488.906 41.377C488.906 -1.94275 453.8 -37.0674 410.481 -37.0674C367.161 -37.0674 332.055 -1.94275 332.055 41.377C332.055 84.6968 367.179 119.821 410.481 119.821Z" stroke="#999999" stroke-width="3.40761" stroke-miterlimit="10"/>
<path d="M299.567 230.75C342.886 230.75 377.992 195.625 377.992 152.306C377.992 108.986 342.868 73.8613 299.567 73.8613C256.265 73.8613 221.141 108.986 221.141 152.306C221.141 195.625 256.265 230.75 299.567 230.75Z" stroke="#999999" stroke-width="3.40761" stroke-miterlimit="10"/>
<path d="M355.016 -14.1064L244.086 96.8416L355.016 207.771L465.945 96.8416L355.016 -14.1064V-14.1064Z" stroke="#999999" stroke-width="3.40761" stroke-miterlimit="10"/>
<path d="M244.088 508.092C287.408 508.092 322.514 472.967 322.514 429.648C322.514 386.328 287.389 351.203 244.088 351.203C200.787 351.203 165.662 386.328 165.662 429.648C165.662 472.967 200.787 508.092 244.088 508.092Z" stroke="#999999" stroke-width="3.40761" stroke-miterlimit="10"/>
<path d="M77.709 485.113C77.9489 484.873 78.1889 484.633 78.4473 484.412C78.6873 484.172 78.9273 483.932 79.1672 483.692C79.6656 483.212 80.164 482.769 80.6439 482.326C81.1422 481.865 81.6405 481.422 82.1388 480.997C82.6556 480.554 83.1541 480.13 83.6709 479.705C84.1878 479.281 84.7045 478.875 85.2213 478.469C85.7566 478.062 86.2918 477.638 86.8271 477.25C87.2332 476.955 87.6578 476.641 88.0823 476.364C88.1192 476.364 88.1191 476.309 88.156 476.309C88.3221 476.18 88.4698 476.069 88.6359 475.977C88.9681 475.737 89.3004 475.497 89.6327 475.312C89.6696 475.275 89.7064 475.257 89.7248 475.238C90.2601 474.869 90.8139 474.519 91.3676 474.186C92.0505 473.743 92.7519 473.319 93.4718 472.894C93.9701 472.599 94.4686 472.304 95.0039 472.008C95.5761 471.695 96.1296 471.381 96.7018 471.086C97.1079 470.864 97.514 470.661 97.9201 470.458C98.3446 470.237 98.769 470.033 99.1935 469.83C99.5442 469.646 99.9135 469.498 100.264 469.314C100.781 469.074 101.316 468.834 101.852 468.594C102.239 468.428 102.627 468.262 103.014 468.095C103.531 467.892 104.029 467.671 104.546 467.486C105.211 467.21 105.875 466.97 106.558 466.73C107.038 466.545 107.518 466.397 108.016 466.231C108.496 466.065 108.976 465.899 109.456 465.751C109.917 465.604 110.379 465.456 110.84 465.327C111.191 465.216 111.56 465.124 111.911 465.031C112.003 464.995 112.114 464.976 112.206 464.939C112.723 464.792 113.24 464.644 113.757 464.533C113.849 464.496 113.941 464.478 114.033 464.459C114.347 464.367 114.661 464.293 114.975 464.219C115.086 464.201 115.178 464.182 115.289 464.164C115.842 464.016 116.396 463.906 116.95 463.795C117.522 463.666 118.076 463.555 118.648 463.444C119.737 463.241 120.826 463.057 121.915 462.909C122.542 462.817 123.152 462.724 123.779 462.669C124.407 462.577 125.034 462.521 125.662 462.466C126.289 462.411 126.898 462.355 127.526 462.318C128.154 462.263 128.781 462.226 129.408 462.207C129.851 462.189 130.295 462.171 130.738 462.152H130.978C131.697 462.115 132.436 462.115 133.174 462.115C133.986 462.115 134.78 462.115 135.592 462.152C135.869 462.152 136.127 462.152 136.404 462.189C136.644 462.189 136.865 462.189 137.087 462.226C137.382 462.226 137.659 462.226 137.954 462.263C138.25 462.263 138.527 462.3 138.803 462.318C139.634 462.374 140.446 462.447 141.258 462.54C141.517 462.54 141.775 462.577 142.034 462.614C142.2 462.614 142.384 462.669 142.55 462.669C143.067 462.724 143.584 462.798 144.101 462.872C144.285 462.872 144.488 462.927 144.673 462.964C145.19 463.038 145.725 463.112 146.26 463.204C146.555 463.241 146.833 463.296 147.109 463.352C147.165 463.352 147.202 463.352 147.238 463.37C148.143 463.518 149.066 463.721 149.97 463.906C150.819 464.09 151.668 464.293 152.499 464.515C152.628 464.533 152.776 464.57 152.905 464.607C153.57 464.773 154.234 464.958 154.88 465.161C155.083 465.198 155.286 465.271 155.507 465.327C156.726 465.678 157.907 466.065 159.107 466.49C159.716 466.693 160.306 466.914 160.916 467.136C162.097 467.597 163.26 468.077 164.441 468.557C166.194 469.332 167.929 470.144 169.627 471.049C170.772 471.639 171.898 472.267 173.005 472.931C174.666 473.928 176.309 474.98 177.915 476.088C178.376 476.42 178.856 476.752 179.318 477.084C179.798 477.435 180.277 477.786 180.739 478.155C182.105 479.207 183.415 480.296 184.726 481.44C185.593 482.197 186.461 482.991 187.31 483.803C187.734 484.209 188.159 484.615 188.583 485.039C189.063 485.519 189.525 485.999 190.005 486.479C190.927 487.457 191.813 488.436 192.699 489.451C193.142 489.968 193.567 490.466 193.973 490.983C194.379 491.5 194.803 492.016 195.191 492.552C195.597 493.068 196.003 493.604 196.391 494.121C196.778 494.637 197.166 495.173 197.535 495.726C198.292 496.778 199.012 497.867 199.695 498.975C201.061 501.19 202.316 503.442 203.46 505.73C203.755 506.303 204.032 506.875 204.291 507.484C204.863 508.683 205.398 509.92 205.878 511.157C205.933 511.286 205.989 511.415 206.026 511.544C206.21 511.95 206.358 512.357 206.505 512.781C206.745 513.372 206.948 513.962 207.17 514.571C207.373 515.181 207.576 515.771 207.779 516.38C207.964 516.989 208.148 517.598 208.333 518.189C208.517 518.798 208.684 519.407 208.85 519.998C208.997 520.57 209.145 521.105 209.274 521.678C209.293 521.733 209.311 521.788 209.311 521.844C209.459 522.453 209.606 523.062 209.736 523.689C209.865 524.225 209.976 524.76 210.086 525.295C210.086 525.369 210.123 525.443 210.123 525.535C211.545 532.955 211.914 540.541 211.194 548.035C211.138 548.662 211.065 549.29 210.991 549.918C210.862 551.154 210.658 552.409 210.455 553.646C210.363 554.274 210.253 554.883 210.123 555.51C209.883 556.747 209.606 557.965 209.311 559.202C209.219 559.645 209.108 560.088 208.979 560.512L208.739 561.417C208.61 561.878 208.499 562.321 208.351 562.764C208.259 563.096 208.148 563.465 208.038 563.816C207.964 564.111 207.871 564.388 207.779 564.665C207.539 565.385 207.299 566.123 207.041 566.843L206.911 567.212C206.911 567.212 206.856 567.36 206.838 567.452C205.786 570.313 204.568 573.137 203.183 575.887C202.999 576.256 202.814 576.607 202.611 576.976" stroke="#999999" stroke-width="3.40761" stroke-miterlimit="10"/>
<path d="M169.61 577.03L79.4821 486.884L77.7285 485.112L78.4484 484.392C78.6883 484.152 78.9283 483.912 79.1683 483.672L133.175 429.629L188.64 374.164L299.551 485.094L244.086 540.558L207.651 576.994" stroke="#999999" stroke-width="3.40761" stroke-miterlimit="10"/>
<path d="M465.943 286.217C509.263 286.217 544.369 251.092 544.369 207.773C544.369 164.453 509.245 129.328 465.943 129.328C422.642 129.328 387.518 164.453 387.518 207.773C387.518 251.092 422.642 286.217 465.943 286.217Z" stroke="#999999" stroke-width="3.40761" stroke-miterlimit="10"/>
<path d="M355.014 397.162C398.334 397.162 433.44 362.038 433.44 318.718C433.44 275.398 398.315 240.273 355.014 240.273C311.713 240.273 276.588 275.398 276.588 318.718C276.588 362.038 311.713 397.162 355.014 397.162Z" stroke="#999999" stroke-width="3.40761" stroke-miterlimit="10"/>
<path d="M410.482 152.306L299.553 263.254L410.482 374.183L521.412 263.254L410.482 152.306V152.306Z" stroke="#999999" stroke-width="3.40761" stroke-miterlimit="10"/>
<path d="M410.481 563.557C453.8 563.557 488.906 528.432 488.906 485.112C488.906 441.793 453.8 406.668 410.481 406.668C367.161 406.668 332.055 441.793 332.055 485.112C332.055 528.432 367.179 563.557 410.481 563.557Z" stroke="#999999" stroke-width="3.40761" stroke-miterlimit="10"/>
<path d="M375.631 577.032H223.449C226.772 563.687 233.656 551.025 244.085 540.597C274.724 509.957 324.375 509.957 355.014 540.597C365.443 551.025 372.327 563.687 375.631 577.032Z" stroke="#999999" stroke-width="3.40761" stroke-miterlimit="10"/>
<path d="M465.924 540.596L429.489 577.031H280.5L244.064 540.596L299.529 485.131L354.994 429.666L465.905 540.596H465.924Z" stroke="#999999" stroke-width="3.40761" stroke-miterlimit="10"/>
<path d="M613.29 166.334C612.736 166.611 612.183 166.906 611.61 167.183C611.038 167.46 610.466 167.755 609.875 168.014C608.731 168.549 607.55 169.066 606.368 169.546C604.135 170.469 601.846 171.262 599.521 171.964C598.783 172.185 598.044 172.407 597.287 172.591C595.054 173.2 592.802 173.68 590.551 174.086C590.034 174.179 589.554 174.271 589.037 174.326C587.025 174.64 584.995 174.88 582.965 175.046C582.448 175.083 581.949 175.12 581.432 175.138C580.952 175.175 580.473 175.212 580.011 175.212C579.937 175.212 579.863 175.212 579.808 175.212C579.808 175.212 579.808 175.212 579.79 175.212H579.753C579.291 175.249 578.848 175.268 578.405 175.268C577.372 175.286 576.375 175.286 575.36 175.268C574.899 175.268 574.455 175.268 574.012 175.212C574.012 175.212 574.013 175.212 573.976 175.212H573.957C573.883 175.212 573.809 175.212 573.754 175.212C573.274 175.212 572.794 175.175 572.333 175.138C571.816 175.102 571.318 175.083 570.801 175.046C568.752 174.88 566.74 174.659 564.71 174.326C564.193 174.253 563.713 174.179 563.196 174.086C560.945 173.68 558.693 173.182 556.459 172.591C555.721 172.407 554.983 172.167 554.226 171.964C551.919 171.281 549.63 170.469 547.397 169.546C546.216 169.066 545.034 168.549 543.89 168.014C543.299 167.755 542.727 167.479 542.155 167.183C539.848 166.039 537.596 164.784 535.399 163.418C534.827 163.086 534.31 162.735 533.738 162.366C532.649 161.646 531.579 160.908 530.527 160.133C530.01 159.745 529.475 159.357 528.958 158.951C528.57 158.674 528.201 158.361 527.813 158.047C527.795 158.047 527.777 157.991 527.758 157.991C527.518 157.807 527.297 157.622 527.075 157.438C526.355 156.866 525.654 156.256 524.952 155.629C524.768 155.463 524.565 155.297 524.38 155.131C524.159 154.946 523.919 154.724 523.697 154.503C523.642 154.448 523.55 154.374 523.476 154.3C523.125 153.986 522.793 153.672 522.461 153.34C522.129 153.026 521.796 152.694 521.446 152.343C520.873 151.771 520.301 151.199 519.748 150.59C519.342 150.165 518.954 149.741 518.566 149.298C518.179 148.892 517.828 148.486 517.477 148.061C516.554 146.991 515.668 145.92 514.819 144.813C514.007 143.761 513.232 142.727 512.475 141.657C511.349 140.051 510.297 138.39 509.319 136.728C508.839 135.879 508.359 135.049 507.898 134.2C507.418 133.351 506.993 132.502 506.569 131.634C505.997 130.49 505.461 129.327 504.945 128.164C504.705 127.592 504.446 127.001 504.225 126.392C503.948 125.746 503.708 125.082 503.449 124.417C503.21 123.753 502.951 123.088 502.73 122.424C502.619 122.129 502.527 121.815 502.434 121.519C502.158 120.689 501.899 119.858 501.659 119.009C501.419 118.16 501.179 117.33 500.958 116.481C500.718 115.558 500.496 114.635 500.293 113.712C500.201 113.269 500.109 112.789 499.998 112.328C499.906 111.848 499.813 111.405 499.739 110.943C499.666 110.556 499.592 110.187 499.555 109.799C499.463 109.264 499.37 108.71 499.297 108.156C499.02 106.292 498.817 104.428 498.687 102.545C498.632 102.065 498.614 101.585 498.595 101.105C498.595 101.05 498.595 101.013 498.595 100.958C498.447 98.263 498.447 95.5313 498.595 92.8365C498.595 92.7811 498.595 92.7442 498.595 92.6888C498.595 92.1905 498.632 91.729 498.687 91.2491C498.817 89.3665 499.02 87.4838 499.297 85.638C499.37 85.0843 499.463 84.5306 499.555 83.9769C499.61 83.5893 499.684 83.2201 499.739 82.8325C499.813 82.3526 499.906 81.9096 499.998 81.4482C500.09 80.9683 500.183 80.5069 500.293 80.0639C500.496 79.141 500.718 78.2181 500.958 77.2953C501.179 76.4462 501.419 75.6156 501.659 74.7666C501.899 73.9175 502.176 73.0869 502.434 72.2564C502.527 71.961 502.619 71.6473 502.73 71.3519C502.951 70.6875 503.21 70.023 503.449 69.3585C503.689 68.6756 503.948 68.0296 504.225 67.3651C504.465 66.7745 504.705 66.1838 504.945 65.5932C505.461 64.4304 505.997 63.2491 506.569 62.1232C506.993 61.2557 507.436 60.4066 507.898 59.5576C508.341 58.7085 508.839 57.8595 509.319 57.0289C510.316 55.3677 511.349 53.7066 512.475 52.1008C513.232 51.0302 514.007 49.9781 514.819 48.9261C515.668 47.8371 516.554 46.7481 517.477 45.696C517.828 45.2715 518.197 44.8654 518.566 44.4409C518.954 44.0164 519.342 43.5919 519.748 43.1673C520.301 42.5767 520.855 41.986 521.446 41.4139C546.326 16.5332 583.74 11.8634 613.327 27.3862V133.314" stroke="#999999" stroke-width="3.40761" stroke-miterlimit="10"/>
<path d="M613.293 -50.5234V133.276L521.393 41.3765L613.293 -50.5234Z" stroke="#999999" stroke-width="3.40761" stroke-linejoin="round"/>
<path d="M597.474 -50.5234C594.152 -37.1787 587.267 -24.5168 576.857 -14.0883C546.218 16.5511 496.567 16.5511 465.946 -14.0883C455.518 -24.5168 448.633 -37.1787 445.311 -50.5234" stroke="#999999" stroke-width="3.40761" stroke-miterlimit="10"/>
<path d="M613.293 471.086C583.706 455.564 546.274 460.233 521.412 485.132C496.531 510.013 491.861 547.445 507.384 577.032" stroke="#999999" stroke-width="3.40761" stroke-miterlimit="10"/>
<path d="M613.271 577.031L521.389 485.131L465.943 540.596L429.508 577.031" stroke="#999999" stroke-width="3.40761" stroke-miterlimit="10"/>
<path d="M202.667 577.032C202.852 576.663 203.018 576.294 203.221 575.943C204.605 573.193 205.824 570.369 206.876 567.508C206.894 567.416 206.931 567.36 206.949 567.268L207.079 566.899C207.337 566.179 207.596 565.459 207.817 564.721C207.909 564.444 208.001 564.167 208.075 563.872C208.186 563.54 208.297 563.17 208.389 562.82C208.518 562.377 208.647 561.915 208.777 561.472L209.017 560.568C209.146 560.143 209.257 559.7 209.349 559.258C209.644 558.021 209.921 556.803 210.161 555.566C210.29 554.938 210.401 554.329 210.493 553.702C210.696 552.465 210.899 551.21 211.029 549.973C211.102 549.346 211.176 548.718 211.232 548.091C211.472 545.673 211.582 543.236 211.601 540.818C211.601 535.724 211.139 530.63 210.161 525.609C210.161 525.517 210.143 525.443 210.124 525.37C210.014 524.834 209.903 524.299 209.773 523.764C209.644 523.136 209.515 522.546 209.349 521.918C209.349 521.863 209.349 521.807 209.312 521.752C209.183 521.18 209.035 520.644 208.888 520.072C208.721 519.463 208.555 518.872 208.371 518.263C208.205 517.654 208.02 517.064 207.817 516.455C207.632 515.845 207.411 515.255 207.208 514.646C207.005 514.055 206.802 513.446 206.543 512.855C206.396 512.431 206.248 512.025 206.063 511.619C206.027 511.489 205.971 511.36 205.916 511.231C205.436 509.994 204.901 508.758 204.329 507.558C204.07 506.967 203.793 506.377 203.498 505.805C202.372 503.497 201.117 501.246 199.733 499.049C199.05 497.942 198.33 496.853 197.573 495.801C197.222 495.265 196.835 494.73 196.429 494.195C196.06 493.66 195.653 493.143 195.229 492.626C194.841 492.109 194.435 491.574 194.011 491.057C193.605 490.54 193.18 490.023 192.737 489.525C191.888 488.51 190.984 487.532 190.042 486.553C189.821 486.313 189.581 486.073 189.36 485.815C189.12 485.575 188.898 485.335 188.64 485.095C188.4 484.855 188.16 484.634 187.92 484.394C187.735 484.209 187.551 484.043 187.348 483.877C186.498 483.046 185.649 482.253 184.763 481.514C183.471 480.352 182.143 479.263 180.777 478.229C180.315 477.86 179.835 477.509 179.337 477.159C178.876 476.826 178.396 476.494 177.934 476.162C176.328 475.036 174.686 473.965 173.024 473.006C171.917 472.341 170.773 471.714 169.647 471.123C167.949 470.219 166.214 469.388 164.46 468.631C163.297 468.114 162.116 467.634 160.935 467.21C160.326 466.97 159.735 466.749 159.126 466.564C157.945 466.139 156.745 465.752 155.527 465.401C155.324 465.346 155.121 465.272 154.899 465.235C154.253 465.032 153.589 464.847 152.924 464.681C152.795 464.644 152.666 464.607 152.518 464.589C151.688 464.367 150.839 464.164 149.99 463.98C149.104 463.795 148.181 463.592 147.258 463.445C147.221 463.445 147.184 463.426 147.129 463.426C146.833 463.371 146.556 463.315 146.28 463.278C145.744 463.186 145.209 463.094 144.692 463.039C144.508 463.002 144.305 462.965 144.12 462.946C143.603 462.872 143.086 462.799 142.57 462.743C142.404 462.743 142.219 462.688 142.053 462.688C141.795 462.651 141.536 462.632 141.278 462.614C140.447 462.522 139.635 462.448 138.823 462.393C138.528 462.374 138.251 462.356 137.974 462.337C137.678 462.319 137.402 462.3 137.106 462.3C136.866 462.3 136.645 462.263 136.423 462.263C136.146 462.245 135.888 462.226 135.611 462.226C134.799 462.189 134.005 462.189 133.193 462.189C132.455 462.189 131.717 462.189 130.997 462.226H130.757C130.314 462.226 129.871 462.263 129.428 462.282C128.8 462.282 128.154 462.337 127.545 462.393C126.918 462.448 126.29 462.485 125.681 462.54C125.054 462.596 124.408 462.669 123.798 462.743C123.171 462.799 122.562 462.891 121.934 462.983C120.845 463.131 119.756 463.315 118.667 463.518C118.095 463.629 117.541 463.74 116.969 463.869C116.305 463.998 115.64 464.146 114.994 464.294C114.68 464.367 114.367 464.441 114.053 464.534C113.961 464.534 113.868 464.571 113.776 464.607C113.259 464.737 112.724 464.866 112.226 465.013C112.133 465.05 112.023 465.069 111.93 465.106C111.561 465.18 111.21 465.29 110.86 465.401C110.398 465.53 109.918 465.678 109.475 465.826C108.996 465.973 108.516 466.121 108.054 466.305C107.556 466.472 107.076 466.638 106.596 466.804C105.913 467.044 105.249 467.284 104.584 467.561C104.067 467.745 103.569 467.967 103.052 468.17C102.646 468.336 102.277 468.502 101.889 468.668C101.373 468.908 100.837 469.13 100.302 469.388C99.9514 469.554 99.5821 469.72 99.2315 469.905C98.8069 470.108 98.3825 470.311 97.958 470.532C97.5519 470.717 97.1458 470.938 96.7397 471.16C96.1676 471.455 95.5953 471.769 95.0416 472.083C94.5248 472.378 94.008 472.655 93.5097 472.969C92.7898 473.393 92.0884 473.818 91.4055 474.261C90.8518 474.593 90.298 474.944 89.7627 475.313C89.7258 475.313 89.689 475.35 89.6706 475.387C89.3384 475.59 89.006 475.83 88.6738 476.051C88.5077 476.143 88.3416 476.273 88.1939 476.383C88.157 476.383 88.1569 476.42 88.12 476.439C87.6955 476.716 87.2895 477.029 86.865 477.325C86.3297 477.712 85.7945 478.137 85.2592 478.543C84.7424 478.949 84.207 479.355 83.7086 479.779C83.1918 480.204 82.6751 480.629 82.1767 481.071C81.6599 481.496 81.1801 481.939 80.6818 482.4C80.1834 482.825 79.685 483.286 79.1866 483.766C78.9467 484.006 78.7067 484.228 78.4668 484.486C78.2268 484.708 77.9868 484.948 77.7284 485.188L76.3074 486.627C52.6818 511.508 48.4733 548.054 63.7008 577.106H169.61" stroke="#999999" stroke-width="3.40761" stroke-miterlimit="10"/>
<path d="M21.8926 540.947L22.2433 540.597L22.594 540.246L76.2684 486.572L77.6897 485.15L56.7035 508.628" stroke="#999999" stroke-width="3.40761" stroke-miterlimit="10"/>
<path d="M22.6112 540.227L22.2605 540.578L21.9098 540.928C11.5551 551.172 -0.977595 557.928 -14.1562 561.195V408.994C-0.811477 412.316 11.8504 419.201 22.2788 429.63C52.7891 460.121 52.8998 509.551 22.6295 540.209L22.6112 540.227Z" stroke="#999999" stroke-width="3.40761" stroke-miterlimit="10"/>
<path d="M22.2605 540.597L21.9098 540.948L-14.1562 577.032V504.162L22.2788 540.597H22.2605Z" stroke="#999999" stroke-width="3.40761" stroke-linejoin="round"/>
<path d="M1.60938 -50.5234C4.93173 -37.1787 11.8164 -24.5168 22.2448 -14.0883C52.8658 16.5511 102.535 16.5511 133.156 -14.0883C143.603 -24.5168 150.469 -37.1787 153.791 -50.5234" stroke="#999999" stroke-width="3.40761" stroke-miterlimit="10"/>
<path d="M-14.1719 117.476C-0.827102 114.172 11.8348 107.269 22.2633 96.8405C52.8843 66.201 52.8843 16.5319 22.2633 -14.0891C11.8348 -24.5176 -0.827102 -31.4023 -14.1719 -34.7246" stroke="#999999" stroke-width="3.40761" stroke-miterlimit="10"/>
<path d="M-14.1719 60.4061L22.2633 96.8412L77.728 41.3765L133.193 -14.0883L96.7578 -50.5234H1.62774" stroke="#999999" stroke-width="3.40761" stroke-miterlimit="10"/>
<path d="M613.291 187.137V339.337C599.947 336.015 587.285 329.149 576.856 318.702C546.235 288.081 546.235 238.412 576.856 207.772C587.285 197.344 599.947 190.441 613.291 187.137V187.137Z" stroke="#999999" stroke-width="3.40761" stroke-miterlimit="10"/>
<path d="M521.391 452.629C564.711 452.629 599.835 417.504 599.835 374.185C599.835 330.865 564.711 295.74 521.391 295.74C478.071 295.74 442.965 330.865 442.965 374.185C442.965 417.504 478.089 452.629 521.391 452.629Z" stroke="#999999" stroke-width="3.40761" stroke-miterlimit="10"/>
<path d="M613.291 244.207V393.214L576.856 429.649L465.945 318.701L576.856 207.771L613.291 244.207Z" stroke="#999999" stroke-width="3.40761" stroke-miterlimit="10"/>
<path d="M521.389 41.377C520.817 41.9491 520.245 42.5213 519.691 43.1304C519.285 43.5549 518.897 43.9795 518.51 44.404C518.122 44.8285 517.771 45.2346 517.421 45.6591C516.498 46.7112 515.612 47.8002 514.763 48.8892C513.951 49.9412 513.175 50.9933 512.419 52.0638C511.311 53.6697 510.241 55.3308 509.262 56.992C508.782 57.8226 508.303 58.6716 507.841 59.5207C507.361 60.3697 506.937 61.2372 506.512 62.0863C505.94 63.2306 505.405 64.3935 504.888 65.5563C504.648 66.1285 504.39 66.7376 504.168 67.3282C503.891 67.9927 503.633 68.6571 503.393 69.3216C503.134 69.9861 502.895 70.6321 502.673 71.315C502.562 71.6103 502.452 71.9241 502.378 72.2194C502.101 73.05 501.824 73.8806 501.602 74.7297C501.363 75.5787 501.123 76.4093 500.901 77.2583C500.661 78.1812 500.44 79.1041 500.237 80.027C500.144 80.4884 500.052 80.9498 499.941 81.4113C499.849 81.8727 499.757 82.3342 499.683 82.7956C499.609 83.1832 499.535 83.5524 499.498 83.94C499.406 84.4937 499.314 85.0474 499.24 85.6011C498.963 87.4653 498.76 89.3295 498.631 91.2122C498.575 91.6921 498.557 92.172 498.538 92.6519C498.538 92.6888 498.538 92.7442 498.538 92.7996C498.391 95.4943 498.391 98.2261 498.538 100.921C498.538 100.958 498.538 101.013 498.538 101.069C498.538 101.567 498.575 102.028 498.631 102.508C498.76 104.391 498.963 106.274 499.24 108.138C499.332 108.691 499.406 109.227 499.498 109.78C499.554 110.168 499.628 110.537 499.683 110.925C499.757 111.386 499.849 111.848 499.941 112.309C500.034 112.771 500.126 113.25 500.237 113.693C500.44 114.616 500.661 115.539 500.901 116.462C501.123 117.33 501.363 118.16 501.602 118.991C501.842 119.821 502.101 120.67 502.378 121.501C502.47 121.796 502.562 122.11 502.673 122.405C502.895 123.07 503.134 123.734 503.393 124.399C503.633 125.063 503.891 125.728 504.168 126.374C504.408 126.964 504.648 127.555 504.888 128.146C505.405 129.308 505.94 130.49 506.512 131.616C506.937 132.483 507.38 133.332 507.841 134.181C508.284 135.049 508.782 135.879 509.262 136.71C510.259 138.371 511.311 140.032 512.419 141.638C513.175 142.709 513.951 143.761 514.763 144.794C515.612 145.902 516.498 146.972 517.421 148.024C517.771 148.449 518.14 148.873 518.51 149.28C518.897 149.704 519.285 150.147 519.691 150.572C520.245 151.162 520.798 151.734 521.389 152.325C521.721 152.657 522.053 152.989 522.404 153.322C522.736 153.654 523.069 153.986 523.419 154.282C523.493 154.355 523.567 154.411 523.641 154.485C523.862 154.706 524.102 154.909 524.324 155.112C524.508 155.297 524.711 155.463 524.896 155.629C525.579 156.256 526.299 156.866 527.019 157.438C527.24 157.622 527.461 157.807 527.701 157.991C527.72 157.991 527.738 158.047 527.757 158.047C528.144 158.361 528.514 158.656 528.901 158.951C529.418 159.357 529.953 159.745 530.47 160.133C531.522 160.926 532.611 161.665 533.682 162.366C534.235 162.735 534.771 163.086 535.343 163.418C537.539 164.802 539.791 166.039 542.098 167.183C542.671 167.46 543.243 167.755 543.833 168.014C544.978 168.568 546.159 169.066 547.34 169.546C549.574 170.469 551.862 171.262 554.169 171.964C554.908 172.185 555.646 172.407 556.403 172.591C558.636 173.2 560.888 173.68 563.14 174.086C563.657 174.179 564.137 174.271 564.653 174.326C566.684 174.659 568.696 174.899 570.744 175.046C571.243 175.102 571.76 175.138 572.276 175.138C572.756 175.175 573.236 175.194 573.698 175.212C573.771 175.212 573.845 175.212 573.901 175.212C573.901 175.212 573.901 175.212 573.919 175.212C573.919 175.212 573.919 175.212 573.956 175.212C574.399 175.249 574.842 175.268 575.303 175.268C576.319 175.286 577.334 175.286 578.349 175.268C578.81 175.268 579.253 175.268 579.696 175.212H579.733H579.751C579.825 175.212 579.899 175.212 579.955 175.212C580.435 175.212 580.914 175.175 581.376 175.138C581.893 175.138 582.391 175.083 582.908 175.046C584.938 174.899 586.968 174.659 588.98 174.326C589.497 174.253 589.977 174.179 590.494 174.086C592.764 173.68 595.016 173.182 597.231 172.591C597.969 172.407 598.707 172.167 599.464 171.964C601.771 171.281 604.06 170.469 606.312 169.546C607.493 169.084 608.656 168.568 609.819 168.014C610.409 167.755 611 167.479 611.554 167.183C612.126 166.906 612.68 166.611 613.233 166.334" stroke="#999999" stroke-width="3.40761" stroke-miterlimit="10"/>
</g>
<defs>
<clipPath id="clip0_1382_9945">
<rect width="600" height="525" fill="white"/>
</clipPath>
</defs>
</svg>
