<svg width="600" height="525" viewBox="0 0 600 525" fill="none" xmlns="http://www.w3.org/2000/svg">
<rect width="600" height="525" rx="4.88661" fill="white"/>
<g clip-path="url(#clip0_1382_9819)">
<rect width="600" height="525" fill="#F3F3F3"/>
<path d="M-7.53422 -82L-7.53422 -81.0209L-88.9999 -81.0209L-89 619.188L-7.53425 619.188L-7.53425 620L131.908 620L131.908 619.188L228.735 619.188L228.735 620L368.177 620L368.177 619.188L465.15 619.188L465.15 620L604.592 620L604.592 619.188L618 619.188L618 -81.0209L368.198 -81.0209L368.198 -82L228.756 -82L228.756 -81.0209L131.928 -81.0209L131.928 -82L-7.53422 -82ZM-84.8217 -63.7714L-83.72 -63.7089C-76.2573 -63.2714 -68.961 -61.584 -62.0388 -58.6466C-60.9162 -58.1674 -59.7937 -57.6674 -58.692 -57.1258L-57.0914 -56.3341L-58.5464 -55.3342C-61.9971 -52.9592 -65.2608 -50.2301 -68.2542 -47.2302C-74.428 -41.0429 -79.3339 -33.8556 -82.8262 -25.8767L-84.8217 -21.3352L-84.8217 -63.7714ZM511.361 -15.3145L511.88 -15.127L512.026 -14.6062C514.77 -4.14814 514.874 7.24736 512.338 17.7054L512.213 18.247L511.693 18.4345C501.965 21.8928 492.943 27.6009 485.605 34.934C477.332 43.2255 471.241 53.496 467.998 64.6623L467.832 65.204L467.291 65.3706C463.674 66.4748 459.85 67.2664 455.921 67.7247L454.757 67.8497L454.757 -63.5214L455.921 -63.3964C459.891 -62.9381 463.841 -62.1048 467.624 -60.959L468.144 -60.7923L468.31 -60.2715C474.796 -39.4596 490.885 -22.6476 511.361 -15.3145ZM472.571 -59.2507L474.983 -58.1882C482.383 -54.8966 489.077 -50.2926 494.876 -44.5011C500.946 -38.418 505.686 -31.3557 508.991 -23.5226L510.508 -19.731L508.201 -20.7518C500.78 -24.0434 494.107 -28.6474 488.328 -34.4389C482.279 -40.4804 477.54 -47.5219 474.214 -55.4175L472.592 -59.2715L472.571 -59.2507ZM546.18 -12.1479L547.655 -12.3979L547.385 -10.9396C545.847 -2.75234 545.764 5.91406 547.198 14.1638L547.448 15.6013L546.013 15.3721C542.396 14.7888 538.655 14.4763 534.892 14.4763C529.196 14.4763 523.542 15.1638 518.096 16.5387L516.516 16.9346L516.828 15.3305C518.553 6.24739 518.47 -3.1065 516.599 -12.1062L516.267 -13.7312L517.867 -13.3354C523.397 -11.9396 529.134 -11.2313 534.871 -11.2313C538.696 -11.2313 542.5 -11.5438 546.2 -12.1479L546.18 -12.1479ZM510.883 22.8094L510.093 25.0593C509.76 25.9968 509.386 26.9343 509.012 27.8301C505.686 35.7049 500.946 42.7671 494.897 48.8086C488.973 54.7251 482.113 59.4125 474.505 62.704L472.28 63.6624L473.133 61.3708C473.465 60.4541 473.839 59.5375 474.214 58.6208C477.54 50.7461 482.3 43.6838 488.328 37.6423C494.211 31.7258 501.071 27.0384 508.7 23.7052L510.883 22.7469L510.883 22.8094ZM448.313 68.1622C439.478 68.1622 430.913 66.4539 422.869 63.0582L422.453 63.0582L421.642 61.6208L422.453 61.0999C426.735 58.3708 430.706 55.1626 434.302 51.5794C440.476 45.3921 445.381 38.2048 448.874 30.2258L450.869 25.6843L450.869 68.1414L449.83 68.1414C449.29 68.1414 448.791 68.1414 448.292 68.1414L448.313 68.1622ZM449.768 72.0163L450.869 71.9538L450.869 72.0579L454.757 72.0579L454.757 71.7663L455.692 71.6621C458.831 71.3496 461.991 70.7871 465.13 70.0163L466.709 69.6205L466.398 71.2246C465.774 74.5162 465.379 77.9536 465.233 81.4952L465.171 82.4951L465.233 87.3908C465.67 98.1405 468.518 108.411 473.673 117.869L473.943 118.369L473.673 118.869C468.497 128.348 465.649 138.618 465.213 149.368L465.15 150.368L465.213 155.243C465.337 158.66 465.732 162.118 466.377 165.534L466.689 167.138L465.109 166.743C462.011 165.951 458.852 165.389 455.692 165.076L454.757 164.972L454.757 164.68L450.89 164.68L450.89 164.868L449.684 164.701C449.29 164.701 448.811 164.701 448.333 164.701C437.378 164.701 426.881 167.18 417.131 172.076L416.674 172.305L416.217 172.076C406.488 167.18 396.011 164.722 385.056 164.722C384.578 164.722 384.1 164.722 383.601 164.743L382.5 164.805L382.5 164.722L378.633 164.722L378.633 164.93L377.802 165.097C374.476 165.451 371.316 166.013 368.26 166.763L366.68 167.159L366.992 165.555C367.637 162.118 368.032 158.68 368.177 155.285L368.239 154.285L368.177 149.389C367.741 138.639 364.893 128.369 359.717 118.911L359.446 118.411L359.717 117.911C364.893 108.453 367.72 98.203 368.156 87.4325L368.219 86.4325L368.156 81.516C368.011 78.0578 367.616 74.5995 366.971 71.2871L366.66 69.683L368.239 70.0788C371.378 70.8496 374.559 71.4121 377.677 71.7246L378.612 71.8288L378.612 72.1204L383.601 72.0996C384.1 72.1204 384.578 72.1204 385.056 72.1204C396.011 72.1204 406.509 69.6413 416.217 64.7457L416.674 64.5165L417.131 64.7457C426.86 69.6413 437.358 72.1204 448.333 72.1204C448.811 72.1204 449.31 72.1204 449.788 72.0996L449.768 72.0163ZM560.502 91.5365C568.36 94.8698 575.407 99.6196 581.435 105.682C585.114 109.349 588.336 113.432 590.997 117.807L591.33 118.348L590.997 118.89C588.295 123.286 585.073 127.348 581.435 130.994C575.386 137.056 568.339 141.827 560.502 145.139C552.395 148.577 543.768 150.326 534.871 150.326C525.974 150.326 517.327 148.577 509.24 145.139C501.404 141.827 494.357 137.056 488.307 130.994C484.67 127.348 481.448 123.265 478.745 118.89L478.413 118.348L478.745 117.807C481.427 113.432 484.649 109.348 488.328 105.682C494.357 99.6196 501.383 94.8698 509.261 91.5365C517.16 88.1825 525.579 86.4325 534.248 86.3492L535.536 86.3492C544.226 86.4325 552.624 88.1825 560.523 91.5365L560.502 91.5365ZM558.382 86.3492L600.726 86.3492L600.684 87.4325C600.31 95.2656 598.585 102.87 595.55 110.036C595.155 110.994 594.718 111.932 594.282 112.869L593.492 114.494L592.473 112.994C590.062 109.411 587.255 106.015 584.158 102.911C578.005 96.7447 570.854 91.8282 562.913 88.3283L558.382 86.3284L558.382 86.3492ZM593.492 122.202L594.261 123.848C594.697 124.786 595.134 125.723 595.529 126.681C598.564 133.848 600.289 141.452 600.643 149.285L600.684 150.368L558.423 150.368L562.851 148.347C570.813 144.847 577.963 139.931 584.137 133.744C587.172 130.702 589.979 127.306 592.452 123.681L593.471 122.181L593.492 122.202ZM506.496 150.368L469.079 150.368L469.079 149.097C469.453 141.389 471.179 133.785 474.193 126.66C474.588 125.702 475.024 124.765 475.461 123.827L476.23 122.181L477.249 123.681C479.722 127.306 482.508 130.681 485.564 133.744C491.717 139.931 498.888 144.827 506.85 148.347L511.381 150.347L506.476 150.347L506.496 150.368ZM506.85 88.3491C498.888 91.849 491.737 96.7655 485.584 102.932C482.466 106.036 479.681 109.432 477.269 113.015L476.251 114.536L475.461 112.89C475.024 111.953 474.588 110.994 474.193 110.036C471.179 102.932 469.453 95.3281 469.079 87.4533L469.038 86.37L511.361 86.37L506.829 88.37L506.85 88.3491ZM511.672 218.241L512.213 218.429L512.338 218.991C514.853 229.532 514.749 240.865 512.047 251.219L511.901 251.74L511.381 251.928C501.757 255.386 492.818 261.052 485.564 268.323C477.581 276.323 471.615 286.218 468.268 296.947L468.102 297.468L467.582 297.635C463.82 298.801 459.891 299.635 455.879 300.093L454.715 300.218L454.715 168.826L455.879 168.951C459.787 169.409 463.612 170.201 467.25 171.305L467.79 171.472L467.957 172.013C474.234 193.492 490.552 210.783 511.652 218.22L511.672 218.241ZM472.26 172.992L474.484 173.951C482.113 177.263 488.973 181.93 494.876 187.846C500.842 193.846 505.727 201.096 508.991 208.825C509.365 209.741 509.739 210.658 510.072 211.595L510.862 213.845L508.679 212.887C501.05 209.575 494.19 204.887 488.287 198.971C482.238 192.929 477.498 185.888 474.172 178.013C473.798 177.096 473.424 176.18 473.091 175.263L472.26 172.972L472.26 172.992ZM545.992 221.324L547.427 221.095L547.177 222.533C545.764 230.741 545.826 239.365 547.364 247.574L547.635 249.032L546.159 248.782C542.5 248.178 538.696 247.865 534.85 247.865C529.072 247.865 523.355 248.574 517.846 249.969L516.246 250.386L516.578 248.761C518.408 239.949 518.512 230.512 516.786 221.408L516.474 219.804L518.054 220.199C523.48 221.554 529.134 222.241 534.85 222.241C538.613 222.241 542.355 221.949 545.972 221.345L545.992 221.324ZM510.529 256.344L509.635 258.677C509.49 259.052 509.344 259.427 509.178 259.802L509.012 260.198C505.686 268.052 500.946 275.114 494.897 281.177C488.931 287.156 482.612 291.489 474.983 294.864L472.655 295.905L473.694 293.301C473.86 292.864 474.047 292.447 474.214 292.031C477.54 284.177 482.279 277.114 488.328 271.052C494.377 264.99 500.801 260.657 508.243 257.365L510.529 256.344ZM448.313 300.53C439.436 300.53 430.81 298.78 422.682 295.322L422.328 295.176L422.245 295.031L421.372 294.156L422.474 293.468C426.735 290.739 430.726 287.531 434.323 283.948C440.496 277.76 445.402 270.573 448.895 262.594L450.89 258.052L450.89 300.51L449.83 300.51C449.352 300.51 448.832 300.51 448.313 300.51L448.313 300.53ZM449.768 304.384L450.973 304.176L450.973 304.405L454.757 304.405L454.757 304.114L455.692 304.009C458.914 303.676 462.157 303.093 465.337 302.301L466.938 301.905L466.605 303.53C465.899 306.968 465.462 310.447 465.254 313.842L465.15 314.822L465.192 319.717C465.504 330.696 468.268 341.133 473.424 350.737L473.694 351.237L473.424 351.737C468.268 361.32 465.504 371.737 465.192 382.715L465.15 383.736L465.254 388.611C465.441 392.111 465.899 395.569 466.585 398.902L466.917 400.527L465.317 400.111C462.219 399.319 458.976 398.757 455.671 398.423L454.736 398.319L454.736 398.027L449.83 398.027C449.269 398.027 448.791 398.027 448.292 398.027C437.96 398.027 428.066 400.236 418.815 404.569L418.961 404.652L416.549 405.736L416.175 405.402C406.447 400.507 395.97 398.027 385.015 398.027C384.537 398.027 384.059 398.027 383.56 398.048L382.458 398.111L382.458 398.007L378.592 398.007L378.592 398.402L377.552 398.402C374.393 398.736 371.15 399.298 368.011 400.09L366.41 400.486L366.743 398.861C367.429 395.528 367.886 392.048 368.073 388.549L368.177 387.569L368.136 382.653C367.845 371.695 365.059 361.258 359.904 351.675L359.633 351.175L359.904 350.675C365.059 341.071 367.824 330.634 368.136 319.655L368.177 318.634L368.073 313.717C367.886 310.363 367.429 306.905 366.743 303.447L366.41 301.822L368.011 302.218C371.212 303.009 374.455 303.593 377.656 303.926L378.696 303.926L378.654 304.301L383.56 304.301C384.059 304.301 384.516 304.301 385.015 304.301C395.97 304.301 406.447 301.822 416.175 296.947L416.633 296.718L417.09 296.947C426.839 301.822 437.316 304.301 448.292 304.301C448.77 304.301 449.269 304.301 449.747 304.28L449.768 304.384ZM560.502 323.884C568.318 327.196 575.365 331.946 581.435 338.029C585.26 341.842 588.586 346.112 591.309 350.696L591.621 351.237L591.309 351.779C588.565 356.362 585.239 360.612 581.435 364.403C575.386 370.466 568.36 375.236 560.523 378.549C552.416 381.986 543.81 383.736 534.892 383.736C525.974 383.736 517.347 381.986 509.261 378.549C501.424 375.236 494.377 370.466 488.328 364.403C484.524 360.612 481.198 356.362 478.454 351.779L478.142 351.237L478.454 350.696C481.177 346.112 484.503 341.862 488.328 338.029C494.398 331.946 501.424 327.196 509.261 323.884C517.368 320.446 525.995 318.696 534.892 318.696C543.789 318.696 552.416 320.446 560.523 323.884L560.502 323.884ZM558.34 318.696L600.726 318.696L600.684 319.78C600.435 327.967 598.688 335.925 595.529 343.404C595.259 344.071 594.968 344.717 594.656 345.383L593.783 347.321L592.743 345.779C590.186 342.008 587.297 338.488 584.137 335.321C577.963 329.134 570.813 324.217 562.851 320.717L558.319 318.717L558.34 318.696ZM562.893 381.715C570.833 378.236 577.984 373.341 584.158 367.153C587.339 363.966 590.228 360.445 592.764 356.675L593.803 355.133L594.573 356.82C594.822 357.362 595.071 357.924 595.321 358.487L595.55 359.008C598.73 366.508 600.455 374.466 600.705 382.653L600.954 383.903L599.666 383.757L557.654 383.757L562.872 381.736L562.893 381.715ZM506.476 383.736L469.038 383.736L469.038 382.674C469.287 374.424 471.012 366.487 474.172 359.008L474.401 358.466C474.65 357.904 474.9 357.341 475.149 356.8L475.918 355.112L476.958 356.654C479.494 360.424 482.383 363.966 485.564 367.133C491.737 373.32 498.888 378.216 506.85 381.715L511.402 383.715L506.476 383.715L506.476 383.736ZM506.871 320.696C498.909 324.196 491.737 329.113 485.584 335.3C482.425 338.467 479.535 341.987 476.978 345.758L475.939 347.3L475.066 345.362C474.775 344.717 474.463 344.05 474.193 343.383C471.033 335.925 469.308 327.988 469.058 319.759L469.017 318.676L511.402 318.676L506.871 320.676L506.871 320.696ZM511.381 450.526L511.901 450.713L512.047 451.255C514.77 461.671 514.853 473.109 512.317 483.525L512.255 483.817L511.735 484.337L511.485 484.337C501.84 487.775 492.881 493.462 485.584 500.774C477.332 509.045 471.262 519.295 467.977 530.419L467.894 530.669L467.395 531.169L467.125 531.169C463.487 532.273 459.725 533.044 455.9 533.482L454.736 533.607L454.736 402.236L455.9 402.361C459.849 402.798 463.778 403.631 467.603 404.798L468.123 404.965L468.289 405.486C474.775 426.339 490.885 443.172 511.381 450.526ZM474.775 407.423L475.004 407.527C482.383 410.798 489.077 415.402 494.876 421.214C500.842 427.193 505.727 434.443 508.991 442.193L510.55 446.068L508.222 445.068C500.78 441.776 494.086 437.172 488.287 431.36C482.238 425.318 477.498 418.256 474.172 410.381C473.964 409.902 473.777 409.423 473.569 408.923L473.008 407.506L474.754 407.444L474.775 407.423ZM546.18 453.651L547.655 453.401L547.385 454.859C545.847 463.109 545.785 471.796 547.219 479.963L547.468 481.4L546.013 481.171C542.396 480.588 538.654 480.275 534.871 480.275C529.196 480.275 523.542 480.963 518.054 482.338L516.474 482.733L516.786 481.129C518.512 472.129 518.449 462.609 516.599 453.713L516.266 452.088L517.867 452.484C523.417 453.88 529.134 454.567 534.871 454.567C538.675 454.567 542.479 454.255 546.18 453.651ZM510.862 488.629L510.051 490.9C509.76 491.691 509.448 492.462 509.136 493.233L508.991 493.566C505.665 501.441 500.925 508.483 494.876 514.545C488.993 520.441 482.134 525.128 474.525 528.419L472.26 529.399L473.133 527.086C473.465 526.211 473.819 525.315 474.172 524.44C477.498 516.545 482.258 509.483 488.287 503.462C494.19 497.545 501.029 492.879 508.638 489.566L510.841 488.608L510.862 488.629ZM449.872 533.857C449.352 533.857 448.832 533.857 448.333 533.857C439.582 533.857 431.059 532.169 423.056 528.815L422.328 528.419L421.414 527.503L422.079 527.086L422.079 526.149L422.973 526.524C427.068 523.857 430.893 520.753 434.343 517.295C440.517 511.107 445.402 503.92 448.915 495.941L450.911 491.4L450.911 533.69L450.038 533.836L449.851 532.815L449.892 533.857L449.872 533.857ZM187.846 529.336L186.1 528.544L184.791 527.649L185.768 527.024L185.768 526.169L186.578 526.503C190.653 523.857 194.478 520.753 197.928 517.295C204.081 511.107 208.987 503.941 212.48 495.962L214.475 491.4L214.475 533.857L213.436 533.857C212.958 533.857 212.5 533.857 212.022 533.857C203.666 533.857 195.517 532.315 187.826 529.253L187.826 529.294L187.846 529.336ZM-17.9487 401.902L-16.8678 401.944C-13.0429 402.069 -9.25958 402.506 -5.64258 403.256L-5.01892 403.381L-4.85265 403.986C1.90325 427.568 20.799 446.089 44.4759 452.318L45.0787 452.484L45.2242 453.088C47.3445 462.296 47.4276 472.379 45.4736 481.608L45.4736 482.296L44.6837 482.504C32.6894 485.608 21.6928 491.9 12.879 500.754C4.1275 509.524 -1.92164 519.982 -5.1229 531.878L-5.28917 532.503L-5.91283 532.628C-9.44669 533.336 -13.1468 533.753 -16.8678 533.878L-17.9487 533.919L-17.9487 401.902ZM-21.8152 533.836L-22.9169 533.773C-30.4004 533.336 -37.6967 531.649 -44.5981 528.69C-45.7207 528.211 -46.8224 527.711 -47.9241 527.169L-49.5039 526.378L-48.0489 525.378C-44.5981 523.003 -41.3553 520.274 -38.3827 517.295C-32.2089 511.107 -27.303 503.941 -23.8107 495.962L-21.8152 491.4L-21.8152 533.836ZM-21.8152 444.38L-23.8107 439.818C-27.303 431.839 -32.1881 424.673 -38.3827 418.485C-41.3345 415.527 -44.5774 412.819 -48.0488 410.402L-49.5039 409.402L-47.9241 408.61C-46.8432 408.069 -45.7414 407.569 -44.5981 407.09C-37.7175 404.152 -30.4211 402.465 -22.9169 402.027L-21.8152 401.965L-21.8152 444.38ZM15.6229 338.029C21.7137 331.946 28.7606 327.196 36.5559 323.884C44.663 320.446 53.2897 318.696 62.1867 318.696C71.0837 318.696 79.6897 320.446 87.8176 323.884C95.6336 327.175 102.681 331.925 108.75 338.029C112.555 341.842 115.86 346.091 118.624 350.696L118.957 351.237L118.624 351.779C115.839 356.383 112.513 360.633 108.75 364.403C102.681 370.487 95.6544 375.236 87.8175 378.549C79.7105 381.986 71.1045 383.736 62.1867 383.736C53.2689 383.736 44.6422 381.986 36.5559 378.549C28.719 375.236 21.6721 370.466 15.6229 364.403C11.8396 360.612 8.51366 356.362 5.74894 351.779L5.41633 351.237L5.72813 350.696C8.47207 346.112 11.798 341.862 15.6021 338.029L15.6229 338.029ZM3.23368 347.3L2.36058 345.383C2.06956 344.737 1.75778 344.071 1.48755 343.404C-1.67214 335.904 -3.39749 327.967 -3.64694 319.78L-3.68856 318.696L38.7177 318.696L34.1861 320.696C26.2245 324.196 19.0529 329.113 12.879 335.3C9.71931 338.467 6.8299 341.987 4.27305 345.758L3.23368 347.3ZM85.6557 318.696L128.041 318.696L128 319.78C127.75 327.988 126.025 335.946 122.865 343.404C122.553 344.133 122.221 344.883 121.867 345.633L121.077 347.258L120.08 345.758C117.585 342.029 114.696 338.508 111.494 335.3C105.321 329.113 98.1489 324.196 90.1873 320.696L85.6557 318.696ZM4.29379 356.654C6.82986 360.424 9.71933 363.966 12.8998 367.133C19.0737 373.32 26.2245 378.216 34.1861 381.715L38.7385 383.715L-3.6262 383.715L-3.6262 382.674C-3.37675 374.445 -1.65139 366.508 1.50829 359.008L1.71618 358.529C1.96563 357.945 2.21506 357.362 2.4853 356.8L3.25442 355.112L4.29379 356.654ZM90.2081 381.715C98.1489 378.236 105.321 373.32 111.494 367.153C114.716 363.945 117.606 360.424 120.08 356.695L121.098 355.154L121.888 356.82C122.221 357.549 122.574 358.279 122.886 359.029C126.046 366.487 127.771 374.445 128.02 382.653L128.062 383.736L85.0113 383.736L90.2289 381.715L90.2081 381.715ZM131.866 382.695C131.554 371.737 128.79 361.32 123.655 351.716L123.385 351.216L123.655 350.716C128.79 341.092 131.554 330.654 131.866 319.696L131.908 318.676L131.908 314.801L131.783 313.759C131.596 310.301 131.138 306.843 130.453 303.53L130.12 301.905L131.741 302.322C134.839 303.114 138.081 303.676 141.387 304.03L142.322 304.134L142.322 304.405L147.311 304.405C147.748 304.405 148.184 304.405 148.621 304.405C159.596 304.405 170.094 301.926 179.864 297.01L180.321 296.78L180.779 297.01C190.549 301.905 201.046 304.405 212.022 304.405C212.459 304.405 212.895 304.405 213.332 304.384L214.434 304.301L214.434 304.405L218.321 304.405L218.321 304.134L219.256 304.03C222.561 303.676 225.804 303.114 228.881 302.322L230.502 301.905L230.17 303.53C229.484 306.863 229.026 310.322 228.839 313.822L228.735 314.801L228.777 319.696C229.089 330.654 231.853 341.092 236.988 350.716L237.258 351.216L236.988 351.716C231.853 361.32 229.089 371.737 228.777 382.715L228.735 383.736L228.735 387.944L228.839 388.611C229.026 392.069 229.463 395.528 230.149 398.902L230.481 400.507L228.881 400.111C225.7 399.319 222.478 398.757 219.256 398.423L218.321 398.319L218.321 398.027L213.415 398.069C212.874 398.027 212.459 398.027 212.022 398.027C201.026 398.027 190.528 400.507 180.779 405.402L180.321 405.631L179.864 405.402C170.115 400.507 159.617 398.027 148.621 398.027C148.184 398.027 147.748 398.027 147.311 398.048L146.209 398.111L146.209 398.007L142.343 398.007L142.343 398.277L141.407 398.382C138.206 398.715 134.963 399.277 131.762 400.069L130.161 400.465L130.494 398.861C131.18 395.507 131.617 392.028 131.804 388.569L131.928 387.59L131.887 382.674L131.866 382.695ZM-17.9487 168.534L-16.8886 168.534C-13.2715 168.659 -9.59216 169.097 -5.95437 169.826L-5.33071 169.951L-5.16444 170.576C1.34202 194.783 20.4457 213.72 44.6838 219.991L45.3073 220.158L45.4321 220.783C47.3861 230.178 47.2822 240.157 45.1826 249.344L45.0371 249.969L44.4342 250.136C32.5231 253.24 21.6097 259.532 12.8374 268.323C4.23147 276.927 -1.56821 286.781 -4.8942 298.426L-5.08127 298.989L-5.68413 299.155C-9.32192 299.905 -13.1052 300.364 -16.9093 300.468L-17.9903 300.509L-17.9903 168.513L-17.9487 168.534ZM-21.8152 300.468L-22.9169 300.405C-30.4211 299.968 -37.7175 298.26 -44.5981 295.322C-45.7206 294.843 -46.8432 294.343 -47.9241 293.801L-49.5039 293.01L-48.0488 292.01C-44.5981 289.635 -41.3553 286.906 -38.3827 283.927C-32.2089 277.739 -27.303 270.573 -23.8107 262.594L-21.8152 258.032L-21.8152 300.468ZM-21.8152 210.991L-23.8107 206.45C-27.303 198.492 -32.2089 191.325 -38.3827 185.138C-41.3553 182.159 -44.5981 179.43 -48.0696 177.034L-49.5247 176.034L-47.9449 175.242C-46.8639 174.701 -45.7414 174.201 -44.6189 173.722C-37.7591 170.805 -30.4627 169.097 -22.9376 168.659L-21.8359 168.597L-21.8359 210.991L-21.8152 210.991ZM15.623 105.682C21.6721 99.6196 28.719 94.8698 36.5559 91.5365C44.4551 88.1824 52.8531 86.4325 61.5215 86.3492L62.8104 86.3492C71.4787 86.4325 79.8768 88.1825 87.7968 91.5365C95.6544 94.8489 102.701 99.6196 108.73 105.682C112.409 109.369 115.631 113.453 118.292 117.807L118.624 118.348L118.292 118.89C115.59 123.265 112.388 127.327 108.73 130.994C102.66 137.077 95.6128 141.827 87.7968 145.139C79.6897 148.576 71.0837 150.326 62.1659 150.326C53.2481 150.326 44.6214 148.576 36.5351 145.139C28.719 141.827 21.6721 137.077 15.6021 130.994C11.9228 127.306 8.70072 123.244 6.03994 118.869L5.7074 118.327L6.03994 117.786C8.70072 113.411 11.9228 109.328 15.6022 105.661L15.623 105.682ZM3.54549 114.515L2.75556 112.869C2.31902 111.932 1.88252 110.973 1.48756 110.015C-1.52661 102.849 -3.25201 95.2656 -3.62619 87.4325L-3.66774 86.3492L38.6762 86.3492L34.1445 88.3491C26.183 91.849 19.0321 96.7655 12.879 102.932C9.78169 106.036 6.97539 109.432 4.56405 113.015L3.54549 114.515ZM85.6972 86.3492L128.041 86.3492L128 87.4325C127.625 95.2656 125.9 102.87 122.886 110.036C122.491 110.994 122.054 111.911 121.639 112.848L120.87 114.515L119.83 112.994C117.398 109.411 114.613 106.036 111.515 102.932C105.362 96.7655 98.1905 91.849 90.2497 88.3491L85.718 86.3492L85.6972 86.3492ZM4.56405 123.681C7.01696 127.285 9.82326 130.681 12.879 133.744C19.0529 139.931 26.2245 144.847 34.1861 148.347L38.7177 150.347L-3.62619 150.347L-3.62619 149.076C-3.25201 141.431 -1.52662 133.827 1.48756 126.64C1.88252 125.681 2.31902 124.744 2.75556 123.806L3.52468 122.161L4.54331 123.661L4.56405 123.681ZM90.1458 148.368C98.1697 144.847 105.321 139.931 111.494 133.744C114.592 130.66 117.377 127.265 119.809 123.702L120.849 122.181L121.618 123.848C122.054 124.765 122.47 125.702 122.865 126.64C125.879 133.806 127.605 141.41 127.979 149.243L128.02 150.326L85.7804 150.326L90.1458 148.326L90.1458 148.368ZM131.824 149.326C131.388 138.598 128.54 128.327 123.385 118.848L123.115 118.348L123.385 117.848C128.54 108.411 131.388 98.1613 131.824 87.37L131.928 86.37L131.845 81.4535C131.721 78.0369 131.326 74.5995 130.681 71.2663L130.369 69.6622L131.949 70.058C135.047 70.8288 138.206 71.3704 141.387 71.7038L142.322 71.8079L142.322 72.0788L148.621 72.0788C159.617 72.0788 170.115 69.5997 179.864 64.704L180.321 64.4748L180.779 64.704C190.528 69.5997 201.026 72.0788 212.022 72.0788C212.459 72.0788 212.895 72.0788 213.332 72.0579L214.434 71.9954L214.434 72.0996L218.321 72.0996L218.321 71.8288L219.256 71.7246C222.437 71.3913 225.617 70.8496 228.694 70.0788L230.274 69.683L229.962 71.2871C229.317 74.6412 228.922 78.0786 228.777 81.516L228.715 82.516L228.798 87.4116C229.234 98.203 232.082 108.453 237.237 117.89L237.508 118.39L237.237 118.89C232.082 128.369 229.234 138.618 228.798 149.389L228.714 150.389L228.777 155.264C228.902 158.701 229.297 162.139 229.962 165.513L230.274 167.118L228.694 166.722C225.659 165.951 222.478 165.409 219.277 165.076L218.342 164.972L218.342 164.701L213.436 164.701C212.895 164.701 212.48 164.701 212.043 164.701C201.067 164.701 190.57 167.18 180.8 172.097L180.342 172.326L179.885 172.097C170.115 167.201 159.617 164.701 148.641 164.701C148.205 164.701 147.768 164.701 147.311 164.722L146.209 164.784L146.209 164.68L142.343 164.68L142.343 164.951L141.407 165.055C138.185 165.388 135.026 165.93 131.97 166.701L130.39 167.097L130.702 165.493C131.346 162.118 131.741 158.68 131.887 155.243L131.97 154.243L131.866 149.347L131.824 149.326ZM48.3631 20.3928L48.5294 19.7678L49.153 19.6428C53.3937 18.7887 57.7798 18.3512 62.1867 18.3512C68.5892 18.3512 74.9086 19.2678 80.9993 21.0803L81.5398 21.2469L81.7061 21.7886C84.9489 32.9757 91.0396 43.2671 99.313 51.5794C106.713 58.975 115.777 64.704 125.547 68.1205L126.087 68.308L126.212 68.8497C127.21 72.8704 127.792 77.0994 127.979 81.3701L128.02 82.4535L-3.83407 82.4534L-3.58457 81.2035C-3.43906 77.6411 -2.96096 74.037 -2.2334 70.5996L-2.10868 69.9746L-1.48509 69.808C22.753 63.5373 41.8566 44.6004 48.3631 20.3719L48.3631 20.3928ZM-1.0485 65.7248L-0.424908 63.8082C0.157139 61.9957 0.801576 60.3083 1.48756 58.6625C4.79276 50.8085 9.55302 43.7671 15.6022 37.7048C21.6305 31.6633 28.6774 26.8926 36.5351 23.5385C38.4267 22.7469 40.36 22.0386 42.314 21.4136L44.2472 20.8094L43.6236 22.726C43.0831 24.3718 42.4387 26.1009 41.7111 27.8509C38.3851 35.7257 33.6457 42.788 27.5965 48.8294C21.5474 54.8918 14.5004 59.6624 6.6636 62.9748C4.83431 63.7665 2.8803 64.4748 0.884707 65.1206L-1.0485 65.7248ZM50.92 15.3929L49.4856 15.6221L49.7351 14.1846C51.1902 5.70571 51.0862 -2.91903 49.5272 -10.9396L49.2362 -12.3979L50.7121 -12.1479C54.5162 -11.5229 58.3826 -11.2105 62.1867 -11.2105C67.924 -11.2105 73.6198 -11.8979 79.0869 -13.2729L80.6875 -13.6687L80.3549 -12.0438C78.484 -3.06485 78.4217 6.47653 80.1262 15.3096L80.438 16.9137L78.8582 16.5179C73.4327 15.1846 67.8201 14.4971 62.1867 14.4971C58.445 14.4971 54.6409 14.8096 50.92 15.4138L50.92 15.3929ZM82.7662 2.18499C82.7662 -3.48151 83.473 -9.10635 84.8866 -14.5229L85.032 -15.0645L85.5517 -15.252C95.2179 -18.6894 104.177 -24.3767 111.494 -31.689C119.477 -39.6888 125.443 -49.5635 128.769 -60.2923L128.935 -60.8131L129.455 -60.9798C133.28 -62.1464 137.229 -62.9589 141.158 -63.4172L142.322 -63.5422L142.322 67.8706L141.158 67.7455C137.25 67.3081 133.446 66.5373 129.808 65.4123L129.268 65.2456L129.101 64.704C122.824 43.1421 106.422 25.8301 85.2399 18.372L84.6995 18.1845L84.5748 17.6429C83.3691 12.643 82.7455 7.43484 82.7455 2.16416L82.7662 2.18499ZM87.381 -22.1685C87.5681 -22.6268 87.7552 -23.0851 87.9423 -23.5434C91.2475 -31.3974 96.0078 -38.4596 102.057 -44.5011C107.898 -50.3551 114.633 -54.98 122.117 -58.2716L124.445 -59.2924L122.886 -55.4175C119.56 -47.5635 114.82 -40.5012 108.771 -34.4389C102.93 -28.5849 96.1949 -23.9601 88.7322 -20.6893L86.404 -19.6685L87.3395 -22.0226L88.2957 -21.6268L87.381 -22.1476L87.381 -22.1685ZM275.112 -15.252L275.632 -15.0645L275.777 -14.5228C278.521 -4.00232 278.604 7.24735 276.089 17.6637L275.964 18.2054L275.424 18.3928C265.633 21.8302 256.549 27.5592 249.19 34.934C240.917 43.2255 234.826 53.5168 231.562 64.704L231.396 65.2456L230.856 65.4123C227.218 66.5164 223.414 67.2872 219.506 67.7247L218.342 67.8497L218.342 -63.5422L219.506 -63.4172C223.435 -62.9797 227.384 -62.1673 231.188 -60.9798L231.708 -60.8131L231.874 -60.2923C238.381 -39.3971 254.532 -22.5643 275.091 -15.252L275.112 -15.252ZM236.26 -59.2507L238.547 -58.2507C246.01 -54.98 252.745 -50.3343 258.607 -44.5011C264.573 -38.5221 269.437 -31.2723 272.721 -23.5226C272.908 -23.0851 273.096 -22.6268 273.283 -22.1685L274.218 -19.8144L271.952 -20.6893C264.49 -23.9601 257.754 -28.5849 251.913 -34.4389C245.864 -40.5012 241.104 -47.5635 237.799 -55.4175L237.653 -55.7716C237.487 -56.1674 237.321 -56.5633 237.175 -56.9591L236.281 -59.2924L236.26 -59.2507ZM347.764 -31.689C355.705 -39.6471 361.691 -49.5426 365.038 -60.2507L365.205 -60.7715L365.724 -60.9381C369.528 -62.1048 373.457 -62.9172 377.407 -63.3756L378.612 -63.3756L378.612 67.9956L377.365 67.7456C373.54 67.3081 369.715 66.5164 366.078 65.4123L365.537 65.2456L365.371 64.704C359.093 43.2046 342.754 25.9135 321.655 18.4554L321.135 18.2679L321.011 17.7262C319.784 12.7055 319.16 7.47651 319.16 2.185C319.16 -3.52317 319.888 -9.148 321.302 -14.5853L321.447 -15.1062L321.967 -15.2937C331.571 -18.731 340.488 -24.3975 347.764 -31.689ZM322.861 -19.7519L323.775 -22.106C323.962 -22.5851 324.149 -23.0643 324.357 -23.5434C327.663 -31.3765 332.423 -38.4388 338.451 -44.522C344.292 -50.3551 350.986 -54.9591 358.365 -58.209L360.714 -59.2507L359.737 -56.8758C359.55 -56.3966 359.342 -55.9174 359.135 -55.4383C355.788 -47.5635 351.048 -40.5012 345.02 -34.4598C339.179 -28.6474 332.506 -24.0434 325.126 -20.7935L322.819 -19.7727L322.861 -19.7519ZM186.454 63.0582L184.874 61.9124L186.121 61.0791C190.362 58.35 194.332 55.1626 197.928 51.5794C204.102 45.3921 208.987 38.2256 212.48 30.2467L214.475 25.6843L214.475 68.1414L213.436 68.1414C212.916 68.1414 212.48 68.1414 212.043 68.1414C203.208 68.1414 194.644 66.4331 186.599 63.0374L186.475 63.0374L186.454 63.0582ZM148.621 68.1622C148.163 68.1622 147.685 68.1622 147.207 68.1622L146.209 68.1205L146.209 25.7051L148.205 30.2675C151.676 38.2256 156.582 45.4129 162.756 51.6002C166.332 55.1834 170.281 58.3708 174.543 61.0999L175.811 61.9124L174.189 63.0374C166.165 66.4331 157.538 68.183 148.641 68.183L148.621 68.1622ZM235.117 68.1205C256.299 60.6833 272.68 43.3713 278.958 21.7886L279.124 21.2469L279.664 21.0803C285.734 19.2678 292.054 18.3512 298.477 18.3512C304.9 18.3512 311.282 19.2887 317.394 21.1219L317.934 21.2886L318.1 21.8303C321.364 33.0174 327.455 43.3088 335.728 51.5794C343.066 58.9333 352.108 64.6415 361.837 68.0789L362.377 68.2664L362.502 68.808C363.479 72.9329 364.082 77.162 364.269 81.3493L364.311 82.4326L232.685 82.4326L232.685 81.391C232.872 77.0578 233.475 72.8287 234.452 68.808L234.577 68.2664L235.117 68.0789L235.117 68.1205ZM235.845 63.7665L236.676 61.4957C237.029 60.5374 237.404 59.6 237.799 58.6625C241.104 50.8086 245.864 43.7463 251.913 37.6839C257.838 31.7466 264.739 27.0384 272.451 23.7052L274.696 22.7469L273.844 25.0385C273.491 25.9968 273.116 26.9343 272.721 27.8509C269.395 35.7257 264.656 42.788 258.628 48.8294C252.662 54.8084 245.739 59.4958 238.09 62.8082L235.886 63.7665L235.845 63.7665ZM322.424 22.8094L324.648 23.7885C332.277 27.1218 339.137 31.7883 345.041 37.7048C350.986 43.6629 355.85 50.9127 359.155 58.6625C359.55 59.5791 359.904 60.4958 360.257 61.4332L361.089 63.704L358.885 62.7457C351.298 59.4541 344.417 54.7668 338.472 48.8295C332.444 42.788 327.683 35.7257 324.357 27.8509C323.962 26.9343 323.63 26.0176 323.276 25.101L322.445 22.8094L322.424 22.8094ZM383.477 68.1414L382.458 68.1414L382.458 25.726L384.454 30.2883C387.925 38.2464 392.831 45.4129 399.005 51.5794C402.58 55.1834 406.571 58.3708 410.854 61.0999L411.664 61.6207L411.02 62.829L410.646 62.9749C402.539 66.4123 393.912 68.1622 385.015 68.1622C384.495 68.1622 383.996 68.1622 383.477 68.1622L383.477 68.1414ZM416.154 59.7875C410.937 56.85 406.093 53.1627 401.749 48.8503C395.7 42.788 390.96 35.7257 387.634 27.8717C384.287 19.9761 382.562 11.5597 382.479 2.85165L382.479 1.53918C382.562 -7.16889 384.308 -15.6061 387.634 -23.5017C390.939 -31.3348 395.679 -38.3971 401.749 -44.4803C406.093 -48.8135 410.958 -52.5009 416.154 -55.4175L416.653 -55.7091L417.152 -55.4175C422.391 -52.5009 427.255 -48.8135 431.579 -44.4803C437.649 -38.3763 442.388 -31.314 445.693 -23.5017C449.123 -15.377 450.869 -6.75223 450.869 2.185C450.869 11.1222 449.123 19.747 445.693 27.8509C442.388 35.7048 437.628 42.7671 431.579 48.8295C427.255 53.1627 422.411 56.8292 417.152 59.7666L416.653 60.0583L416.154 59.7666L416.154 59.7875ZM281.785 16.4971L280.205 16.8929L280.517 15.2888C282.221 6.43487 282.159 -3.08568 280.288 -12.0646L279.955 -13.6895L281.556 -13.2937C287.023 -11.9188 292.719 -11.2313 298.456 -11.2313C304.194 -11.2313 309.931 -11.9396 315.481 -13.3354L317.082 -13.7312L316.749 -12.1062C314.878 -3.12735 314.816 6.43487 316.52 15.3304L316.832 16.9346L315.252 16.5387C309.785 15.1846 304.131 14.4763 298.456 14.4763C292.781 14.4763 287.21 15.1429 281.785 16.4971ZM209.299 27.8509C205.973 35.7465 201.213 42.8088 195.184 48.8294C190.902 53.1418 186.059 56.8084 180.841 59.7458L180.342 60.0374L179.843 59.7458C174.626 56.8084 169.803 53.1418 165.5 48.8294C159.472 42.8088 154.711 35.7465 151.385 27.8509C148.039 19.9345 146.313 11.5181 146.209 2.83081L146.209 1.51834C146.292 -7.18973 148.039 -15.6062 151.385 -23.5226C154.711 -31.3974 159.451 -38.4596 165.5 -44.5011C169.803 -48.8135 174.626 -52.4801 179.843 -55.3966L180.342 -55.6883L180.841 -55.3966C186.059 -52.4801 190.881 -48.8135 195.184 -44.5011C201.234 -38.4388 205.973 -31.3765 209.299 -23.5226C212.729 -15.3978 214.475 -6.77307 214.475 2.16416C214.475 11.1014 212.729 19.7261 209.299 27.8301L209.299 27.8509ZM124.798 63.7665L122.595 62.8082C114.924 59.5166 108.023 54.8084 102.057 48.8294C96.0286 42.8088 91.2683 35.7465 87.9423 27.8509C87.5473 26.9343 87.1732 25.9968 86.8198 25.0385L85.9675 22.7469L88.2125 23.7052C95.9247 27.0384 102.847 31.7258 108.75 37.6839C114.8 43.7463 119.56 50.8086 122.865 58.6417C123.26 59.5791 123.634 60.5166 123.988 61.4749L124.819 63.7457L124.798 63.7665ZM324.087 91.5365C331.924 94.8489 338.992 99.6196 345.041 105.682C348.699 109.348 351.921 113.432 354.603 117.807L354.936 118.348L354.603 118.89C351.942 123.244 348.72 127.327 345.041 131.015C338.971 137.098 331.903 141.848 324.087 145.16C316.001 148.597 307.374 150.347 298.456 150.347C289.538 150.347 280.912 148.597 272.825 145.16C264.988 141.848 257.942 137.098 251.892 131.015C248.234 127.348 245.012 123.265 242.33 118.911L241.998 118.369L242.33 117.827C244.991 113.473 248.213 109.39 251.892 105.703C257.921 99.6404 264.968 94.8906 272.825 91.5573C280.704 88.2033 289.102 86.4533 297.791 86.37L299.08 86.37C307.769 86.4533 316.167 88.2033 324.066 91.5574L324.087 91.5365ZM321.967 86.3492L364.311 86.3492L364.269 87.4325C363.895 95.2239 362.19 102.828 359.155 110.036C358.76 110.994 358.324 111.953 357.887 112.869L357.097 114.494L356.079 112.994C353.688 109.432 350.882 106.057 347.764 102.911C341.611 96.7447 334.439 91.8282 326.498 88.3283L321.967 86.3284L321.967 86.3492ZM357.097 122.202L357.867 123.848C358.303 124.786 358.74 125.723 359.135 126.681C362.17 133.889 363.874 141.493 364.248 149.285L364.29 150.368L322.029 150.368L326.457 148.347C334.418 144.847 341.59 139.931 347.764 133.744C350.84 130.681 353.626 127.285 356.079 123.681L357.097 122.181L357.097 122.202ZM270.081 150.368L232.664 150.368L232.664 149.326C233.038 141.431 234.764 133.827 237.778 126.66C238.173 125.702 238.609 124.765 239.025 123.848L239.794 122.181L240.834 123.702C243.266 127.285 246.072 130.66 249.149 133.744C255.322 139.931 262.494 144.847 270.456 148.347L274.987 150.347L270.061 150.347L270.081 150.368ZM270.435 88.3491C262.473 91.849 255.322 96.7655 249.169 102.932C246.072 106.036 243.266 109.411 240.854 112.994L239.815 114.515L239.046 112.828C238.609 111.89 238.194 110.953 237.799 110.015C234.784 102.87 233.059 95.2656 232.685 87.4325L232.643 86.3492L274.987 86.3492L270.456 88.3491L270.435 88.3491ZM85.531 251.865L85.0113 251.678L84.8657 251.136C83.473 245.761 82.7662 240.157 82.7662 234.511C82.7662 229.241 83.369 224.033 84.5955 219.033L84.7202 218.491L85.2607 218.304C95.0516 214.866 104.136 209.137 111.494 201.762C119.768 193.471 125.859 183.18 129.122 171.992L129.288 171.451L129.829 171.284C133.467 170.18 137.292 169.388 141.179 168.951L142.343 168.826L142.343 300.239L141.179 300.114C137.208 299.676 133.259 298.843 129.476 297.676L128.956 297.51L128.79 296.989C122.325 276.073 106.152 259.198 85.531 251.865ZM124.466 295.968L122.117 294.947C114.613 291.656 107.857 287.031 102.057 281.198C96.0078 275.156 91.2683 268.115 87.9423 260.24C87.776 259.865 87.6097 259.469 87.4642 259.073L86.3001 256.261L88.6698 257.302C96.1949 260.615 102.951 265.24 108.75 271.073C114.8 277.135 119.56 284.197 122.865 292.031L124.466 295.968ZM50.7328 248.782L49.2569 249.032L49.5272 247.574C51.0655 239.511 51.1486 230.928 49.7143 222.512L49.4648 221.074L50.8992 221.304C54.6201 221.908 58.4034 222.22 62.1659 222.22C67.7993 222.22 73.4119 221.533 78.8374 220.199L80.4173 219.804L80.1054 221.408C78.4009 230.262 78.484 239.907 80.3133 248.699L80.6459 250.323L79.0453 249.928C73.5574 248.553 67.8824 247.865 62.1659 247.865C58.341 247.865 54.4746 248.178 50.7121 248.803L50.7328 248.782ZM85.9675 213.929L86.8198 211.637C87.1732 210.679 87.5473 209.741 87.9423 208.825C91.2683 200.95 96.0078 193.888 102.057 187.867C107.981 181.909 114.904 177.201 122.595 173.888L124.798 172.93L123.967 175.201C123.613 176.159 123.239 177.096 122.844 178.034C119.539 185.888 114.779 192.95 108.73 199.013C102.826 204.95 95.9039 209.658 88.1917 212.97L85.9467 213.929L85.9675 213.929ZM275.403 218.304L275.943 218.491L276.068 219.033C278.583 229.449 278.5 240.657 275.798 251.136L275.652 251.678L275.133 251.865C265.446 255.323 256.466 261.011 249.149 268.323C241.145 276.344 235.159 286.239 231.853 296.989L231.687 297.51L231.167 297.676C227.384 298.843 223.455 299.655 219.485 300.114L218.321 300.239L218.321 168.826L219.485 168.951C223.372 169.388 227.197 170.159 230.835 171.263L231.375 171.43L231.542 171.972C237.819 193.534 254.221 210.845 275.403 218.283L275.403 218.304ZM235.845 172.93L238.048 173.888C245.739 177.201 252.641 181.909 258.586 187.867C264.635 193.908 269.375 200.971 272.701 208.846C273.096 209.762 273.47 210.7 273.823 211.658L274.675 213.95L272.451 212.991C264.739 209.679 257.838 204.991 251.913 199.033C245.864 192.971 241.104 185.909 237.799 178.076C237.404 177.138 237.029 176.201 236.676 175.242L235.845 172.972L235.845 172.93ZM347.764 201.762C356.037 193.492 362.128 183.2 365.392 172.013L365.558 171.472L366.098 171.305C369.736 170.201 373.561 169.409 377.448 168.972L378.612 168.847L378.612 300.343L377.365 300.093C373.457 299.635 369.528 298.822 365.745 297.655L365.017 297.426L365.017 296.801C358.511 276.031 342.422 259.261 321.946 251.928L321.426 251.74L321.281 251.198C319.867 245.782 319.16 240.178 319.16 234.511C319.16 229.262 319.784 224.033 320.99 218.97L321.114 218.429L321.655 218.241C331.404 214.804 340.426 209.096 347.764 201.742L347.764 201.762ZM322.424 213.866L323.256 211.575C323.588 210.658 323.942 209.721 324.336 208.825C327.662 200.971 332.402 193.908 338.451 187.867C344.376 181.93 351.235 177.263 358.864 173.951L361.089 172.992L360.257 175.284C359.925 176.201 359.55 177.138 359.176 178.055C355.829 185.93 351.09 192.992 345.062 199.013C339.075 205.012 332.402 209.554 324.669 212.908L322.445 213.866L322.424 213.866ZM360.694 295.905L358.365 294.885C350.944 291.593 344.23 286.989 338.43 281.198C332.402 275.135 327.642 268.094 324.316 260.219C324.108 259.698 323.9 259.198 323.692 258.698L322.777 256.344L325.064 257.365C332.485 260.657 339.199 265.261 344.999 271.073C350.924 277.01 355.809 284.26 359.114 292.031C359.301 292.447 359.467 292.864 359.633 293.301L360.652 295.885L360.694 295.905ZM281.577 249.928L279.976 250.324L280.309 248.699C282.138 239.907 282.221 230.282 280.517 221.408L280.205 219.804L281.785 220.199C287.21 221.533 292.823 222.22 298.456 222.22C304.09 222.22 309.827 221.533 315.252 220.179L316.832 219.783L316.52 221.387C314.816 230.324 314.899 239.97 316.728 248.74L317.061 250.365L315.439 249.948C309.931 248.553 304.194 247.844 298.435 247.844C292.677 247.844 287.023 248.532 281.556 249.907L281.577 249.928ZM274.364 256.261L273.179 259.115C273.033 259.49 272.867 259.865 272.701 260.24C269.395 268.094 264.635 275.156 258.607 281.198C252.786 287.031 246.03 291.676 238.547 294.947L236.198 295.968L237.799 292.051C241.104 284.197 245.864 277.135 251.913 271.052C257.734 265.219 264.49 260.594 271.994 257.302L274.364 256.261ZM214.475 169.597L214.475 210.804L212.5 206.491C209.008 198.471 204.102 191.304 197.928 185.117C194.353 181.534 190.383 178.346 186.1 175.597L184.188 174.367L186.371 173.722L186.766 174.576L186.391 173.701C194.498 170.263 203.125 168.513 212.022 168.513C212.5 168.513 212.958 168.513 213.436 168.513L214.434 168.555L214.434 169.555L214.475 169.597ZM214.454 234.532C214.454 243.47 212.708 252.115 209.278 260.219C205.952 268.094 201.213 275.156 195.164 281.198C190.923 285.468 186.1 289.135 180.82 292.114L180.301 292.406L179.781 292.114C174.501 289.135 169.678 285.468 165.438 281.198C159.389 275.156 154.649 268.115 151.323 260.24C147.976 252.323 146.251 243.907 146.147 235.199L146.147 233.886C146.23 225.178 147.976 216.762 151.323 208.846C154.649 200.971 159.389 193.908 165.438 187.867C169.699 183.575 174.522 179.909 179.781 176.951L180.28 176.659L180.779 176.951C186.038 179.909 190.861 183.575 195.122 187.867C201.171 193.908 205.911 200.95 209.237 208.846C212.667 216.97 214.413 225.595 214.413 234.532L214.454 234.532ZM176.434 174.367L174.543 175.617C170.26 178.367 166.29 181.555 162.735 185.138C156.582 191.304 151.676 198.471 148.184 206.45L146.189 210.991L146.189 168.597L147.186 168.555C147.664 168.555 148.143 168.555 148.6 168.555C157.518 168.555 166.144 170.305 174.231 173.742L176.413 174.388L176.434 174.367ZM146.189 258.052L148.184 262.615C151.656 270.573 156.561 277.76 162.735 283.948C166.29 287.531 170.26 290.718 174.522 293.447L175.956 294.364L174.231 295.322C166.103 298.78 157.476 300.53 148.6 300.53C148.122 300.53 147.664 300.53 147.186 300.53L146.189 300.489L146.189 258.052ZM184.583 294.551L186.121 293.426C190.383 290.697 194.353 287.51 197.928 283.927C204.102 277.739 208.987 270.573 212.48 262.594L214.475 258.032L214.475 300.51L213.436 300.51C212.958 300.51 212.5 300.51 212.043 300.51C203.167 300.51 194.54 298.76 186.412 295.301L184.604 294.531L184.583 294.551ZM235.387 300.385C256.008 293.051 272.16 276.177 278.646 255.24L278.812 254.719L279.332 254.553C285.526 252.678 291.95 251.719 298.477 251.719C305.004 251.719 311.531 252.678 317.768 254.594L318.287 254.761L318.454 255.282C321.78 266.031 327.746 275.927 335.749 283.927C343.024 291.218 351.963 296.885 361.567 300.322L362.086 300.51L362.232 301.051C363.313 305.197 363.978 309.468 364.228 313.717L364.29 314.822L232.768 314.822L232.768 313.78C233.017 309.447 233.683 305.197 234.743 301.093L234.888 300.551L235.408 300.364L235.387 300.385ZM382.479 300.51L382.479 258.073L384.474 262.636C387.946 270.594 392.852 277.76 399.026 283.927C402.622 287.531 406.592 290.718 410.874 293.447L411.664 293.947L411.061 295.155L410.667 295.301C402.539 298.76 393.912 300.51 385.036 300.51C384.516 300.51 384.017 300.51 383.497 300.51L382.479 300.51ZM416.154 292.135C410.895 289.156 406.031 285.489 401.749 281.198C395.7 275.135 390.96 268.073 387.634 260.219C384.287 252.323 382.562 243.886 382.479 235.199L382.479 233.866C382.562 225.158 384.308 216.741 387.634 208.846C390.939 200.992 395.7 193.95 401.749 187.867C406.052 183.555 410.895 179.888 416.154 176.93L416.653 176.638L417.152 176.93C422.37 179.846 427.234 183.513 431.579 187.867C437.649 193.95 442.388 200.992 445.693 208.846C449.123 216.97 450.869 225.595 450.869 234.532C450.869 243.47 449.123 252.115 445.693 260.219C442.388 268.052 437.628 275.114 431.579 281.198C427.234 285.552 422.391 289.239 417.152 292.156L416.653 292.447L416.154 292.156L416.154 292.135ZM399.026 185.138C392.852 191.325 387.967 198.471 384.474 206.429L382.479 210.95L382.479 168.576L383.477 168.576C383.996 168.534 384.516 168.534 385.015 168.534C393.912 168.534 402.539 170.284 410.646 173.722L410.874 173.847L412.226 174.722L410.874 175.597C406.592 178.326 402.622 181.534 399.026 185.138ZM361.816 168.618C340.717 176.076 324.378 193.346 318.1 214.845L317.934 215.387L317.394 215.554C311.324 217.387 304.942 218.324 298.456 218.324C291.971 218.324 285.672 217.408 279.644 215.595L279.103 215.429L278.937 214.887C275.673 203.7 269.583 193.409 261.309 185.138C253.93 177.742 244.846 172.013 235.075 168.597L234.535 168.409L234.41 167.868C233.412 163.847 232.83 159.618 232.643 155.326L232.602 154.243L364.29 154.243L364.248 155.326C364.061 159.555 363.458 163.784 362.461 167.909L362.336 168.451L361.795 168.638L361.816 168.618ZM128.02 154.222L127.979 155.305C127.792 159.597 127.189 163.805 126.212 167.847L126.087 168.388L125.547 168.576C104.385 176.013 88.0047 193.325 81.7061 214.887L81.5398 215.429L80.9993 215.595C74.971 217.408 68.6308 218.324 62.1867 218.324C57.8006 218.324 53.4352 217.887 49.1738 217.054L48.5502 216.929L48.3839 216.304C45.2242 204.554 39.0088 193.783 30.3612 185.138C21.5474 176.305 10.53 169.993 -1.46428 166.888L-2.08788 166.722L-2.2126 166.097C-2.94016 162.639 -3.41827 159.014 -3.58457 155.326L-3.62619 154.243L128.062 154.243L128.02 154.222ZM44.268 215.866L42.3555 215.283C40.5262 214.72 38.5722 214.012 36.5766 213.158C28.719 209.825 21.6721 205.075 15.6438 199.012C9.59463 192.95 4.8343 185.888 1.52911 178.034C0.822335 176.388 0.198686 174.701 -0.383361 172.888L-1.00696 170.972L0.926255 171.576C2.94263 172.201 4.87586 172.93 6.70515 173.722C14.5628 177.055 21.6097 181.805 27.6381 187.867C33.6872 193.929 38.4475 200.992 41.7527 208.846C42.5011 210.637 43.1247 212.304 43.6651 213.97L44.2888 215.887L44.268 215.866ZM43.9146 254.282L43.2286 256.261C42.7921 257.552 42.2932 258.865 41.7111 260.24C38.4059 268.094 33.6456 275.135 27.5965 281.218C21.5682 287.26 14.5212 292.031 6.66359 295.364C4.77194 296.176 3.005 296.822 1.25886 297.364L-0.715973 297.968L-0.029953 296.01C0.42737 294.697 0.947077 293.364 1.48755 292.051C4.79275 284.218 9.55301 277.156 15.6021 271.073C21.6513 265.011 28.6982 260.261 36.5351 256.927C38.2812 256.198 40.0897 255.511 41.919 254.928L43.8938 254.282L43.9146 254.282ZM48.072 253.823L48.2384 253.219L48.862 253.094C53.165 252.198 57.655 251.74 62.1867 251.74C68.6932 251.74 75.1372 252.698 81.3319 254.573L81.8516 254.74L82.0179 255.261C85.3231 266.011 91.3098 275.927 99.313 283.947C106.609 291.26 115.59 296.947 125.276 300.385L125.796 300.572L125.942 301.114C127.023 305.218 127.688 309.468 127.916 313.738L127.979 314.842L-3.54303 314.842L-3.54303 313.801C-3.33515 310.155 -2.81549 306.53 -2.00478 302.926L-1.85925 302.301L-1.2564 302.134C22.4204 295.947 41.3161 277.427 48.072 253.823ZM324.087 323.884C331.882 327.175 338.929 331.946 345.041 338.029C348.866 341.862 352.192 346.133 354.915 350.696L355.227 351.237L354.915 351.779C352.171 356.362 348.845 360.612 345.062 364.403C338.992 370.466 331.945 375.236 324.108 378.549C316.022 381.986 307.395 383.736 298.477 383.736C289.559 383.736 280.932 381.986 272.846 378.549C265.009 375.236 257.962 370.466 251.913 364.403C248.13 360.612 244.804 356.362 242.039 351.779L241.707 351.237L242.039 350.696C244.783 346.112 248.109 341.862 251.913 338.05C257.983 331.967 265.03 327.217 272.867 323.905C280.953 320.467 289.58 318.717 298.477 318.717C307.374 318.717 316.001 320.467 324.108 323.905L324.087 323.884ZM321.925 318.696L364.331 318.696L364.29 319.78C364.04 327.967 362.315 335.904 359.155 343.404C358.885 344.071 358.573 344.758 358.282 345.425L357.43 347.321L356.391 345.779C353.834 341.987 350.944 338.467 347.785 335.321C341.611 329.134 334.439 324.217 326.478 320.717L321.946 318.717L321.925 318.696ZM357.409 355.133L358.178 356.82C358.428 357.383 358.698 357.966 358.948 358.549L359.155 359.008C362.315 366.528 364.061 374.466 364.311 382.653L364.56 383.903L363.271 383.757L321.676 383.757L326.498 381.736C334.439 378.257 341.611 373.341 347.785 367.174C350.944 364.008 353.855 360.466 356.391 356.695L357.43 355.154L357.409 355.133ZM232.643 383.736L232.643 382.695C232.893 374.466 234.618 366.508 237.778 359.029C238.09 358.299 238.422 357.549 238.776 356.82L239.566 355.154L240.584 356.695C243.058 360.404 245.926 363.924 249.169 367.153C255.343 373.341 262.494 378.236 270.456 381.736L275.008 383.736L232.643 383.736ZM270.456 320.696C262.494 324.196 255.322 329.113 249.148 335.3C245.926 338.529 243.037 342.05 240.563 345.758L239.566 347.258L238.776 345.633C238.422 344.904 238.09 344.154 237.778 343.404C234.618 335.925 232.893 327.967 232.643 319.78L232.602 318.717L274.987 318.717L270.456 320.717L270.456 320.696ZM321.697 484.254L321.156 484.067L321.031 483.525C319.805 478.442 319.181 473.192 319.181 467.921C319.181 462.276 319.888 456.672 321.302 451.255L321.447 450.713L321.967 450.526C331.612 447.068 340.551 441.38 347.785 434.11C355.725 426.152 361.691 416.298 365.017 405.631L365.017 405.027L365.745 404.777C369.591 403.611 373.519 402.777 377.448 402.34L378.612 402.215L378.612 533.503L376.534 533.503L376.534 533.378C373 532.919 369.487 532.169 366.078 531.149L365.537 530.982L365.371 530.44C359.072 508.983 342.754 491.733 321.697 484.275L321.697 484.254ZM361.089 529.44L358.823 528.461C351.215 525.149 344.355 520.482 338.451 514.566C332.548 508.649 327.621 501.358 324.336 493.587C323.962 492.691 323.609 491.796 323.297 490.9L322.507 488.65L324.69 489.608C332.277 492.9 339.116 497.566 345.041 503.483C351.048 509.524 355.809 516.586 359.155 524.461C359.53 525.357 359.883 526.253 360.216 527.128L361.089 529.44ZM249.169 500.754C240.917 509.045 234.826 519.295 231.583 530.44L231.458 530.878L230.731 531.19C227.051 532.294 223.268 533.065 219.526 533.482L218.362 533.607L218.362 402.215L219.526 402.34C223.518 402.777 227.446 403.59 231.209 404.756L231.729 404.923L231.895 405.444C238.36 426.36 254.532 443.234 275.154 450.588L275.673 450.776L275.819 451.318C278.521 461.817 278.604 473.109 276.068 483.483L275.943 484.025L275.403 484.233C265.612 487.671 256.549 493.4 249.19 500.774L249.169 500.754ZM274.634 488.566L273.782 490.837C273.449 491.754 273.075 492.67 272.701 493.566C269.375 501.441 264.635 508.503 258.586 514.524C252.682 520.461 245.781 525.17 238.09 528.482L235.845 529.461L236.718 527.169C237.071 526.253 237.404 525.357 237.799 524.461C241.125 516.586 245.864 509.524 251.913 503.483C257.962 497.42 264.677 492.858 272.41 489.525L274.634 488.566ZM85.2607 484.192L84.7202 484.004L84.5955 483.462C83.369 478.442 82.7662 473.213 82.7662 467.9C82.7662 462.255 83.473 456.672 84.8657 451.276L85.0113 450.734L85.531 450.547C95.1971 447.109 104.177 441.422 111.494 434.089C119.498 426.068 125.484 416.152 128.79 405.423L128.956 404.902L129.475 404.736C133.238 403.59 137.188 402.777 141.179 402.319L142.343 402.194L142.343 533.607L141.179 533.482C137.375 533.065 133.529 532.273 129.808 531.149L129.268 530.982L129.101 530.44C122.803 508.899 106.422 491.608 85.2815 484.192L85.2607 484.192ZM124.819 529.482L122.574 528.524C114.883 525.211 107.981 520.503 102.078 514.566C96.0286 508.545 91.2891 501.483 87.9631 493.587C87.5681 492.691 87.2147 491.754 86.8613 490.837L86.0091 488.566L88.2333 489.525C95.883 492.816 102.784 497.504 108.75 503.483C114.716 509.462 119.601 516.732 122.865 524.461C123.239 525.378 123.593 526.274 123.946 527.19L124.819 529.482ZM50.92 481.192L49.4856 481.421L49.7351 479.983C51.1902 471.629 51.107 462.963 49.548 454.859L49.2777 453.401L50.7536 453.651C54.5785 454.276 58.4242 454.588 62.2075 454.588C67.9032 454.588 73.5782 453.901 79.0868 452.526L80.6875 452.13L80.3548 453.755C78.5463 462.567 78.4424 472.025 80.1678 481.108L80.4796 482.712L78.8998 482.317C73.495 480.963 67.8825 480.296 62.2075 480.296C58.445 480.296 54.6616 480.608 50.9407 481.213L50.92 481.192ZM86.5287 446.068L87.9423 442.214C91.2682 434.339 96.0078 427.277 102.057 421.235C107.857 415.402 114.612 410.777 122.117 407.486L124.466 406.465L122.865 410.381C119.539 418.235 114.8 425.297 108.75 431.381C102.909 437.235 96.1533 441.859 88.6906 445.151L86.5495 446.089L86.5287 446.068ZM174.21 407.027L175.707 408.215L174.501 409.006C170.24 411.735 166.29 414.923 162.715 418.506C156.541 424.693 151.635 431.881 148.163 439.839L146.168 444.401L146.168 401.944L148.6 401.944C157.435 401.944 165.999 403.652 174.044 407.048L174.21 407.048L174.21 407.027ZM212.043 401.923L214.475 401.923L214.475 444.214L212.459 439.86C208.966 431.881 204.081 424.714 197.908 418.527C194.332 414.944 190.362 411.735 186.1 409.027L184.77 408.173L186.454 407.09C194.457 403.694 203.084 401.944 212.001 401.944L212.043 401.923ZM146.189 467.255C146.272 458.546 148.018 450.13 151.365 442.214C154.691 434.339 159.43 427.297 165.479 421.235C169.741 416.944 174.563 413.277 179.802 410.34L180.238 410.09L180.696 410.277C186.08 413.298 190.923 416.964 195.184 421.256C201.234 427.277 205.973 434.339 209.299 442.214C212.729 450.338 214.475 458.984 214.475 467.9C214.475 476.817 212.729 485.462 209.299 493.587C205.973 501.462 201.234 508.524 195.184 514.566C190.923 518.857 186.1 522.524 180.862 525.461L180.425 525.711L179.719 525.378C174.584 522.503 169.761 518.816 165.479 514.545C159.43 508.524 154.691 501.462 151.365 493.566C148.018 485.65 146.272 477.233 146.189 468.546L146.189 467.234L146.189 467.255ZM236.177 406.444L238.526 407.465C246.01 410.756 252.766 415.381 258.586 421.214C264.635 427.277 269.375 434.318 272.701 442.193L274.322 446.151L271.973 445.13C264.49 441.839 257.734 437.214 251.892 431.36C245.843 425.277 241.083 418.214 237.778 410.381L236.177 406.444ZM281.764 482.296L280.184 482.692L280.496 481.088C282.221 472.004 282.138 462.526 280.309 453.734L279.976 452.109L281.577 452.505C287.065 453.88 292.74 454.567 298.456 454.567C304.173 454.567 309.91 453.859 315.46 452.484L317.061 452.088L316.728 453.713C315.772 458.297 315.294 463.067 315.294 467.9C315.294 472.317 315.71 476.775 316.541 481.108L316.853 482.712L315.273 482.317C309.806 480.942 304.152 480.254 298.456 480.254C292.76 480.254 287.169 480.942 281.764 482.275L281.764 482.296ZM322.944 446.026L323.734 443.755C323.921 443.234 324.129 442.714 324.357 442.193C327.683 434.339 332.423 427.297 338.472 421.235C344.272 415.423 350.986 410.819 358.428 407.527L360.839 406.465L359.176 410.381C355.85 418.235 351.09 425.297 345.082 431.36C339.262 437.172 332.568 441.776 325.168 445.068L322.985 446.047L322.944 446.026ZM382.479 467.255C382.562 458.546 384.308 450.13 387.634 442.214C390.939 434.381 395.679 427.318 401.749 421.235C406.052 416.923 410.895 413.235 416.134 410.298L416.716 409.965L417.235 410.36C422.495 413.298 427.276 416.944 431.579 421.256C437.649 427.339 442.388 434.381 445.693 442.234C449.123 450.359 450.869 459.005 450.869 467.921C450.869 476.838 449.123 485.483 445.693 493.608C442.388 501.441 437.628 508.503 431.579 514.587C427.234 518.941 422.37 522.628 417.173 525.524L416.653 525.815L416.134 525.503C410.895 522.565 406.052 518.878 401.749 514.566C395.7 508.503 390.96 501.441 387.634 493.587C384.287 485.692 382.562 477.275 382.479 468.567L382.479 467.255ZM399.026 418.485C392.852 424.652 387.946 431.818 384.474 439.776L382.479 444.339L382.479 401.923L385.036 401.923C393.87 401.923 402.414 403.631 410.459 407.027L410.729 407.027L411.872 408.319L410.854 408.965C406.592 411.694 402.601 414.902 399.026 418.485ZM361.546 402.09C341.008 409.444 324.877 426.297 318.433 447.13L318.267 447.651L317.747 447.818C311.531 449.713 305.046 450.693 298.456 450.693C291.867 450.693 285.464 449.734 279.311 447.859L278.791 447.693L278.625 447.172C275.299 436.422 269.333 426.506 261.33 418.485C254.034 411.173 245.053 405.486 235.366 402.048L234.847 401.861L234.701 401.319C233.62 397.194 232.955 392.944 232.726 388.694L232.664 387.59L364.248 387.59L364.186 388.694C363.957 392.944 363.271 397.194 362.19 401.361L362.045 401.902L361.525 402.09L361.546 402.09ZM127.979 387.59L127.916 388.694C127.667 392.965 127.002 397.215 125.942 401.319L125.796 401.861L125.276 402.048C104.676 409.381 88.5035 426.256 82.0179 447.172L81.8515 447.693L81.3319 447.859C75.158 449.734 68.7139 450.693 62.1867 450.693C57.655 450.693 53.165 450.234 48.862 449.338L48.2384 449.213L48.072 448.609C44.85 437.297 38.7177 426.881 30.3612 418.506C21.5889 409.715 10.6756 403.423 -1.25641 400.319L-1.88007 400.152L-2.02553 399.527C-2.83624 395.903 -3.35594 392.278 -3.54303 388.715L-3.60539 387.611L127.979 387.611L127.979 387.59ZM43.9146 448.151L41.9398 447.505C40.2768 446.963 38.5099 446.318 36.5559 445.505C28.719 442.193 21.6721 437.422 15.6021 431.36C9.55301 425.277 4.79274 418.214 1.48754 410.381C0.905498 408.985 0.406577 407.694 -0.0299578 406.423L-0.695169 404.486L1.25885 405.09C3.00499 405.631 4.83429 406.298 6.66358 407.09C14.5212 410.423 21.5682 415.173 27.5965 421.235C33.6664 427.318 38.4059 434.36 41.7111 442.214C42.2724 443.526 42.7713 444.859 43.2286 446.193L43.9146 448.151ZM44.2264 486.608L43.6028 488.525C43.0623 490.212 42.4179 491.921 41.7111 493.587C38.4059 501.441 33.6456 508.503 27.5965 514.566C21.5682 520.628 14.5212 525.378 6.66358 528.711C4.68878 529.544 2.75557 530.274 0.905495 530.836L-1.00697 531.419L-0.383377 529.503C0.157095 527.815 0.801512 526.107 1.50828 524.44C4.83427 516.586 9.57381 509.524 15.6229 503.462C21.6929 497.4 28.7398 492.629 36.5559 489.316C38.4059 488.525 40.3391 487.816 42.3139 487.191L44.2264 486.587L44.2264 486.608ZM48.3423 486.191L48.5086 485.567L49.1322 485.442C53.4144 484.587 57.8005 484.15 62.1867 484.15C68.6516 484.15 74.9917 485.067 81.0201 486.9L81.5606 487.066L81.7268 487.608C84.9904 498.775 91.0812 509.066 99.3338 517.316C106.693 524.69 115.756 530.399 125.547 533.836L126.087 534.023L126.212 534.565C127.189 538.565 127.792 542.794 128 547.086L128.041 548.169L-3.64695 548.169L-3.6054 547.086C-3.4391 543.461 -2.96096 539.836 -2.21261 536.336L-2.08789 535.711L-1.4643 535.544C22.753 529.253 41.8358 510.337 48.3423 486.191ZM147.186 533.898L146.189 533.857L146.189 491.421L148.184 495.983C151.656 503.941 156.561 511.128 162.735 517.316C166.311 520.899 170.281 524.086 174.522 526.815L175.79 527.628L174.189 528.753C166.144 532.169 157.518 533.919 148.621 533.919C148.143 533.919 147.685 533.919 147.207 533.919L147.186 533.898ZM235.117 533.836C256.258 526.399 272.638 509.108 278.937 487.587L279.103 487.046L279.644 486.879C285.672 485.067 292.012 484.15 298.477 484.15C304.942 484.15 311.386 485.087 317.435 486.942L317.976 487.108L318.142 487.65C321.385 498.774 327.475 509.024 335.749 517.316C343.087 524.67 352.108 530.357 361.816 533.794L362.357 533.982L362.481 534.523C363.479 538.607 364.082 542.836 364.269 547.106L364.311 548.19L232.623 548.19L232.664 547.106C232.872 542.794 233.475 538.586 234.452 534.586L234.577 534.044L235.117 533.857L235.117 533.836ZM382.479 533.898L382.479 491.441L384.474 496.004C387.967 503.983 392.852 511.149 399.026 517.316C402.622 520.92 406.592 524.107 410.874 526.836L412.579 527.919L410.667 528.711C402.539 532.148 393.912 533.898 385.036 533.898C384.516 533.898 384.017 533.898 383.497 533.898L382.479 533.898ZM450.89 402.965L450.89 443.859L448.874 439.818C445.381 431.839 440.476 424.652 434.302 418.464C430.726 414.86 426.735 411.652 422.453 408.923L421.351 408.236L422.661 407.069C430.768 403.631 439.395 401.882 448.292 401.882L450.849 401.882L450.849 402.944L450.89 402.965ZM450.89 169.597L450.89 210.825L448.915 206.512C445.402 198.492 440.496 191.304 434.323 185.117C430.726 181.513 426.735 178.305 422.474 175.576L420.894 174.576L422.682 173.701C430.789 170.263 439.416 168.513 448.313 168.513C448.832 168.513 449.352 168.513 449.851 168.513L450.849 168.555L450.849 169.576L450.89 169.597ZM450.89 -62.7714L450.89 -21.856L448.915 -25.7933C445.382 -33.8556 440.476 -41.0429 434.302 -47.2302C430.706 -50.8343 426.714 -54.0425 422.453 -56.7716L420.873 -57.7716L422.661 -58.6465C430.81 -62.0839 439.416 -63.8339 448.292 -63.8339C448.811 -63.8339 449.331 -63.8339 449.83 -63.8339L450.828 -63.8339L450.828 -62.7922L450.89 -62.7714ZM410.874 -58.5215L412.226 -57.6466L410.874 -56.7716C406.592 -54.0425 402.622 -50.8343 399.026 -47.2302C392.852 -41.0637 387.967 -33.8973 384.474 -25.9392L382.479 -21.3768L382.479 -63.7714L383.477 -63.7714C383.996 -63.813 384.516 -63.813 385.015 -63.813C393.87 -63.813 402.497 -62.0631 410.646 -58.6257L410.874 -58.5007L410.874 -58.5215ZM362.045 -63.813L361.525 -63.6256C341.029 -56.2924 324.919 -39.4804 318.433 -18.6686L318.267 -18.1477L317.747 -17.9811C311.531 -16.0645 305.025 -15.1062 298.456 -15.1062C291.887 -15.1062 285.443 -16.0645 279.269 -17.9602L278.75 -18.1269L278.583 -18.6477C275.278 -29.3557 269.312 -39.2513 261.33 -47.251C254.034 -54.5633 245.074 -60.2507 235.408 -63.6881L234.888 -63.8756L234.743 -64.3964C233.662 -68.4588 232.997 -72.7086 232.726 -77.021L232.664 -78.1251L364.248 -78.1251L364.186 -77.021C363.937 -72.7503 363.251 -68.4796 362.19 -64.3547L362.045 -63.813ZM213.457 -63.8131L214.454 -63.7714L214.454 -21.8768L212.48 -25.8142C208.966 -33.8764 204.061 -41.0637 197.887 -47.2302C194.311 -50.8134 190.341 -54.0008 186.059 -56.7508L184.188 -57.9382L186.308 -58.6049L186.724 -57.7507L186.371 -58.6257C194.519 -62.0631 203.146 -63.8131 212.001 -63.8131C212.48 -63.8131 212.937 -63.8131 213.415 -63.8131L213.457 -63.8131ZM176.081 -57.8757L174.543 -56.7508C170.26 -54.0217 166.29 -50.8134 162.735 -47.2302C156.561 -41.0429 151.656 -33.8556 148.184 -25.8975L146.189 -21.3351L146.189 -63.7714L147.186 -63.8131C147.664 -63.8131 148.143 -63.8131 148.6 -63.8131C157.476 -63.8131 166.103 -62.0631 174.231 -58.6257L176.06 -57.8549L176.081 -57.8757ZM125.235 -63.6672C104.676 -56.3341 88.5243 -39.5013 82.0595 -18.6269L81.8932 -18.1061L81.3735 -17.9394C75.1996 -16.0436 68.7555 -15.0853 62.1867 -15.0853C57.6758 -15.0853 53.2274 -15.5228 48.9452 -16.4186L48.7996 -16.4186L48.1552 -16.7311L48.0305 -17.1686C44.8085 -28.4599 38.6969 -38.8555 30.3404 -47.2094C21.5889 -55.98 10.6755 -62.2714 -1.23564 -65.3964L-1.83843 -65.563L-1.98396 -66.1672C-2.79467 -69.7087 -3.31435 -73.3544 -3.54301 -76.9793L-3.60537 -78.0835L127.979 -78.0835L127.916 -76.9793C127.646 -72.667 126.981 -68.4171 125.9 -64.3547L125.755 -63.8339L125.235 -63.6464L125.235 -63.6672ZM43.873 -17.6478L41.8982 -18.2727C40.0689 -18.8561 38.2604 -19.5435 36.5351 -20.2727C28.719 -23.5851 21.6721 -28.3349 15.6022 -34.4181C9.55303 -40.4804 4.79276 -47.5427 1.48756 -55.3966C0.947093 -56.6883 0.448193 -57.9799 -0.00912975 -59.2924L-0.695149 -61.2715L1.30042 -60.6257C3.19208 -60.0215 4.97983 -59.3549 6.66361 -58.6257C14.5005 -55.3133 21.5474 -50.5426 27.5965 -44.4803C33.6664 -38.3971 38.4059 -31.3349 41.7111 -23.5018C42.2516 -22.2101 42.7505 -20.9185 43.2078 -19.606L43.873 -17.6478ZM-16.8677 -63.7922C-13.1052 -63.6672 -9.32189 -63.2297 -5.60094 -62.4798L-4.97735 -62.3548L-4.81101 -61.7506C1.94489 -38.1888 20.8198 -19.731 44.4551 -13.5437L45.0579 -13.3771L45.2034 -12.7729C47.3445 -3.50235 47.4484 6.51819 45.4736 15.8721L45.3489 16.4971L44.7253 16.6637C32.731 19.7678 21.7137 26.0801 12.8998 34.9132C4.27305 43.5588 -1.9632 54.3501 -5.12288 66.0998L-5.28915 66.7247L-5.91281 66.8497C-9.48824 67.5789 -13.1676 67.9955 -16.8469 68.0997L-17.9071 68.0997L-17.9071 -63.8547L-16.8262 -63.8131L-16.8677 -63.7922ZM-21.8152 68.0997L-22.9169 68.0372C-30.4419 67.5997 -37.7175 65.9123 -44.5981 62.9748C-45.7206 62.4957 -46.8224 61.9957 -47.9241 61.4541L-49.5039 60.6624L-48.0488 59.6624C-44.5981 57.2667 -41.3345 54.5376 -38.3827 51.5794C-32.2088 45.392 -27.303 38.2256 -23.8107 30.2467L-21.8152 25.6843L-21.8152 68.0997ZM-21.8151 -21.3352L-23.8107 -25.8975C-27.303 -33.8765 -32.1881 -41.0429 -38.3827 -47.2302C-41.3553 -50.2093 -44.5981 -52.9384 -48.0696 -55.3342L-49.5247 -56.3341L-47.9448 -57.1258C-46.8639 -57.6674 -45.7414 -58.1674 -44.6189 -58.6466C-37.7175 -61.584 -30.4211 -63.2714 -22.9376 -63.7089L-21.8359 -63.7714L-21.8359 -21.356L-21.8151 -21.3352ZM-79.6456 -23.5018C-76.3404 -31.3349 -71.6009 -38.3972 -65.531 -44.4803C-61.9348 -48.0635 -58.006 -51.1884 -53.8693 -53.7925L-53.3288 -54.1467L-52.7883 -53.7925C-48.5893 -51.1676 -44.6605 -48.0427 -41.1058 -44.5011C-35.0567 -38.418 -30.2964 -31.3557 -26.9912 -23.5226C-23.5613 -15.3562 -21.8151 -6.71058 -21.8151 2.16415C-21.8151 11.0389 -23.5613 19.6845 -26.9912 27.8301C-30.3172 35.684 -35.0567 42.7463 -41.1058 48.8086C-44.6397 52.3293 -48.5685 55.4751 -52.7884 58.1208L-53.3496 58.475L-53.9109 58.1208C-58.0684 55.4959 -61.9972 52.371 -65.5726 48.8086C-71.6217 42.7463 -76.3613 35.684 -79.6872 27.8301C-83.1172 19.6636 -84.8633 11.0181 -84.8633 2.16415C-84.8633 -6.68975 -83.1172 -15.3562 -79.6872 -23.5226L-79.6456 -23.5018ZM-84.8217 25.6843L-82.8262 30.2258C-79.3339 38.2047 -74.428 45.392 -68.2542 51.5794C-65.24 54.6001 -61.9764 57.3292 -58.5672 59.6624L-57.0914 60.6624L-58.692 61.4541C-59.7729 61.9957 -60.8954 62.4957 -62.018 62.9748C-68.8986 65.8914 -76.1949 67.5997 -83.6992 68.0372L-84.8009 68.0997L-84.8009 25.6843L-84.8217 25.6843ZM-87.1084 164.659L-87.1084 72.0371L-84.4891 72.0371L-83.8447 71.9329C-73.2224 71.3496 -63.1197 68.433 -53.8277 63.2665L-53.3288 62.9957L-52.8299 63.2665C-43.5587 68.433 -33.4561 71.3496 -22.8129 71.9329L-21.8359 72.0371L-16.9509 72.0371C-13.8744 71.9121 -10.7771 71.6204 -7.7213 71.1204L-6.28697 70.8913L-6.53641 72.3287C-7.05609 75.2662 -7.38869 78.3494 -7.51342 81.4535L-7.57578 84.3492L-7.51342 87.3491C-7.07688 98.1196 -4.22902 108.369 0.926257 117.827L1.1965 118.327L0.926257 118.827C-4.2498 128.285 -7.0769 138.556 -7.53423 149.326L-7.59659 152.326L-7.53423 155.201C-7.4095 158.326 -7.0769 161.389 -6.55722 164.347L-6.30772 165.784L-7.74205 165.555C-10.8186 165.055 -13.9367 164.764 -16.9717 164.701L-22.1893 164.659L-22.8337 164.764C-33.4977 165.347 -43.6003 168.263 -52.8507 173.43L-53.3496 173.722L-53.8485 173.43C-63.1197 168.263 -73.2224 165.347 -83.8655 164.743L-87.1291 164.639L-87.1084 164.659ZM-84.8217 168.597L-83.72 168.659C-76.2158 169.097 -68.9194 170.784 -62.0388 173.722C-60.9163 174.201 -59.7937 174.701 -58.692 175.242L-57.0914 176.034L-58.5464 177.034C-61.9971 179.409 -65.2608 182.138 -68.2542 185.138C-74.428 191.325 -79.3339 198.492 -82.8262 206.471L-84.8217 211.012L-84.8217 168.597ZM-79.6456 208.825C-76.3404 200.971 -71.5802 193.929 -65.531 187.846C-61.9972 184.305 -58.0683 181.18 -53.8693 178.534L-53.3289 178.18L-52.7676 178.534C-48.5893 181.138 -44.6605 184.284 -41.085 187.846C-35.0359 193.908 -30.2964 200.971 -26.9704 208.825C-23.5405 216.991 -21.7944 225.637 -21.7944 234.511C-21.7944 243.386 -23.5405 252.032 -26.9704 260.198C-30.2756 268.052 -35.0359 275.094 -41.0851 281.177C-44.6605 284.739 -48.5893 287.885 -52.7676 290.489L-53.3289 290.843L-53.8693 290.489C-58.0683 287.843 -61.9972 284.718 -65.531 281.177C-71.5802 275.114 -76.3197 268.052 -79.6456 260.198C-83.0756 252.032 -84.8217 243.386 -84.8217 234.511C-84.8217 225.637 -83.0756 216.991 -79.6456 208.825ZM-84.8217 258.032L-82.8262 262.573C-79.3339 270.552 -74.428 277.739 -68.2542 283.927C-65.2192 286.968 -61.9556 289.676 -58.5673 292.01L-57.1121 293.01L-58.692 293.801C-59.7729 294.343 -60.8955 294.843 -62.018 295.322C-68.9194 298.26 -76.2157 299.968 -83.6992 300.405L-84.8009 300.468L-84.8009 258.032L-84.8217 258.032ZM-87.1084 304.405L-83.8447 304.301C-73.2016 303.718 -63.0989 300.801 -53.8277 295.635L-53.3289 295.343L-52.8299 295.635C-43.5587 300.801 -33.4561 303.718 -22.8129 304.301L-21.8359 304.405L-16.9509 304.364C-13.8536 304.28 -10.6939 303.968 -7.53423 303.468L-6.07909 303.239L-6.34934 304.697C-6.9106 307.634 -7.28477 310.718 -7.45107 313.842L-7.51343 319.738C-7.2224 330.717 -4.43691 341.154 0.71836 350.758L0.988607 351.258L0.71836 351.758C-4.43691 361.341 -7.20162 371.778 -7.51343 382.736L-7.55498 384.736L-7.45107 388.632C-7.26398 391.757 -6.88979 394.84 -6.32853 397.798L-6.05829 399.257L-7.53424 399.007C-10.6523 398.486 -13.812 398.194 -16.9509 398.111L-17.9695 398.069L-22.1685 398.069L-22.8129 398.173C-33.4769 398.757 -43.5795 401.673 -52.8299 406.84L-53.3289 407.111L-53.8277 406.84C-63.0989 401.673 -73.2016 398.757 -83.8447 398.173L-87.1084 398.069L-87.1084 304.405ZM-84.8217 401.965L-83.72 402.027C-76.2158 402.465 -68.9194 404.152 -62.0388 407.09C-60.9163 407.569 -59.7937 408.069 -58.7128 408.61L-57.1121 409.402L-58.5881 410.402C-62.018 412.756 -65.2608 415.464 -68.275 418.485C-74.4489 424.673 -79.3546 431.86 -82.8469 439.839L-84.8425 444.38L-84.8425 401.965L-84.8217 401.965ZM-79.6456 442.214C-76.3404 434.381 -71.601 427.318 -65.531 421.235C-61.9972 417.714 -58.0683 414.569 -53.8693 411.923L-53.3081 411.569L-52.7468 411.923C-48.5686 414.548 -44.6397 417.673 -41.0642 421.235C-35.0151 427.318 -30.2549 434.381 -26.9497 442.214C-23.5197 450.38 -21.7736 459.026 -21.7736 467.9C-21.7736 476.775 -23.5197 485.421 -26.9497 493.587C-30.2549 501.441 -35.0151 508.482 -41.0643 514.566C-44.6397 518.149 -48.5686 521.295 -52.7468 523.878L-53.3081 524.232L-53.8486 523.878C-58.0476 521.253 -61.9556 518.107 -65.5102 514.566C-71.5594 508.503 -76.2989 501.441 -79.6249 493.587C-83.0548 485.421 -84.8009 476.775 -84.8009 467.9C-84.8009 459.026 -83.0548 450.38 -79.6249 442.214L-79.6456 442.214ZM-84.8217 491.421L-82.8262 495.962C-79.3339 503.941 -74.4281 511.128 -68.2542 517.316C-65.24 520.336 -61.9764 523.045 -58.5673 525.399L-57.0914 526.399L-58.692 527.19C-59.7729 527.732 -60.8955 528.232 -62.018 528.711C-68.9402 531.648 -76.2365 533.357 -83.6992 533.773L-84.8009 533.836L-84.8009 491.421L-84.8217 491.421ZM-87.1084 537.773L-83.8447 537.669C-73.2016 537.086 -63.1197 534.169 -53.8277 529.003L-53.3289 528.732L-52.8299 529.003C-43.5587 534.169 -33.4561 537.086 -22.8129 537.669L-21.8359 537.794L-16.9509 537.752C-13.8744 537.669 -10.7563 537.378 -7.70052 536.878L-6.24537 536.648L-6.49488 538.086C-7.01456 541.086 -7.34716 544.169 -7.47189 547.211L-7.53425 550.148L-7.47189 553.085C-7.03535 563.898 -4.18742 574.168 0.967852 583.626L1.23803 584.126L0.967852 584.626C-4.18742 594.084 -7.03531 604.355 -7.49263 615.167L-7.55499 617.313L-87.1084 617.313L-87.1084 537.773ZM87.8175 557.252C95.6544 560.564 102.701 565.314 108.75 571.397C112.43 575.085 115.652 579.168 118.333 583.564L118.666 584.105L118.333 584.647C115.693 588.98 112.471 593.063 108.771 596.813C102.701 602.896 95.6544 607.646 87.8383 610.959C79.6897 614.396 71.0629 616.146 62.2075 616.146C53.3521 616.146 44.7253 614.396 36.5766 610.959C28.7605 607.646 21.7137 602.896 15.6437 596.813C11.9436 593.105 8.72151 589.001 6.06072 584.647L5.72812 584.105L6.06072 583.564C8.7423 579.168 11.9644 575.064 15.6437 571.397C21.7137 565.335 28.7605 560.564 36.5766 557.252C44.6629 553.815 53.2897 552.065 62.2075 552.065C71.1253 552.065 79.7313 553.815 87.8383 557.252L87.8175 557.252ZM85.6557 552.085L128.02 552.085L127.979 553.169C127.625 561.023 125.9 568.647 122.865 575.835C122.449 576.772 122.054 577.689 121.618 578.585L120.849 580.23L119.83 578.73C117.356 575.106 114.55 571.71 111.494 568.647C105.321 562.46 98.1697 557.564 90.2081 554.065L85.6557 552.065L85.6557 552.085ZM120.849 587.959L121.618 589.605C122.054 590.501 122.449 591.438 122.865 592.376C125.9 599.563 127.625 607.188 127.979 615.042L128.02 616.125L85.6557 616.125L90.2081 614.125C98.1697 610.625 105.321 605.73 111.494 599.522C114.612 596.397 117.419 593.001 119.83 589.438L120.849 587.918L120.849 587.959ZM38.7177 616.146L-3.66776 616.146L-3.62621 615.063C-3.27282 607.23 -1.54742 599.605 1.48754 592.397C1.8825 591.459 2.29819 590.501 2.73473 589.605L3.52466 588.001L4.52248 589.48C6.9546 593.063 9.76092 596.459 12.8582 599.563C19.0321 605.75 26.1829 610.667 34.1445 614.167L38.697 616.167L38.7177 616.146ZM34.1653 554.085C26.2037 557.564 19.0528 562.481 12.879 568.668C9.82324 571.731 7.01699 575.126 4.54329 578.772L3.52466 580.251L2.73473 578.626C2.29819 577.71 1.8825 576.772 1.48754 575.856C-1.54742 568.647 -3.27282 561.023 -3.62621 553.19L-3.66776 552.106L38.7177 552.106L34.1653 554.106L34.1653 554.085ZM131.908 617.292L131.824 615.146C131.409 604.355 128.561 594.084 123.406 584.605L123.135 584.105L123.406 583.605C128.561 574.147 131.388 563.877 131.824 553.065L131.928 552.065L131.824 547.19C131.7 543.773 131.305 540.336 130.64 536.961L130.328 535.357L131.908 535.753C135.067 536.523 138.248 537.065 141.366 537.377L142.301 537.461L142.301 537.752L147.29 537.711C147.727 537.732 148.163 537.732 148.6 537.732C159.596 537.732 170.094 535.253 179.843 530.357L180.301 530.128L180.758 530.357C190.507 535.253 201.026 537.732 212.001 537.732C212.438 537.732 212.875 537.732 213.311 537.711L214.413 537.627L214.413 537.752L218.3 537.752L218.3 537.44L219.235 537.357C222.354 537.044 225.534 536.503 228.673 535.732L230.253 535.336L229.941 536.94C229.297 540.315 228.902 543.752 228.756 547.169L228.673 548.169L228.756 553.044C229.193 563.856 232.02 574.126 237.175 583.584L237.445 584.084L237.175 584.584C232.02 594.042 229.172 604.313 228.735 615.125L228.673 617.271L131.845 617.271L131.908 617.292ZM324.087 557.252C331.903 560.564 338.95 565.335 345.041 571.397C348.72 575.085 351.921 579.168 354.603 583.564L354.936 584.105L354.603 584.647C351.963 589.001 348.741 593.084 345.041 596.813C338.95 602.876 331.903 607.646 324.087 610.959C315.938 614.396 307.332 616.146 298.456 616.146C289.58 616.146 280.974 614.396 272.825 610.959C264.988 607.646 257.942 602.896 251.892 596.813C248.213 593.084 244.97 589.001 242.309 584.647L241.977 584.105L242.309 583.564C245.012 579.168 248.234 575.064 251.892 571.397C257.942 565.335 264.988 560.564 272.825 557.252C280.912 553.815 289.518 552.065 298.456 552.065C307.395 552.065 316.001 553.815 324.087 557.252ZM321.925 552.085L364.311 552.085L364.269 553.169C363.916 561.002 362.19 568.627 359.155 575.835C358.76 576.772 358.345 577.71 357.908 578.605L357.118 580.23L356.1 578.73C353.647 575.126 350.84 571.71 347.764 568.627C341.59 562.439 334.439 557.544 326.478 554.044L321.925 552.044L321.925 552.085ZM357.097 587.98L357.887 589.584C358.324 590.501 358.74 591.438 359.135 592.376C362.17 599.563 363.895 607.188 364.248 615.042L364.29 616.125L321.904 616.125L326.457 614.125C334.418 610.625 341.569 605.73 347.743 599.522C350.861 596.397 353.667 593.001 356.079 589.438L357.077 587.959L357.097 587.98ZM274.987 616.146L232.623 616.146L232.664 615.063C233.017 607.209 234.743 599.584 237.778 592.397C238.173 591.459 238.589 590.522 239.025 589.605L239.794 587.959L240.813 589.48C243.224 593.043 246.01 596.417 249.148 599.563C255.322 605.75 262.473 610.667 270.435 614.167L274.987 616.167L274.987 616.146ZM270.456 554.085C262.494 557.564 255.343 562.481 249.169 568.668C246.114 571.731 243.307 575.126 240.834 578.751L239.815 580.251L239.046 578.605C238.609 577.71 238.214 576.793 237.799 575.856C234.764 568.668 233.038 561.043 232.685 553.19L232.643 552.106L275.008 552.106L270.456 554.106L270.456 554.085ZM368.198 617.292L368.136 615.146C367.699 604.334 364.851 594.063 359.696 584.605L359.426 584.105L359.696 583.605C364.851 574.168 367.699 563.898 368.136 553.065L368.198 552.065L368.136 547.19C368.011 543.815 367.616 540.357 366.951 536.919L366.639 535.315L368.219 535.711C371.441 536.503 374.517 537.044 377.656 537.378L378.696 537.378L378.654 537.773L383.56 537.732C384.059 537.753 384.516 537.752 385.015 537.752C395.97 537.752 406.447 535.273 416.175 530.399L416.633 530.169L417.111 530.399C426.839 535.294 437.337 537.773 448.292 537.773C448.77 537.773 449.269 537.773 449.747 537.752L450.849 537.69L450.849 537.815L454.736 537.815L454.736 537.503L455.671 537.419C458.789 537.107 461.97 536.544 465.109 535.773L466.689 535.378L466.377 536.982C465.732 540.419 465.337 543.856 465.192 547.252L465.129 548.252L465.192 553.127C465.628 563.939 468.476 574.21 473.632 583.668L473.902 584.168L473.632 584.668C468.476 594.126 465.628 604.417 465.192 615.209L465.129 617.354L368.156 617.354L368.198 617.292ZM560.502 557.252C568.339 560.564 575.386 565.335 581.435 571.397C585.073 575.022 588.295 579.105 591.018 583.564L591.351 584.105L591.018 584.647C588.336 589.043 585.114 593.147 581.435 596.813C575.386 602.876 568.339 607.625 560.502 610.959C552.353 614.396 543.727 616.146 534.871 616.146C526.016 616.146 517.389 614.396 509.24 610.959C501.403 607.646 494.357 602.876 488.307 596.813C484.649 593.147 481.427 589.063 478.724 584.647L478.392 584.105L478.724 583.564C481.468 579.105 484.69 575.001 488.307 571.397C494.357 565.335 501.383 560.564 509.22 557.252C517.327 553.815 525.953 552.065 534.85 552.065C543.747 552.065 552.374 553.815 560.481 557.252L560.502 557.252ZM558.319 552.085L600.726 552.085L600.684 553.169C600.331 561.023 598.605 568.647 595.55 575.835C595.155 576.772 594.739 577.71 594.302 578.605L593.533 580.251L592.515 578.751C590.041 575.106 587.235 571.71 584.179 568.647C578.005 562.46 570.854 557.564 562.893 554.065L558.34 552.065L558.319 552.085ZM593.492 587.98L594.282 589.584C594.718 590.501 595.155 591.438 595.55 592.376C598.585 599.563 600.31 607.188 600.684 615.042L600.726 616.125L558.361 616.125L562.893 614.125C570.833 610.625 578.005 605.709 584.179 599.522C587.297 596.417 590.083 593.022 592.494 589.438L593.492 587.959L593.492 587.98ZM511.381 616.146L469.038 616.146L469.079 615.063C469.432 607.188 471.158 599.563 474.193 592.397C474.588 591.459 475.004 590.522 475.461 589.605L476.251 588.001L477.249 589.48C479.66 593.063 482.466 596.438 485.563 599.563C491.737 605.751 498.888 610.667 506.85 614.167L511.381 616.167L511.381 616.146ZM506.85 554.085C498.909 557.564 491.737 562.481 485.564 568.668C482.508 571.731 479.701 575.126 477.228 578.772L476.209 580.272L475.44 578.626C475.004 577.73 474.588 576.793 474.193 575.856C471.158 568.689 469.432 561.064 469.079 553.19L469.038 552.106L511.402 552.106L506.85 554.106L506.85 554.085ZM604.738 536.878C607.814 537.378 610.932 537.669 613.988 537.752L616.108 537.794L616.108 617.313L604.592 617.313L604.53 615.167C604.093 604.376 601.245 594.105 596.09 584.626L595.82 584.126L596.09 583.626C601.245 574.168 604.093 563.898 604.509 553.085L604.613 552.085L604.509 547.211C604.384 544.127 604.072 541.065 603.553 538.086L603.303 536.648L604.758 536.878L604.738 536.878ZM599.146 535.753L599.271 536.378C600.019 539.877 600.476 543.482 600.663 547.106L600.705 548.19L469.017 548.19L469.058 547.106C469.266 542.857 469.869 538.628 470.846 534.544L470.971 534.003L471.511 533.815C492.59 526.336 508.908 509.087 515.165 487.65L515.331 487.108L515.872 486.942C521.962 485.108 528.344 484.171 534.83 484.171C539.174 484.171 543.54 484.587 547.739 485.442L548.362 485.567L548.529 486.192C551.688 497.92 557.904 508.691 566.53 517.336C575.24 526.065 586.59 532.565 598.481 535.607L599.104 535.773L599.146 535.753ZM552.707 486.587L554.619 487.171C556.636 487.796 558.61 488.525 560.523 489.337C568.36 492.65 575.386 497.42 581.435 503.483C587.463 509.503 592.224 516.566 595.55 524.461C596.236 526.107 596.88 527.815 597.441 529.544L598.065 531.461L596.132 530.857C594.136 530.232 592.161 529.503 590.228 528.69C582.37 525.357 575.323 520.607 569.295 514.545C563.267 508.503 558.506 501.462 555.18 493.566C554.411 491.733 553.788 490.066 553.268 488.462L552.665 486.567L552.707 486.587ZM616.108 533.898L613.946 533.857C610.267 533.753 606.588 533.336 602.991 532.607L602.368 532.482L602.202 531.857C595.674 507.608 576.529 488.671 552.249 482.442L551.626 482.275L551.48 481.65C550.524 477.213 550.025 472.567 550.025 467.88C550.025 462.859 550.586 457.88 551.709 453.088L551.854 452.484L552.457 452.318C564.41 449.193 575.386 442.901 584.158 434.089C592.535 425.693 598.668 415.277 601.89 403.944L602.056 403.34L602.68 403.215C606.38 402.465 610.142 402.048 613.926 401.944L616.108 401.902L616.108 533.898ZM553.019 448.193L553.684 446.234C554.12 444.943 554.619 443.63 555.222 442.214C558.548 434.36 563.288 427.297 569.337 421.235C575.386 415.173 582.412 410.423 590.27 407.09C592.182 406.277 593.991 405.611 595.799 405.048L597.753 404.444L597.088 406.381C596.568 407.881 596.007 409.298 595.55 410.381C592.224 418.256 587.484 425.318 581.435 431.381C575.386 437.443 568.339 442.214 560.502 445.526C558.735 446.276 556.927 446.943 554.973 447.568L552.998 448.193L553.019 448.193ZM598.917 400.152L598.273 400.277C574.534 406.486 555.596 425.006 548.861 448.63L548.695 449.234L548.071 449.359C543.747 450.234 539.32 450.672 534.892 450.672C528.323 450.672 521.817 449.713 515.601 447.818L515.082 447.651L514.915 447.13C511.61 436.401 505.623 426.506 497.62 418.485C490.407 411.256 481.531 405.59 471.948 402.132L471.719 402.132L471.594 402.007L471.345 401.923L471.137 401.361C470.056 397.153 469.391 392.903 469.162 388.694L469.1 387.59L600.663 387.59L600.601 388.694C600.393 392.278 599.873 395.903 599.063 399.486L598.917 400.152ZM604.571 303.468C607.752 303.989 610.911 304.301 613.988 304.364L616.108 304.405L616.108 398.027L614.778 398.027C614.528 398.027 614.279 398.027 614.009 398.048C610.849 398.132 607.669 398.423 604.551 398.944L603.075 399.194L603.366 397.715C603.927 394.798 604.301 391.715 604.488 388.569L604.613 387.59L604.571 382.674C604.26 371.695 601.495 361.279 596.34 351.695L596.069 351.196L596.34 350.696C601.495 341.112 604.26 330.675 604.571 319.676L604.613 318.655L604.613 314.78L604.488 313.738C604.301 310.697 603.927 307.613 603.386 304.655L603.116 303.197L604.571 303.447L604.571 303.468ZM598.917 302.322L599.063 302.947C599.873 306.489 600.393 310.072 600.601 313.592L601.017 314.842L469.162 314.842L469.162 313.801C469.391 309.53 470.077 305.259 471.158 301.072L471.303 300.53L471.823 300.343C492.361 292.989 508.471 276.156 514.915 255.282L515.082 254.761L515.601 254.594C521.858 252.698 528.344 251.74 534.892 251.74C539.32 251.74 543.768 252.178 548.071 253.053L548.695 253.178L548.861 253.782C552.083 265.115 558.215 275.531 566.593 283.927C575.386 292.718 586.341 299.03 598.314 302.155L598.917 302.322ZM553.019 254.261L554.973 254.865C556.74 255.407 558.548 256.094 560.502 256.927C568.36 260.261 575.407 265.031 581.435 271.073C587.484 277.114 592.224 284.156 595.55 292.031C596.111 293.364 596.631 294.697 597.088 296.031L597.753 297.989L595.799 297.385C593.97 296.801 592.161 296.135 590.27 295.322C582.412 291.989 575.365 287.239 569.337 281.177C563.308 275.135 558.548 268.073 555.222 260.198C554.619 258.782 554.12 257.448 553.684 256.178L553.019 254.24L553.019 254.261ZM616.108 300.53L613.926 300.489C610.122 300.364 606.338 299.947 602.68 299.197L602.056 299.072L601.89 298.468C595.155 274.823 576.197 256.282 552.457 250.115L551.855 249.949L551.709 249.344C550.607 244.553 550.025 239.574 550.025 234.532C550.025 229.887 550.503 225.283 551.46 220.824L551.584 220.199L552.208 220.033C564.244 216.949 575.303 210.616 584.158 201.762C592.93 192.971 599 182.471 602.181 170.555L602.347 169.93L602.991 169.805C606.525 169.097 610.226 168.68 613.946 168.576L616.129 168.534L616.129 300.53L616.108 300.53ZM552.665 215.95L553.289 214.033C553.829 212.325 554.495 210.596 555.222 208.846C558.548 200.971 563.288 193.908 569.337 187.867C575.365 181.805 582.412 177.055 590.27 173.722C592.161 172.909 594.157 172.18 596.194 171.534L598.106 170.93L597.483 172.847C596.942 174.534 596.277 176.284 595.55 178.034C592.224 185.909 587.484 192.971 581.435 199.013C575.407 205.075 568.38 209.825 560.523 213.158C558.652 213.95 556.656 214.679 554.598 215.345L552.665 215.95ZM599.167 166.701L598.543 166.868C574.243 173.076 555.077 192.054 548.549 216.345L548.383 216.97L547.739 217.095C543.54 217.929 539.216 218.345 534.85 218.345C528.365 218.345 521.983 217.408 515.892 215.575L515.352 215.408L515.186 214.866C511.943 203.721 505.852 193.429 497.558 185.138C490.241 177.805 481.219 172.097 471.47 168.638L470.95 168.451L470.825 167.909C469.827 163.805 469.225 159.555 469.038 155.326L468.996 154.243L600.726 154.243L600.684 155.326C600.518 159.014 600.06 162.639 599.312 166.076L599.187 166.701L599.167 166.701ZM604.738 71.1413C607.814 71.6413 610.911 71.9329 613.967 72.0163L616.088 72.0579L616.088 164.659L613.967 164.701C610.911 164.764 607.814 165.055 604.738 165.555L603.303 165.784L603.553 164.347C604.072 161.389 604.405 158.305 604.509 155.222L604.592 154.222L604.509 149.326C604.072 138.598 601.225 128.327 596.069 118.848L595.799 118.348L596.069 117.848C601.245 108.369 604.072 98.1197 604.509 87.37L604.592 86.37L604.509 81.4535C604.384 78.3911 604.072 75.3287 603.553 72.3704L603.303 70.933L604.738 71.1621L604.738 71.1413ZM599.167 70.0163L599.291 70.6413C600.019 74.0787 600.476 77.6828 600.663 81.3493L600.705 82.4326L468.85 82.4326L469.1 81.1827C469.266 77.1203 469.848 72.9121 470.846 68.7664L470.971 68.2247L471.511 68.0372C492.61 60.5791 508.97 43.288 515.227 21.7886L515.393 21.2469L515.934 21.0803C522.066 19.247 528.427 18.3095 534.871 18.3095C539.257 18.3095 543.581 18.7262 547.759 19.5803L548.383 19.7053L548.549 20.3303C551.709 32.08 557.945 42.8921 566.593 51.5586C575.448 60.4333 586.486 66.7456 598.543 69.8288L599.167 69.9955L599.167 70.0163ZM552.665 20.747L554.598 21.3511C556.511 21.9553 558.506 22.6844 560.502 23.5385C568.38 26.8926 575.427 31.6633 581.435 37.7048C587.484 43.7463 592.224 50.7877 595.55 58.6625C596.277 60.4124 596.942 62.1416 597.483 63.8499L598.106 65.7665L596.194 65.1623C594.157 64.5165 592.161 63.7873 590.27 62.9749C582.433 59.6625 575.407 54.8918 569.337 48.8295C563.308 42.788 558.548 35.7257 555.222 27.8509C554.495 26.1218 553.829 24.3719 553.289 22.6636L552.665 20.747ZM616.108 68.1622L613.926 68.1206C610.226 68.0164 606.546 67.5998 602.991 66.9123L602.347 66.7873L602.181 66.1623C595.654 41.8713 576.508 22.8927 552.208 16.6637L551.584 16.4971L551.46 15.8721C550.503 11.4139 550.025 6.80987 550.025 2.16418C550.025 -2.83567 550.586 -7.85637 551.709 -12.7104L551.855 -13.3354L552.457 -13.502C564.41 -16.6269 575.365 -22.9184 584.158 -31.7307C592.494 -40.1054 598.626 -50.5009 601.869 -61.8131L602.035 -62.4172L602.659 -62.5422C606.338 -63.2922 610.122 -63.7297 613.905 -63.8339L616.088 -63.8755L616.088 68.1206L616.108 68.1622ZM553.039 -17.6061L553.705 -19.5644C554.141 -20.8768 554.64 -22.1684 555.222 -23.5226C558.527 -31.3765 563.288 -38.4388 569.337 -44.5011C575.407 -50.5634 582.433 -55.3341 590.27 -58.6465C592.016 -59.3965 593.887 -60.084 595.778 -60.6881L597.753 -61.3339L597.067 -59.3757C596.631 -58.1257 596.132 -56.8341 595.55 -55.4175C592.224 -47.5427 587.463 -40.4804 581.435 -34.4389C575.386 -28.3766 568.339 -23.6059 560.523 -20.2935C558.777 -19.5435 556.927 -18.856 555.035 -18.2519L553.06 -17.6061L553.039 -17.6061ZM616.108 -79.1043L616.108 -67.7088L613.988 -67.6671C610.891 -67.6046 607.731 -67.2921 604.551 -66.7713L603.075 -66.5213L603.366 -67.9796C603.927 -70.9378 604.301 -74.0211 604.467 -77.1043L604.551 -79.0834L616.108 -79.0834L616.108 -79.1043ZM600.684 -79.1043L600.622 -77.646C600.622 -77.4376 600.622 -77.2293 600.601 -77.021C600.393 -73.3961 599.873 -69.7504 599.042 -66.2296L598.896 -65.6255L598.294 -65.4588C574.575 -59.2715 555.638 -40.7721 548.861 -17.1686L548.695 -16.5644L548.071 -16.4394C543.768 -15.5645 539.32 -15.1061 534.871 -15.1061C528.261 -15.1061 521.754 -16.0645 515.581 -17.9811L515.061 -18.1477L514.895 -18.6685C511.548 -29.3766 505.582 -39.2513 497.62 -47.2302C490.345 -54.5217 481.427 -60.1882 471.823 -63.6047L471.303 -63.7922L471.158 -64.3339C470.077 -68.4587 469.412 -72.7294 469.162 -77.021C469.162 -77.2293 469.162 -77.4376 469.141 -77.646L469.079 -79.1043L600.684 -79.1043ZM465.192 -79.1043L465.275 -77.1252C465.462 -73.6253 465.919 -70.1462 466.605 -66.813L466.938 -65.188L465.337 -65.5838C462.157 -66.3755 458.914 -66.9588 455.671 -67.2921L454.736 -67.3963L454.736 -67.6879L449.83 -67.6879C449.269 -67.6879 448.791 -67.6879 448.292 -67.6879C437.316 -67.6879 426.818 -65.2088 417.09 -60.3132L416.633 -60.084L416.175 -60.3132C406.468 -65.2088 395.97 -67.6671 385.015 -67.6671C384.537 -67.6671 384.059 -67.6671 383.56 -67.6463L382.458 -67.5838L382.458 -67.6671L378.592 -67.6671L378.592 -67.2713L377.552 -67.2713C374.434 -66.938 371.191 -66.3755 367.99 -65.563L366.389 -65.1672L366.722 -66.7921C367.408 -70.1254 367.865 -73.6044 368.052 -77.1043L368.177 -79.0834L465.171 -79.0834L465.192 -79.1043ZM228.735 -79.1043L228.86 -77.1252C229.026 -73.7503 229.484 -70.292 230.19 -66.8338L230.523 -65.2088L228.922 -65.6047C225.825 -66.3963 222.582 -66.9588 219.298 -67.2921L218.362 -67.3963L218.362 -67.6671L213.457 -67.6671C212.916 -67.6671 212.5 -67.6671 212.064 -67.6671C201.088 -67.6671 190.57 -65.188 180.82 -60.2715L180.363 -60.0423L179.906 -60.2715C170.156 -65.1672 159.638 -67.6671 148.662 -67.6671C148.226 -67.6671 147.789 -67.6671 147.353 -67.6463L146.251 -67.5838L146.251 -67.6879L142.384 -67.6879L142.384 -67.4171L141.449 -67.313C138.165 -66.9588 134.901 -66.3963 131.804 -65.6047L130.203 -65.2089L130.536 -66.8338C131.242 -70.292 131.679 -73.7503 131.866 -77.1252L131.991 -79.1043L228.818 -79.1043L228.735 -79.1043ZM-7.53422 -79.1043L-7.53422 -77.8127L-7.40944 -77.146C-7.24314 -74.0211 -6.86897 -70.9379 -6.30771 -68.0004L-6.01672 -66.5213L-7.4926 -66.7713C-10.6731 -67.2921 -13.8328 -67.6046 -16.9301 -67.6671L-22.1478 -67.7088L-22.7922 -67.6046C-33.4561 -67.0213 -43.5588 -64.1047 -52.8092 -58.9382L-53.308 -58.6466L-53.8069 -58.9382C-63.0781 -64.1047 -73.1808 -67.0213 -83.8239 -67.6255L-87.0875 -67.7296L-87.0875 -79.1043L-7.53422 -79.1043Z" fill="#999999"/>
</g>
<defs>
<clipPath id="clip0_1382_9819">
<rect width="600" height="525" fill="white"/>
</clipPath>
</defs>
</svg>
