<svg width="600" height="525" viewBox="0 0 600 525" fill="none" xmlns="http://www.w3.org/2000/svg">
<rect width="600" height="525" rx="4.88661" fill="white"/>
<g clip-path="url(#clip0_1382_10157)">
<rect width="600" height="525" fill="#F3F3F3"/>
<path d="M46.0491 145.538L-10.6708 88.8184L-13.0703 91.2178L43.6496 147.938L46.0306 145.538H46.0491Z" fill="#999999"/>
<path d="M69.6377 117.169C66.1308 120.676 62.0516 123.389 57.4926 125.235C53.0813 127.025 48.43 127.93 43.668 127.93C38.9059 127.93 34.2547 127.025 29.8433 125.235C25.3028 123.389 21.2052 120.676 17.6982 117.169C14.1913 113.662 11.4781 109.583 9.63233 105.024C7.84195 100.631 6.93749 95.9612 6.93749 91.1992C6.93749 86.4372 7.84195 81.7859 9.63233 77.3746C11.4596 72.834 14.1913 68.7364 17.6982 65.2295C21.2052 61.7226 25.2843 59.0093 29.8433 57.1636C34.2362 55.3732 38.9059 54.4689 43.668 54.4689C48.43 54.4689 53.0813 55.3732 57.4926 57.1636C62.0332 59.0093 66.1308 61.7226 69.6377 65.2295C73.1446 68.7364 75.8579 72.8156 77.7036 77.3746C79.494 81.7674 80.3983 86.4372 80.3983 91.1992C80.3983 95.9612 79.494 100.613 77.7036 105.024C75.8579 109.564 73.1446 113.662 69.6377 117.169ZM72.0371 119.568C87.6891 103.898 87.6891 78.5005 72.0371 62.8485C56.3667 47.1781 30.9692 47.1781 15.3173 62.8485C-0.353152 78.5189 -0.353152 103.916 15.3173 119.568C30.9877 135.239 56.3852 135.239 72.0371 119.568Z" fill="#999999"/>
<path d="M127.779 -49.6503L184.499 7.06971L186.88 4.68862L130.16 -52.0312L127.779 -49.6687V-49.6503Z" fill="#999999"/>
<path d="M104.19 -21.2803C107.697 -24.7872 111.777 -27.5004 116.354 -29.3462C120.747 -31.1366 125.417 -32.0409 130.179 -32.0409C134.941 -32.0409 139.592 -31.1366 144.003 -29.3462C148.544 -27.5189 152.66 -24.7872 156.167 -21.2803C159.674 -17.7733 162.387 -13.6942 164.233 -9.11673C166.023 -4.72384 166.927 -0.0541134 166.927 4.70792C166.927 9.46996 166.023 14.1212 164.233 18.5326C162.387 23.0731 159.674 27.1707 156.167 30.6776C152.66 34.1846 148.581 36.8978 144.003 38.7436C139.61 40.5339 134.941 41.4384 130.179 41.4384C125.417 41.4384 120.765 40.5339 116.354 38.7436C111.813 36.8978 107.697 34.1846 104.19 30.6776C100.684 27.1707 97.9703 23.0916 96.1245 18.5326C94.3341 14.1212 93.4297 9.46996 93.4297 4.70792C93.4297 -0.0541134 94.3341 -4.70539 96.1245 -9.11673C97.9703 -13.6573 100.684 -17.7549 104.19 -21.2803ZM101.809 -23.6612C86.139 -8.00929 86.139 17.4067 101.809 33.0586C117.461 48.729 142.877 48.729 158.529 33.0586C174.181 17.3882 174.181 -8.00929 158.529 -23.6612C142.859 -39.3317 117.461 -39.3317 101.809 -23.6612Z" fill="#999999"/>
<path d="M184.499 88.7988L127.779 145.519L130.16 147.918L186.88 91.1983L184.499 88.7988Z" fill="#999999"/>
<path d="M156.148 65.2284C159.655 68.7354 162.369 72.8145 164.214 77.3735C166.005 81.7664 166.909 86.4361 166.909 91.1982C166.909 95.9602 166.005 100.611 164.214 105.023C162.369 109.563 159.655 113.661 156.148 117.168C152.641 120.675 148.562 123.388 143.985 125.234C139.592 127.024 134.922 127.929 130.16 127.929C125.398 127.929 120.747 127.024 116.335 125.234C111.795 123.388 107.679 120.675 104.172 117.168C100.665 113.661 97.9518 109.582 96.106 105.023C94.3157 100.63 93.4113 95.9602 93.4113 91.1982C93.4113 86.4361 94.3157 81.7849 96.106 77.3735C97.9518 72.833 100.665 68.7354 104.172 65.2284C107.679 61.7215 111.758 59.0083 116.335 57.1625C120.728 55.3721 125.398 54.4678 130.16 54.4678C134.922 54.4678 139.573 55.3721 143.985 57.1625C148.525 59.0083 152.641 61.7215 156.148 65.2284ZM158.529 62.829C142.877 47.1586 117.461 47.1586 101.809 62.829C86.139 78.4994 86.139 103.897 101.809 119.549C117.461 135.219 142.877 135.219 158.529 119.549C174.2 103.879 174.2 78.4809 158.529 62.829Z" fill="#999999"/>
<path d="M-10.6737 7.06881L46.0462 -49.6512L43.6652 -52.0137L-13.0547 4.7062L-10.6552 7.08717L-10.6737 7.06881Z" fill="#999999"/>
<path d="M17.7011 30.6768C14.1942 27.1698 11.4809 23.0907 9.63518 18.5132C7.8448 14.1203 6.94034 9.45059 6.94034 4.68855C6.94034 -0.0734818 7.8448 -4.72475 9.63518 -9.1361C11.4625 -13.6766 14.1942 -17.7926 17.7011 -21.2995C21.208 -24.8065 25.2872 -27.5198 29.8462 -29.3656C34.239 -31.1559 38.9088 -32.0603 43.6708 -32.0603C48.4329 -32.0603 53.0841 -31.1559 57.4955 -29.3656C62.036 -27.5198 66.1336 -24.8065 69.6405 -21.2995C73.1475 -17.7926 75.8607 -13.7136 77.7065 -9.1361C79.4968 -4.74321 80.4012 -0.0734818 80.4012 4.68855C80.4012 9.45059 79.4968 14.1019 77.7065 18.5132C75.8607 23.0722 73.1475 27.1698 69.6405 30.6768C66.1336 34.1837 62.0545 36.8969 57.4955 38.7427C53.0841 40.533 48.4329 41.4375 43.6708 41.4375C38.9088 41.4375 34.2575 40.533 29.8462 38.7427C25.3056 36.8969 21.208 34.1837 17.7011 30.6768ZM15.3016 33.0762C30.9721 48.7282 56.3696 48.7282 72.0215 33.0762C87.6735 17.4058 87.6735 -7.99171 72.0215 -23.6437C56.3511 -39.3141 30.9536 -39.3141 15.3016 -23.6437C-0.368777 -7.99171 -0.368777 17.4242 15.3016 33.0762Z" fill="#999999"/>
<path d="M258.11 359.591L201.39 302.871L198.99 305.271L255.71 361.991L258.11 359.61V359.591Z" fill="#999999"/>
<path d="M281.699 331.237C278.192 334.744 274.113 337.458 269.536 339.303C265.143 341.094 260.473 341.998 255.711 341.998C250.949 341.998 246.298 341.094 241.886 339.303C237.346 337.458 233.23 334.744 229.723 331.237C226.216 327.73 223.503 323.651 221.657 319.092C219.866 314.699 218.962 310.03 218.962 305.268C218.962 300.506 219.866 295.854 221.657 291.443C223.503 286.902 226.216 282.805 229.723 279.298C233.23 275.791 237.309 273.078 241.886 271.232C246.279 269.442 250.949 268.537 255.711 268.537C260.473 268.537 265.124 269.442 269.536 271.232C274.076 273.059 278.192 275.791 281.699 279.298C285.206 282.805 287.919 286.884 289.765 291.443C291.555 295.836 292.46 300.506 292.46 305.268C292.46 310.03 291.555 314.681 289.765 319.092C287.938 323.633 285.206 327.73 281.699 331.237ZM284.08 333.637C299.75 317.966 299.75 292.569 284.08 276.917C268.428 261.246 243.012 261.246 227.36 276.917C211.708 292.587 211.708 317.985 227.36 333.637C243.03 349.307 268.428 349.307 284.08 333.637Z" fill="#999999"/>
<path d="M339.817 164.42L396.537 221.14L398.918 218.759L342.198 162.039L339.799 164.42H339.817Z" fill="#999999"/>
<path d="M316.246 192.771C319.753 189.264 323.832 186.55 328.391 184.705C332.784 182.914 337.454 182.01 342.216 182.01C346.978 182.01 351.629 182.914 356.04 184.705C360.581 186.55 364.678 189.264 368.185 192.771C371.692 196.278 374.405 200.357 376.251 204.934C378.042 209.327 378.946 213.997 378.946 218.759C378.946 223.521 378.042 228.172 376.251 232.583C374.405 237.142 371.692 241.24 368.185 244.747C364.678 248.254 360.599 250.967 356.04 252.813C351.647 254.603 346.978 255.508 342.216 255.508C337.454 255.508 332.802 254.603 328.391 252.813C323.85 250.967 319.753 248.254 316.246 244.747C312.739 241.24 310.026 237.161 308.18 232.583C306.39 228.191 305.485 223.521 305.485 218.759C305.485 213.997 306.39 209.345 308.18 204.934C310.026 200.394 312.739 196.278 316.246 192.771ZM313.846 190.39C298.194 206.041 298.194 231.458 313.846 247.11C329.517 262.761 354.914 262.761 370.566 247.11C386.218 231.439 386.218 206.041 370.566 190.39C354.896 174.719 329.498 174.719 313.846 190.39Z" fill="#999999"/>
<path d="M396.56 302.87L339.84 359.59L342.239 361.971L398.959 305.251L396.578 302.852L396.56 302.87Z" fill="#999999"/>
<path d="M368.188 279.281C371.695 282.788 374.408 286.867 376.254 291.426C378.045 295.819 378.949 300.489 378.949 305.251C378.949 310.013 378.045 314.664 376.254 319.076C374.408 323.616 371.695 327.714 368.188 331.221C364.681 334.728 360.602 337.441 356.043 339.287C351.65 341.077 346.981 341.981 342.219 341.981C337.457 341.981 332.805 341.077 328.394 339.287C323.853 337.441 319.756 334.728 316.249 331.221C312.742 327.714 310.029 323.635 308.183 319.076C306.393 314.683 305.488 310.013 305.488 305.251C305.488 300.489 306.393 295.838 308.183 291.426C310.029 286.886 312.742 282.788 316.249 279.281C319.756 275.774 323.835 273.061 328.394 271.215C332.787 269.425 337.457 268.52 342.219 268.52C346.981 268.52 351.632 269.425 356.043 271.215C360.584 273.043 364.681 275.774 368.188 279.281ZM370.588 276.882C354.917 261.211 329.52 261.211 313.868 276.882C298.216 292.552 298.216 317.95 313.868 333.602C329.538 349.272 354.936 349.272 370.588 333.602C386.24 317.931 386.24 292.534 370.588 276.882Z" fill="#999999"/>
<path d="M201.368 221.14L258.088 164.42L255.689 162.039L198.969 218.759L201.368 221.14Z" fill="#999999"/>
<path d="M229.734 244.729C226.227 241.223 223.514 237.144 221.668 232.566C219.878 228.173 218.973 223.503 218.973 218.741C218.973 213.979 219.878 209.328 221.668 204.917C223.514 200.376 226.227 196.26 229.734 192.753C233.241 189.246 237.32 186.533 241.898 184.687C246.29 182.897 250.96 181.992 255.722 181.992C260.484 181.992 265.136 182.897 269.547 184.687C274.088 186.533 278.203 189.246 281.71 192.753C285.217 196.26 287.931 200.339 289.776 204.917C291.567 209.31 292.471 213.979 292.471 218.741C292.471 223.503 291.567 228.155 289.776 232.566C287.949 237.125 285.217 241.223 281.71 244.729C278.203 248.236 274.124 250.95 269.547 252.796C265.154 254.586 260.484 255.49 255.722 255.49C250.96 255.49 246.309 254.586 241.898 252.796C237.357 250.95 233.241 248.236 229.734 244.729ZM227.335 247.129C243.005 262.781 268.403 262.781 284.055 247.129C299.725 231.459 299.725 206.061 284.055 190.409C268.403 174.739 242.987 174.739 227.335 190.409C211.683 206.061 211.683 231.477 227.335 247.129Z" fill="#999999"/>
<path d="M258.11 146.814L201.39 90.0938L198.99 92.4747L255.71 149.195L258.11 146.814Z" fill="#999999"/>
<path d="M281.699 118.444C278.192 121.951 274.113 124.664 269.536 126.51C265.143 128.301 260.473 129.205 255.711 129.205C250.949 129.205 246.298 128.301 241.886 126.51C237.346 124.683 233.23 121.951 229.723 118.444C226.216 114.937 223.503 110.858 221.657 106.299C219.866 101.906 218.962 97.2366 218.962 92.4746C218.962 87.7126 219.866 83.0613 221.657 78.65C223.503 74.1094 226.216 70.0118 229.723 66.5049C233.23 62.998 237.309 60.2847 241.886 58.439C246.279 56.6486 250.949 55.7442 255.711 55.7442C260.473 55.7442 265.124 56.667 269.536 58.439C274.076 60.2847 278.192 62.998 281.699 66.5049C285.206 70.0118 287.919 74.0909 289.765 78.65C291.555 83.0613 292.46 87.7126 292.46 92.4746C292.46 97.2366 291.555 101.888 289.765 106.299C287.938 110.84 285.206 114.937 281.699 118.444ZM284.08 120.844C299.75 105.192 299.75 79.7759 284.08 64.1239C268.428 48.4535 243.012 48.4535 227.36 64.1239C211.708 79.7943 211.708 105.192 227.36 120.844C243.03 136.514 268.428 136.514 284.08 120.844Z" fill="#999999"/>
<path d="M339.817 -48.3573L396.537 8.36256L398.918 5.98159L342.198 -50.7383L339.799 -48.3573H339.817Z" fill="#999999"/>
<path d="M316.246 -20.0079C319.753 -23.5148 323.832 -26.2281 328.391 -28.0738C332.784 -29.8642 337.454 -30.7685 342.216 -30.7685C346.978 -30.7685 351.629 -29.8642 356.04 -28.0738C360.581 -26.2281 364.678 -23.5148 368.185 -20.0079C371.692 -16.501 374.405 -12.4218 376.251 -7.86282C378.042 -3.46994 378.946 1.19979 378.946 5.96183C378.946 10.7239 378.042 15.3751 376.251 19.7865C374.405 24.327 371.692 28.4246 368.185 31.9315C364.678 35.4385 360.599 38.1517 356.04 39.9975C351.647 41.7878 346.978 42.6923 342.216 42.6923C337.454 42.6923 332.802 41.7878 328.391 39.9975C323.85 38.1517 319.753 35.4385 316.246 31.9315C312.739 28.4246 310.026 24.3455 308.18 19.7865C306.39 15.3936 305.485 10.7239 305.485 5.96183C305.485 1.19979 306.39 -3.45148 308.18 -7.86282C310.026 -12.4034 312.739 -16.501 316.246 -20.0079ZM313.846 -22.4073C298.194 -6.73692 298.194 18.6606 313.846 34.3125C329.517 49.9829 354.914 49.9829 370.566 34.3125C386.218 18.6421 386.218 -6.75538 370.566 -22.4073C354.896 -38.0778 329.498 -38.0778 313.846 -22.4073Z" fill="#999999"/>
<path d="M396.56 90.0918L339.84 146.812L342.239 149.193L398.959 92.4728L396.578 90.0918H396.56Z" fill="#999999"/>
<path d="M368.188 66.5019C371.695 70.0088 374.408 74.0879 376.254 78.6469C378.045 83.0583 378.949 87.7096 378.949 92.4716C378.949 97.2336 378.045 101.885 376.254 106.296C374.408 110.837 371.695 114.934 368.188 118.441C364.681 121.948 360.602 124.661 356.043 126.507C351.65 128.298 346.981 129.202 342.219 129.202C337.457 129.202 332.805 128.298 328.394 126.507C323.853 124.68 319.756 121.948 316.249 118.441C312.742 114.934 310.029 110.855 308.183 106.296C306.393 101.903 305.488 97.2336 305.488 92.4716C305.488 87.7096 306.393 83.0583 308.183 78.6469C310.029 74.1064 312.742 70.0088 316.249 66.5019C319.756 62.995 323.835 60.2817 328.394 58.436C332.787 56.6456 337.457 55.7412 342.219 55.7412C346.981 55.7412 351.632 56.664 356.043 58.436C360.584 60.2817 364.681 62.995 368.188 66.5019ZM370.588 64.1024C354.917 48.432 329.52 48.432 313.868 64.1024C298.216 79.7728 298.216 105.17 313.868 120.822C329.538 136.493 354.936 136.493 370.588 120.822C386.24 105.17 386.24 79.7544 370.588 64.1024Z" fill="#999999"/>
<path d="M201.368 8.36256L258.088 -48.3573L255.689 -50.7383L198.969 5.98159L201.368 8.36256Z" fill="#999999"/>
<path d="M229.734 31.9502C226.227 28.4433 223.514 24.3641 221.668 19.8051C219.878 15.3938 218.973 10.7425 218.973 5.98047C218.973 1.21843 219.878 -3.43284 221.668 -7.84418C223.514 -12.3847 226.227 -16.4823 229.734 -20.0077C233.241 -23.5147 237.32 -26.2279 241.898 -28.0737C246.29 -29.864 250.96 -30.7684 255.722 -30.7684C260.484 -30.7684 265.136 -29.864 269.547 -28.0737C274.088 -26.2464 278.203 -23.5147 281.71 -20.0077C285.217 -16.5008 287.931 -12.4216 289.776 -7.84418C291.567 -3.4513 292.471 1.21843 292.471 5.98047C292.471 10.7425 291.567 15.3938 289.776 19.8051C287.949 24.3457 285.217 28.4433 281.71 31.9502C278.203 35.4571 274.124 38.1704 269.547 40.0161C265.154 41.8065 260.484 42.7109 255.722 42.7109C250.96 42.7109 246.309 41.8065 241.898 40.0161C237.357 38.1704 233.241 35.4571 229.734 31.9502ZM227.335 34.3496C243.005 50.0016 268.403 50.0016 284.055 34.3496C299.725 18.6792 299.725 -6.71827 284.055 -22.3702C268.403 -38.0407 242.987 -38.0407 227.335 -22.3702C211.683 -6.71827 211.683 18.6977 227.335 34.3496Z" fill="#999999"/>
<path d="M470.112 361.103L413.392 304.383L410.992 306.764L467.712 363.484L470.112 361.103Z" fill="#999999"/>
<path d="M493.7 332.732C490.193 336.239 486.114 338.952 481.555 340.798C477.162 342.588 472.492 343.493 467.73 343.493C462.968 343.493 458.317 342.588 453.906 340.798C449.365 338.952 445.267 336.239 441.761 332.732C438.254 329.225 435.54 325.146 433.695 320.569C431.904 316.176 431 311.506 431 306.744C431 301.982 431.904 297.331 433.695 292.919C435.54 288.379 438.254 284.263 441.761 280.756C445.267 277.249 449.347 274.536 453.906 272.69C458.299 270.899 462.968 269.995 467.73 269.995C472.492 269.995 477.144 270.899 481.555 272.69C486.095 274.536 490.193 277.249 493.7 280.756C497.207 284.263 499.92 288.342 501.766 292.919C503.556 297.312 504.461 301.982 504.461 306.744C504.461 311.506 503.556 316.157 501.766 320.569C499.92 325.109 497.207 329.225 493.7 332.732ZM496.099 335.113C511.751 319.461 511.751 294.045 496.099 278.393C480.429 262.741 455.032 262.741 439.38 278.393C423.728 294.064 423.728 319.461 439.38 335.113C455.05 350.784 480.447 350.784 496.099 335.113Z" fill="#999999"/>
<path d="M551.842 165.913L608.562 222.633L610.961 220.234L554.241 163.514L551.842 165.895V165.913Z" fill="#999999"/>
<path d="M528.234 194.265C531.741 190.758 535.82 188.045 540.379 186.199C544.772 184.409 549.442 183.505 554.204 183.505C558.966 183.505 563.617 184.409 568.029 186.199C572.569 188.045 576.667 190.758 580.174 194.265C583.681 197.772 586.394 201.851 588.24 206.429C590.03 210.822 590.934 215.492 590.934 220.254C590.934 225.016 590.03 229.667 588.24 234.078C586.394 238.619 583.681 242.735 580.174 246.242C576.667 249.749 572.588 252.462 568.029 254.308C563.617 256.098 558.966 257.002 554.204 257.002C549.442 257.002 544.791 256.098 540.379 254.308C535.839 252.462 531.741 249.749 528.234 246.242C524.727 242.735 522.014 238.656 520.168 234.078C518.378 229.685 517.474 225.016 517.474 220.254C517.474 215.492 518.378 210.84 520.168 206.429C521.996 201.87 524.727 197.772 528.234 194.265ZM525.835 191.866C510.164 207.536 510.164 232.934 525.835 248.586C541.487 264.256 566.903 264.256 582.555 248.586C598.207 232.915 598.207 207.518 582.555 191.866C566.884 176.214 541.487 176.214 525.835 191.866Z" fill="#999999"/>
<path d="M608.562 304.365L551.842 361.085L554.241 363.466L610.961 306.746L608.58 304.365H608.562Z" fill="#999999"/>
<path d="M580.189 280.777C583.696 284.284 586.41 288.363 588.255 292.941C590.046 297.334 590.95 302.003 590.95 306.765C590.95 311.527 590.046 316.179 588.255 320.59C586.41 325.13 583.696 329.246 580.189 332.753C576.682 336.26 572.603 338.974 568.026 340.819C563.633 342.61 558.963 343.514 554.201 343.514C549.439 343.514 544.788 342.61 540.377 340.819C535.836 338.974 531.738 336.26 528.231 332.753C524.725 329.246 522.011 325.167 520.166 320.59C518.375 316.197 517.471 311.527 517.471 306.765C517.471 302.003 518.375 297.352 520.166 292.941C521.993 288.4 524.725 284.284 528.231 280.777C531.738 277.27 535.818 274.557 540.377 272.711C544.769 270.921 549.439 270.016 554.201 270.016C558.963 270.016 563.614 270.921 568.026 272.711C572.566 274.557 576.682 277.27 580.189 280.777ZM582.589 278.378C566.918 262.726 541.521 262.726 525.869 278.378C510.217 294.03 510.199 319.446 525.869 335.098C541.521 350.768 566.937 350.768 582.589 335.098C598.241 319.446 598.241 294.03 582.589 278.378Z" fill="#999999"/>
<path d="M413.368 222.636L470.088 165.916L467.689 163.535L410.969 220.255L413.368 222.655V222.636Z" fill="#999999"/>
<path d="M441.738 246.244C438.231 242.737 435.518 238.658 433.672 234.081C431.882 229.688 430.977 225.018 430.977 220.256C430.977 215.494 431.882 210.843 433.672 206.431C435.518 201.891 438.231 197.793 441.738 194.286C445.245 190.779 449.324 188.066 453.883 186.22C458.276 184.43 462.946 183.525 467.708 183.525C472.47 183.525 477.121 184.43 481.532 186.22C486.073 188.066 490.171 190.779 493.677 194.286C497.184 197.793 499.898 201.872 501.743 206.431C503.534 210.843 504.438 215.494 504.438 220.256C504.438 225.018 503.534 229.669 501.743 234.081C499.898 238.621 497.184 242.719 493.677 246.244C490.171 249.751 486.091 252.464 481.532 254.31C477.14 256.1 472.47 257.005 467.708 257.005C462.946 257.005 458.294 256.1 453.883 254.31C449.343 252.483 445.245 249.751 441.738 246.244ZM439.339 248.625C455.009 264.296 480.406 264.296 496.058 248.625C511.71 232.973 511.71 207.557 496.058 191.905C480.388 176.235 454.991 176.235 439.339 191.905C423.687 207.576 423.687 232.973 439.339 248.625Z" fill="#999999"/>
<path d="M470.112 573.144L413.392 516.424L410.992 518.805L467.712 575.525L470.112 573.125V573.144Z" fill="#999999"/>
<path d="M493.7 544.774C490.193 548.281 486.114 550.994 481.555 552.84C477.162 554.631 472.492 555.535 467.73 555.535C462.968 555.535 458.317 554.631 453.906 552.84C449.365 550.994 445.267 548.281 441.761 544.774C438.254 541.267 435.54 537.188 433.695 532.611C431.904 528.218 431 523.548 431 518.786C431 514.024 431.904 509.373 433.695 504.962C435.54 500.421 438.254 496.305 441.761 492.798C445.267 489.291 449.347 486.578 453.906 484.732C458.299 482.942 462.968 482.037 467.73 482.037C472.492 482.037 477.144 482.942 481.555 484.732C486.095 486.578 490.193 489.291 493.7 492.798C497.207 496.305 499.92 500.384 501.766 504.962C503.556 509.354 504.461 514.024 504.461 518.786C504.461 523.548 503.556 528.2 501.766 532.611C499.92 537.17 497.207 541.267 493.7 544.774ZM496.099 547.174C511.751 531.503 511.751 506.106 496.099 490.454C480.429 474.784 455.032 474.784 439.38 490.454C423.728 506.106 423.728 531.522 439.38 547.174C455.05 562.826 480.447 562.826 496.099 547.174Z" fill="#999999"/>
<path d="M551.842 377.975L608.562 434.695L610.961 432.314L554.241 375.594L551.842 377.993V377.975Z" fill="#999999"/>
<path d="M528.234 406.34C531.741 402.833 535.82 400.119 540.379 398.274C544.772 396.483 549.442 395.579 554.204 395.579C558.966 395.579 563.617 396.483 568.029 398.274C572.569 400.119 576.667 402.833 580.174 406.34C583.681 409.847 586.394 413.926 588.24 418.503C590.03 422.896 590.934 427.566 590.934 432.328C590.934 437.09 590.03 441.741 588.24 446.153C586.394 450.693 583.681 454.809 580.174 458.316C576.667 461.823 572.588 464.536 568.029 466.382C563.617 468.172 558.966 469.077 554.204 469.077C549.442 469.077 544.791 468.172 540.379 466.382C535.839 464.536 531.741 461.823 528.234 458.316C524.727 454.809 522.014 450.73 520.168 446.153C518.378 441.76 517.474 437.09 517.474 432.328C517.474 427.566 518.378 422.915 520.168 418.503C521.996 413.963 524.727 409.847 528.234 406.34V406.34ZM525.835 403.94C510.164 419.611 510.164 445.008 525.835 460.66C541.487 476.331 566.903 476.331 582.555 460.66C598.207 444.99 598.207 419.592 582.555 403.94C566.884 388.288 541.487 388.288 525.835 403.94Z" fill="#999999"/>
<path d="M608.562 516.424L551.842 573.144L554.241 575.543L610.961 518.823L608.58 516.442L608.562 516.424Z" fill="#999999"/>
<path d="M580.188 492.817C583.695 496.324 586.409 500.403 588.254 504.981C590.045 509.374 590.949 514.044 590.949 518.806C590.949 523.568 590.045 528.219 588.254 532.63C586.409 537.189 583.695 541.287 580.188 544.794C576.682 548.301 572.602 551.014 568.025 552.86C563.632 554.65 558.962 555.555 554.2 555.555C549.438 555.555 544.787 554.65 540.376 552.86C535.835 551.014 531.737 548.301 528.231 544.794C524.724 541.287 522.01 537.208 520.165 532.63C518.374 528.237 517.47 523.568 517.47 518.806C517.47 514.044 518.374 509.392 520.165 504.981C521.992 500.44 524.724 496.324 528.231 492.817C531.737 489.31 535.817 486.597 540.376 484.751C544.769 482.961 549.438 482.057 554.2 482.057C558.962 482.057 563.614 482.961 568.025 484.751C572.565 486.597 576.682 489.31 580.188 492.817ZM582.588 490.436C566.917 474.766 541.52 474.766 525.868 490.436C510.198 506.088 510.198 531.504 525.868 547.156C541.52 562.808 566.936 562.808 582.588 547.156C598.24 531.486 598.24 506.088 582.588 490.436Z" fill="#999999"/>
<path d="M413.368 434.674L470.088 377.954L467.689 375.555L410.969 432.275L413.368 434.656V434.674Z" fill="#999999"/>
<path d="M441.738 458.279C438.231 454.772 435.518 450.693 433.672 446.116C431.882 441.723 430.977 437.053 430.977 432.291C430.977 427.529 431.882 422.878 433.672 418.466C435.518 413.926 438.231 409.81 441.738 406.303C445.245 402.796 449.324 400.083 453.883 398.237C458.276 396.446 462.946 395.542 467.708 395.542C472.47 395.542 477.121 396.446 481.532 398.237C486.073 400.083 490.171 402.796 493.677 406.303C497.184 409.81 499.898 413.889 501.743 418.466C503.534 422.859 504.438 427.529 504.438 432.291C504.438 437.053 503.534 441.704 501.743 446.116C499.898 450.656 497.184 454.772 493.677 458.279C490.171 461.786 486.091 464.499 481.532 466.345C477.14 468.135 472.47 469.04 467.708 469.04C462.946 469.04 458.294 468.135 453.883 466.345C449.343 464.499 445.245 461.786 441.738 458.279ZM439.339 460.66C455.009 476.331 480.406 476.331 496.058 460.66C511.71 445.008 511.71 419.592 496.058 403.94C480.388 388.288 454.991 388.288 439.339 403.94C423.687 419.611 423.687 445.008 439.339 460.66Z" fill="#999999"/>
<path d="M470.112 148.878L413.392 92.1582L410.992 94.5392L467.712 151.259L470.112 148.878Z" fill="#999999"/>
<path d="M493.7 120.508C490.193 124.014 486.114 126.728 481.555 128.573C477.162 130.364 472.492 131.268 467.73 131.268C462.968 131.268 458.317 130.364 453.906 128.573C449.365 126.728 445.267 124.014 441.761 120.508C438.254 117.001 435.54 112.922 433.695 108.344C431.904 103.951 431 99.2815 431 94.5195C431 89.7574 431.904 85.106 433.695 80.6947C435.54 76.1542 438.254 72.0382 441.761 68.5313C445.267 65.0243 449.347 62.3111 453.906 60.4654C458.299 58.675 462.968 57.7705 467.73 57.7705C472.492 57.7705 477.144 58.675 481.555 60.4654C486.095 62.3111 490.193 65.0243 493.7 68.5313C497.207 72.0382 499.92 76.1172 501.766 80.6947C503.556 85.0876 504.461 89.7574 504.461 94.5195C504.461 99.2815 503.556 103.933 501.766 108.344C499.92 112.885 497.207 117.001 493.7 120.508ZM496.099 122.889C511.751 107.237 511.751 81.8206 496.099 66.1687C480.429 50.5167 455.032 50.5167 439.38 66.1687C423.728 81.8391 423.728 107.237 439.38 122.889C455.05 138.559 480.447 138.559 496.099 122.889Z" fill="#999999"/>
<path d="M551.842 -46.3095L608.562 10.4105L610.961 8.01089L554.241 -48.709L551.842 -46.328V-46.3095Z" fill="#999999"/>
<path d="M528.234 -17.9572C531.741 -21.4641 535.82 -24.1774 540.379 -26.0232C544.772 -27.8136 549.442 -28.7179 554.204 -28.7179C558.966 -28.7179 563.617 -27.8136 568.029 -26.0232C572.569 -24.1774 576.667 -21.4641 580.174 -17.9572C583.681 -14.4502 586.394 -10.3712 588.24 -5.79374C590.03 -1.40085 590.934 3.26888 590.934 8.03092C590.934 12.793 590.03 17.4442 588.24 21.8556C586.394 26.3961 583.681 30.5122 580.174 34.0191C576.667 37.526 572.588 40.2393 568.029 42.085C563.617 43.8754 558.966 44.7799 554.204 44.7799C549.442 44.7799 544.791 43.8754 540.379 42.085C535.839 40.2393 531.741 37.526 528.234 34.0191C524.727 30.5122 522.014 26.433 520.168 21.8556C518.378 17.4627 517.474 12.793 517.474 8.03092C517.474 3.26888 518.378 -1.38239 520.168 -5.79374C521.996 -10.3527 524.727 -14.4502 528.234 -17.9572ZM525.835 -20.3567C510.164 -4.68631 510.164 20.7113 525.835 36.3632C541.487 52.0337 566.903 52.0337 582.555 36.3632C598.207 20.7113 598.207 -4.70477 582.555 -20.3567C566.884 -36.0087 541.487 -36.0087 525.835 -20.3567Z" fill="#999999"/>
<path d="M608.562 92.1406L551.842 148.86L554.241 151.242L610.961 94.5217L608.58 92.1406H608.562Z" fill="#999999"/>
<path d="M580.188 68.5526C583.695 72.0595 586.409 76.1386 588.254 80.716C590.045 85.1089 590.949 89.7786 590.949 94.5407C590.949 99.3027 590.045 103.954 588.254 108.365C586.409 112.906 583.695 117.022 580.188 120.529C576.682 124.036 572.602 126.749 568.025 128.595C563.632 130.385 558.962 131.29 554.2 131.29C549.438 131.29 544.787 130.385 540.376 128.595C535.835 126.749 531.737 124.036 528.231 120.529C524.724 117.022 522.01 112.943 520.165 108.365C518.374 103.973 517.47 99.3027 517.47 94.5407C517.47 89.7786 518.374 85.1274 520.165 80.716C521.992 76.1755 524.724 72.0595 528.231 68.5526C531.737 65.0457 535.817 62.3324 540.376 60.4867C544.769 58.6963 549.438 57.7918 554.2 57.7918C558.962 57.7918 563.614 58.6963 568.025 60.4867C572.565 62.3324 576.682 65.0457 580.188 68.5526ZM582.588 66.153C566.917 50.5011 541.52 50.5011 525.868 66.153C510.198 81.8235 510.198 107.221 525.868 122.873C541.52 138.543 566.936 138.543 582.588 122.873C598.24 107.221 598.24 81.805 582.588 66.153Z" fill="#999999"/>
<path d="M413.368 10.4105L470.088 -46.3095L467.689 -48.709L410.969 8.01089L413.368 10.4105Z" fill="#999999"/>
<path d="M441.738 34.0194C438.231 30.5125 435.518 26.4334 433.672 21.8559C431.882 17.463 430.977 12.7933 430.977 8.03124C430.977 3.26921 431.882 -1.38206 433.672 -5.79341C435.518 -10.334 438.231 -14.4316 441.738 -17.9385C445.245 -21.4454 449.324 -24.1586 453.883 -26.0044C458.276 -27.7948 462.946 -28.6991 467.708 -28.6991C472.47 -28.6991 477.121 -27.7948 481.532 -26.0044C486.073 -24.1586 490.171 -21.4454 493.677 -17.9385C497.184 -14.4316 499.898 -10.3524 501.743 -5.79341C503.534 -1.38206 504.438 3.26921 504.438 8.03124C504.438 12.7933 503.534 17.4446 501.743 21.8559C499.898 26.3964 497.184 30.4941 493.677 34.0194C490.171 37.5264 486.091 40.2396 481.532 42.0854C477.14 43.8757 472.47 44.7802 467.708 44.7802C462.946 44.7802 458.294 43.8757 453.883 42.0854C449.343 40.2581 445.245 37.5264 441.738 34.0194ZM439.339 36.4004C455.009 52.0708 480.406 52.0708 496.058 36.4004C511.71 20.7485 511.71 -4.66749 496.058 -20.3195C480.388 -35.9899 454.991 -35.9899 439.339 -20.3195C423.687 -4.64903 423.687 20.7485 439.339 36.4004Z" fill="#999999"/>
<path d="M46.0491 358.206L-10.6708 301.486L-13.0703 303.867L43.6496 360.587L46.0306 358.188L46.0491 358.206Z" fill="#999999"/>
<path d="M69.6377 329.855C66.1308 333.362 62.0516 336.075 57.4926 337.921C53.0813 339.711 48.43 340.615 43.668 340.615C38.9059 340.615 34.2547 339.711 29.8433 337.921C25.3028 336.075 21.2052 333.362 17.6982 329.855C14.1913 326.348 11.4781 322.269 9.63233 317.691C7.84195 313.298 6.93749 308.628 6.93749 303.866C6.93749 299.104 7.84195 294.453 9.63233 290.042C11.4596 285.501 14.1913 281.385 17.6982 277.878C21.2052 274.371 25.2843 271.658 29.8433 269.812C34.2362 268.022 38.9059 267.117 43.668 267.117C48.43 267.117 53.0813 268.022 57.4926 269.812C62.0332 271.658 66.1308 274.371 69.6377 277.878C73.1446 281.385 75.8579 285.464 77.7036 290.042C79.494 294.435 80.3983 299.104 80.3983 303.866C80.3983 308.628 79.494 313.28 77.7036 317.691C75.8579 322.232 73.1446 326.348 69.6377 329.855ZM72.0371 332.254C87.6891 316.584 87.6891 291.186 72.0371 275.534C56.3667 259.864 30.9692 259.864 15.3173 275.534C-0.353152 291.186 -0.353152 316.602 15.3173 332.254C30.9877 347.906 56.3852 347.906 72.0371 332.254Z" fill="#999999"/>
<path d="M127.779 163.035L184.499 219.755L186.88 217.374L130.16 160.654L127.779 163.054V163.035Z" fill="#999999"/>
<path d="M104.19 191.404C107.697 187.897 111.777 185.184 116.354 183.338C120.747 181.548 125.417 180.643 130.179 180.643C134.941 180.643 139.592 181.548 144.003 183.338C148.544 185.184 152.66 187.897 156.167 191.404C159.674 194.911 162.387 198.99 164.233 203.549C166.023 207.96 166.927 212.612 166.927 217.374C166.927 222.136 166.023 226.787 164.233 231.199C162.387 235.739 159.674 239.855 156.167 243.362C152.66 246.869 148.581 249.582 144.003 251.428C139.61 253.218 134.941 254.123 130.179 254.123C125.417 254.123 120.765 253.218 116.354 251.428C111.813 249.582 107.697 246.869 104.19 243.362C100.684 239.855 97.9703 235.776 96.1245 231.199C94.3341 226.806 93.4297 222.136 93.4297 217.374C93.4297 212.612 94.3341 207.96 96.1245 203.549C97.9703 199.009 100.684 194.911 104.19 191.404ZM101.809 189.005C86.139 204.675 86.139 230.073 101.809 245.725C117.461 261.395 142.877 261.395 158.529 245.725C174.181 230.073 174.181 204.657 158.529 189.005C142.859 173.353 117.461 173.353 101.809 189.005Z" fill="#999999"/>
<path d="M184.499 301.502L127.779 358.222L130.16 360.621L186.88 303.901L184.499 301.52V301.502Z" fill="#999999"/>
<path d="M156.148 277.897C159.655 281.404 162.369 285.483 164.214 290.061C166.005 294.454 166.909 299.124 166.909 303.886C166.909 308.648 166.005 313.299 164.214 317.71C162.369 322.251 159.655 326.367 156.148 329.874C152.641 333.381 148.562 336.094 143.985 337.94C139.592 339.73 134.922 340.635 130.16 340.635C125.398 340.635 120.747 339.73 116.335 337.94C111.795 336.094 107.679 333.381 104.172 329.874C100.665 326.367 97.9518 322.288 96.106 317.71C94.3157 313.317 93.4113 308.648 93.4113 303.886C93.4113 299.124 94.3157 294.472 96.106 290.061C97.9518 285.52 100.665 281.404 104.172 277.897C107.679 274.391 111.758 271.677 116.335 269.832C120.728 268.041 125.398 267.137 130.16 267.137C134.922 267.137 139.573 268.041 143.985 269.832C148.525 271.677 152.641 274.391 156.148 277.897ZM158.529 275.516C142.877 259.846 117.461 259.846 101.809 275.516C86.139 291.168 86.139 316.584 101.809 332.236C117.461 347.888 142.877 347.888 158.529 332.236C174.2 316.566 174.2 291.168 158.529 275.516Z" fill="#999999"/>
<path d="M-10.6737 219.756L46.0462 163.036L43.6652 160.637L-13.0547 217.357L-10.6552 219.738L-10.6737 219.756Z" fill="#999999"/>
<path d="M17.7011 243.363C14.1942 239.856 11.4809 235.777 9.63518 231.2C7.8448 226.807 6.94034 222.137 6.94034 217.375C6.94034 212.613 7.8448 207.962 9.63518 203.55C11.4625 199.01 14.1942 194.912 17.7011 191.405C21.208 187.898 25.2872 185.185 29.8462 183.339C34.239 181.549 38.9088 180.644 43.6708 180.644C48.4329 180.644 53.0841 181.549 57.4955 183.339C62.036 185.185 66.1336 187.898 69.6405 191.405C73.1475 194.912 75.8607 198.991 77.7065 203.55C79.4968 207.962 80.4012 212.613 80.4012 217.375C80.4012 222.137 79.4968 226.788 77.7065 231.2C75.8607 235.74 73.1475 239.856 69.6405 243.363C66.1336 246.87 62.0545 249.583 57.4955 251.429C53.0841 253.219 48.4329 254.124 43.6708 254.124C38.9088 254.124 34.2575 253.219 29.8462 251.429C25.3056 249.583 21.208 246.87 17.7011 243.363ZM15.3016 245.744C30.9721 261.415 56.3696 261.415 72.0215 245.744C87.6735 230.092 87.6735 204.676 72.0215 189.024C56.3511 173.372 30.9536 173.372 15.3016 189.024C-0.368777 204.695 -0.368777 230.092 15.3016 245.744Z" fill="#999999"/>
<path d="M46.0491 569.95L-10.6708 513.23L-13.0703 515.593L43.6496 572.313L46.0306 569.932L46.0491 569.95Z" fill="#999999"/>
<path d="M69.6377 541.597C66.1308 545.104 62.0516 547.817 57.4926 549.663C53.0813 551.454 48.43 552.358 43.668 552.358C38.9059 552.358 34.2547 551.454 29.8433 549.663C25.3028 547.817 21.2052 545.104 17.6982 541.597C14.1913 538.09 11.4781 534.011 9.63233 529.434C7.84195 525.041 6.93749 520.371 6.93749 515.609C6.93749 510.847 7.84195 506.196 9.63233 501.785C11.4596 497.226 14.1913 493.128 17.6982 489.621C21.2052 486.114 25.2843 483.401 29.8433 481.555C34.2362 479.765 38.9059 478.86 43.668 478.86C48.43 478.86 53.0813 479.765 57.4926 481.555C62.0332 483.401 66.1308 486.114 69.6377 489.621C73.1446 493.128 75.8579 497.207 77.7036 501.785C79.494 506.177 80.3983 510.847 80.3983 515.609C80.3983 520.371 79.494 525.023 77.7036 529.434C75.8579 533.974 73.1446 538.09 69.6377 541.597ZM72.0371 543.978C87.6891 528.326 87.6891 502.91 72.0371 487.259C56.3667 471.607 30.9692 471.607 15.3173 487.259C-0.353152 502.929 -0.353152 528.326 15.3173 543.978C30.9877 559.649 56.3852 559.649 72.0371 543.978Z" fill="#999999"/>
<path d="M127.779 374.779L184.499 431.499L186.88 429.118L130.16 372.398L127.779 374.798V374.779Z" fill="#999999"/>
<path d="M104.19 403.131C107.697 399.624 111.777 396.91 116.354 395.065C120.747 393.274 125.417 392.37 130.179 392.37C134.941 392.37 139.592 393.274 144.003 395.065C148.544 396.91 152.66 399.624 156.167 403.131C159.674 406.638 162.387 410.717 164.233 415.276C166.023 419.687 166.927 424.338 166.927 429.1C166.927 433.862 166.023 438.514 164.233 442.925C162.387 447.466 159.674 451.582 156.167 455.089C152.66 458.595 148.581 461.309 144.003 463.154C139.61 464.945 134.941 465.849 130.179 465.849C125.417 465.849 120.765 464.945 116.354 463.154C111.813 461.309 107.697 458.595 104.19 455.089C100.684 451.582 97.9703 447.503 96.1245 442.925C94.3341 438.532 93.4297 433.862 93.4297 429.1C93.4297 424.338 94.3341 419.687 96.1245 415.276C97.9703 410.735 100.684 406.638 104.19 403.131V403.131ZM101.809 400.731C86.139 416.402 86.139 441.799 101.809 457.451C117.461 473.122 142.877 473.122 158.529 457.451C174.181 441.799 174.181 416.383 158.529 400.731C142.859 385.079 117.461 385.079 101.809 400.731Z" fill="#999999"/>
<path d="M184.499 513.246L127.779 569.966L130.16 572.347L186.88 515.627L184.499 513.265V513.246Z" fill="#999999"/>
<path d="M156.148 489.642C159.655 493.149 162.369 497.228 164.214 501.806C166.005 506.199 166.909 510.868 166.909 515.631C166.909 520.393 166.005 525.044 164.214 529.455C162.369 533.996 159.655 538.112 156.148 541.619C152.641 545.126 148.562 547.839 143.985 549.685C139.592 551.475 134.922 552.379 130.16 552.379C125.398 552.379 120.747 551.475 116.335 549.685C111.795 547.839 107.679 545.126 104.172 541.619C100.665 538.112 97.9518 534.033 96.106 529.455C94.3157 525.062 93.4113 520.393 93.4113 515.631C93.4113 510.868 94.3157 506.217 96.106 501.806C97.9518 497.247 100.665 493.149 104.172 489.642C107.679 486.135 111.758 483.422 116.335 481.576C120.728 479.786 125.398 478.882 130.16 478.882C134.922 478.882 139.573 479.786 143.985 481.576C148.525 483.422 152.641 486.135 156.148 489.642ZM158.529 487.243C142.877 471.591 117.461 471.591 101.809 487.243C86.139 502.913 86.139 528.311 101.809 543.963C117.461 559.633 142.877 559.633 158.529 543.963C174.2 528.311 174.2 502.895 158.529 487.243Z" fill="#999999"/>
<path d="M-10.6737 431.5L46.0462 374.78L43.6652 372.381L-13.0547 429.101L-10.6552 431.482L-10.6737 431.5Z" fill="#999999"/>
<path d="M17.7011 455.089C14.1942 451.582 11.4809 447.503 9.63518 442.944C7.8448 438.551 6.94034 433.881 6.94034 429.119C6.94034 424.357 7.8448 419.706 9.63518 415.294C11.4625 410.754 14.1942 406.656 17.7011 403.149C21.208 399.642 25.2872 396.929 29.8462 395.083C34.239 393.293 38.9088 392.389 43.6708 392.389C48.4329 392.389 53.0841 393.293 57.4955 395.083C62.036 396.929 66.1336 399.642 69.6405 403.149C73.1475 406.656 75.8607 410.735 77.7065 415.294C79.4968 419.687 80.4012 424.357 80.4012 429.119C80.4012 433.881 79.4968 438.533 77.7065 442.944C75.8607 447.484 73.1475 451.582 69.6405 455.089C66.1336 458.596 62.0545 461.309 57.4955 463.155C53.0841 464.945 48.4329 465.849 43.6708 465.849C38.9088 465.849 34.2575 464.945 29.8462 463.155C25.3056 461.327 21.208 458.596 17.7011 455.089ZM15.3016 457.488C30.9721 473.159 56.3696 473.159 72.0215 457.488C87.6735 441.818 87.6735 416.42 72.0215 400.768C56.3511 385.098 30.9536 385.098 15.3016 400.768C-0.368777 416.439 -0.368777 441.836 15.3016 457.488Z" fill="#999999"/>
<path d="M258.11 571.296L201.39 514.576L198.99 516.976L255.71 573.696L258.11 571.315V571.296Z" fill="#999999"/>
<path d="M281.699 542.929C278.192 546.436 274.113 549.149 269.536 550.995C265.143 552.785 260.473 553.689 255.711 553.689C250.949 553.689 246.298 552.785 241.886 550.995C237.346 549.149 233.23 546.436 229.723 542.929C226.216 539.422 223.503 535.343 221.657 530.784C219.866 526.391 218.962 521.721 218.962 516.959C218.962 512.197 219.866 507.546 221.657 503.134C223.503 498.594 226.216 494.496 229.723 490.989C233.23 487.482 237.309 484.769 241.886 482.923C246.279 481.133 250.949 480.229 255.711 480.229C260.473 480.229 265.124 481.133 269.536 482.923C274.076 484.751 278.192 487.482 281.699 490.989C285.206 494.496 287.919 498.575 289.765 503.134C291.555 507.527 292.46 512.197 292.46 516.959C292.46 521.721 291.555 526.372 289.765 530.784C287.938 535.324 285.206 539.422 281.699 542.929ZM284.08 545.328C299.75 529.658 299.75 504.26 284.08 488.608C268.428 472.938 243.012 472.938 227.36 488.608C211.708 504.279 211.708 529.676 227.36 545.328C243.03 560.999 268.428 560.999 284.08 545.328Z" fill="#999999"/>
<path d="M339.817 376.11L396.537 432.829L398.918 430.448L342.198 373.729L339.799 376.091L339.817 376.11Z" fill="#999999"/>
<path d="M316.246 404.48C319.753 400.973 323.832 398.259 328.391 396.414C332.784 394.623 337.454 393.719 342.216 393.719C346.978 393.719 351.629 394.623 356.04 396.414C360.581 398.259 364.678 400.973 368.185 404.48C371.692 407.987 374.405 412.066 376.251 416.643C378.042 421.036 378.946 425.706 378.946 430.468C378.946 435.23 378.042 439.881 376.251 444.292C374.405 448.833 371.692 452.93 368.185 456.437C364.678 459.944 360.599 462.658 356.04 464.503C351.647 466.294 346.978 467.198 342.216 467.198C337.454 467.198 332.802 466.294 328.391 464.503C323.85 462.658 319.753 459.944 316.246 456.437C312.739 452.93 310.026 448.851 308.18 444.292C306.39 439.881 305.485 435.23 305.485 430.468C305.485 425.706 306.39 421.054 308.18 416.643C310.026 412.103 312.739 407.987 316.246 404.48V404.48ZM313.846 402.099C298.194 417.75 298.194 443.167 313.846 458.818C329.517 474.47 354.914 474.47 370.566 458.818C386.218 443.148 386.218 417.75 370.566 402.099C354.896 386.428 329.498 386.428 313.846 402.099Z" fill="#999999"/>
<path d="M396.56 514.575L339.84 571.295L342.239 573.676L398.959 516.956L396.578 514.557L396.56 514.575Z" fill="#999999"/>
<path d="M368.188 490.988C371.695 494.495 374.408 498.574 376.254 503.133C378.045 507.526 378.949 512.196 378.949 516.958C378.949 521.72 378.045 526.371 376.254 530.783C374.408 535.323 371.695 539.421 368.188 542.928C364.681 546.434 360.602 549.148 356.043 550.993C351.65 552.784 346.981 553.688 342.219 553.688C337.457 553.688 332.805 552.784 328.394 550.993C323.853 549.148 319.756 546.434 316.249 542.928C312.742 539.421 310.029 535.342 308.183 530.783C306.393 526.39 305.488 521.72 305.488 516.958C305.488 512.196 306.393 507.545 308.183 503.133C310.029 498.593 312.742 494.495 316.249 490.988C319.756 487.481 323.835 484.768 328.394 482.922C332.787 481.132 337.457 480.227 342.219 480.227C346.981 480.227 351.632 481.132 356.043 482.922C360.584 484.749 364.681 487.481 368.188 490.988ZM370.588 488.589C354.917 472.918 329.52 472.918 313.868 488.589C298.216 504.259 298.216 529.657 313.868 545.309C329.538 560.979 354.936 560.979 370.588 545.309C386.24 529.638 386.24 504.241 370.588 488.589Z" fill="#999999"/>
<path d="M201.368 432.848L258.088 376.128L255.689 373.766L198.969 430.486L201.368 432.866V432.848Z" fill="#999999"/>
<path d="M229.734 456.435C226.227 452.928 223.514 448.849 221.668 444.29C219.878 439.878 218.973 435.227 218.973 430.465C218.973 425.703 219.878 421.052 221.668 416.64C223.514 412.1 226.227 407.984 229.734 404.477C233.241 400.97 237.32 398.257 241.898 396.411C246.29 394.62 250.96 393.716 255.722 393.716C260.484 393.716 265.136 394.62 269.547 396.411C274.088 398.257 278.203 400.97 281.71 404.477C285.217 407.984 287.931 412.063 289.776 416.64C291.567 421.033 292.471 425.703 292.471 430.465C292.471 435.227 291.567 439.878 289.776 444.29C287.949 448.83 285.217 452.928 281.71 456.435C278.203 459.941 274.124 462.655 269.547 464.5C265.154 466.291 260.484 467.195 255.722 467.195C250.96 467.195 246.309 466.291 241.898 464.5C237.357 462.655 233.241 459.941 229.734 456.435ZM227.335 458.834C243.005 474.486 268.403 474.486 284.055 458.834C299.725 443.164 299.725 417.766 284.055 402.114C268.403 386.444 242.987 386.444 227.335 402.114C211.683 417.766 211.683 443.182 227.335 458.834Z" fill="#999999"/>
<path d="M611.479 -49.5586H-11.4434V573.382H611.479V-49.5586Z" stroke="#999999" stroke-width="3.09783" stroke-miterlimit="10"/>
</g>
<defs>
<clipPath id="clip0_1382_10157">
<rect width="600" height="525" fill="white"/>
</clipPath>
</defs>
</svg>
