<svg width="600" height="525" viewBox="0 0 600 525" fill="none" xmlns="http://www.w3.org/2000/svg">
<rect width="600" height="525" rx="4.88661" fill="white"/>
<g clip-path="url(#clip0_1382_10121)">
<rect width="600" height="525" fill="#F3F3F3"/>
<g clip-path="url(#clip1_1382_10121)">
<path d="M-9.48438 -47.002C33.2343 -47.002 67.8863 -12.355 67.8863 30.3757" stroke="#999999" stroke-width="3.40761" stroke-miterlimit="10"/>
<path d="M145.239 -47.002C102.502 -47.002 67.8681 -12.355 67.8681 30.3757C67.8681 73.1063 33.2343 107.753 -9.48438 107.753V-47.002H145.239Z" stroke="#999999" stroke-width="3.40761" stroke-miterlimit="10"/>
<path d="M145.242 262.507H222.631C179.894 262.507 145.242 227.86 145.242 185.129C145.242 227.86 110.59 262.507 67.8711 262.507" stroke="#999999" stroke-width="3.40761" stroke-miterlimit="10"/>
<path d="M532.133 30.3757C532.133 73.1245 497.481 107.753 454.744 107.753H299.984C342.721 107.753 377.373 73.1063 377.373 30.3757C377.373 -12.355 412.025 -47.002 454.762 -47.002C497.499 -47.002 532.151 -12.355 532.151 30.3757H532.133Z" stroke="#999999" stroke-width="3.40761" stroke-miterlimit="10"/>
<path d="M454.762 -47.002C412.025 -47.002 377.373 -12.355 377.373 30.3757C377.373 -12.355 342.739 -47.002 299.984 -47.002H454.744H454.762Z" stroke="#999999" stroke-width="3.40761" stroke-miterlimit="10"/>
<path d="M532.131 262.509C574.85 262.509 609.502 227.862 609.502 185.132C609.502 142.401 574.85 107.754 532.131 107.754C489.412 107.754 454.742 142.401 454.742 185.132" stroke="#999999" stroke-width="3.40761" stroke-miterlimit="10"/>
<path d="M300 185.132C300 142.401 334.652 107.754 377.389 107.754" stroke="#999999" stroke-width="3.40761" stroke-miterlimit="10"/>
<path d="M532.129 262.508H377.369" stroke="#999999" stroke-width="3.40761" stroke-miterlimit="10"/>
<path d="M145.256 262.508C187.975 262.508 222.627 297.155 222.627 339.867" stroke="#999999" stroke-width="3.40761" stroke-miterlimit="10"/>
<path d="M-9.48438 262.492C33.2525 262.492 67.8863 297.139 67.8863 339.87C67.8863 382.6 33.2525 417.247 -9.48438 417.247" stroke="#999999" stroke-width="3.40761" stroke-miterlimit="10"/>
<path d="M145.242 262.508C102.505 262.508 67.8711 297.155 67.8711 339.867C67.8711 382.58 102.505 417.245 145.242 417.245H67.8711" stroke="#999999" stroke-width="3.40761" stroke-miterlimit="10"/>
<path d="M-9.48438 417.263V262.508H67.8681" stroke="#999999" stroke-width="3.40761" stroke-miterlimit="10"/>
<path d="M377.369 339.867C377.369 297.137 412.021 262.508 454.758 262.508C497.495 262.508 532.129 297.155 532.129 339.867C532.129 382.58 497.495 417.245 454.758 417.245" stroke="#999999" stroke-width="3.40761" stroke-miterlimit="10"/>
<path d="M300.004 262.508C257.267 262.508 222.633 297.155 222.633 339.867C222.633 382.58 257.267 417.245 300.004 417.245C342.74 417.245 377.392 382.598 377.392 339.867" stroke="#999999" stroke-width="3.40761" stroke-miterlimit="10"/>
<path d="M300 262.508H454.76" stroke="#999999" stroke-width="3.40761" stroke-miterlimit="10"/>
<path d="M377.373 417.264H299.984" stroke="#999999" stroke-width="3.40761" stroke-miterlimit="10"/>
<path d="M609.502 -47.002C566.783 -47.002 532.131 -12.355 532.131 30.3757C532.131 73.1063 566.783 107.753 609.502 107.753" stroke="#999999" stroke-width="3.40761" stroke-miterlimit="10"/>
<path d="M609.502 262.492C566.783 262.492 532.131 297.139 532.131 339.87C532.131 382.6 566.783 417.247 609.502 417.247" stroke="#999999" stroke-width="3.40761" stroke-miterlimit="10"/>
<path d="M145.242 262.509C187.979 262.509 222.631 297.155 222.631 339.868C222.631 297.137 257.265 262.509 300.002 262.509H377.391C420.128 262.509 454.78 227.862 454.78 185.131C454.78 142.4 420.146 107.753 377.391 107.753C334.636 107.753 300.002 142.4 300.002 185.131M300.002 185.131C300.002 142.4 265.368 107.753 222.631 107.753H145.242C187.979 107.753 222.631 73.1245 222.631 30.3757C222.631 73.1063 257.265 107.753 300.002 107.753H454.761C497.498 107.753 532.132 73.1063 532.132 30.3757C532.132 -12.355 497.498 -47.002 454.761 -47.002H454.798H609.557V494.623C609.557 451.893 574.905 417.246 532.168 417.246H377.409C334.672 417.246 300.02 451.893 300.02 494.623C300.02 451.893 265.386 417.246 222.649 417.246H67.8896C25.1344 417.246 -9.49937 451.893 -9.49937 494.623V262.509H67.8713C110.59 262.509 145.242 227.862 145.242 185.131C145.242 227.862 179.894 262.509 222.631 262.509C265.368 262.509 300.002 227.862 300.002 185.131ZM145.26 417.264C102.523 417.264 67.8896 382.617 67.8896 339.886C67.8896 297.156 102.523 262.527 145.26 262.527V417.282V417.264ZM-9.49937 -47.002V185.131C-9.49937 142.4 25.1344 107.753 67.8896 107.753H-9.48116C33.2375 107.753 67.8896 73.1063 67.8896 30.3757C67.8896 -12.355 102.505 -47.002 145.242 -47.002H-9.49937ZM300.002 494.641C300.002 537.372 265.368 572.019 222.631 572.019H377.372C334.636 572.019 299.984 537.372 299.984 494.641H300.002ZM67.8713 572.019C25.1345 572.019 -9.51758 537.372 -9.51758 494.641V572.019H67.8713ZM300.002 -47.002C342.739 -47.002 377.391 -12.355 377.391 30.3757C377.391 -12.355 412.043 -47.002 454.78 -47.002H300.02H300.002ZM532.132 572.019H609.521V494.641C609.521 537.372 574.869 572.019 532.132 572.019ZM377.372 107.753C420.109 107.753 454.761 142.4 454.761 185.131C454.761 227.862 420.128 262.509 377.372 262.509V107.753Z" stroke="#999999" stroke-width="3.40761" stroke-miterlimit="10"/>
<path d="M222.628 417.264C179.891 417.264 145.239 451.911 145.239 494.641C145.239 537.372 110.587 572.019 67.8688 572.019C25.1501 572.019 -9.50195 537.372 -9.50195 494.641C-9.50195 451.911 25.1319 417.264 67.887 417.264H222.647H222.628Z" stroke="#999999" stroke-width="3.40761" stroke-miterlimit="10"/>
<path d="M300.001 494.641C300.001 537.372 265.368 572.019 222.631 572.019H67.8711C110.608 572.019 145.26 537.372 145.26 494.641C145.26 451.911 179.894 417.264 222.631 417.264C265.368 417.264 300.001 451.911 300.001 494.641Z" stroke="#999999" stroke-width="3.40761" stroke-miterlimit="10"/>
<path d="M222.628 30.3757C222.628 73.1245 187.976 107.753 145.257 107.753H-9.48438C33.2525 107.753 67.8863 73.1063 67.8863 30.3757C67.8863 -12.355 102.502 -47.002 145.257 -47.002C188.012 -47.002 222.628 -12.355 222.628 30.3757Z" stroke="#999999" stroke-width="3.40761" stroke-miterlimit="10"/>
<path d="M145.239 185.132C145.239 227.862 110.587 262.509 67.8688 262.509H-9.50195V185.132C-9.50195 142.401 25.1319 107.754 67.887 107.754C110.642 107.754 145.258 142.401 145.258 185.132H145.239Z" stroke="#999999" stroke-width="3.40761" stroke-miterlimit="10"/>
<path d="M377.368 30.3757C377.368 73.1245 342.734 107.753 299.979 107.753C257.224 107.753 222.608 73.1063 222.608 30.3757C222.608 -12.355 187.975 -47.002 145.256 -47.002H299.997C342.734 -47.002 377.386 -12.355 377.386 30.3757H377.368Z" stroke="#999999" stroke-width="3.40761" stroke-miterlimit="10"/>
<path d="M300.001 185.13C300.001 227.86 265.368 262.507 222.631 262.507C179.894 262.507 145.26 227.86 145.26 185.13C145.26 142.399 110.608 107.752 67.8711 107.752H222.631C265.368 107.752 300.001 142.399 300.001 185.13V185.13Z" stroke="#999999" stroke-width="3.40761" stroke-miterlimit="10"/>
<path d="M609.499 494.641C609.499 537.372 574.847 572.019 532.129 572.019H377.369C420.106 572.019 454.758 537.372 454.758 494.641C454.758 451.911 489.392 417.264 532.147 417.264C574.902 417.264 609.518 451.911 609.518 494.641H609.499Z" stroke="#999999" stroke-width="3.40761" stroke-miterlimit="10"/>
<path d="M532.13 417.264C489.393 417.264 454.741 451.911 454.741 494.641C454.741 537.372 420.107 572.019 377.352 572.019C334.597 572.019 299.963 537.372 299.963 494.641C299.963 451.911 334.615 417.264 377.352 417.264H532.111H532.13Z" stroke="#999999" stroke-width="3.40761" stroke-miterlimit="10"/>
</g>
</g>
<defs>
<clipPath id="clip0_1382_10121">
<rect width="600" height="525" fill="white"/>
</clipPath>
<clipPath id="clip1_1382_10121">
<rect width="622.826" height="622.826" fill="white" transform="translate(-11.4121 -48.9141)"/>
</clipPath>
</defs>
</svg>
