<svg width="720" height="400" viewBox="0 0 720 400" fill="none" xmlns="http://www.w3.org/2000/svg">
<rect width="720" height="400" fill="#3A3E55"/>
<path d="M174.748 216.564H174.575C171.209 222.361 164.916 225.214 158.359 225.214C144.042 225.214 133 214.664 133 200.221C133 185.779 143.869 174.794 158.359 174.794C164.743 174.794 171.036 177.39 174.575 182.839H174.748V176.094H183.717V224.005H174.748V216.564ZM158.363 183.005C148.873 183.005 141.973 190.789 141.973 200.13C141.973 209.471 149.133 216.995 158.276 216.995C167.418 216.995 174.921 209.385 174.921 200.13C174.921 190.876 168.108 183.005 158.363 183.005Z" fill="#E0FF5B"/>
<path d="M219.018 225.21C212.634 225.21 205.651 222.788 202.199 217.082H202.026V240H193.057V176.086H201.25V183.436H201.423C205.391 177.726 211.602 174.786 218.415 174.786C233.165 174.786 243.171 186.202 243.171 200.644C243.171 214.221 232.736 225.206 219.022 225.206L219.018 225.21ZM217.812 183.005C208.583 183.005 201.856 190.963 201.856 199.957C201.856 208.95 208.583 216.995 218.072 216.995C227.562 216.995 234.202 209.298 234.202 200.13C234.202 190.963 227.042 183.005 217.812 183.005Z" fill="#E0FF5B"/>
<path d="M277.034 225.21C270.65 225.21 263.667 222.788 260.215 217.082H260.041V240H251.072V176.086H259.265V183.436H259.438C263.407 177.726 269.617 174.786 276.431 174.786C291.181 174.786 301.186 186.202 301.186 200.644C301.186 214.221 290.751 225.206 277.038 225.206L277.034 225.21ZM275.828 183.005C266.599 183.005 259.872 190.963 259.872 199.957C259.872 208.95 266.599 216.995 276.088 216.995C285.577 216.995 292.217 209.298 292.217 200.13C292.217 190.963 285.057 183.005 275.828 183.005Z" fill="#E0FF5B"/>
<path d="M323.318 185.775C319.093 187.936 318.057 193.472 318.057 197.795V224.001H309.088V176.09H317.454V180.413H317.627C320.559 176.26 324.957 174.964 329.788 174.79V184.044C327.806 184.044 325.044 184.823 323.318 185.775Z" fill="#E0FF5B"/>
<path d="M379.958 203.936H340.369C342.182 211.372 348.219 216.995 356.065 216.995C361.673 216.995 367.107 213.968 369.692 208.95H378.661C375.04 218.722 366.153 225.21 355.718 225.21C342.091 225.21 331.396 213.36 331.396 199.957C331.396 186.553 341.918 174.79 355.892 174.79C369.865 174.79 380.214 185.945 380.214 199.439C380.214 200.909 380.127 202.466 379.954 203.936H379.958ZM355.809 183.005C348.046 183.005 340.889 189.146 340.369 197.017H371.249C370.732 189.146 363.572 183.005 355.809 183.005Z" fill="#E0FF5B"/>
<path d="M409.777 225.21C395.547 225.21 385.282 213.968 385.282 199.957C385.282 185.945 395.717 174.79 409.864 174.79C420.129 174.79 430.651 181.709 433.323 192.002H423.404C420.728 186.38 416.33 183.009 409.95 183.009C400.118 183.009 394.255 190.532 394.255 199.96C394.255 209.389 400.205 216.999 409.781 216.999C415.905 216.999 420.823 213.711 423.321 208.175H433.327C429.792 218.469 420.732 225.214 409.781 225.214L409.777 225.21Z" fill="#E0FF5B"/>
<path d="M440.586 170.55V160H449.555V170.55H440.586ZM440.586 223.997V176.086H449.555V223.997H440.586Z" fill="#E0FF5B"/>
<path d="M499.176 216.564H499.003C495.638 222.361 489.344 225.214 482.787 225.214C468.47 225.214 457.428 214.664 457.428 200.221C457.428 185.779 468.297 174.794 482.787 174.794C489.171 174.794 495.464 177.39 499.003 182.839H499.176V176.094H508.146V224.005H499.176V216.564ZM482.791 183.005C473.302 183.005 466.401 190.789 466.401 200.13C466.401 209.471 473.562 216.995 482.704 216.995C491.847 216.995 499.35 209.385 499.35 200.13C499.35 190.876 492.536 183.005 482.791 183.005Z" fill="#E0FF5B"/>
<path d="M529.41 184.305V224.001H520.441V184.305H513.97V176.09H520.441V160.004H529.41V176.09H537.26V184.305H529.41Z" fill="#E0FF5B"/>
<path d="M587.173 203.936H547.584C549.397 211.372 555.434 216.995 563.28 216.995C568.888 216.995 574.322 213.968 576.907 208.95H585.876C582.255 218.722 573.369 225.21 562.934 225.21C549.306 225.21 538.611 213.36 538.611 199.957C538.611 186.553 549.133 174.79 563.107 174.79C577.081 174.79 587.429 185.945 587.429 199.439C587.429 200.909 587.342 202.466 587.169 203.936H587.173ZM563.024 183.005C555.261 183.005 548.105 189.146 547.584 197.017H578.464C577.948 189.146 570.787 183.005 563.024 183.005Z" fill="#E0FF5B"/>
</svg>
