<svg width="48" height="48" viewBox="0 0 48 48" fill="none" xmlns="http://www.w3.org/2000/svg">
<path d="M25.8834 24.0059L40.9394 8.94721C41.4621 8.42721 41.4621 7.58187 40.9394 7.06187C40.4194 6.54188 39.5767 6.54188 39.0541 7.06187L23.9981 22.1205L8.9394 7.06187C8.4194 6.54188 7.57673 6.54188 7.05406 7.06187C6.53406 7.58187 6.53406 8.42721 7.05406 8.94721L22.1127 24.0059L7.05406 39.0619C6.53406 39.5845 6.53406 40.4272 7.05406 40.9499C7.3154 41.2085 7.65673 41.3392 7.99806 41.3392C8.3394 41.3392 8.68073 41.2085 8.9394 40.9499L23.9981 25.8912L39.0541 40.9499C39.3154 41.2085 39.6567 41.3392 39.9981 41.3392C40.3394 41.3392 40.6807 41.2085 40.9394 40.9499C41.4621 40.4272 41.4621 39.5845 40.9394 39.0619L25.8834 24.0059Z" fill="#222222"/>
</svg>
