<svg width="674" height="74" viewBox="0 0 674 74" fill="none" xmlns="http://www.w3.org/2000/svg">
<path d="M64.72 0C63.16 0.309998 61.6 0.619995 58.48 0.619995H9.78003C6.65997 0.619995 5.09998 0.309998 3.53998 0L0 18.42H0.830017L1.33997 17.6495C6.95288 9.16608 10.265 4.15997 19.46 4.15997H30.59V62.02C30.59 68.89 28.82 70.14 22.89 72.74V73.47H45.37V72.74C39.44 70.14 37.67 68.89 37.67 62.02V4.15997H48.8C57.995 4.15997 61.3071 9.16608 66.92 17.6495C67.0879 17.9033 67.2578 18.1601 67.43 18.42H68.26L64.72 0Z" fill="black"/>
<path fill-rule="evenodd" clip-rule="evenodd" d="M99.34 72.74C94.45 70.14 92.68 68.89 92.68 62.02H92.67V40.06H107.97C118.69 40.06 121.6 44.33 124.62 52.86L127.85 62.23C129.61 67.43 130.34 69.2 132.32 73.47H146.99V72.74C140.64 70.35 137 67.85 134.5 60.46L131.59 51.72C129.2 44.44 125.25 39.65 115.88 38.4V38.09C126.29 38.09 136.9 32.99 136.9 19.77C136.9 5.62 124.94 0.619995 109.95 0.619995H78.94V1.34998C83.83 3.95001 85.6 5.20001 85.6 12.07V62.02C85.6 68.89 83.83 70.14 78.94 72.74V73.47H99.34V72.74ZM109.75 36H92.68V4.46997H109.75C120.78 4.46997 129.11 8.32001 129.11 19.77C129.11 32.77 119.64 36 109.75 36Z" fill="black"/>
<path d="M158.02 1.34998V0.619995H178.42V1.34998C173.53 3.95001 171.76 5.20001 171.76 12.07V62.02C171.76 68.89 173.53 70.14 178.42 72.74V73.47H158.02V72.74C162.91 70.14 164.68 68.89 164.68 62.02V12.07C164.68 5.20001 162.91 3.95001 158.02 1.34998Z" fill="black"/>
<path d="M253.65 0C252.09 0.309998 250.53 0.619995 247.41 0.619995H198.71C195.59 0.619995 194.03 0.309998 192.47 0L188.93 18.42H189.76C189.932 18.1601 190.102 17.9033 190.27 17.6495C195.883 9.16608 199.195 4.15997 208.39 4.15997H219.52V62.02C219.52 68.89 217.75 70.14 211.82 72.74V73.47H234.3V72.74C228.37 70.14 226.6 68.89 226.6 62.02V4.15997H237.73C246.925 4.15997 250.237 9.16602 255.85 17.6494C256.018 17.9032 256.188 18.16 256.36 18.42H257.19L253.65 0Z" fill="black"/>
<path d="M311.79 47.97H310.96C307.63 39.02 306.17 37.98 297.74 37.98H281.61V69.62H303.05C314.71 69.62 318.56 66.5 325.32 56.61H326.05L322.72 73.47H267.88V72.74C272.77 70.14 274.54 68.89 274.54 62.02V12.07C274.54 5.20001 272.77 3.95001 267.88 1.34998V0.619995H313.15C316.27 0.619995 317.83 0.309998 319.39 0L322.93 15.61H322.2L322.144 15.5447C315.524 7.79144 312.697 4.47998 300.87 4.47998H281.62V34.14H297.75C306.18 34.14 307.64 33.1 310.97 24.15H311.8V47.98L311.79 47.97Z" fill="black"/>
<path d="M381.43 35.1H337.72V38.95H381.43V35.1Z" fill="black"/>
<path d="M438.11 47.97H437.28C433.95 39.02 432.49 37.98 424.06 37.98H407.93V69.62H429.37C441.03 69.62 444.88 66.5 451.64 56.61H452.37L449.04 73.47H394.2V72.74C399.09 70.14 400.86 68.89 400.86 62.02V12.07C400.86 5.20001 399.09 3.95001 394.2 1.34998V0.619995H439.47C442.59 0.619995 444.15 0.309998 445.71 0L449.25 15.61H448.52L448.464 15.5447C441.844 7.79144 439.017 4.47998 427.19 4.47998H407.94V34.14H424.07C432.5 34.14 433.96 33.1 437.29 24.15H438.12V47.98L438.11 47.97Z" fill="black"/>
<path d="M512.83 6.45001C512.83 7.27997 512.63 8.73999 511.48 10.51H511.49L493.9 38.61L476.31 10.72C475.17 8.95001 474.75 7.48999 474.75 5.92999C474.75 4.15997 475.37 2.81 478.08 1.34998V0.619995H459.97V1.34998C464.24 4.46997 466.22 6.65997 469.65 12.07L489.21 43.19V62.02C489.21 68.89 487.44 70.14 481.51 72.74V73.47H503.88V72.74C497.95 70.14 496.18 68.89 496.18 62.02V43.19L515.74 12.07C519.18 6.65997 521.15 4.46997 525.42 1.34998V0.619995H507.63V1.34998C511.06 3.42999 512.83 4.58002 512.83 6.45001Z" fill="black"/>
<path d="M580.73 47.97H579.9C576.57 39.02 575.11 37.98 566.68 37.98H550.55V69.62H571.99C583.65 69.62 587.5 66.5 594.26 56.61H594.99L591.66 73.47H536.82V72.74C541.71 70.14 543.48 68.89 543.48 62.02V12.07C543.48 5.20001 541.71 3.95001 536.82 1.34998V0.619995H582.09C585.21 0.619995 586.77 0.309998 588.33 0L591.87 15.61H591.14L591.084 15.5447C584.464 7.79144 581.637 4.47998 569.81 4.47998H550.56V34.14H566.69C575.12 34.14 576.58 33.1 579.91 24.15H580.74V47.98L580.73 47.97Z" fill="black"/>
<path fill-rule="evenodd" clip-rule="evenodd" d="M612.71 62.02C612.71 68.89 610.94 70.14 606.05 72.74V73.46H633.21C658.29 73.46 673.38 58.89 673.38 37.04C673.38 15.19 658.29 0.619995 633.21 0.619995H606.05V1.34998C610.94 3.95001 612.71 5.20001 612.71 12.07V62.02ZM619.79 4.58002H632.69C654.02 4.58002 665.26 17.69 665.26 37.05C665.26 56.41 654.02 69.52 632.69 69.52H619.79V4.58002Z" fill="black"/>
</svg>
