<svg width="20" height="16" viewBox="0 0 20 16" fill="none" xmlns="http://www.w3.org/2000/svg">
<path d="M0 0H2V2H0V0Z" fill="#38454E"/>
<path d="M4 0H6V2H4V0Z" fill="#38454E"/>
<path d="M8 0H10V2H8V0Z" fill="#38454E"/>
<path d="M12 0H14V2H12V0Z" fill="#38454E"/>
<path d="M16 0H18V2H16V0Z" fill="#38454E"/>
<path d="M2 2H4V4H2V2Z" fill="#38454E"/>
<path d="M6 2H8V4H6V2Z" fill="#38454E"/>
<path d="M10 2H12V4H10V2Z" fill="#38454E"/>
<path d="M14 2H16V4H14V2Z" fill="#38454E"/>
<path d="M18 2H20V4H18V2Z" fill="#38454E"/>
<path d="M0 4H2V6H0V4Z" fill="#38454E"/>
<path d="M4 4H6V6H4V4Z" fill="#38454E"/>
<path d="M8 4H10V6H8V4Z" fill="#38454E"/>
<path d="M12 4H14V6H12V4Z" fill="#38454E"/>
<path d="M16 4H18V6H16V4Z" fill="#38454E"/>
<path d="M2 6H4V8H2V6Z" fill="#38454E"/>
<path d="M6 6H8V8H6V6Z" fill="#38454E"/>
<path d="M10 6H12V8H10V6Z" fill="#38454E"/>
<path d="M14 6H16V8H14V6Z" fill="#38454E"/>
<path d="M18 6H20V8H18V6Z" fill="#38454E"/>
<path d="M0 8H2V10H0V8Z" fill="#38454E"/>
<path d="M4 8H6V10H4V8Z" fill="#38454E"/>
<path d="M8 8H10V10H8V8Z" fill="#38454E"/>
<path d="M12 8H14V10H12V8Z" fill="#38454E"/>
<path d="M16 8H18V10H16V8Z" fill="#38454E"/>
<path d="M2 10H4V12H2V10Z" fill="#38454E"/>
<path d="M6 10H8V12H6V10Z" fill="#38454E"/>
<path d="M10 10H12V12H10V10Z" fill="#38454E"/>
<path d="M14 10H16V12H14V10Z" fill="#38454E"/>
<path d="M18 10H20V12H18V10Z" fill="#38454E"/>
<path d="M0 12H2V14H0V12Z" fill="#38454E"/>
<path d="M4 12H6V14H4V12Z" fill="#38454E"/>
<path d="M8 12H10V14H8V12Z" fill="#38454E"/>
<path d="M12 12H14V14H12V12Z" fill="#38454E"/>
<path d="M16 12H18V14H16V12Z" fill="#38454E"/>
<path d="M2 14H4V16H2V14Z" fill="#38454E"/>
<path d="M6 14H8V16H6V14Z" fill="#38454E"/>
<path d="M10 14H12V16H10V14Z" fill="#38454E"/>
<path d="M14 14H16V16H14V14Z" fill="#38454E"/>
<path d="M18 14H20V16H18V14Z" fill="#38454E"/>
</svg>
