<svg width="64" height="16" viewBox="0 0 64 16" fill="none" xmlns="http://www.w3.org/2000/svg">
<rect width="4" height="4" fill="white"/>
<rect y="8" width="4" height="4" fill="white"/>
<rect x="8" width="4" height="4" fill="white"/>
<rect x="8" y="8" width="4" height="4" fill="white"/>
<rect x="16" width="4" height="4" fill="white"/>
<rect x="16" y="8" width="4" height="4" fill="white"/>
<rect x="24" width="4" height="4" fill="white"/>
<rect x="24" y="8" width="4" height="4" fill="white"/>
<rect x="32" width="4" height="4" fill="white"/>
<rect x="32" y="8" width="4" height="4" fill="white"/>
<rect x="40" width="4" height="4" fill="white"/>
<rect x="40" y="8" width="4" height="4" fill="white"/>
<rect x="48" width="4" height="4" fill="white"/>
<rect x="48" y="8" width="4" height="4" fill="white"/>
<rect x="56" width="4" height="4" fill="white"/>
<rect x="56" y="8" width="4" height="4" fill="white"/>
<rect x="4" y="4" width="4" height="4" fill="white"/>
<rect x="4" y="12" width="4" height="4" fill="white"/>
<rect x="12" y="4" width="4" height="4" fill="white"/>
<rect x="12" y="12" width="4" height="4" fill="white"/>
<rect x="20" y="4" width="4" height="4" fill="white"/>
<rect x="20" y="12" width="4" height="4" fill="white"/>
<rect x="28" y="4" width="4" height="4" fill="white"/>
<rect x="28" y="12" width="4" height="4" fill="white"/>
<rect x="36" y="4" width="4" height="4" fill="white"/>
<rect x="36" y="12" width="4" height="4" fill="white"/>
<rect x="44" y="4" width="4" height="4" fill="white"/>
<rect x="44" y="12" width="4" height="4" fill="white"/>
<rect x="52" y="4" width="4" height="4" fill="white"/>
<rect x="52" y="12" width="4" height="4" fill="white"/>
<rect x="60" y="4" width="4" height="4" fill="white"/>
<rect x="60" y="12" width="4" height="4" fill="white"/>
</svg>
