<svg width="200" height="200" viewBox="0 0 200 200" fill="none" xmlns="http://www.w3.org/2000/svg">
<rect width="200" height="200" fill="#EFEDDE"/>
<path d="M137.388 50.0206V66.7821C128.225 56.4943 114.858 50.0206 99.9969 50.0206C72.3789 50.0206 50 72.3383 50 99.8679C50 127.397 72.383 149.715 99.9969 149.715C114.879 149.715 128.243 143.241 137.388 132.954V149.715H150V50H137.388V50.0206ZM126.441 126.233C119.38 133.273 109.983 137.147 100.001 137.147C90.019 137.147 80.6221 133.271 73.5615 126.233C66.5009 119.192 62.614 109.824 62.614 99.874C62.614 89.9244 66.503 80.5541 73.5615 73.5155C80.6221 66.4769 90.019 62.601 100.001 62.601C109.983 62.601 119.38 66.4769 126.441 73.5155C133.501 80.5541 137.388 89.9244 137.388 99.874C137.388 109.824 133.499 119.194 126.441 126.233V126.233Z" fill="#222222"/>
</svg>
