<svg width="200" height="200" viewBox="0 0 200 200" fill="none" xmlns="http://www.w3.org/2000/svg">
<rect width="200" height="200" fill="#44F4B3"/>
<path fill-rule="evenodd" clip-rule="evenodd" d="M131.994 71.9717C130.517 71.9717 129.064 72.0883 127.649 72.3099C127.867 70.9086 127.983 69.4719 127.983 68.0056C127.983 52.519 115.464 40 99.9773 40C84.4907 40 71.9716 52.519 71.9716 68.0056C71.9716 69.4687 72.088 70.9051 72.3032 72.3063C70.9025 72.0881 69.4689 71.9717 68.0055 71.9717C52.5654 71.9717 40 84.4899 40 99.9772C40 115.464 52.519 127.983 68.0055 127.983C69.4718 127.983 70.9086 127.867 72.3099 127.649C72.0882 129.064 71.9716 130.517 71.9716 131.994C71.9716 147.481 84.4907 160 99.9773 160C115.464 160 127.983 147.481 127.983 131.994C127.983 130.516 127.866 129.063 127.644 127.644C129.061 127.866 130.511 127.983 131.994 127.983C147.435 127.983 160 115.465 160 99.9772C160 84.4907 147.481 71.9717 131.994 71.9717ZM75.0497 67.9999V68.0056ZM123.555 73.2721C116.907 75.3681 111.342 79.8736 107.869 85.7647V71.9717H104V91.8018C102.687 92.0244 101.347 92.1424 99.9886 92.1424C98.631 92.1424 97.3187 92.0329 96.0225 91.8207V71.9717H92.1538V85.8008C88.674 79.8996 83.0939 75.3783 76.4435 73.2721C76.0532 71.547 75.8517 69.7825 75.8517 67.9999V67.2399C75.9415 64.2334 76.5632 61.3504 77.7439 58.6242L77.7463 58.6186L77.7487 58.613C78.9405 55.7406 80.7115 53.1745 82.9317 50.9544C85.1453 48.7408 87.7113 47.0162 90.5963 45.7689C93.5702 44.5281 96.7088 43.863 99.983 43.863C103.266 43.863 106.407 44.486 109.364 45.7666L109.37 45.769L109.376 45.7714C112.248 46.9631 114.814 48.7342 117.034 50.9544C119.249 53.1691 120.974 55.7368 122.222 58.6237C123.503 61.5868 124.125 64.7227 124.125 68.0056C124.125 69.8047 123.934 71.5642 123.555 73.2721ZM109.008 109.621C109.015 109.638 109.023 109.656 109.03 109.673L109.017 109.642C109.014 109.635 109.011 109.628 109.008 109.621ZM114.943 117.028C116.979 119.065 119.307 120.723 121.894 121.903C120.678 119.306 119.059 116.979 117.028 114.949C114.992 112.913 112.665 111.254 110.077 110.074C111.294 112.671 112.913 114.998 114.943 117.028ZM82.9203 114.949C84.9666 112.903 87.3142 111.274 89.9365 110.054C88.7556 112.651 87.0934 114.986 85.0511 117.028C83.0048 119.075 80.6572 120.703 78.0349 121.923C79.2158 119.326 80.878 116.991 82.9203 114.949ZM91.0666 90.5328C91.0518 90.4966 91.0369 90.4604 91.0218 90.4242L91.0261 90.4344C91.0397 90.4672 91.0532 90.5 91.0666 90.5328ZM85.0511 82.9317C87.1032 84.9838 88.735 87.3388 89.956 89.9701C87.3345 88.7875 84.9787 87.1152 82.9203 85.0568C80.8682 83.0047 79.2364 80.6497 78.0154 78.0184C80.6369 79.201 82.9927 80.8733 85.0511 82.9317ZM123.357 76.6511L123.341 76.6939L123.341 76.6941M123.357 76.6511C123.352 76.6655 123.346 76.6798 123.341 76.6941ZM114.937 82.9317C116.976 80.8936 119.313 79.27 121.922 78.0518C120.74 80.661 119.073 83.0064 117.023 85.0568C114.985 87.0949 112.648 88.7185 110.038 89.9367C111.22 87.3275 112.887 84.9821 114.937 82.9317ZM67.517 124.108L67.5136 124.115C64.4063 124.057 61.429 123.433 58.6185 122.216L58.6129 122.214L58.6073 122.211C55.7349 121.02 53.1688 119.249 50.9487 117.028C48.7351 114.815 47.0105 112.249 45.7631 109.364C44.5224 106.39 43.8573 103.251 43.8573 99.9772C43.8573 96.6941 44.4803 93.5527 45.7609 90.5958L45.7633 90.5903L45.7656 90.5846C46.9574 87.7123 48.7285 85.1462 50.9487 82.926C53.1623 80.7124 55.7283 78.9878 58.6134 77.7405C61.5873 76.4997 64.7257 75.8347 67.9999 75.8347C69.7932 75.8347 71.5472 76.0265 73.2542 76.4053C75.3459 83.0739 79.8531 88.6565 85.7615 92.1368H71.9716V96.0055H91.8063C92.0248 97.306 92.1424 98.6254 92.1424 99.9716C92.1424 101.323 92.0324 102.67 91.816 103.983H71.9716V107.852H85.7869C79.9025 111.32 75.3891 116.879 73.2839 123.516C71.5677 123.903 69.8071 124.108 68.0055 124.108H67.517ZM117.017 149.051C114.803 151.265 112.237 152.99 109.352 154.237C106.378 155.478 103.24 156.143 99.9659 156.143C96.6827 156.143 93.5413 155.52 90.5844 154.239L90.5789 154.237L90.5732 154.234C87.7009 153.043 85.1348 151.272 82.9146 149.051C80.701 146.838 78.9764 144.272 77.729 141.386C76.4886 138.413 75.8233 135.229 75.8233 132C75.8233 130.183 76.0157 128.412 76.4034 126.695C83.0588 124.598 88.6441 120.086 92.1254 114.179V127.989H95.9941V108.199C97.2946 107.981 98.614 107.863 99.9602 107.863C101.311 107.863 102.658 107.973 103.972 108.19V127.989H107.84V114.196C111.306 120.077 116.857 124.577 123.489 126.677C123.886 128.421 124.097 130.202 124.097 132V132.766C124.007 135.772 123.385 138.655 122.205 141.382L122.202 141.387L122.2 141.393C121.008 144.265 119.237 146.831 117.017 149.051ZM149.693 117.505C149.679 117.519 149.665 117.533 149.651 117.547C149.635 117.563 149.619 117.579 149.603 117.595L149.602 117.596L149.602 117.596L149.593 117.605M149.599 117.593L149.593 117.605ZM149.599 117.593C149.596 117.596 149.593 117.599 149.59 117.602C149.579 117.613 149.568 117.624 149.558 117.635M154.217 109.387C153.027 112.255 151.259 114.818 149.043 117.037L149.04 117.034C146.825 119.249 144.257 120.974 141.371 122.222C138.408 123.502 135.227 124.125 131.989 124.125C130.171 124.125 128.395 123.933 126.671 123.545C124.571 116.902 120.069 111.341 114.179 107.869H127.971V104H108.187C107.964 102.687 107.846 101.347 107.846 99.9886C107.846 98.631 107.956 97.3187 108.168 96.0225H127.971V92.1538H114.161C120.062 88.6751 124.57 83.0998 126.671 76.4547C128.399 76.0624 130.171 75.8518 131.983 75.8518C135.266 75.8518 138.408 76.4748 141.364 77.7553L141.37 77.7578L141.376 77.7601C144.248 78.9519 146.814 80.7229 149.034 82.9431C151.248 85.1567 152.972 87.7228 154.22 90.6078C155.461 93.5817 156.126 96.7202 156.126 99.9943C156.126 103.277 155.503 106.419 154.222 109.376L154.22 109.381L154.217 109.387ZM103.989 103.989H96.0111V96.0111H103.989V103.989Z" fill="#222222"/>
</svg>
